<svg width="1920" height="1080" viewBox="0 0 1920 1080" fill="none" xmlns="http://www.w3.org/2000/svg">
<g clip-path="url(#clip0_89_61)">
<rect width="1920" height="1080" fill="#FCFFD7"/>
<path d="M1689.28 861.672C1689.55 863.27 1690.44 864.696 1691.75 865.644C1693.07 866.592 1694.7 866.987 1696.31 866.742C1697.74 866.078 1698.89 864.935 1699.57 863.51C1700.24 862.085 1700.4 860.469 1700.01 858.94C1699.62 857.412 1698.71 856.069 1697.43 855.142C1696.15 854.216 1694.59 853.765 1693.02 853.868C1691.5 854.421 1690.25 855.548 1689.56 857.007C1688.86 858.466 1688.76 860.141 1689.28 861.672ZM1696.57 859.811C1697.01 861.551 1696.32 863.033 1695.42 863.263C1694.52 863.493 1693.2 862.531 1692.76 860.784C1692.31 859.037 1693.01 857.563 1693.9 857.334C1694.8 857.105 1696.12 858.065 1696.57 859.811ZM1692.62 873.92C1693.01 872.52 1692.95 871.031 1692.44 869.669C1691.93 868.307 1691 867.142 1689.79 866.341C1689.19 865.933 1688.5 865.674 1687.78 865.587C1687.06 865.501 1686.33 865.588 1685.65 865.841C1684.97 866.095 1684.36 866.508 1683.88 867.045C1683.39 867.583 1683.04 868.23 1682.85 868.931C1682.45 870.33 1682.51 871.824 1683.03 873.185C1683.43 874.504 1684.29 875.634 1685.46 876.364C1686.63 877.093 1688.03 877.372 1689.39 877.147C1689.53 877.11 1689.68 877.073 1689.82 877.014C1690.5 876.747 1691.1 876.33 1691.58 875.793C1692.07 875.257 1692.42 874.616 1692.62 873.92ZM1686.4 871.929C1686.15 871.316 1686.11 870.639 1686.27 870C1686.31 869.83 1686.39 869.671 1686.5 869.534C1686.61 869.397 1686.74 869.285 1686.9 869.207L1686.97 869.187C1687.3 869.139 1687.62 869.215 1687.89 869.401C1688.44 869.771 1688.85 870.308 1689.07 870.932C1689.32 871.545 1689.36 872.222 1689.19 872.861C1689.15 873.031 1689.07 873.189 1688.97 873.325C1688.86 873.462 1688.72 873.573 1688.57 873.651C1687.96 873.865 1686.87 873.198 1686.4 871.929ZM1702.48 858.301C1702.93 859.278 1703.64 860.106 1704.54 860.69C1705.45 861.274 1706.49 861.589 1707.57 861.598C1708.64 861.607 1709.69 861.31 1710.61 860.742C1711.52 860.173 1712.25 859.357 1712.71 858.388C1713.17 857.42 1713.35 856.339 1713.22 855.274C1713.09 854.208 1712.66 853.201 1711.98 852.371C1711.3 851.542 1710.39 850.923 1709.37 850.589C1708.35 850.255 1707.26 850.218 1706.22 850.483C1704.7 851.037 1703.45 852.166 1702.75 853.628C1702.05 855.09 1701.96 856.768 1702.48 858.301ZM1709.77 856.441C1710.21 858.181 1709.52 859.662 1708.62 859.892C1707.72 860.122 1706.41 859.16 1705.96 857.413C1705.52 855.667 1706.21 854.193 1707.11 853.963C1708.01 853.733 1709.32 854.695 1709.77 856.441ZM1721.83 858.394C1721.36 858.023 1720.81 857.75 1720.22 857.592C1719.64 857.434 1719.03 857.394 1718.43 857.474C1717 857.806 1715.77 858.689 1715 859.928C1714.23 861.168 1713.98 862.663 1714.3 864.086C1714.4 865.541 1715.06 866.899 1716.15 867.869C1717.24 868.839 1718.67 869.342 1720.12 869.272C1720.27 869.249 1720.42 869.218 1720.57 869.181C1721.87 868.727 1722.96 867.814 1723.64 866.613C1724.31 865.412 1724.53 864.005 1724.24 862.656C1724.03 860.975 1723.17 859.444 1721.83 858.394ZM1719.63 865.718C1718.96 865.815 1718.07 864.919 1717.87 863.572C1717.67 862.225 1718.28 861.117 1718.95 861.021C1719.22 861.001 1719.49 861.088 1719.7 861.264C1720.26 861.746 1720.63 862.427 1720.71 863.167C1720.88 864.515 1720.27 865.61 1719.61 865.722L1719.63 865.718ZM1716.85 871.537C1716.11 871.195 1715.41 870.763 1714.78 870.251C1710.58 866.281 1706.64 864.73 1703.07 865.642C1699.5 866.554 1696.79 869.803 1695.01 875.296C1694.7 876.051 1694.29 876.765 1693.8 877.422C1692.49 878.855 1691.7 880.698 1691.58 882.641C1691.46 884.583 1692.01 886.509 1693.14 888.094C1693.86 889.368 1694.91 890.428 1696.18 891.167C1697.45 891.906 1698.88 892.297 1700.35 892.302C1700.91 892.287 1701.47 892.208 1702.02 892.069C1703.64 891.702 1705.06 890.724 1705.98 889.338C1706.58 888.369 1707.53 887.67 1708.63 887.389C1709.74 887.107 1710.91 887.264 1711.89 887.828C1713.37 888.604 1715.08 888.782 1716.68 888.326C1717.23 888.186 1717.76 887.987 1718.26 887.73C1719.54 887.023 1720.62 885.99 1721.38 884.734C1722.13 883.479 1722.55 882.046 1722.57 880.581C1722.8 878.645 1722.35 876.69 1721.31 875.044C1720.27 873.398 1718.69 872.161 1716.84 871.541L1716.85 871.537ZM1718.97 880.261C1718.98 881.119 1718.77 881.964 1718.35 882.713C1717.94 883.463 1717.33 884.091 1716.6 884.537C1716.16 884.784 1715.67 884.931 1715.17 884.966C1714.66 885.001 1714.16 884.923 1713.69 884.739C1711.88 883.703 1709.75 883.411 1707.73 883.926C1705.72 884.44 1703.98 885.72 1702.9 887.493C1702.58 887.88 1702.17 888.191 1701.71 888.402C1701.25 888.613 1700.75 888.718 1700.25 888.711C1699.39 888.672 1698.56 888.41 1697.83 887.952C1697.11 887.494 1696.51 886.855 1696.11 886.098C1694.2 883.251 1695.28 881.646 1696.77 879.423C1696.77 879.421 1696.77 879.419 1696.77 879.418C1697.45 878.495 1698.01 877.48 1698.41 876.404C1699.36 873.487 1701.08 869.855 1703.94 869.125C1706.8 868.395 1710.07 870.753 1712.29 872.861C1713.16 873.61 1714.14 874.235 1715.18 874.718C1715.18 874.72 1715.18 874.721 1715.19 874.723C1717.56 875.964 1719.27 876.859 1718.96 880.269L1718.97 880.261ZM1629.1 834.762C1628.37 835.096 1627.74 835.593 1627.24 836.213C1626.73 836.833 1626.38 837.56 1626.21 838.338C1625.84 839.928 1626 841.595 1626.68 843.081C1627.18 844.484 1628.17 845.665 1629.45 846.42C1630.74 847.175 1632.25 847.455 1633.72 847.213C1633.97 847.151 1634.21 847.069 1634.44 846.967C1635.85 846.175 1636.9 844.86 1637.35 843.305C1637.81 841.749 1637.63 840.077 1636.87 838.648C1636.34 837.109 1635.23 835.839 1633.78 835.111C1632.33 834.384 1630.64 834.258 1629.1 834.762ZM1632.98 843.661C1632.1 844.065 1630.67 843.3 1629.96 841.646C1629.61 840.887 1629.51 840.035 1629.69 839.217C1629.74 838.973 1629.84 838.742 1629.98 838.541C1630.13 838.339 1630.32 838.173 1630.53 838.053C1630.59 838.033 1630.65 838.019 1630.7 838.009C1631.57 837.789 1632.89 838.534 1633.57 840.085C1634.29 841.718 1633.85 843.289 1633 843.658L1632.98 843.661ZM1631.95 854.63C1632.13 853.185 1631.82 851.721 1631.09 850.465C1630.46 849.147 1629.34 848.127 1627.98 847.625C1626.61 847.122 1625.09 847.177 1623.77 847.779C1622.58 848.618 1621.76 849.891 1621.5 851.322C1621.24 852.754 1621.55 854.231 1622.37 855.437C1623.07 856.712 1624.18 857.717 1625.52 858.297C1626.5 858.715 1627.58 858.806 1628.61 858.557C1628.99 858.462 1629.35 858.316 1629.69 858.123C1630.31 857.753 1630.83 857.246 1631.22 856.64C1631.61 856.034 1631.86 855.347 1631.95 854.63ZM1628.39 854.129C1628.4 854.308 1628.36 854.484 1628.27 854.641C1628.18 854.797 1628.06 854.926 1627.9 855.015C1627.75 855.103 1627.57 855.148 1627.39 855.143C1627.21 855.137 1627.04 855.083 1626.89 854.986C1626.29 854.711 1625.8 854.249 1625.48 853.667C1624.81 852.486 1624.96 851.231 1625.55 850.897C1625.61 850.864 1625.67 850.839 1625.73 850.823C1626.35 850.665 1627.36 851.179 1627.95 852.248C1628.3 852.81 1628.45 853.469 1628.4 854.128L1628.39 854.129ZM1641.58 829.309C1640.86 829.643 1640.23 830.14 1639.73 830.759C1639.22 831.378 1638.87 832.104 1638.7 832.881C1638.34 834.472 1638.5 836.135 1639.16 837.628C1639.81 839.122 1640.92 840.369 1642.33 841.191C1643.5 841.859 1644.88 842.057 1646.19 841.746C1646.44 841.682 1646.68 841.6 1646.91 841.499C1648.33 840.706 1649.37 839.39 1649.83 837.834C1650.28 836.278 1650.11 834.606 1649.34 833.177C1648.81 831.646 1647.71 830.384 1646.26 829.66C1644.81 828.937 1643.13 828.81 1641.59 829.307L1641.58 829.309ZM1645.47 838.205C1645.24 838.285 1644.99 838.311 1644.74 838.282C1644.49 838.254 1644.26 838.17 1644.05 838.039C1643.34 837.598 1642.78 836.954 1642.45 836.19C1642.11 835.426 1642.02 834.58 1642.18 833.761C1642.22 833.517 1642.32 833.286 1642.47 833.085C1642.62 832.884 1642.81 832.718 1643.03 832.599C1643.08 832.58 1643.14 832.566 1643.19 832.557C1644.06 832.337 1645.38 833.081 1646.05 834.629C1646.78 836.267 1646.33 837.83 1645.48 838.203L1645.47 838.205ZM1654.76 834.24C1654.08 834.469 1653.45 834.853 1652.94 835.363C1652.43 835.872 1652.04 836.493 1651.81 837.177C1651.34 838.555 1651.32 840.046 1651.76 841.433C1652.2 842.821 1653.06 844.034 1654.23 844.897C1654.79 845.299 1655.42 845.577 1656.09 845.711C1656.76 845.846 1657.45 845.835 1658.11 845.678L1658.34 845.62C1659.02 845.391 1659.65 845.007 1660.16 844.497C1660.67 843.988 1661.06 843.367 1661.3 842.683C1661.76 841.305 1661.78 839.814 1661.34 838.427C1660.91 837.039 1660.04 835.826 1658.87 834.963C1658.28 834.54 1657.61 834.255 1656.9 834.13C1656.19 834.004 1655.46 834.041 1654.77 834.238L1654.76 834.24ZM1657.93 841.43C1657.88 841.597 1657.79 841.751 1657.68 841.882C1657.56 842.013 1657.42 842.118 1657.26 842.189C1657.09 842.224 1656.91 842.22 1656.74 842.178C1656.58 842.136 1656.42 842.057 1656.28 841.946C1655.76 841.539 1655.38 840.985 1655.18 840.356C1654.99 839.728 1654.98 839.054 1655.17 838.424C1655.22 838.257 1655.31 838.103 1655.42 837.972C1655.54 837.841 1655.68 837.736 1655.84 837.664L1655.88 837.654C1656.04 837.63 1656.21 837.64 1656.37 837.683C1656.54 837.727 1656.69 837.803 1656.82 837.907C1657.34 838.3 1657.73 838.852 1657.91 839.48C1658.13 840.11 1658.14 840.793 1657.94 841.428L1657.93 841.43ZM1655.47 848.377C1654.68 848.159 1653.92 847.846 1653.2 847.446C1648.44 844.198 1644.3 843.323 1640.92 844.771C1637.54 846.22 1635.38 849.891 1634.52 855.601C1634.33 856.397 1634.04 857.167 1633.67 857.893C1632.6 859.52 1632.12 861.465 1632.32 863.401C1632.51 865.338 1633.36 867.15 1634.73 868.532C1635.66 869.674 1636.86 870.551 1638.23 871.076C1639.61 871.601 1641.09 871.754 1642.54 871.521C1642.69 871.482 1642.84 871.444 1642.98 871.407C1643.99 871.177 1644.93 870.722 1645.73 870.075C1646.53 869.429 1647.18 868.608 1647.61 867.675C1647.75 867.115 1648.04 866.602 1648.44 866.19C1648.85 865.777 1649.36 865.481 1649.91 865.331C1650.4 865.023 1650.96 864.851 1651.54 864.835C1652.11 864.818 1652.68 864.957 1653.19 865.237C1654.36 865.647 1655.63 865.687 1656.83 865.353C1657.77 865.111 1658.67 864.689 1659.45 864.112C1660.61 863.207 1661.5 862.013 1662.04 860.652C1662.59 859.291 1662.76 857.811 1662.55 856.36C1662.46 854.42 1661.71 852.569 1660.42 851.116C1659.14 849.663 1657.39 848.696 1655.47 848.376L1655.47 848.377ZM1658.96 856.646C1659.11 857.492 1659.04 858.36 1658.74 859.168C1658.45 859.975 1657.96 860.692 1657.31 861.25C1656.91 861.564 1656.46 861.786 1655.97 861.902C1655.48 862.017 1654.97 862.022 1654.48 861.916C1653.54 861.463 1652.5 861.24 1651.45 861.266C1650.41 861.292 1649.38 861.567 1648.46 862.066C1647.47 862.403 1646.57 862.969 1645.85 863.718C1645.12 864.467 1644.57 865.378 1644.26 866.377C1644.01 866.808 1643.66 867.177 1643.24 867.458C1642.83 867.739 1642.36 867.925 1641.86 868.003C1641.01 868.101 1640.15 867.976 1639.36 867.641C1638.57 867.306 1637.88 866.772 1637.36 866.091C1635.02 863.584 1635.82 861.826 1636.93 859.395C1636.93 859.394 1636.93 859.393 1636.93 859.391C1637.46 858.365 1637.84 857.269 1638.06 856.137C1638.52 853.106 1639.64 849.241 1642.35 848.06C1645.06 846.879 1648.65 848.676 1651.19 850.404C1652.17 851.004 1653.23 851.465 1654.34 851.775C1654.34 851.775 1654.34 851.775 1654.34 851.776C1656.89 852.622 1658.73 853.233 1658.97 856.645L1658.96 856.646ZM1669.54 785.774C1670.06 785.642 1670.55 785.424 1670.99 785.128C1672.25 784.099 1673.04 782.619 1673.22 781.007C1673.39 779.396 1672.92 777.781 1671.92 776.509C1671.03 775.142 1669.71 774.106 1668.17 773.563C1667.42 773.274 1666.62 773.169 1665.83 773.257C1665.03 773.345 1664.27 773.623 1663.6 774.067C1662.94 774.512 1662.39 775.11 1662 775.811C1661.62 776.512 1661.41 777.296 1661.39 778.096C1661.3 779.726 1661.75 781.339 1662.68 782.686C1663.37 783.838 1664.4 784.751 1665.63 785.302C1666.86 785.854 1668.22 786.018 1669.55 785.772L1669.54 785.774ZM1664.97 778.345C1664.98 778.1 1665.03 777.858 1665.14 777.638C1665.25 777.418 1665.41 777.225 1665.6 777.072C1665.71 776.997 1665.84 776.941 1665.97 776.908C1666.33 776.835 1666.69 776.862 1667.04 776.984C1667.82 777.279 1668.49 777.818 1668.94 778.523C1669.94 780.024 1669.77 781.644 1669 782.157C1668.23 782.669 1666.67 782.207 1665.67 780.707C1665.18 780.016 1664.94 779.185 1664.98 778.344L1664.97 778.345ZM1666.56 797.849C1667.2 797.689 1667.79 797.389 1668.29 796.97C1668.84 796.496 1669.27 795.902 1669.55 795.235C1669.83 794.567 1669.95 793.844 1669.91 793.122C1669.81 791.671 1669.26 790.287 1668.33 789.171C1667.39 788.055 1666.13 787.265 1664.72 786.915C1664.02 786.744 1663.29 786.736 1662.58 786.893C1661.87 787.05 1661.21 787.367 1660.65 787.82C1660.19 788.215 1659.81 788.696 1659.54 789.238C1659.26 789.779 1659.1 790.369 1659.05 790.974C1658.94 792.666 1659.5 794.334 1660.61 795.618C1661.53 796.747 1662.8 797.54 1664.22 797.872C1665 798.048 1665.8 798.04 1666.57 797.847L1666.56 797.849ZM1662.63 791.293C1662.64 791.022 1662.75 790.765 1662.95 790.577C1663.04 790.499 1663.16 790.443 1663.28 790.415C1663.5 790.368 1663.73 790.371 1663.95 790.424C1664.59 790.603 1665.15 790.969 1665.58 791.474C1666 791.979 1666.26 792.6 1666.32 793.255C1666.34 793.429 1666.32 793.605 1666.27 793.77C1666.21 793.936 1666.12 794.087 1666 794.213C1665.85 794.308 1665.69 794.37 1665.52 794.396C1665.34 794.422 1665.17 794.411 1665 794.363C1664.36 794.193 1663.79 793.819 1663.37 793.297C1662.88 792.745 1662.62 792.029 1662.63 791.291L1662.63 791.293ZM1677.75 778.063C1678.75 778.408 1679.83 778.458 1680.85 778.208C1681.38 778.075 1681.87 777.855 1682.32 777.559C1682.98 777.102 1683.52 776.501 1683.9 775.802C1684.28 775.103 1684.5 774.325 1684.54 773.529C1684.6 771.901 1684.15 770.294 1683.25 768.94C1682.34 767.586 1681.03 766.554 1679.5 765.993C1678.75 765.704 1677.95 765.598 1677.15 765.685C1676.36 765.773 1675.6 766.05 1674.93 766.494C1674.27 766.939 1673.72 767.537 1673.33 768.238C1672.95 768.939 1672.74 769.723 1672.72 770.523C1672.65 772.151 1673.1 773.759 1674 775.114C1674.91 776.469 1676.22 777.502 1677.75 778.063ZM1676.3 770.776C1676.3 770.531 1676.36 770.289 1676.47 770.069C1676.58 769.849 1676.74 769.656 1676.93 769.503C1677.04 769.428 1677.17 769.372 1677.3 769.338C1677.65 769.266 1678.02 769.292 1678.36 769.415C1679.14 769.725 1679.8 770.261 1680.26 770.954C1680.72 771.647 1680.97 772.464 1680.96 773.297C1680.97 773.547 1680.92 773.797 1680.81 774.021C1680.7 774.245 1680.53 774.436 1680.32 774.575C1680.11 774.714 1679.87 774.796 1679.62 774.813C1679.37 774.83 1679.12 774.782 1678.89 774.672C1678.11 774.38 1677.45 773.841 1677 773.137C1676.52 772.446 1676.27 771.616 1676.31 770.774L1676.3 770.776ZM1687.09 776.65C1687.62 777.82 1688.53 778.78 1689.67 779.379C1690.81 779.977 1692.11 780.181 1693.38 779.959C1693.7 779.877 1694.01 779.758 1694.3 779.604C1694.94 779.257 1695.48 778.768 1695.9 778.176C1696.31 777.585 1696.59 776.905 1696.7 776.191C1696.93 774.752 1696.69 773.277 1696 771.993C1695.77 771.284 1695.39 770.634 1694.89 770.087C1694.38 769.541 1693.77 769.111 1693.08 768.829C1692.39 768.546 1691.65 768.417 1690.91 768.452C1690.16 768.486 1689.44 768.682 1688.78 769.027C1688.12 769.371 1687.54 769.856 1687.09 770.447C1686.64 771.037 1686.32 771.72 1686.16 772.446C1686 773.172 1686 773.925 1686.16 774.651C1686.32 775.377 1686.64 776.059 1687.09 776.65ZM1690.44 772.221C1691.05 771.894 1692.18 772.455 1692.81 773.659C1693.13 774.238 1693.25 774.904 1693.16 775.559C1693.15 775.733 1693.09 775.902 1693 776.053C1692.91 776.204 1692.79 776.333 1692.65 776.432C1692.08 776.772 1690.91 776.2 1690.28 774.998C1689.65 773.796 1689.84 772.522 1690.44 772.21L1690.44 772.221ZM1700.35 789.466C1699.92 787.568 1698.86 785.873 1697.34 784.665C1695.82 783.456 1693.92 782.807 1691.98 782.825C1691.16 782.75 1690.36 782.576 1689.59 782.305C1684.31 779.945 1680.08 779.806 1677.02 781.851C1673.96 783.9 1672.49 787.868 1672.64 793.637C1672.58 794.45 1672.43 795.252 1672.17 796.025C1671.62 797.546 1671.49 799.186 1671.78 800.778C1672.07 802.369 1672.78 803.855 1673.83 805.084C1674.88 806.314 1676.24 807.243 1677.76 807.777C1679.29 808.311 1680.93 808.432 1682.52 808.126C1683.72 807.818 1684.82 807.203 1685.72 806.342C1686.61 805.481 1687.27 804.403 1687.62 803.214C1687.66 802.64 1687.85 802.087 1688.18 801.612C1688.5 801.138 1688.95 800.76 1689.47 800.517C1689.9 800.127 1690.42 799.858 1690.99 799.74C1691.55 799.622 1692.14 799.658 1692.69 799.846C1693.49 799.989 1694.32 799.953 1695.1 799.74C1696.46 799.381 1697.68 798.654 1698.64 797.639C1699.62 796.545 1700.29 795.212 1700.59 793.775C1700.89 792.338 1700.81 790.848 1700.34 789.455L1700.35 789.466ZM1696.04 795.168C1695.71 795.545 1695.3 795.844 1694.84 796.044C1694.37 796.243 1693.87 796.337 1693.37 796.32C1692.36 796.042 1691.3 796.007 1690.28 796.217C1689.25 796.428 1688.29 796.877 1687.47 797.529C1686.56 798.035 1685.78 798.75 1685.19 799.615C1684.6 800.481 1684.23 801.473 1684.1 802.511C1683.92 802.978 1683.65 803.4 1683.29 803.748C1682.93 804.096 1682.5 804.361 1682.02 804.524C1681.2 804.778 1680.33 804.811 1679.49 804.62C1678.66 804.429 1677.88 804.021 1677.25 803.437C1674.51 801.387 1674.99 799.516 1675.65 796.93C1675.66 796.927 1675.66 796.924 1675.66 796.921C1675.99 795.82 1676.18 794.679 1676.2 793.528C1676.12 790.461 1676.54 786.462 1678.99 784.82C1681.44 783.174 1685.3 784.322 1688.11 785.57C1689.18 785.987 1690.3 786.253 1691.45 786.363C1691.45 786.363 1691.45 786.364 1691.46 786.364C1694.1 786.743 1696.01 787.017 1696.86 790.333C1697.16 791.141 1697.24 792.011 1697.09 792.859C1696.95 793.707 1696.59 794.502 1696.04 795.168ZM1604.33 788.978C1605.11 788.782 1605.83 788.392 1606.42 787.843C1606.99 787.286 1607.43 786.606 1607.7 785.854C1607.96 785.102 1608.05 784.299 1607.96 783.507C1607.78 781.891 1607.07 780.379 1605.95 779.203C1604.94 777.934 1603.47 777.112 1601.87 776.912C1600.26 776.712 1598.64 777.15 1597.35 778.133C1596.28 779.351 1595.73 780.94 1595.82 782.558C1595.91 784.176 1596.63 785.695 1597.83 786.787C1598.62 787.694 1599.64 788.375 1600.78 788.76C1601.92 789.145 1603.15 789.22 1604.33 788.978ZM1599.8 780.743C1599.95 780.604 1600.14 780.506 1600.35 780.458C1600.9 780.387 1601.46 780.458 1601.98 780.666C1602.5 780.874 1602.96 781.211 1603.31 781.645C1603.89 782.244 1604.26 783.016 1604.37 783.846C1604.41 784.091 1604.39 784.342 1604.32 784.58C1604.25 784.818 1604.12 785.037 1603.96 785.222C1603.28 785.843 1601.66 785.645 1600.43 784.328C1599.2 783.011 1599.12 781.38 1599.8 780.743ZM1600.51 790.623C1599.79 790.566 1599.07 790.676 1598.4 790.944C1597.73 791.212 1597.13 791.632 1596.65 792.17C1595.8 793.357 1595.45 794.83 1595.68 796.271C1595.91 797.711 1596.7 799.004 1597.87 799.87C1598.96 800.834 1600.34 801.411 1601.8 801.514C1602.33 801.543 1602.86 801.493 1603.37 801.364C1604.26 801.146 1605.06 800.658 1605.67 799.966C1606.51 798.779 1606.86 797.306 1606.63 795.866C1606.4 794.426 1605.62 793.133 1604.44 792.266C1603.35 791.299 1601.97 790.721 1600.51 790.623ZM1602.95 797.617C1602.82 797.737 1602.67 797.827 1602.5 797.88C1602.34 797.934 1602.16 797.949 1601.99 797.926C1601.33 797.867 1600.71 797.594 1600.22 797.15C1599.19 796.264 1598.94 795.025 1599.36 794.516C1599.48 794.382 1599.65 794.289 1599.82 794.249C1599.99 794.211 1600.16 794.196 1600.32 794.207C1600.98 794.269 1601.6 794.541 1602.09 794.983C1603.12 795.863 1603.39 797.104 1602.94 797.62L1602.95 797.617ZM1612.72 779.857C1613.24 779.877 1613.76 779.822 1614.26 779.694C1615.05 779.496 1615.78 779.101 1616.38 778.545C1616.95 777.989 1617.39 777.31 1617.65 776.56C1617.92 775.809 1618.01 775.007 1617.92 774.216C1617.72 772.598 1617.02 771.083 1615.91 769.892C1614.8 768.7 1613.33 767.892 1611.73 767.586C1610.95 767.422 1610.14 767.449 1609.37 767.665C1608.6 767.88 1607.89 768.278 1607.31 768.824C1606.72 769.369 1606.28 770.048 1606.01 770.802C1605.74 771.556 1605.66 772.363 1605.77 773.155C1605.95 774.772 1606.65 776.285 1607.78 777.46C1609.05 778.88 1610.82 779.742 1612.72 779.857ZM1609.75 771.449C1609.91 771.306 1610.1 771.205 1610.31 771.155C1610.59 771.09 1610.88 771.082 1611.16 771.132C1611.97 771.31 1612.71 771.732 1613.28 772.342C1613.85 772.951 1614.22 773.718 1614.34 774.543C1614.38 774.789 1614.36 775.04 1614.29 775.279C1614.22 775.517 1614.09 775.736 1613.93 775.92C1613.78 776.047 1613.61 776.143 1613.42 776.203C1613.23 776.263 1613.04 776.285 1612.84 776.268C1611.9 776.183 1611.03 775.742 1610.41 775.035C1609.83 774.436 1609.46 773.664 1609.35 772.835C1609.31 772.588 1609.32 772.335 1609.4 772.096C1609.47 771.856 1609.59 771.635 1609.75 771.449ZM1627 779.354C1627.55 779.215 1628.07 778.968 1628.53 778.627C1629.61 777.646 1630.26 776.281 1630.34 774.825C1630.42 773.369 1629.93 771.939 1628.97 770.844C1628.18 769.61 1626.95 768.734 1625.53 768.403C1624.11 768.073 1622.61 768.315 1621.37 769.078C1620.29 770.058 1619.64 771.424 1619.55 772.88C1619.47 774.336 1619.97 775.766 1620.93 776.861C1621.59 777.823 1622.51 778.571 1623.59 779.014C1624.67 779.457 1625.86 779.575 1627 779.354ZM1623.52 771.962C1624.06 771.554 1625.28 771.911 1626.09 772.996C1626.91 774.082 1626.91 775.348 1626.37 775.753C1625.83 776.158 1624.62 775.805 1623.8 774.719C1622.99 773.634 1622.99 772.366 1623.52 771.962ZM1624.29 782.062C1618.71 780.589 1614.51 781.121 1611.81 783.639C1609.12 786.157 1608.3 790.306 1609.38 795.979C1609.47 796.792 1609.46 797.614 1609.34 798.424C1608.88 800.314 1609.07 802.306 1609.9 804.068C1610.73 805.83 1612.14 807.254 1613.89 808.101C1615.85 809.239 1618.16 809.592 1620.37 809.088C1621.03 808.922 1621.65 808.667 1622.24 808.33C1623.21 807.794 1624.03 807.032 1624.64 806.108C1625.26 805.185 1625.64 804.128 1625.75 803.027C1625.69 802.452 1625.79 801.872 1626.03 801.349C1626.28 800.825 1626.66 800.377 1627.14 800.052C1627.49 799.598 1627.97 799.249 1628.51 799.042C1629.04 798.835 1629.63 798.777 1630.2 798.874C1631.31 798.834 1632.39 798.527 1633.35 797.979C1634.31 797.431 1635.13 796.658 1635.73 795.727C1636.52 794.49 1636.96 793.068 1637.03 791.604C1637.09 790.14 1636.76 788.686 1636.08 787.388C1635.35 785.582 1634.03 784.079 1632.33 783.132C1630.63 782.186 1628.65 781.852 1626.73 782.188C1625.92 782.245 1625.1 782.203 1624.29 782.062ZM1632.79 788.825C1633.21 789.573 1633.42 790.417 1633.42 791.274C1633.41 792.131 1633.19 792.972 1632.76 793.714C1632.49 794.141 1632.14 794.504 1631.71 794.775C1631.29 795.047 1630.81 795.22 1630.31 795.284C1629.27 795.172 1628.22 795.308 1627.24 795.68C1626.27 796.053 1625.39 796.652 1624.69 797.427C1623.87 798.073 1623.21 798.905 1622.77 799.855C1622.33 800.805 1622.12 801.845 1622.16 802.89C1622.06 803.383 1621.85 803.847 1621.56 804.251C1621.26 804.654 1620.87 804.987 1620.43 805.226C1619.66 805.602 1618.8 805.772 1617.94 805.718C1617.08 805.664 1616.25 805.389 1615.53 804.919C1612.5 803.338 1612.67 801.411 1612.91 798.749C1613.06 797.608 1613.06 796.451 1612.9 795.312C1612.32 792.297 1612.09 788.283 1614.25 786.267C1615.61 785.451 1617.14 784.961 1618.72 784.834C1620.3 784.708 1621.89 784.949 1623.37 785.538C1624.49 785.773 1625.64 785.853 1626.79 785.775C1626.8 785.775 1626.81 785.775 1626.82 785.775C1629.49 785.722 1631.42 785.683 1632.79 788.825Z" fill="#3E2029"/>
<path d="M1632.79 788.825C1633.21 789.573 1633.42 790.417 1633.42 791.274C1633.41 792.131 1633.19 792.972 1632.76 793.714C1632.49 794.141 1632.14 794.504 1631.71 794.775C1631.29 795.047 1630.81 795.22 1630.31 795.284C1629.27 795.172 1628.22 795.308 1627.24 795.68C1626.27 796.053 1625.39 796.652 1624.69 797.427C1623.87 798.073 1623.21 798.905 1622.77 799.855C1622.33 800.805 1622.12 801.845 1622.16 802.89C1622.06 803.383 1621.85 803.847 1621.56 804.251C1621.26 804.654 1620.87 804.987 1620.43 805.226C1619.66 805.602 1618.8 805.772 1617.94 805.718C1617.08 805.664 1616.25 805.389 1615.53 804.919C1612.5 803.338 1612.67 801.411 1612.91 798.749C1613.06 797.608 1613.06 796.451 1612.9 795.312C1612.32 792.297 1612.09 788.283 1614.25 786.267C1615.61 785.451 1617.14 784.961 1618.72 784.834C1620.3 784.708 1621.89 784.949 1623.37 785.538C1624.49 785.773 1625.64 785.853 1626.79 785.775L1626.82 785.775C1629.49 785.722 1631.42 785.683 1632.79 788.825Z" fill="#3E2029"/>
<path d="M1696.04 795.168C1695.71 795.545 1695.3 795.844 1694.84 796.044C1694.37 796.243 1693.87 796.337 1693.37 796.32C1692.36 796.042 1691.3 796.007 1690.28 796.217C1689.25 796.428 1688.29 796.877 1687.47 797.529C1686.56 798.035 1685.78 798.75 1685.19 799.615C1684.6 800.481 1684.23 801.473 1684.1 802.511C1683.92 802.978 1683.65 803.4 1683.29 803.748C1682.93 804.096 1682.5 804.361 1682.02 804.524C1681.2 804.778 1680.33 804.811 1679.49 804.62C1678.66 804.429 1677.88 804.021 1677.25 803.437C1674.51 801.387 1674.99 799.516 1675.65 796.93L1675.66 796.921C1675.99 795.82 1676.18 794.679 1676.2 793.528C1676.12 790.461 1676.54 786.462 1678.99 784.82C1681.44 783.174 1685.3 784.322 1688.11 785.57C1689.18 785.987 1690.3 786.253 1691.45 786.363L1691.46 786.364C1694.1 786.743 1696.01 787.017 1696.86 790.333C1697.16 791.141 1697.24 792.011 1697.09 792.859C1696.95 793.707 1696.59 794.502 1696.04 795.168Z" fill="#3E2029"/>
<path d="M1664.97 778.345C1664.98 778.1 1665.03 777.858 1665.14 777.638C1665.25 777.418 1665.41 777.225 1665.6 777.072C1665.71 776.997 1665.84 776.941 1665.97 776.908C1666.33 776.835 1666.69 776.862 1667.04 776.984C1667.82 777.279 1668.49 777.818 1668.94 778.523C1669.94 780.024 1669.77 781.644 1669 782.157C1668.23 782.669 1666.67 782.207 1665.67 780.707C1665.18 780.016 1664.94 779.185 1664.98 778.344L1664.97 778.345Z" fill="#3E2029"/>
<path d="M1662.63 791.293C1662.64 791.022 1662.75 790.765 1662.95 790.577C1663.04 790.499 1663.16 790.443 1663.28 790.415C1663.5 790.368 1663.73 790.371 1663.95 790.424C1664.59 790.603 1665.15 790.969 1665.58 791.474C1666 791.979 1666.26 792.6 1666.32 793.255C1666.34 793.429 1666.32 793.605 1666.27 793.77C1666.21 793.936 1666.12 794.087 1666 794.213C1665.85 794.308 1665.69 794.37 1665.52 794.396C1665.34 794.422 1665.17 794.411 1665 794.363C1664.36 794.193 1663.79 793.819 1663.37 793.297C1662.88 792.745 1662.62 792.029 1662.63 791.291L1662.63 791.293Z" fill="#3E2029"/>
<path d="M1676.3 770.776C1676.3 770.531 1676.36 770.289 1676.47 770.069C1676.58 769.849 1676.74 769.656 1676.93 769.503C1677.04 769.428 1677.17 769.372 1677.3 769.338C1677.65 769.266 1678.02 769.292 1678.36 769.415C1679.14 769.725 1679.8 770.261 1680.26 770.954C1680.72 771.647 1680.97 772.464 1680.96 773.297C1680.97 773.547 1680.92 773.797 1680.81 774.021C1680.7 774.245 1680.53 774.436 1680.32 774.575C1680.11 774.714 1679.87 774.796 1679.62 774.813C1679.37 774.83 1679.12 774.782 1678.89 774.672C1678.11 774.38 1677.45 773.841 1677 773.137C1676.52 772.446 1676.27 771.616 1676.31 770.774L1676.3 770.776Z" fill="#3E2029"/>
<path d="M1690.44 772.221C1691.05 771.894 1692.18 772.455 1692.81 773.659C1693.13 774.238 1693.25 774.904 1693.16 775.559C1693.15 775.733 1693.09 775.902 1693 776.053C1692.91 776.204 1692.79 776.333 1692.65 776.432C1692.08 776.772 1690.91 776.2 1690.28 774.998C1689.65 773.796 1689.84 772.522 1690.44 772.21L1690.44 772.221Z" fill="#3E2029"/>
<path d="M1609.75 771.449C1609.91 771.306 1610.1 771.205 1610.31 771.155C1610.59 771.09 1610.88 771.082 1611.16 771.132C1611.97 771.31 1612.71 771.732 1613.28 772.342C1613.85 772.951 1614.22 773.718 1614.34 774.543C1614.38 774.789 1614.36 775.04 1614.29 775.279C1614.22 775.517 1614.09 775.736 1613.93 775.92C1613.78 776.047 1613.61 776.143 1613.42 776.203C1613.23 776.263 1613.04 776.285 1612.84 776.268C1611.9 776.183 1611.03 775.742 1610.41 775.035C1609.83 774.436 1609.46 773.664 1609.35 772.835C1609.31 772.588 1609.32 772.335 1609.4 772.096C1609.47 771.856 1609.59 771.635 1609.75 771.449Z" fill="#3E2029"/>
<path d="M1623.52 771.962C1624.06 771.554 1625.28 771.911 1626.09 772.996C1626.91 774.082 1626.91 775.348 1626.37 775.753C1625.83 776.158 1624.62 775.805 1623.8 774.719C1622.99 773.634 1622.99 772.366 1623.52 771.962Z" fill="#3E2029"/>
<path d="M1599.8 780.743C1599.95 780.604 1600.14 780.506 1600.35 780.458C1600.9 780.387 1601.46 780.458 1601.98 780.666C1602.5 780.874 1602.96 781.211 1603.31 781.645C1603.89 782.244 1604.26 783.016 1604.37 783.846C1604.41 784.091 1604.39 784.342 1604.32 784.58C1604.25 784.818 1604.12 785.037 1603.96 785.222C1603.28 785.843 1601.66 785.645 1600.43 784.328C1599.2 783.011 1599.12 781.38 1599.8 780.743Z" fill="#3E2029"/>
<path d="M1602.95 797.617C1602.82 797.737 1602.67 797.827 1602.5 797.88C1602.34 797.934 1602.16 797.949 1601.99 797.926C1601.33 797.867 1600.71 797.594 1600.22 797.15C1599.19 796.264 1598.94 795.025 1599.36 794.516C1599.48 794.382 1599.65 794.289 1599.82 794.249C1599.99 794.211 1600.16 794.196 1600.32 794.207C1600.98 794.269 1601.6 794.541 1602.09 794.983C1603.12 795.863 1603.39 797.104 1602.94 797.62L1602.95 797.617Z" fill="#3E2029"/>
<path d="M1645.47 838.205C1645.24 838.285 1644.99 838.311 1644.74 838.282C1644.49 838.254 1644.26 838.17 1644.05 838.039C1643.34 837.598 1642.78 836.954 1642.45 836.19C1642.11 835.426 1642.02 834.58 1642.18 833.761C1642.22 833.517 1642.32 833.286 1642.47 833.085C1642.62 832.884 1642.81 832.718 1643.03 832.599C1643.08 832.58 1643.14 832.566 1643.19 832.557C1644.06 832.337 1645.38 833.081 1646.05 834.629C1646.78 836.267 1646.33 837.83 1645.48 838.203L1645.47 838.205Z" fill="#3E2029"/>
<path d="M1657.93 841.43C1657.88 841.597 1657.79 841.751 1657.68 841.882C1657.56 842.013 1657.42 842.118 1657.26 842.189C1657.09 842.224 1656.91 842.22 1656.74 842.178C1656.58 842.136 1656.42 842.057 1656.28 841.946C1655.76 841.539 1655.38 840.985 1655.18 840.356C1654.99 839.728 1654.98 839.054 1655.17 838.424C1655.22 838.257 1655.31 838.103 1655.42 837.972C1655.54 837.841 1655.68 837.736 1655.84 837.664L1655.88 837.654C1656.04 837.63 1656.21 837.64 1656.37 837.683C1656.54 837.727 1656.69 837.803 1656.82 837.907C1657.34 838.3 1657.73 838.852 1657.91 839.48C1658.13 840.11 1658.14 840.793 1657.94 841.428L1657.93 841.43Z" fill="#3E2029"/>
<path d="M1658.96 856.646C1659.11 857.492 1659.04 858.36 1658.74 859.168C1658.45 859.975 1657.96 860.692 1657.31 861.25C1656.91 861.564 1656.46 861.786 1655.97 861.902C1655.48 862.017 1654.97 862.022 1654.48 861.916C1653.54 861.463 1652.5 861.24 1651.45 861.266C1650.41 861.292 1649.38 861.567 1648.46 862.066C1647.47 862.403 1646.57 862.969 1645.85 863.718C1645.12 864.467 1644.57 865.378 1644.26 866.377C1644.01 866.808 1643.66 867.177 1643.24 867.458C1642.83 867.739 1642.36 867.925 1641.86 868.003C1641.01 868.101 1640.15 867.976 1639.36 867.641C1638.57 867.306 1637.88 866.772 1637.36 866.091C1635.02 863.584 1635.82 861.826 1636.93 859.395L1636.93 859.391C1637.46 858.365 1637.84 857.269 1638.06 856.137C1638.52 853.106 1639.64 849.241 1642.35 848.06C1645.06 846.879 1648.65 848.676 1651.19 850.404C1652.17 851.004 1653.23 851.465 1654.34 851.775L1654.34 851.776C1656.89 852.622 1658.73 853.233 1658.97 856.645L1658.96 856.646Z" fill="#3E2029"/>
<path d="M1632.98 843.661C1632.1 844.065 1630.67 843.3 1629.96 841.646C1629.61 840.887 1629.51 840.035 1629.69 839.217C1629.74 838.973 1629.84 838.742 1629.98 838.541C1630.13 838.339 1630.32 838.173 1630.53 838.053C1630.59 838.033 1630.65 838.019 1630.7 838.009C1631.57 837.789 1632.89 838.534 1633.57 840.085C1634.29 841.718 1633.85 843.289 1633 843.658L1632.98 843.661Z" fill="#3E2029"/>
<path d="M1628.39 854.129C1628.4 854.308 1628.36 854.484 1628.27 854.641C1628.18 854.797 1628.06 854.926 1627.9 855.015C1627.75 855.103 1627.57 855.148 1627.39 855.143C1627.21 855.137 1627.04 855.083 1626.89 854.986C1626.29 854.711 1625.8 854.249 1625.48 853.667C1624.81 852.486 1624.96 851.231 1625.55 850.897C1625.61 850.864 1625.67 850.839 1625.73 850.823C1626.35 850.665 1627.36 851.179 1627.95 852.248C1628.3 852.81 1628.45 853.469 1628.4 854.128L1628.39 854.129Z" fill="#3E2029"/>
<path d="M1686.4 871.929C1686.15 871.316 1686.11 870.639 1686.27 870C1686.31 869.83 1686.39 869.671 1686.5 869.534C1686.61 869.397 1686.74 869.285 1686.9 869.207L1686.97 869.187C1687.3 869.139 1687.62 869.215 1687.89 869.401C1688.44 869.771 1688.85 870.308 1689.07 870.932C1689.32 871.545 1689.36 872.222 1689.19 872.861C1689.15 873.031 1689.07 873.189 1688.97 873.325C1688.86 873.462 1688.72 873.573 1688.57 873.651C1687.96 873.865 1686.87 873.198 1686.4 871.929Z" fill="#3E2029"/>
<path d="M1696.57 859.811C1697.01 861.551 1696.32 863.033 1695.42 863.263C1694.52 863.493 1693.2 862.531 1692.76 860.784C1692.31 859.037 1693.01 857.563 1693.9 857.334C1694.8 857.105 1696.12 858.065 1696.57 859.811Z" fill="#3E2029"/>
<path d="M1718.97 880.261C1718.98 881.119 1718.77 881.964 1718.35 882.713C1717.94 883.463 1717.33 884.091 1716.6 884.537C1716.16 884.784 1715.67 884.931 1715.17 884.966C1714.66 885.001 1714.16 884.923 1713.69 884.739C1711.88 883.703 1709.75 883.411 1707.73 883.926C1705.72 884.44 1703.98 885.72 1702.9 887.493C1702.58 887.88 1702.17 888.191 1701.71 888.402C1701.25 888.613 1700.75 888.718 1700.25 888.711C1699.39 888.672 1698.56 888.41 1697.83 887.952C1697.11 887.494 1696.51 886.855 1696.11 886.098C1694.2 883.251 1695.28 881.646 1696.77 879.423L1696.77 879.418C1697.45 878.495 1698.01 877.48 1698.41 876.404C1699.36 873.487 1701.08 869.855 1703.94 869.125C1706.8 868.395 1710.07 870.753 1712.29 872.861C1713.16 873.61 1714.14 874.235 1715.18 874.718L1715.19 874.723C1717.56 875.964 1719.27 876.859 1718.96 880.269L1718.97 880.261Z" fill="#3E2029"/>
<path d="M1709.77 856.441C1710.21 858.181 1709.52 859.662 1708.62 859.892C1707.72 860.122 1706.41 859.16 1705.96 857.413C1705.52 855.667 1706.21 854.193 1707.11 853.963C1708.01 853.733 1709.32 854.695 1709.77 856.441Z" fill="#3E2029"/>
<path d="M1719.63 865.718C1718.96 865.815 1718.07 864.919 1717.87 863.572C1717.67 862.225 1718.28 861.117 1718.95 861.021C1719.22 861.001 1719.49 861.088 1719.7 861.264C1720.26 861.746 1720.63 862.427 1720.71 863.167C1720.88 864.515 1720.27 865.61 1719.61 865.722L1719.63 865.718Z" fill="#3E2029"/>
<path d="M-127 -169.5L613.5 -52C82.5 22 447.5 344.5 228 395C8.5 445.5 -127 572.5 -127 572.5V-169.5Z" fill="#3D2B2C"/>
<path d="M2532.79 720.629L1646.14 1249.38C1929 847.288 1695.81 547.032 1660.61 289.009C1625.4 30.9858 1810.23 -121.996 1810.23 -121.996L2532.79 720.629Z" fill="#3D2B2C"/>
<path d="M149.105 715.781C148.975 715.807 148.867 715.861 148.737 715.887C148.613 715.921 148.491 715.961 148.372 716.007C143.606 717.135 139.443 720.02 136.713 724.086L136.716 724.101C135.294 726.228 134.306 728.616 133.809 731.125C133.311 733.635 133.314 736.219 133.818 738.728L135.342 746.369C135.548 747.379 136.145 748.266 137.004 748.837C137.862 749.407 138.912 749.614 139.923 749.412L166.67 744.076L175.833 790.002C165.261 801.138 156.79 810.177 153.652 814.88C151.362 818.324 150.534 822.536 151.348 826.591L169.658 918.287C171.335 926.693 179.585 932.198 187.992 930.521L340.804 900.033C349.21 898.355 354.716 890.106 353.039 881.7L334.759 789.998C333.921 785.795 331.446 782.276 328.137 780.068C322.976 776.624 311.844 771.765 298.174 765.943L286.658 708.218C284.56 697.703 274.256 690.828 263.741 692.926L149.261 715.766L149.105 715.781ZM150.648 723.435C157.068 722.154 163.102 726.195 164.383 732.613L165.145 736.434L142.222 741.024L141.46 737.203C140.819 733.993 141.507 730.869 143.167 728.392C144.026 727.114 145.129 726.018 146.413 725.167C147.697 724.316 149.136 723.728 150.648 723.435ZM165.81 720.41L265.265 700.567C271.685 699.287 277.735 703.324 279.015 709.743L298.207 805.935L256.486 850.571C253.023 854.282 249.362 855.012 244.74 852.915L191.525 828.825L173.69 739.433C173.684 739.398 173.676 739.362 173.669 739.326C173.653 738.914 173.572 738.506 173.428 738.119L172.022 731.073C171.164 726.771 168.872 723.129 165.81 720.41ZM207.177 728.048L191.957 731.101C191.444 731.192 190.954 731.385 190.516 731.669C190.079 731.953 189.703 732.321 189.41 732.753C188.978 733.399 188.749 734.159 188.752 734.936C188.755 735.713 188.99 736.471 189.427 737.114C189.865 737.756 190.484 738.253 191.206 738.54C191.928 738.828 192.72 738.893 193.479 738.727L208.702 735.69C209.715 735.488 210.607 734.891 211.181 734.032C211.754 733.172 211.963 732.12 211.761 731.107C211.558 730.093 210.962 729.202 210.102 728.628C209.243 728.055 208.191 727.846 207.177 728.048ZM210.165 743.344C209.653 743.438 209.164 743.634 208.728 743.92C208.293 744.206 207.919 744.577 207.629 745.01C207.196 745.656 206.967 746.417 206.97 747.195C206.974 747.972 207.21 748.731 207.648 749.374C208.087 750.016 208.707 750.513 209.43 750.799C210.153 751.086 210.946 751.15 211.705 750.982L265.185 740.312C266.198 740.11 267.09 739.514 267.664 738.654C268.237 737.795 268.446 736.743 268.244 735.729C268.042 734.716 267.445 733.824 266.586 733.251C265.726 732.677 264.674 732.469 263.66 732.671L210.165 743.344ZM197.93 761.676C197.418 761.77 196.929 761.966 196.493 762.252C196.058 762.539 195.684 762.909 195.394 763.342C194.961 763.989 194.732 764.75 194.735 765.527C194.739 766.305 194.975 767.064 195.413 767.706C195.852 768.349 196.472 768.845 197.195 769.132C197.918 769.419 198.711 769.482 199.47 769.315L268.234 755.596C269.248 755.393 270.139 754.797 270.713 753.937C271.286 753.078 271.495 752.026 271.293 751.012C271.091 749.999 270.494 749.108 269.635 748.534C268.775 747.96 267.723 747.752 266.71 747.954L197.93 761.676ZM219.863 773.907C216.943 774.461 214.163 775.591 211.685 777.232C209.208 778.872 207.081 780.99 205.431 783.461L205.367 783.537C205.333 783.583 205.3 783.629 205.268 783.676L205.213 783.64C203.551 786.128 202.396 788.92 201.813 791.855C201.23 794.79 201.232 797.811 201.817 800.745C202.403 803.679 203.561 806.47 205.225 808.956C206.889 811.443 209.027 813.578 211.517 815.238L214.67 817.342L246.224 838.285C246.65 838.57 247.128 838.768 247.63 838.868C248.133 838.968 248.65 838.968 249.153 838.867C249.656 838.767 250.134 838.569 250.559 838.283C250.985 837.998 251.35 837.632 251.634 837.205L272.738 805.772L274.84 802.604C276.5 800.115 277.654 797.323 278.235 794.387C278.817 791.452 278.814 788.431 278.227 785.497C277.64 782.563 276.481 779.773 274.815 777.287C273.15 774.801 271.011 772.668 268.52 771.009C263.483 767.687 257.34 766.483 251.421 767.657C245.502 768.832 240.285 772.292 236.899 777.286L236.969 777.32C236.969 777.32 236.95 777.347 236.886 777.304C231.871 773.997 225.763 772.778 219.863 773.907ZM221.326 781.402C225.063 780.696 229.099 781.448 232.625 783.788L235.763 785.895C236.623 786.469 237.675 786.677 238.688 786.475C239.701 786.273 240.593 785.677 241.166 784.817L243.263 781.666C244.357 780.009 245.768 778.586 247.414 777.478C249.061 776.37 250.912 775.6 252.858 775.212C254.805 774.823 256.809 774.825 258.755 775.216C260.701 775.607 262.55 776.379 264.195 777.49C271.192 782.132 273.011 791.288 268.344 798.282L266.251 801.417L247.296 829.64L218.977 810.849L215.824 808.745C214.17 807.667 212.749 806.269 211.643 804.634C210.537 802.999 209.769 801.16 209.385 799.224C209 797.288 209.006 795.295 209.402 793.361C209.799 791.427 210.578 789.593 211.694 787.964L211.758 787.888C211.788 787.848 211.817 787.808 211.845 787.767C212.917 786.124 214.309 784.714 215.938 783.621C217.567 782.527 219.4 781.773 221.326 781.402ZM222.591 788.539C219.305 789.195 217.663 792.153 217.247 794.85C216.833 797.554 217.359 800.191 218.778 802.522C219.043 802.959 219.393 803.34 219.806 803.643C220.219 803.945 220.687 804.163 221.184 804.285C221.681 804.406 222.198 804.428 222.703 804.35C223.209 804.272 223.695 804.095 224.132 803.829C224.57 803.564 224.95 803.214 225.253 802.802C225.555 802.389 225.774 801.92 225.895 801.423C226.016 800.926 226.039 800.41 225.961 799.904C225.883 799.398 225.706 798.913 225.44 798.475C225.057 797.726 224.889 796.884 224.955 796.045C224.974 795.899 224.934 795.978 224.941 795.937C224.676 796.048 224.399 796.13 224.116 796.181C224.918 796.021 224.975 795.787 224.941 795.937C225.84 795.561 226.565 794.863 226.974 793.979C227.383 793.095 227.447 792.091 227.152 791.163C226.857 790.235 226.225 789.45 225.381 788.965C224.537 788.479 223.542 788.328 222.591 788.539ZM177.717 799.447L182.788 824.863L162.949 815.877C165.858 812.333 170.939 806.695 177.717 799.447ZM300.039 775.288C306.364 777.98 312.604 780.869 318.749 783.951L304.758 798.939L300.039 775.288ZM325.459 788.19C326.227 789.133 326.856 790.216 327.117 791.522L345.397 883.225C346.255 887.527 343.582 891.533 339.279 892.391L186.467 922.879C182.164 923.738 178.159 921.064 177.3 916.762L158.99 825.066C158.822 824.225 158.902 823.431 158.983 822.644L241.517 860.018C244.954 861.614 248.81 862.075 252.527 861.334C256.244 860.592 259.628 858.687 262.189 855.894L325.459 788.19ZM297.244 861.049C296.73 861.142 296.239 861.338 295.802 861.624C295.365 861.911 294.99 862.282 294.7 862.716C294.268 863.361 294.039 864.121 294.041 864.897C294.044 865.674 294.279 866.431 294.715 867.074C295.151 867.716 295.77 868.213 296.49 868.501C297.211 868.789 298.002 868.856 298.761 868.692L321.687 864.118C322.701 863.916 323.592 863.319 324.166 862.46C324.739 861.6 324.948 860.548 324.746 859.535C324.544 858.521 323.947 857.63 323.088 857.056C322.228 856.483 321.176 856.274 320.162 856.476L297.236 861.05L297.244 861.049ZM285.047 879.374C284.534 879.468 284.045 879.664 283.61 879.95C283.174 880.236 282.8 880.607 282.511 881.04C282.079 881.685 281.849 882.444 281.852 883.221C281.855 883.997 282.089 884.755 282.526 885.397C282.962 886.039 283.58 886.536 284.301 886.825C285.022 887.113 285.813 887.179 286.571 887.015L324.736 879.401C325.75 879.199 326.641 878.602 327.215 877.743C327.789 876.883 327.997 875.831 327.795 874.818C327.593 873.804 326.996 872.913 326.137 872.339C325.277 871.766 324.225 871.557 323.212 871.759L285.047 879.374Z" fill="#3E2029"/>
</g>
<defs>
<clipPath id="clip0_89_61">
<rect width="1920" height="1080" fill="white"/>
</clipPath>
</defs>
</svg>
