<svg width="800" height="766" viewBox="0 0 800 766" fill="none" xmlns="http://www.w3.org/2000/svg">
<g clip-path="url(#clip0_90_216)">
<rect width="800" height="766" fill="#FCFFD7"/>
<path d="M0 -64L297 -6.20014C84.0263 30.2015 230.421 188.844 142.384 213.685C54.3464 238.527 0 301 0 301V-64Z" fill="#3D2B2C"/>
<path d="M861.684 787.608L511.722 780.703C663.861 711.767 648.034 576.054 682.542 490.739C717.049 405.424 797.42 393.832 797.42 393.832L861.684 787.608Z" fill="#3D2B2C"/>
<path d="M98.8848 500.205C98.8247 500.243 98.773 500.299 98.7129 500.337C98.6552 500.38 98.598 500.427 98.5416 500.479C96.3279 502.004 94.3083 504.766 92.8867 508.212L92.8874 508.223C92.1465 510.025 91.5908 511.961 91.2524 513.92C90.9139 515.879 90.7993 517.822 90.9152 519.638L91.2642 525.171C91.3123 525.902 91.5437 526.484 91.9078 526.792C92.2719 527.099 92.739 527.106 93.2068 526.811L105.588 519L107.686 552.251C102.387 562.13 98.1363 570.133 96.5006 574.116C95.3068 577.033 94.7416 580.319 94.929 583.254L99.1252 649.643C99.5092 655.729 103.007 658.7 106.898 656.245L177.634 611.619C181.526 609.164 184.395 602.176 184.011 596.09L179.829 529.692C179.637 526.649 178.672 524.353 177.269 523.161C175.081 521.303 170.245 519.228 164.302 516.787L161.665 474.993C161.184 467.38 156.816 463.669 151.948 466.74L98.9562 500.172L98.8848 500.205ZM99.2417 505.744C102.213 503.87 104.771 506.053 105.064 510.7L105.239 513.467L94.6272 520.173L94.4527 517.407C94.306 515.083 94.7585 512.634 95.6229 510.536C96.0702 509.452 96.6202 508.471 97.2412 507.649C97.8622 506.826 98.5421 506.179 99.2417 505.744ZM106.26 501.317L152.297 472.273C155.269 470.398 157.834 472.577 158.127 477.224L162.522 546.871L141.579 586.374C139.841 589.657 138.146 590.726 136.142 589.804L113.067 579.233L108.983 514.51C108.982 514.485 108.98 514.459 108.978 514.433C108.99 514.125 108.971 513.83 108.923 513.559L108.601 508.458C108.405 505.343 107.528 502.927 106.26 501.317ZM124.695 501.192L117.649 505.649C117.412 505.79 117.181 506.005 116.97 506.281C116.758 506.556 116.571 506.887 116.419 507.254C116.194 507.801 116.056 508.405 116.022 508.989C115.989 509.574 116.061 510.111 116.231 510.532C116.401 510.953 116.66 511.239 116.974 511.353C117.289 511.466 117.646 511.403 117.998 511.171L125.044 506.725C125.514 506.429 125.945 505.854 126.244 505.126C126.543 504.398 126.685 503.576 126.639 502.843C126.592 502.109 126.362 501.523 125.997 501.214C125.633 500.904 125.164 500.896 124.695 501.192ZM125.365 512.276C125.128 512.419 124.898 512.636 124.687 512.913C124.476 513.19 124.29 513.522 124.139 513.889C123.914 514.437 123.775 515.042 123.742 515.626C123.709 516.211 123.782 516.748 123.952 517.17C124.122 517.591 124.382 517.876 124.697 517.989C125.012 518.102 125.369 518.038 125.721 517.804L150.477 502.186C150.946 501.89 151.377 501.315 151.676 500.587C151.975 499.859 152.117 499.038 152.071 498.304C152.025 497.57 151.794 496.984 151.43 496.675C151.065 496.365 150.597 496.358 150.128 496.654L125.365 512.276ZM118.988 527.805C118.751 527.948 118.521 528.165 118.31 528.442C118.1 528.719 117.913 529.051 117.762 529.418C117.537 529.966 117.399 530.571 117.365 531.155C117.332 531.74 117.405 532.277 117.575 532.698C117.745 533.12 118.005 533.405 118.32 533.518C118.635 533.631 118.992 533.567 119.345 533.333L151.175 513.252C151.644 512.956 152.076 512.381 152.375 511.652C152.674 510.924 152.816 510.103 152.769 509.37C152.723 508.636 152.492 508.05 152.128 507.74C151.763 507.431 151.295 507.423 150.826 507.719L118.988 527.805ZM128.395 533.894C127.045 534.725 125.733 535.97 124.534 537.555C123.336 539.141 122.276 541.036 121.416 543.13L121.383 543.196C121.365 543.235 121.348 543.275 121.332 543.315L121.308 543.295C120.442 545.403 119.793 547.667 119.396 549.958C119 552.249 118.865 554.521 118.999 556.646C119.133 558.771 119.534 560.706 120.178 562.34C120.822 563.975 121.696 565.277 122.752 566.173L124.089 567.309L137.472 578.586C137.653 578.74 137.861 578.822 138.085 578.826C138.308 578.83 138.543 578.756 138.776 578.609C139.008 578.462 139.234 578.245 139.44 577.97C139.646 577.695 139.829 577.368 139.977 577.006L150.968 550.363L152.064 547.681C152.929 545.572 153.578 543.308 153.974 541.017C154.369 538.726 154.504 536.454 154.369 534.33C154.234 532.206 153.833 530.271 153.189 528.637C152.544 527.004 151.669 525.702 150.613 524.807C148.476 523.023 145.741 522.989 143.002 524.713C140.262 526.437 137.738 529.78 135.977 534.018L136.007 534.033C136.007 534.033 135.998 534.057 135.971 534.033C133.843 532.257 131.125 532.207 128.395 533.894ZM128.723 539.325C130.452 538.263 132.25 538.256 133.745 539.516L135.075 540.656C135.44 540.966 135.908 540.973 136.377 540.677C136.846 540.381 137.277 539.806 137.576 539.078L138.67 536.41C139.24 535.008 139.945 533.737 140.742 532.67C141.539 531.603 142.414 530.761 143.315 530.192C144.216 529.624 145.126 529.34 145.991 529.358C146.857 529.376 147.662 529.695 148.359 530.297C151.327 532.797 151.742 539.427 149.309 545.351L148.218 548.007L138.347 571.931L126.335 561.812L124.998 560.677C124.296 560.101 123.714 559.251 123.285 558.178C122.856 557.105 122.59 555.83 122.503 554.428C122.415 553.026 122.507 551.525 122.774 550.014C123.041 548.503 123.477 547.012 124.056 545.629L124.089 545.562C124.104 545.528 124.119 545.494 124.134 545.459C124.694 544.071 125.39 542.812 126.178 541.758C126.967 540.705 127.832 539.877 128.723 539.325ZM128.977 544.515C127.456 545.474 126.578 547.933 126.268 550.021C125.959 552.115 126.079 554.023 126.619 555.576C126.72 555.867 126.861 556.104 127.035 556.273C127.209 556.442 127.412 556.54 127.632 556.56C127.852 556.581 128.085 556.525 128.319 556.394C128.552 556.264 128.78 556.062 128.991 555.8C129.201 555.538 129.39 555.221 129.545 554.867C129.701 554.514 129.821 554.13 129.899 553.739C129.976 553.348 130.009 552.956 129.997 552.587C129.984 552.217 129.925 551.877 129.824 551.586C129.684 551.076 129.646 550.467 129.713 549.826C129.728 549.713 129.707 549.779 129.712 549.747C129.587 549.868 129.457 549.969 129.326 550.047C129.698 549.813 129.734 549.629 129.712 549.747C130.137 549.337 130.497 548.708 130.723 547.985C130.948 547.262 131.022 546.497 130.93 545.841C130.838 545.185 130.586 544.685 130.225 544.439C129.863 544.194 129.418 544.221 128.977 544.515ZM108.118 559.09L109.279 577.492L100.676 573.547C102.156 570.468 104.715 565.505 108.118 559.09ZM164.729 523.554C167.479 524.681 170.182 525.969 172.833 527.416L165.809 540.678L164.729 523.554ZM175.689 529.653C175.995 530.253 176.232 530.978 176.292 531.924L180.474 598.322C180.67 601.437 179.277 604.83 177.285 606.086L106.549 650.712C104.558 651.968 102.859 650.526 102.663 647.411L98.4665 581.022C98.4281 580.414 98.5 579.805 98.5723 579.201L134.36 595.605C135.849 596.319 137.579 596.118 139.299 595.033C141.019 593.947 142.641 592.034 143.929 589.569L175.689 529.653ZM159.61 588.472C159.373 588.615 159.142 588.832 158.93 589.109C158.719 589.387 158.532 589.72 158.381 590.088C158.156 590.634 158.018 591.238 157.984 591.822C157.95 592.406 158.023 592.942 158.192 593.364C158.361 593.785 158.62 594.071 158.934 594.186C159.248 594.3 159.604 594.238 159.956 594.007L170.569 587.312C171.038 587.016 171.469 586.44 171.768 585.712C172.067 584.984 172.209 584.163 172.163 583.429C172.116 582.696 171.886 582.11 171.521 581.8C171.157 581.491 170.689 581.483 170.219 581.779L159.607 588.474L159.61 588.472ZM153.251 603.99C153.014 604.133 152.784 604.35 152.573 604.627C152.363 604.904 152.176 605.236 152.025 605.603C151.8 606.15 151.662 606.754 151.628 607.337C151.595 607.921 151.667 608.458 151.837 608.879C152.006 609.3 152.264 609.586 152.578 609.701C152.893 609.816 153.249 609.754 153.6 609.522L171.267 598.377C171.736 598.081 172.167 597.506 172.466 596.778C172.765 596.05 172.907 595.229 172.861 594.495C172.815 593.761 172.584 593.175 172.219 592.866C171.855 592.556 171.387 592.548 170.918 592.844L153.251 603.99Z" fill="#3E2029"/>
<path d="M681.016 166.468C681.221 167.648 681.868 168.706 682.818 169.413C683.768 170.12 684.944 170.42 686.095 170.248C687.119 169.766 687.942 168.928 688.42 167.879C688.899 166.831 689.003 165.638 688.714 164.508C688.426 163.378 687.763 162.381 686.84 161.69C685.918 160.999 684.794 160.658 683.664 160.726C682.574 161.126 681.686 161.951 681.191 163.024C680.696 164.098 680.633 165.334 681.016 166.468ZM686.246 165.133C686.574 166.419 686.084 167.51 685.438 167.675C684.791 167.84 683.842 167.122 683.512 165.83C683.183 164.538 683.674 163.453 684.318 163.289C684.962 163.125 685.916 163.841 686.246 165.133ZM683.486 175.528C683.76 174.496 683.706 173.397 683.333 172.388C682.96 171.38 682.287 170.515 681.41 169.917C680.977 169.613 680.481 169.418 679.963 169.35C679.445 169.282 678.92 169.342 678.433 169.526C677.946 169.71 677.511 170.011 677.164 170.406C676.817 170.8 676.568 171.275 676.439 171.792C676.152 172.823 676.205 173.927 676.589 174.934C676.882 175.91 677.509 176.749 678.354 177.294C679.198 177.838 680.202 178.051 681.179 177.893C681.283 177.866 681.388 177.84 681.492 177.797C681.974 177.604 682.404 177.299 682.75 176.905C683.096 176.512 683.348 176.04 683.486 175.528ZM679 174.025C678.819 173.571 678.785 173.071 678.902 172.6C678.93 172.475 678.984 172.358 679.061 172.257C679.138 172.157 679.235 172.075 679.346 172.017L679.401 172.003C679.633 171.969 679.869 172.028 680.062 172.166C680.458 172.442 680.757 172.841 680.916 173.303C681.097 173.757 681.131 174.257 681.014 174.728C680.986 174.853 680.932 174.969 680.855 175.069C680.778 175.169 680.68 175.251 680.569 175.307C680.135 175.462 679.349 174.964 679 174.025ZM690.489 164.049C690.815 164.773 691.334 165.388 691.984 165.824C692.635 166.26 693.39 166.498 694.162 166.511C694.933 166.523 695.689 166.309 696.341 165.894C696.992 165.479 697.512 164.881 697.84 164.168C698.167 163.456 698.289 162.659 698.19 161.871C698.092 161.084 697.777 160.338 697.283 159.722C696.789 159.106 696.136 158.645 695.401 158.392C694.666 158.14 693.88 158.107 693.134 158.297C692.042 158.698 691.153 159.525 690.658 160.601C690.164 161.676 690.103 162.915 690.489 164.049ZM695.716 162.715C696.044 164.002 695.557 165.091 694.91 165.256C694.264 165.421 693.315 164.704 692.985 163.412C692.655 162.12 693.144 161.036 693.791 160.871C694.437 160.706 695.386 161.423 695.716 162.715ZM704.398 164.222C704.052 163.945 703.657 163.74 703.236 163.621C702.814 163.501 702.375 163.468 701.944 163.524C700.924 163.762 700.042 164.406 699.494 165.317C698.945 166.228 698.773 167.331 699.016 168.383C699.093 169.458 699.578 170.464 700.365 171.186C701.153 171.908 702.18 172.287 703.226 172.243C703.334 172.227 703.44 172.205 703.545 172.178C704.478 171.85 705.258 171.182 705.738 170.299C706.218 169.416 706.366 168.378 706.154 167.381C705.991 166.138 705.361 165.003 704.398 164.222ZM702.851 169.617C702.371 169.684 701.725 169.019 701.577 168.023C701.429 167.027 701.859 166.213 702.339 166.145C702.534 166.132 702.728 166.197 702.878 166.328C703.288 166.687 703.551 167.192 703.613 167.739C703.748 168.735 703.31 169.541 702.841 169.619L702.851 169.617ZM700.889 173.898C700.353 173.642 699.849 173.319 699.389 172.938C696.354 169.984 693.514 168.817 690.951 169.472C688.387 170.126 686.457 172.511 685.211 176.557C684.988 177.112 684.699 177.637 684.352 178.119C683.414 179.171 682.86 180.527 682.784 181.961C682.708 183.394 683.113 184.819 683.933 185.995C684.461 186.94 685.22 187.728 686.135 188.28C687.049 188.833 688.085 189.129 689.139 189.14C689.543 189.132 689.945 189.077 690.336 188.977C691.5 188.715 692.515 188.001 693.169 186.982C693.593 186.27 694.273 185.759 695.065 185.557C695.856 185.355 696.698 185.478 697.412 185.899C698.474 186.479 699.707 186.62 700.854 186.292C701.246 186.192 701.626 186.047 701.986 185.861C702.905 185.345 703.672 184.588 704.209 183.666C704.747 182.743 705.036 181.687 705.047 180.605C705.2 179.177 704.869 177.732 704.11 176.511C703.351 175.29 702.21 174.368 700.879 173.9L700.889 173.898ZM702.459 180.35C702.47 180.983 702.32 181.606 702.025 182.157C701.73 182.708 701.299 183.169 700.775 183.494C700.46 183.675 700.109 183.78 699.747 183.803C699.385 183.827 699.022 183.767 698.683 183.628C697.382 182.854 695.845 182.627 694.4 182.996C692.955 183.365 691.716 184.3 690.945 185.603C690.714 185.888 690.424 186.115 690.095 186.268C689.766 186.421 689.407 186.497 689.044 186.489C688.428 186.455 687.829 186.257 687.305 185.915C686.782 185.573 686.352 185.098 686.057 184.537C684.673 182.425 685.436 181.246 686.493 179.612C686.494 179.611 686.495 179.61 686.495 179.609C686.983 178.931 687.375 178.185 687.66 177.393C688.324 175.244 689.546 172.572 691.598 172.048C693.649 171.524 696.007 173.283 697.617 174.851C698.248 175.409 698.949 175.876 699.702 176.238C699.704 176.239 699.706 176.24 699.709 176.241C701.418 177.17 702.652 177.84 702.45 180.356L702.459 180.35ZM637.619 146.278C637.101 146.521 636.646 146.884 636.289 147.34C635.932 147.795 635.684 148.33 635.562 148.903C635.304 150.075 635.432 151.306 635.925 152.407C636.296 153.446 637.008 154.323 637.937 154.887C638.866 155.451 639.953 155.667 641.009 155.495C641.185 155.451 641.357 155.392 641.522 155.318C642.534 154.741 643.28 153.775 643.598 152.629C643.917 151.483 643.783 150.248 643.225 149.189C642.84 148.05 642.036 147.106 640.987 146.561C639.938 146.017 638.728 145.915 637.619 146.278ZM640.461 152.869C639.826 153.163 638.795 152.59 638.277 151.365C638.021 150.803 637.948 150.173 638.069 149.571C638.101 149.391 638.172 149.221 638.276 149.073C638.379 148.925 638.514 148.803 638.67 148.716C638.71 148.701 638.75 148.691 638.792 148.684C639.411 148.526 640.364 149.083 640.859 150.232C641.392 151.442 641.078 152.599 640.469 152.867L640.461 152.869ZM639.773 160.962C639.895 159.896 639.67 158.813 639.133 157.882C638.677 156.906 637.869 156.147 636.882 155.769C635.895 155.39 634.809 155.423 633.857 155.86C633.007 156.473 632.43 157.408 632.25 158.464C632.07 159.52 632.3 160.612 632.893 161.507C633.408 162.452 634.21 163.2 635.175 163.635C635.878 163.949 636.658 164.022 637.398 163.844C637.668 163.775 637.927 163.669 638.168 163.529C638.611 163.259 638.986 162.887 639.264 162.442C639.543 161.997 639.717 161.49 639.773 160.962ZM637.214 160.573C637.221 160.705 637.192 160.835 637.131 160.95C637.07 161.065 636.98 161.16 636.869 161.224C636.758 161.289 636.632 161.321 636.504 161.316C636.375 161.311 636.251 161.27 636.143 161.198C635.709 160.992 635.351 160.647 635.121 160.217C634.632 159.341 634.736 158.415 635.155 158.171C635.196 158.147 635.241 158.13 635.287 158.118C635.732 158.005 636.457 158.39 636.888 159.182C637.14 159.599 637.256 160.086 637.219 160.572L637.214 160.573ZM646.566 142.319C646.048 142.562 645.593 142.925 645.237 143.38C644.88 143.834 644.632 144.368 644.51 144.941C644.264 146.114 644.389 147.342 644.866 148.448C645.342 149.554 646.147 150.481 647.163 151.095C648.009 151.595 649.003 151.749 649.945 151.526C650.121 151.48 650.293 151.42 650.46 151.347C651.472 150.769 652.217 149.803 652.535 148.657C652.853 147.511 652.72 146.276 652.163 145.216C651.774 144.083 650.971 143.145 649.926 142.603C648.88 142.062 647.676 141.959 646.571 142.318L646.566 142.319ZM649.407 148.908C649.238 148.965 649.059 148.984 648.882 148.961C648.705 148.938 648.534 148.876 648.382 148.777C647.871 148.448 647.467 147.969 647.223 147.404C646.979 146.838 646.907 146.213 647.015 145.609C647.047 145.429 647.118 145.259 647.222 145.111C647.327 144.964 647.462 144.842 647.619 144.756C647.657 144.742 647.698 144.732 647.738 144.726C648.357 144.568 649.313 145.124 649.805 146.27C650.336 147.484 650.023 148.635 649.412 148.907L649.407 148.908ZM656.063 146.03C655.572 146.195 655.126 146.476 654.76 146.849C654.394 147.223 654.118 147.679 653.954 148.183C653.626 149.198 653.622 150.298 653.943 151.325C654.264 152.352 654.893 153.252 655.74 153.895C656.139 154.195 656.595 154.403 657.077 154.506C657.559 154.61 658.055 154.605 658.532 154.493L658.694 154.451C659.186 154.286 659.632 154.005 659.998 153.632C660.364 153.258 660.639 152.802 660.804 152.298C661.132 151.283 661.136 150.183 660.815 149.156C660.494 148.129 659.865 147.229 659.018 146.586C658.596 146.271 658.112 146.057 657.601 145.96C657.09 145.863 656.566 145.887 656.068 146.028L656.063 146.03ZM658.377 151.355C658.342 151.478 658.282 151.592 658.2 151.688C658.118 151.784 658.017 151.86 657.903 151.912C657.78 151.937 657.653 151.933 657.53 151.901C657.408 151.869 657.294 151.81 657.196 151.728C656.822 151.424 656.544 151.013 656.398 150.548C656.252 150.083 656.246 149.586 656.379 149.121C656.415 148.998 656.475 148.885 656.557 148.789C656.639 148.693 656.74 148.616 656.854 148.564L656.884 148.556C657.003 148.539 657.124 148.548 657.24 148.581C657.357 148.614 657.466 148.671 657.56 148.748C657.939 149.041 658.218 149.451 658.356 149.916C658.514 150.382 658.524 150.886 658.382 151.354L658.377 151.355ZM656.644 156.471C656.077 156.306 655.529 156.071 655.014 155.772C651.569 153.348 648.591 152.68 646.169 153.731C643.747 154.783 642.218 157.481 641.626 161.692C641.495 162.279 641.295 162.846 641.028 163.38C640.269 164.575 639.936 166.009 640.086 167.44C640.236 168.871 640.859 170.213 641.852 171.24C642.52 172.088 643.393 172.743 644.381 173.138C645.369 173.532 646.437 173.654 647.477 173.489C647.584 173.461 647.692 173.434 647.797 173.407C648.517 173.243 649.189 172.912 649.762 172.439C650.335 171.966 650.794 171.363 651.104 170.677C651.2 170.264 651.404 169.887 651.692 169.584C651.981 169.282 652.344 169.066 652.744 168.959C653.092 168.733 653.495 168.61 653.909 168.601C654.323 168.591 654.733 168.697 655.097 168.906C655.942 169.215 656.855 169.252 657.713 169.011C658.392 168.838 659.031 168.531 659.594 168.109C660.418 167.447 661.054 166.571 661.437 165.569C661.821 164.567 661.939 163.475 661.78 162.403C661.706 160.97 661.157 159.6 660.223 158.52C659.289 157.44 658.028 156.716 656.649 156.47L656.644 156.471ZM659.202 162.595C659.312 163.22 659.263 163.861 659.059 164.455C658.854 165.05 658.502 165.577 658.036 165.985C657.756 166.214 657.428 166.376 657.077 166.459C656.726 166.541 656.361 166.542 656.007 166.462C655.327 166.122 654.58 165.952 653.828 165.966C653.076 165.979 652.341 166.176 651.683 166.54C650.973 166.784 650.332 167.197 649.812 167.746C649.292 168.295 648.907 168.965 648.69 169.7C648.508 170.017 648.259 170.288 647.962 170.493C647.665 170.699 647.326 170.833 646.97 170.888C646.358 170.956 645.738 170.859 645.169 170.608C644.6 170.356 644.102 169.958 643.724 169.452C642.029 167.589 642.596 166.295 643.379 164.507C643.38 164.506 643.38 164.505 643.381 164.504C643.755 163.749 644.023 162.942 644.178 162.107C644.493 159.872 645.274 157.025 647.216 156.167C649.159 155.309 651.746 156.655 653.58 157.944C654.289 158.393 655.054 158.739 655.853 158.973C655.854 158.974 655.855 158.974 655.856 158.974C657.69 159.613 659.013 160.073 659.207 162.594L659.202 162.595ZM666.424 110.327C666.796 110.232 667.148 110.074 667.467 109.858C668.361 109.104 668.926 108.016 669.042 106.827C669.157 105.638 668.814 104.444 668.085 103.499C667.437 102.485 666.485 101.714 665.376 101.304C664.838 101.087 664.259 101.005 663.688 101.066C663.117 101.127 662.571 101.328 662.095 101.652C661.62 101.977 661.229 102.416 660.956 102.931C660.682 103.447 660.535 104.024 660.526 104.615C660.471 105.817 660.805 107.011 661.475 108.01C661.981 108.864 662.726 109.544 663.612 109.958C664.497 110.371 665.48 110.5 666.429 110.326L666.424 110.327ZM663.101 104.818C663.103 104.637 663.145 104.459 663.222 104.297C663.299 104.135 663.41 103.993 663.548 103.882C663.629 103.827 663.718 103.786 663.813 103.762C664.068 103.71 664.332 103.732 664.578 103.824C665.143 104.046 665.625 104.448 665.953 104.97C666.681 106.084 666.572 107.279 666.018 107.654C665.465 108.028 664.344 107.678 663.614 106.565C663.264 106.052 663.085 105.438 663.106 104.817L663.101 104.818ZM664.349 119.226C664.805 119.111 665.229 118.893 665.59 118.586C665.98 118.239 666.286 117.803 666.483 117.312C666.681 116.82 666.764 116.287 666.728 115.754C666.653 114.682 666.248 113.657 665.572 112.829C664.895 112 663.983 111.41 662.967 111.144C662.461 111.013 661.935 111.004 661.429 111.116C660.922 111.228 660.45 111.459 660.047 111.79C659.718 112.079 659.449 112.432 659.255 112.831C659.06 113.229 658.946 113.664 658.917 114.11C658.847 115.359 659.257 116.593 660.06 117.547C660.729 118.385 661.645 118.977 662.667 119.23C663.224 119.365 663.802 119.363 664.354 119.225L664.349 119.226ZM661.486 114.364C661.493 114.164 661.574 113.976 661.713 113.838C661.782 113.781 661.863 113.74 661.949 113.72C662.11 113.686 662.276 113.69 662.436 113.73C662.892 113.866 663.3 114.139 663.606 114.514C663.913 114.889 664.103 115.349 664.153 115.833C664.168 115.961 664.155 116.091 664.115 116.213C664.075 116.335 664.01 116.446 663.924 116.538C663.82 116.608 663.702 116.653 663.579 116.671C663.455 116.689 663.329 116.68 663.209 116.644C662.745 116.515 662.333 116.235 662.032 115.848C661.677 115.438 661.484 114.908 661.491 114.363L661.486 114.364ZM672.286 104.677C673.005 104.938 673.78 104.981 674.516 104.802C674.891 104.706 675.246 104.547 675.568 104.33C676.035 103.996 676.42 103.555 676.692 103.041C676.964 102.527 677.117 101.954 677.138 101.366C677.178 100.165 676.844 98.9763 676.186 97.9717C675.529 96.967 674.58 96.1982 673.478 95.7763C672.94 95.5585 672.361 95.4762 671.79 95.5363C671.219 95.5964 670.672 95.7973 670.196 96.1218C669.721 96.4463 669.33 96.8849 669.056 97.4006C668.783 97.9163 668.636 98.4938 668.627 99.0842C668.587 100.286 668.919 101.475 669.577 102.481C670.234 103.486 671.183 104.255 672.286 104.677ZM671.203 99.2902C671.205 99.1089 671.246 98.931 671.324 98.7691C671.401 98.6072 671.512 98.4653 671.65 98.3538C671.731 98.2988 671.82 98.2584 671.914 98.2341C672.169 98.1824 672.434 98.2039 672.68 98.2964C673.238 98.5292 673.716 98.9289 674.052 99.4429C674.389 99.957 674.567 100.561 674.564 101.176C674.576 101.361 674.54 101.545 674.461 101.71C674.382 101.875 674.262 102.015 674.113 102.117C673.964 102.218 673.791 102.277 673.611 102.289C673.432 102.3 673.252 102.263 673.089 102.181C672.526 101.96 672.044 101.559 671.718 101.037C671.367 100.524 671.188 99.9103 671.208 99.289L671.203 99.2902ZM678.99 103.684C679.38 104.551 680.037 105.265 680.858 105.713C681.68 106.161 682.619 106.319 683.528 106.161C683.758 106.103 683.981 106.016 684.191 105.904C684.645 105.651 685.034 105.293 685.329 104.858C685.624 104.424 685.817 103.924 685.893 103.397C686.054 102.336 685.869 101.245 685.367 100.294C685.2 99.7695 684.925 99.2874 684.559 98.8811C684.194 98.4749 683.748 98.1544 683.252 97.942C682.756 97.7297 682.222 97.6307 681.688 97.652C681.155 97.6733 680.633 97.8144 680.162 98.0653C679.69 98.3162 679.279 98.6709 678.957 99.1046C678.635 99.5382 678.411 100.04 678.299 100.576C678.188 101.111 678.192 101.666 678.312 102.203C678.432 102.74 678.662 103.246 678.99 103.684ZM681.377 100.432C681.813 100.195 682.628 100.615 683.084 101.507C683.317 101.936 683.41 102.428 683.35 102.911C683.338 103.04 683.299 103.164 683.236 103.275C683.172 103.386 683.086 103.481 682.982 103.553C682.58 103.801 681.734 103.373 681.273 102.482C680.811 101.591 680.946 100.652 681.375 100.425L681.377 100.432ZM688.586 113.217C688.272 111.814 687.5 110.557 686.399 109.656C685.298 108.756 683.935 108.266 682.537 108.27C681.951 108.21 681.373 108.077 680.817 107.873C677.012 106.103 673.971 105.977 671.781 107.471C669.592 108.967 668.554 111.889 668.692 116.149C668.658 116.748 668.549 117.34 668.371 117.909C667.984 119.03 667.896 120.24 668.113 121.416C668.331 122.592 668.847 123.693 669.609 124.607C670.372 125.52 671.353 126.213 672.453 126.616C673.554 127.018 674.734 127.116 675.874 126.899C676.736 126.677 677.525 126.23 678.163 125.599C678.801 124.968 679.267 124.176 679.515 123.299C679.539 122.875 679.674 122.468 679.906 122.12C680.137 121.771 680.457 121.495 680.83 121.318C681.134 121.032 681.508 120.837 681.914 120.753C682.32 120.668 682.742 120.698 683.135 120.84C683.714 120.95 684.308 120.928 684.873 120.774C685.843 120.517 686.721 119.986 687.407 119.242C688.104 118.439 688.58 117.459 688.786 116.4C688.993 115.341 688.923 114.24 688.584 113.209L688.586 113.217ZM685.523 117.404C685.286 117.681 684.992 117.899 684.661 118.044C684.33 118.189 683.971 118.256 683.61 118.24C682.883 118.03 682.121 117.998 681.385 118.148C680.649 118.298 679.961 118.625 679.376 119.102C678.721 119.47 678.163 119.993 677.747 120.63C677.331 121.266 677.069 121.996 676.982 122.761C676.856 123.105 676.658 123.416 676.401 123.67C676.145 123.925 675.836 124.119 675.497 124.237C674.909 124.419 674.282 124.439 673.679 124.294C673.076 124.148 672.519 123.843 672.064 123.408C670.08 121.88 670.416 120.501 670.88 118.596C670.88 118.594 670.881 118.592 670.881 118.589C671.117 117.779 671.242 116.937 671.253 116.087C671.18 113.823 671.461 110.872 673.215 109.673C674.961 108.471 677.746 109.339 679.769 110.276C680.542 110.589 681.351 110.792 682.175 110.879C682.177 110.879 682.179 110.879 682.181 110.88C684.084 111.174 685.46 111.386 686.086 113.839C686.303 114.437 686.365 115.08 686.266 115.705C686.167 116.33 685.911 116.915 685.523 117.404ZM619.574 112.344C620.136 112.204 620.651 111.919 621.073 111.517C621.48 111.109 621.79 110.609 621.977 110.056C622.164 109.502 622.225 108.91 622.153 108.324C622.015 107.13 621.499 106.01 620.685 105.135C619.954 104.194 618.896 103.579 617.739 103.422C616.582 103.266 615.419 103.581 614.498 104.3C613.736 105.193 613.349 106.363 613.422 107.559C613.495 108.754 614.022 109.879 614.888 110.692C615.463 111.366 616.2 111.874 617.023 112.164C617.847 112.454 618.727 112.516 619.574 112.344ZM616.272 106.24C616.384 106.138 616.519 106.067 616.666 106.033C617.063 105.983 617.468 106.039 617.842 106.195C618.215 106.351 618.545 106.602 618.8 106.924C619.222 107.37 619.494 107.942 619.575 108.555C619.603 108.737 619.591 108.922 619.541 109.097C619.492 109.272 619.404 109.433 619.286 109.569C618.804 110.024 617.64 109.869 616.749 108.89C615.858 107.911 615.788 106.707 616.272 106.24ZM616.84 113.538C616.322 113.492 615.803 113.569 615.322 113.764C614.841 113.958 614.413 114.265 614.069 114.659C613.467 115.531 613.226 116.617 613.398 117.682C613.57 118.746 614.142 119.705 614.99 120.351C615.781 121.068 616.775 121.502 617.82 121.586C618.201 121.61 618.582 121.576 618.951 121.484C619.59 121.327 620.164 120.971 620.594 120.464C621.196 119.591 621.437 118.506 621.264 117.441C621.092 116.377 620.521 115.418 619.673 114.772C618.883 114.052 617.887 113.618 616.84 113.538ZM618.63 118.715C618.539 118.802 618.43 118.868 618.31 118.907C618.191 118.945 618.064 118.956 617.939 118.937C617.466 118.89 617.018 118.686 616.664 118.356C615.921 117.695 615.729 116.779 616.033 116.406C616.121 116.308 616.236 116.24 616.364 116.212C616.481 116.184 616.602 116.174 616.723 116.183C617.195 116.232 617.642 116.437 617.996 116.765C618.738 117.42 618.943 118.338 618.62 118.717L618.63 118.715ZM625.556 105.655C625.929 105.672 626.301 105.634 626.662 105.542C627.231 105.401 627.753 105.113 628.179 104.705C628.587 104.299 628.896 103.799 629.084 103.247C629.272 102.694 629.332 102.103 629.261 101.518C629.113 100.322 628.599 99.2003 627.794 98.3144C626.988 97.4285 625.933 96.8245 624.781 96.5896C624.217 96.4647 623.635 96.4804 623.082 96.6354C622.529 96.7903 622.023 97.08 621.606 97.4799C621.189 97.8799 620.872 98.3785 620.684 98.9336C620.496 99.4888 620.441 100.084 620.524 100.67C620.661 101.865 621.177 102.985 621.992 103.859C622.909 104.914 624.19 105.56 625.556 105.655ZM623.379 99.4311C623.492 99.3263 623.628 99.2528 623.777 99.2172C623.976 99.1708 624.183 99.1665 624.385 99.2045C624.971 99.3409 625.506 99.6564 625.918 100.109C626.331 100.562 626.601 101.131 626.694 101.74C626.722 101.922 626.711 102.107 626.66 102.283C626.61 102.458 626.522 102.62 626.403 102.755C626.296 102.848 626.173 102.918 626.039 102.961C625.905 103.004 625.764 103.019 625.624 103.006C624.949 102.938 624.322 102.608 623.87 102.083C623.448 101.637 623.176 101.065 623.095 100.452C623.065 100.27 623.075 100.084 623.124 99.9069C623.174 99.7303 623.261 99.5677 623.379 99.4311ZM635.818 105.36C636.213 105.26 636.585 105.081 636.911 104.831C637.681 104.113 638.142 103.108 638.193 102.034C638.244 100.959 637.881 99.9011 637.183 99.0872C636.615 98.1724 635.723 97.5186 634.699 97.267C633.675 97.0154 632.602 97.1863 631.711 97.7427C630.941 98.461 630.481 99.4657 630.43 100.54C630.379 101.615 630.741 102.673 631.439 103.487C631.918 104.2 632.588 104.758 633.366 105.09C634.144 105.423 634.996 105.517 635.818 105.36ZM633.279 99.8838C633.663 99.5857 634.54 99.8552 635.131 100.661C635.722 101.467 635.732 102.402 635.345 102.698C634.958 102.994 634.084 102.727 633.493 101.921C632.902 101.115 632.894 100.179 633.279 99.8838ZM633.886 107.344C629.863 106.228 626.847 106.597 624.925 108.442C623.003 110.287 622.436 113.346 623.243 117.54C623.311 118.141 623.306 118.747 623.228 119.345C622.902 120.737 623.054 122.209 623.659 123.515C624.263 124.82 625.282 125.878 626.547 126.513C627.96 127.364 629.627 127.637 631.211 127.277C631.68 127.157 632.13 126.972 632.549 126.727C633.242 126.336 633.831 125.778 634.266 125.1C634.7 124.421 634.968 123.643 635.045 122.83C635 122.406 635.068 121.978 635.24 121.593C635.413 121.208 635.684 120.879 636.026 120.642C636.28 120.309 636.618 120.053 637.004 119.903C637.39 119.753 637.81 119.713 638.219 119.789C639.015 119.765 639.791 119.544 640.481 119.144C641.17 118.745 641.753 118.179 642.18 117.495C642.738 116.586 643.051 115.538 643.087 114.458C643.123 113.377 642.881 112.302 642.385 111.34C641.853 110.002 640.893 108.886 639.665 108.178C638.437 107.47 637.016 107.213 635.639 107.451C635.053 107.489 634.465 107.453 633.886 107.344ZM640.027 112.383C640.332 112.938 640.493 113.562 640.494 114.194C640.494 114.827 640.335 115.447 640.031 115.993C639.843 116.306 639.588 116.572 639.286 116.77C638.983 116.969 638.64 117.094 638.282 117.138C637.534 117.05 636.779 117.145 636.078 117.415C635.378 117.685 634.752 118.122 634.251 118.691C633.663 119.163 633.195 119.774 632.884 120.473C632.574 121.172 632.43 121.938 632.465 122.711C632.396 123.074 632.249 123.415 632.037 123.712C631.824 124.008 631.549 124.252 631.233 124.426C630.679 124.699 630.064 124.82 629.447 124.776C628.83 124.731 628.232 124.524 627.712 124.173C625.52 122.989 625.633 121.568 625.79 119.603C625.897 118.762 625.888 117.908 625.765 117.066C625.337 114.837 625.149 111.872 626.691 110.395C627.664 109.8 628.762 109.446 629.897 109.362C631.033 109.277 632.176 109.463 633.237 109.906C634.048 110.086 634.876 110.151 635.701 110.099C635.707 110.099 635.712 110.099 635.718 110.099C637.643 110.074 639.025 110.056 640.027 112.383Z" fill="#3E2029"/>
<path d="M640.027 112.383C640.332 112.938 640.493 113.562 640.494 114.194C640.494 114.827 640.335 115.447 640.031 115.993C639.843 116.306 639.588 116.572 639.286 116.77C638.983 116.969 638.64 117.094 638.282 117.138C637.534 117.05 636.779 117.145 636.078 117.415C635.378 117.685 634.752 118.122 634.251 118.691C633.663 119.163 633.195 119.774 632.884 120.473C632.574 121.172 632.43 121.938 632.465 122.711C632.396 123.074 632.249 123.415 632.037 123.712C631.824 124.008 631.549 124.252 631.233 124.426C630.679 124.699 630.064 124.82 629.447 124.776C628.83 124.731 628.232 124.524 627.712 124.173C625.52 122.989 625.633 121.568 625.79 119.603C625.897 118.762 625.888 117.908 625.765 117.066C625.337 114.837 625.149 111.872 626.691 110.395C627.664 109.8 628.762 109.446 629.897 109.362C631.033 109.277 632.176 109.463 633.237 109.906C634.048 110.086 634.876 110.151 635.701 110.099L635.718 110.099C637.643 110.074 639.025 110.056 640.027 112.383Z" fill="#3E2029"/>
<path d="M685.523 117.404C685.286 117.681 684.992 117.899 684.661 118.044C684.33 118.189 683.971 118.256 683.61 118.24C682.883 118.03 682.121 117.998 681.385 118.148C680.649 118.298 679.961 118.625 679.376 119.102C678.721 119.47 678.163 119.993 677.747 120.63C677.331 121.266 677.069 121.996 676.982 122.761C676.856 123.105 676.658 123.416 676.401 123.67C676.145 123.925 675.836 124.119 675.497 124.237C674.909 124.419 674.282 124.439 673.679 124.294C673.076 124.148 672.519 123.843 672.064 123.408C670.08 121.88 670.416 120.501 670.88 118.596L670.881 118.589C671.117 117.779 671.242 116.937 671.253 116.087C671.18 113.823 671.461 110.872 673.215 109.673C674.961 108.471 677.746 109.339 679.769 110.276C680.542 110.589 681.351 110.792 682.175 110.879L682.181 110.88C684.084 111.174 685.46 111.386 686.086 113.839C686.303 114.437 686.365 115.08 686.266 115.705C686.167 116.33 685.911 116.915 685.523 117.404Z" fill="#3E2029"/>
<path d="M663.101 104.818C663.103 104.637 663.145 104.459 663.222 104.297C663.299 104.135 663.41 103.993 663.548 103.882C663.629 103.827 663.718 103.786 663.813 103.762C664.068 103.71 664.332 103.732 664.578 103.824C665.143 104.046 665.625 104.448 665.953 104.97C666.681 106.084 666.572 107.279 666.018 107.654C665.465 108.028 664.344 107.678 663.614 106.565C663.264 106.052 663.085 105.438 663.106 104.817L663.101 104.818Z" fill="#3E2029"/>
<path d="M661.486 114.364C661.493 114.164 661.574 113.976 661.713 113.838C661.782 113.781 661.863 113.74 661.949 113.72C662.11 113.686 662.276 113.69 662.436 113.73C662.892 113.866 663.3 114.139 663.606 114.514C663.913 114.889 664.103 115.349 664.153 115.833C664.168 115.961 664.155 116.091 664.115 116.213C664.075 116.335 664.01 116.446 663.924 116.538C663.82 116.608 663.702 116.653 663.579 116.671C663.455 116.689 663.329 116.68 663.209 116.644C662.745 116.515 662.333 116.235 662.032 115.848C661.677 115.438 661.484 114.908 661.491 114.363L661.486 114.364Z" fill="#3E2029"/>
<path d="M671.203 99.2902C671.205 99.1089 671.246 98.931 671.324 98.7691C671.401 98.6072 671.512 98.4653 671.65 98.3538C671.731 98.2988 671.82 98.2584 671.914 98.2341C672.169 98.1824 672.434 98.2039 672.68 98.2964C673.238 98.5292 673.716 98.9289 674.052 99.4429C674.389 99.957 674.567 100.561 674.564 101.176C674.576 101.361 674.54 101.545 674.461 101.71C674.382 101.875 674.262 102.015 674.113 102.117C673.964 102.218 673.791 102.277 673.611 102.289C673.432 102.3 673.252 102.263 673.089 102.181C672.526 101.96 672.044 101.559 671.718 101.037C671.367 100.524 671.188 99.9103 671.208 99.289L671.203 99.2902Z" fill="#3E2029"/>
<path d="M681.377 100.432C681.813 100.195 682.628 100.615 683.084 101.507C683.317 101.936 683.41 102.428 683.35 102.911C683.338 103.04 683.299 103.164 683.236 103.275C683.172 103.386 683.086 103.481 682.982 103.553C682.58 103.801 681.734 103.373 681.273 102.482C680.811 101.591 680.946 100.652 681.375 100.425L681.377 100.432Z" fill="#3E2029"/>
<path d="M623.379 99.4311C623.492 99.3263 623.628 99.2528 623.777 99.2172C623.976 99.1708 624.183 99.1665 624.385 99.2045C624.971 99.3409 625.506 99.6564 625.918 100.109C626.331 100.562 626.601 101.131 626.694 101.74C626.722 101.922 626.711 102.107 626.66 102.283C626.61 102.458 626.522 102.62 626.403 102.755C626.296 102.848 626.173 102.918 626.039 102.961C625.905 103.004 625.764 103.019 625.624 103.006C624.949 102.938 624.322 102.608 623.87 102.083C623.448 101.637 623.176 101.065 623.095 100.452C623.065 100.27 623.075 100.084 623.124 99.9069C623.174 99.7303 623.261 99.5677 623.379 99.4311Z" fill="#3E2029"/>
<path d="M633.279 99.8838C633.663 99.5857 634.54 99.8552 635.131 100.661C635.722 101.467 635.732 102.402 635.345 102.698C634.958 102.994 634.084 102.727 633.493 101.921C632.902 101.115 632.894 100.179 633.279 99.8838Z" fill="#3E2029"/>
<path d="M616.272 106.24C616.384 106.138 616.519 106.067 616.666 106.033C617.063 105.983 617.468 106.039 617.842 106.195C618.215 106.351 618.545 106.602 618.8 106.924C619.222 107.37 619.494 107.942 619.575 108.555C619.603 108.737 619.591 108.922 619.541 109.097C619.492 109.272 619.404 109.433 619.286 109.569C618.804 110.024 617.64 109.869 616.749 108.89C615.858 107.911 615.788 106.707 616.272 106.24Z" fill="#3E2029"/>
<path d="M618.63 118.715C618.539 118.802 618.43 118.868 618.31 118.907C618.191 118.945 618.064 118.956 617.939 118.937C617.466 118.89 617.018 118.686 616.664 118.356C615.921 117.695 615.729 116.779 616.033 116.406C616.121 116.308 616.236 116.24 616.364 116.212C616.481 116.184 616.602 116.174 616.723 116.183C617.195 116.232 617.642 116.437 617.996 116.765C618.738 117.42 618.943 118.338 618.62 118.717L618.63 118.715Z" fill="#3E2029"/>
<path d="M649.407 148.908C649.238 148.965 649.059 148.984 648.882 148.961C648.705 148.938 648.534 148.876 648.382 148.777C647.871 148.448 647.467 147.969 647.223 147.404C646.979 146.838 646.907 146.213 647.015 145.609C647.047 145.429 647.118 145.259 647.222 145.111C647.327 144.964 647.462 144.842 647.619 144.756C647.657 144.742 647.698 144.732 647.738 144.726C648.357 144.568 649.313 145.124 649.805 146.27C650.336 147.484 650.023 148.635 649.412 148.907L649.407 148.908Z" fill="#3E2029"/>
<path d="M658.377 151.355C658.342 151.478 658.282 151.592 658.2 151.688C658.118 151.784 658.017 151.86 657.903 151.912C657.78 151.937 657.653 151.933 657.53 151.901C657.408 151.869 657.294 151.81 657.196 151.728C656.822 151.424 656.544 151.013 656.398 150.548C656.252 150.083 656.246 149.586 656.379 149.121C656.415 148.998 656.475 148.885 656.557 148.789C656.639 148.693 656.74 148.616 656.854 148.564L656.884 148.556C657.003 148.539 657.124 148.548 657.24 148.581C657.357 148.614 657.466 148.671 657.56 148.748C657.939 149.041 658.218 149.451 658.356 149.916C658.514 150.382 658.524 150.886 658.382 151.354L658.377 151.355Z" fill="#3E2029"/>
<path d="M659.202 162.595C659.312 163.22 659.263 163.861 659.059 164.455C658.854 165.05 658.502 165.577 658.036 165.985C657.756 166.214 657.428 166.376 657.077 166.459C656.726 166.541 656.361 166.542 656.007 166.462C655.327 166.122 654.58 165.952 653.828 165.966C653.076 165.979 652.341 166.176 651.683 166.54C650.973 166.784 650.332 167.197 649.812 167.746C649.292 168.295 648.907 168.965 648.69 169.7C648.508 170.017 648.259 170.288 647.962 170.493C647.665 170.699 647.326 170.833 646.97 170.888C646.358 170.956 645.738 170.859 645.169 170.608C644.6 170.356 644.102 169.958 643.724 169.452C642.029 167.589 642.596 166.295 643.379 164.507L643.381 164.504C643.755 163.749 644.023 162.942 644.178 162.107C644.493 159.872 645.274 157.025 647.216 156.167C649.159 155.309 651.746 156.655 653.58 157.944C654.289 158.393 655.054 158.739 655.853 158.973L655.856 158.974C657.69 159.613 659.013 160.073 659.207 162.594L659.202 162.595Z" fill="#3E2029"/>
<path d="M640.461 152.869C639.826 153.163 638.795 152.59 638.277 151.365C638.021 150.803 637.948 150.173 638.069 149.571C638.101 149.391 638.172 149.221 638.276 149.073C638.379 148.925 638.514 148.803 638.67 148.716C638.71 148.701 638.75 148.691 638.792 148.684C639.411 148.526 640.364 149.083 640.859 150.232C641.392 151.442 641.078 152.599 640.469 152.867L640.461 152.869Z" fill="#3E2029"/>
<path d="M637.214 160.573C637.221 160.705 637.192 160.835 637.131 160.95C637.07 161.065 636.98 161.16 636.869 161.224C636.758 161.289 636.632 161.321 636.504 161.316C636.375 161.311 636.251 161.27 636.143 161.198C635.709 160.992 635.351 160.647 635.121 160.217C634.632 159.341 634.736 158.415 635.155 158.171C635.196 158.147 635.241 158.13 635.287 158.118C635.732 158.005 636.457 158.39 636.888 159.182C637.14 159.599 637.256 160.086 637.219 160.572L637.214 160.573Z" fill="#3E2029"/>
<path d="M679 174.025C678.819 173.571 678.785 173.071 678.902 172.6C678.93 172.475 678.984 172.358 679.061 172.257C679.138 172.157 679.235 172.075 679.346 172.017L679.401 172.003C679.633 171.969 679.869 172.028 680.062 172.166C680.458 172.442 680.757 172.841 680.916 173.303C681.097 173.757 681.131 174.257 681.014 174.728C680.986 174.853 680.932 174.969 680.855 175.069C680.778 175.169 680.68 175.251 680.569 175.307C680.135 175.462 679.349 174.964 679 174.025Z" fill="#3E2029"/>
<path d="M686.246 165.133C686.574 166.419 686.084 167.51 685.438 167.675C684.791 167.84 683.842 167.122 683.512 165.83C683.183 164.538 683.674 163.453 684.318 163.289C684.962 163.125 685.916 163.841 686.246 165.133Z" fill="#3E2029"/>
<path d="M702.459 180.35C702.47 180.983 702.32 181.606 702.025 182.157C701.73 182.708 701.299 183.169 700.775 183.494C700.46 183.675 700.109 183.78 699.747 183.803C699.385 183.827 699.022 183.767 698.683 183.628C697.382 182.854 695.845 182.627 694.4 182.996C692.955 183.365 691.716 184.3 690.945 185.603C690.714 185.888 690.424 186.115 690.095 186.268C689.766 186.421 689.407 186.497 689.044 186.489C688.428 186.455 687.829 186.257 687.305 185.915C686.782 185.573 686.352 185.098 686.057 184.537C684.673 182.425 685.436 181.246 686.493 179.612L686.495 179.609C686.983 178.931 687.375 178.185 687.66 177.393C688.324 175.244 689.546 172.572 691.598 172.048C693.649 171.524 696.007 173.283 697.617 174.851C698.248 175.409 698.949 175.876 699.702 176.238L699.709 176.241C701.418 177.17 702.652 177.84 702.45 180.356L702.459 180.35Z" fill="#3E2029"/>
<path d="M695.716 162.715C696.044 164.002 695.557 165.091 694.91 165.256C694.264 165.421 693.315 164.704 692.985 163.412C692.655 162.12 693.144 161.036 693.791 160.871C694.437 160.706 695.386 161.423 695.716 162.715Z" fill="#3E2029"/>
<path d="M702.851 169.617C702.371 169.684 701.725 169.019 701.577 168.023C701.429 167.027 701.859 166.213 702.339 166.145C702.534 166.132 702.728 166.197 702.878 166.328C703.288 166.687 703.551 167.192 703.613 167.739C703.748 168.735 703.31 169.541 702.841 169.619L702.851 169.617Z" fill="#3E2029"/>
</g>
<defs>
<clipPath id="clip0_90_216">
<rect width="800" height="766" fill="white"/>
</clipPath>
</defs>
</svg>
