<svg width="320" height="583" viewBox="0 0 320 583" fill="none" xmlns="http://www.w3.org/2000/svg">
<g clip-path="url(#clip0_89_174)">
<rect width="320" height="583" fill="#FCFFD7"/>
<path d="M-12 -35L150 -3.4872C33.8325 16.3592 113.684 102.852 65.6637 116.396C17.6435 129.939 -12 164 -12 164V-35Z" fill="#3D2B2C"/>
<path d="M370.144 602.573L180.335 598.828C262.851 561.439 254.267 487.833 272.983 441.56C291.699 395.288 335.289 389.001 335.289 389.001L370.144 602.573Z" fill="#3D2B2C"/>
<path d="M46.1344 469.857C46.0995 469.879 46.0695 469.911 46.0346 469.933C46.0011 469.958 45.9679 469.986 45.9352 470.016C44.65 470.902 43.4778 472.51 42.653 474.52L42.6534 474.526C42.2235 475.577 41.9013 476.706 41.7052 477.85C41.5091 478.993 41.443 480.128 41.5106 481.188L41.7145 484.42C41.7426 484.847 41.8771 485.188 42.0886 485.368C42.3 485.548 42.5713 485.553 42.8429 485.382L50.0311 480.847L51.2566 500.27C48.1817 506.027 45.7148 510.692 44.7658 513.014C44.0732 514.715 43.7457 516.633 43.8552 518.347L46.3062 557.126C46.5305 560.681 48.5624 562.424 50.8216 560.998L91.8884 535.09C94.1475 533.665 95.8124 529.59 95.5881 526.035L93.1452 487.251C93.0331 485.474 92.4721 484.131 91.6571 483.432C90.386 482.342 87.5776 481.119 84.1256 479.681L82.5852 455.269C82.3047 450.822 79.767 448.645 76.9411 450.428L46.1759 469.837L46.1344 469.857ZM46.3428 473.092C48.068 472.004 49.5539 473.285 49.7252 475.999L49.8272 477.615L43.6663 481.509L43.5644 479.893C43.4787 478.535 43.7409 477.106 44.2424 475.883C44.5019 475.251 44.8211 474.679 45.1816 474.2C45.542 473.721 45.9367 473.345 46.3428 473.092ZM50.4175 470.522L77.145 453.66C78.8701 452.572 80.3602 453.85 80.5315 456.564L83.0983 497.246L70.9457 520.27C69.9368 522.183 68.9531 522.804 67.7891 522.261L54.387 516.038L52.0016 478.233C52.0008 478.217 51.9999 478.202 51.9988 478.187C52.0053 478.007 51.9944 477.835 51.9666 477.677L51.7785 474.697C51.6637 472.878 51.1539 471.465 50.4175 470.522ZM61.1228 470.489L57.0321 473.076C56.8944 473.158 56.7603 473.283 56.6376 473.444C56.5149 473.604 56.4063 473.797 56.318 474.011C56.1874 474.33 56.1072 474.683 56.0879 475.024C56.0686 475.365 56.111 475.678 56.2096 475.925C56.3083 476.171 56.4587 476.339 56.6415 476.406C56.8243 476.473 57.0312 476.437 57.2356 476.302L61.3267 473.721C61.599 473.549 61.8495 473.214 62.023 472.789C62.1964 472.365 62.2787 471.886 62.2516 471.457C62.2246 471.028 62.0905 470.686 61.8788 470.504C61.6671 470.323 61.3951 470.317 61.1228 470.489ZM61.5142 476.963C61.3766 477.046 61.2428 477.172 61.1205 477.334C60.9983 477.495 60.8902 477.688 60.8026 477.902C60.6718 478.222 60.5916 478.575 60.5723 478.916C60.5531 479.257 60.5957 479.571 60.6946 479.818C60.7935 480.064 60.9442 480.231 61.1274 480.298C61.3105 480.365 61.5177 480.328 61.7222 480.192L76.0944 471.125C76.3667 470.953 76.6172 470.618 76.7906 470.194C76.9641 469.769 77.0463 469.29 77.0193 468.861C76.9922 468.433 76.8581 468.09 76.6464 467.908C76.4347 467.727 76.1628 467.721 75.8905 467.893L61.5142 476.963ZM57.8145 486.018C57.6769 486.101 57.5431 486.227 57.4208 486.388C57.2986 486.55 57.1905 486.743 57.1029 486.957C56.9721 487.277 56.8919 487.63 56.8727 487.971C56.8534 488.312 56.896 488.626 56.9949 488.873C57.0938 489.119 57.2445 489.286 57.4277 489.353C57.6108 489.42 57.818 489.383 58.0225 489.247L76.5022 477.589C76.7745 477.417 77.025 477.082 77.1984 476.657C77.3719 476.233 77.4542 475.753 77.4271 475.325C77.4001 474.896 77.2659 474.554 77.0543 474.372C76.8426 474.19 76.5706 474.185 76.2983 474.357L57.8145 486.018ZM63.2785 489.594C62.4947 490.076 61.7327 490.8 61.0371 491.724C60.3415 492.647 59.7263 493.752 59.2273 494.972L59.2084 495.011C59.1982 495.034 59.1883 495.057 59.1786 495.081L59.1651 495.069C58.6626 496.298 58.2858 497.619 58.0562 498.956C57.8266 500.293 57.7488 501.62 57.8271 502.861C57.9054 504.102 58.1383 505.233 58.5126 506.189C58.8868 507.145 59.3951 507.907 60.0082 508.432L60.7849 509.098L68.5591 515.713C68.6639 515.804 68.7848 515.852 68.9147 515.854C69.0446 515.857 69.181 515.815 69.316 515.729C69.4511 515.644 69.5822 515.518 69.7018 515.358C69.8214 515.198 69.9272 515.007 70.0131 514.796L76.3897 499.26L77.0256 497.696C77.5278 496.467 77.9042 495.146 78.1335 493.809C78.3627 492.472 78.4401 491.145 78.3615 489.905C78.2828 488.664 78.0495 487.533 77.6749 486.578C77.3003 485.622 76.7918 484.86 76.1783 484.336C74.9368 483.289 73.3487 483.263 71.7583 484.264C70.1678 485.265 68.703 487.212 67.6811 489.683L67.6988 489.692C67.6988 489.692 67.6933 489.705 67.6775 489.692C66.4413 488.65 64.863 488.615 63.2785 489.594ZM63.4702 492.766C64.4734 492.15 65.5177 492.15 66.3865 492.889L67.159 493.558C67.3707 493.739 67.6425 493.744 67.9148 493.573C68.1871 493.401 68.4375 493.066 68.611 492.641L69.2453 491.085C69.5764 490.268 69.9851 489.527 70.4479 488.906C70.9107 488.284 71.4183 487.794 71.9414 487.464C72.4645 487.134 72.9927 486.971 73.4955 486.983C73.9982 486.996 74.4656 487.184 74.8705 487.537C76.5945 489.003 76.8368 492.876 75.4253 496.33L74.7927 497.879L69.0656 511.828L62.0882 505.894L61.3116 505.228C60.9037 504.889 60.5652 504.392 60.3161 503.764C60.067 503.137 59.9123 502.392 59.861 501.573C59.8098 500.754 59.863 499.878 60.0176 498.996C60.1722 498.114 60.425 497.244 60.7612 496.438L60.7801 496.399C60.789 496.379 60.7977 496.359 60.8062 496.339C61.1314 495.529 61.5349 494.796 61.9926 494.182C62.4502 493.568 62.9527 493.087 63.4702 492.766ZM63.6187 495.798C62.7356 496.355 62.226 497.789 62.0466 499.007C61.8675 500.229 61.9378 501.344 62.2514 502.252C62.3101 502.422 62.3923 502.561 62.4933 502.66C62.5942 502.759 62.7121 502.817 62.84 502.829C62.9679 502.842 63.1034 502.809 63.2387 502.734C63.3741 502.658 63.5066 502.54 63.6288 502.388C63.751 502.235 63.8604 502.051 63.9508 501.845C64.0412 501.638 64.1109 501.415 64.1557 501.187C64.2006 500.958 64.2199 500.73 64.2124 500.514C64.2049 500.298 64.1709 500.099 64.1121 499.929C64.0305 499.631 64.0081 499.275 64.0473 498.901C64.056 498.835 64.0434 498.873 64.0465 498.855C63.9737 498.925 63.8986 498.984 63.8226 499.029C64.0383 498.893 64.0593 498.786 64.0465 498.855C64.293 498.616 64.5023 498.25 64.633 497.828C64.7637 497.407 64.8065 496.96 64.7528 496.576C64.6991 496.193 64.553 495.9 64.343 495.756C64.1331 495.612 63.8747 495.627 63.6187 495.798ZM51.5086 504.264L52.1868 515.013L47.1906 512.691C48.049 510.896 49.5343 508.003 51.5086 504.264ZM84.375 483.634C85.9724 484.298 87.5422 485.056 89.0819 485.907L85.0061 493.636L84.375 483.634ZM90.7408 487.219C90.9188 487.571 91.0566 487.994 91.0915 488.547L93.5343 527.331C93.6491 529.151 92.8407 531.129 91.6845 531.858L50.6176 557.767C49.4614 558.496 48.4748 557.65 48.36 555.83L45.9089 517.052C45.8865 516.696 45.9281 516.341 45.97 515.988L66.7555 525.645C67.6201 526.065 68.6245 525.952 69.6234 525.322C70.6222 524.692 71.5635 523.577 72.3109 522.141L90.7408 487.219ZM81.4169 521.534C81.2789 521.617 81.1447 521.743 81.0221 521.905C80.8994 522.066 80.791 522.26 80.7032 522.475C80.5726 522.794 80.4925 523.146 80.4731 523.487C80.4537 523.828 80.4959 524.141 80.5943 524.388C80.6927 524.634 80.8428 524.802 81.0253 524.869C81.2078 524.937 81.4145 524.901 81.6187 524.767L87.78 520.88C88.0523 520.708 88.3028 520.373 88.4762 519.949C88.6497 519.524 88.7319 519.045 88.7049 518.616C88.6779 518.188 88.5437 517.845 88.332 517.663C88.1203 517.482 87.8484 517.476 87.5761 517.648L81.4148 521.535L81.4169 521.534ZM77.7275 530.582C77.5899 530.666 77.456 530.792 77.3338 530.953C77.2116 531.114 77.1034 531.308 77.0158 531.522C76.8853 531.841 76.8052 532.193 76.7858 532.534C76.7664 532.875 76.8086 533.188 76.9069 533.435C77.0053 533.681 77.1554 533.849 77.3379 533.916C77.5204 533.984 77.7271 533.948 77.9314 533.814L88.1878 527.344C88.4602 527.172 88.7106 526.837 88.8841 526.412C89.0575 525.988 89.1398 525.508 89.1127 525.08C89.0857 524.651 88.9516 524.309 88.7399 524.127C88.5282 523.945 88.2562 523.94 87.9839 524.112L77.7275 530.582Z" fill="#3E2029"/>
<path d="M256.138 69.3921C256.241 69.9902 256.569 70.5259 257.05 70.884C257.531 71.2421 258.127 71.394 258.71 71.307C259.228 71.0625 259.645 70.638 259.888 70.1071C260.13 69.5761 260.182 68.9721 260.036 68.3996C259.89 67.8271 259.554 67.3222 259.087 66.9724C258.62 66.6225 258.051 66.4497 257.478 66.4839C256.926 66.6865 256.477 67.1045 256.226 67.6482C255.975 68.1919 255.944 68.8179 256.138 69.3921ZM258.786 68.716C258.952 69.3677 258.704 69.9198 258.377 70.0034C258.049 70.087 257.569 69.7237 257.402 69.0694C257.235 68.415 257.484 67.8655 257.81 67.7822C258.136 67.699 258.619 68.0616 258.786 68.716ZM257.388 73.981C257.527 73.4584 257.5 72.9016 257.311 72.3909C257.122 71.8802 256.781 71.4419 256.337 71.1392C256.118 70.985 255.866 70.8865 255.604 70.8521C255.342 70.8176 255.076 70.8482 254.829 70.9412C254.583 71.0342 254.362 71.187 254.186 71.3867C254.011 71.5864 253.885 71.8272 253.819 72.0889C253.674 72.611 253.701 73.17 253.895 73.68C254.043 74.1747 254.361 74.5996 254.789 74.8754C255.217 75.1513 255.725 75.2592 256.22 75.1791C256.273 75.1655 256.326 75.1519 256.378 75.1302C256.622 75.0325 256.84 74.878 257.016 74.6787C257.191 74.4794 257.318 74.2407 257.388 73.981ZM255.116 73.2198C255.025 72.9898 255.007 72.7366 255.067 72.4979C255.081 72.4346 255.108 72.3754 255.147 72.3244C255.186 72.2735 255.235 72.2321 255.292 72.2031L255.319 72.196C255.437 72.1787 255.556 72.2082 255.654 72.2785C255.855 72.4181 256.006 72.62 256.087 72.854C256.178 73.0841 256.196 73.3371 256.136 73.5758C256.122 73.639 256.095 73.698 256.056 73.7487C256.017 73.7995 255.967 73.8406 255.911 73.8694C255.691 73.9477 255.293 73.6953 255.116 73.2198ZM260.935 68.1673C261.1 68.5336 261.363 68.8454 261.693 69.0662C262.022 69.287 262.405 69.4076 262.796 69.4139C263.186 69.4202 263.569 69.3119 263.899 69.1018C264.229 68.8916 264.492 68.5883 264.658 68.2274C264.824 67.8665 264.886 67.463 264.836 67.0642C264.786 66.6653 264.627 66.2877 264.376 65.9756C264.126 65.6635 263.796 65.4298 263.423 65.302C263.051 65.1742 262.653 65.1575 262.275 65.254C261.722 65.4568 261.272 65.8757 261.021 66.4206C260.771 66.9654 260.74 67.5927 260.935 68.1673ZM263.583 67.4916C263.749 68.1433 263.502 68.6951 263.175 68.7787C262.847 68.8623 262.367 68.499 262.199 67.8446C262.032 67.1903 262.28 66.6411 262.607 66.5575C262.935 66.4739 263.415 66.8372 263.583 67.4916ZM267.98 68.2545C267.805 68.1143 267.605 68.0108 267.391 67.9501C267.178 67.8895 266.956 67.8728 266.737 67.9012C266.22 68.0215 265.774 68.3482 265.496 68.8095C265.218 69.2709 265.131 69.8293 265.254 70.3625C265.293 70.9066 265.539 71.4163 265.938 71.7819C266.336 72.1475 266.857 72.3398 267.386 72.3173C267.441 72.309 267.495 72.298 267.548 72.2845C268.02 72.1183 268.415 71.7799 268.659 71.3326C268.902 70.8853 268.977 70.3599 268.869 69.8547C268.787 69.2252 268.468 68.6505 267.98 68.2545ZM267.196 70.9871C266.953 71.0214 266.626 70.6842 266.551 70.1799C266.476 69.6755 266.694 69.2631 266.937 69.2288C267.036 69.222 267.134 69.2553 267.21 69.3216C267.418 69.5035 267.551 69.7591 267.582 70.036C267.651 70.5407 267.429 70.9486 267.191 70.9884L267.196 70.9871ZM266.203 73.1555C265.931 73.0256 265.676 72.8623 265.443 72.6691C263.906 71.1732 262.467 70.5823 261.169 70.9137C259.871 71.2452 258.893 72.4528 258.262 74.5022C258.149 74.7835 258.003 75.0492 257.827 75.2935C257.352 75.8262 257.071 76.513 257.033 77.2391C256.994 77.9652 257.2 78.6867 257.615 79.2827C257.882 79.7611 258.267 80.1603 258.73 80.44C259.193 80.7197 259.718 80.87 260.251 80.8756C260.456 80.8714 260.66 80.8437 260.858 80.793C261.447 80.6603 261.961 80.2984 262.292 79.7825C262.508 79.4218 262.852 79.163 263.253 79.0607C263.654 78.9584 264.08 79.0204 264.442 79.2339C264.98 79.5279 265.604 79.5992 266.185 79.433C266.384 79.3823 266.576 79.309 266.758 79.2145C267.224 78.9535 267.612 78.57 267.884 78.1027C268.157 77.6354 268.303 77.1007 268.309 76.5527C268.386 75.8295 268.219 75.0972 267.834 74.4789C267.45 73.8605 266.872 73.3937 266.198 73.1568L266.203 73.1555ZM266.998 76.4236C267.003 76.7442 266.928 77.0596 266.778 77.3387C266.629 77.6178 266.411 77.8512 266.145 78.0159C265.986 78.1072 265.808 78.1607 265.624 78.1725C265.441 78.1842 265.257 78.1539 265.085 78.0837C264.426 77.6915 263.648 77.5766 262.916 77.7634C262.184 77.9502 261.557 78.4241 261.166 79.0842C261.049 79.2283 260.902 79.3433 260.736 79.4209C260.569 79.4985 260.387 79.5367 260.203 79.5327C259.891 79.5155 259.588 79.4153 259.323 79.2421C259.058 79.0688 258.84 78.8283 258.691 78.5443C257.99 77.4745 258.376 76.8772 258.911 76.0498C258.912 76.0492 258.912 76.0487 258.913 76.0481C259.16 75.7047 259.358 75.3269 259.503 74.9255C259.839 73.8372 260.458 72.4838 261.497 72.2185C262.536 71.9533 263.73 72.8439 264.546 73.6382C264.865 73.9208 265.22 74.1572 265.602 74.3405C265.603 74.3412 265.604 74.3418 265.605 74.3424C266.471 74.8128 267.096 75.1521 266.993 76.4262L266.998 76.4236ZM234.157 59.1663C233.895 59.2895 233.664 59.4735 233.484 59.704C233.303 59.9346 233.177 60.2055 233.115 60.4959C232.985 61.0892 233.049 61.7132 233.299 62.2707C233.487 62.7967 233.848 63.2411 234.318 63.5269C234.789 63.8126 235.339 63.9215 235.874 63.8348C235.963 63.8124 236.05 63.7823 236.134 63.7448C236.647 63.4525 237.024 62.9636 237.186 62.3832C237.347 61.8027 237.279 61.1771 236.997 60.6408C236.802 60.0639 236.394 59.5858 235.863 59.3098C235.332 59.0339 234.719 58.9823 234.157 59.1663ZM235.597 62.5047C235.275 62.6534 234.753 62.3633 234.491 61.7429C234.361 61.4582 234.324 61.1393 234.385 60.834C234.402 60.7428 234.437 60.6567 234.49 60.5819C234.542 60.507 234.611 60.4452 234.689 60.4009C234.71 60.3937 234.73 60.3885 234.751 60.3851C235.065 60.305 235.548 60.5872 235.799 61.1689C236.068 61.7818 235.909 62.368 235.601 62.5037L235.597 62.5047ZM235.248 66.6036C235.31 66.0637 235.196 65.5153 234.924 65.0438C234.693 64.5492 234.284 64.1648 233.784 63.9732C233.284 63.7816 232.734 63.7982 232.252 64.0194C231.822 64.3302 231.529 64.8037 231.438 65.3384C231.347 65.8731 231.463 66.4263 231.763 66.8794C232.024 67.358 232.431 67.737 232.919 67.9575C233.275 68.1164 233.67 68.1534 234.045 68.0631C234.182 68.0285 234.313 67.9749 234.435 67.9038C234.66 67.767 234.85 67.5786 234.991 67.3532C235.132 67.1277 235.22 66.8713 235.248 66.6036ZM233.952 66.4068C233.956 66.4734 233.941 66.5394 233.91 66.5976C233.879 66.6558 233.833 66.7039 233.777 66.7365C233.721 66.7692 233.657 66.7853 233.592 66.7829C233.527 66.7805 233.464 66.7598 233.409 66.723C233.19 66.6187 233.008 66.4443 232.892 66.2261C232.644 65.7826 232.697 65.3138 232.909 65.1902C232.93 65.178 232.953 65.169 232.976 65.1633C233.201 65.1058 233.569 65.3008 233.787 65.7019C233.915 65.9132 233.973 66.1601 233.955 66.4061L233.952 66.4068ZM238.689 57.1612C238.426 57.2843 238.196 57.4681 238.016 57.6983C237.835 57.9286 237.709 58.1992 237.647 58.4892C237.523 59.0832 237.586 59.7052 237.828 60.2654C238.069 60.8257 238.477 61.2952 238.991 61.6062C239.42 61.8593 239.923 61.9372 240.4 61.8241C240.489 61.8011 240.577 61.7709 240.661 61.7339C241.174 61.441 241.551 60.9519 241.712 60.3713C241.873 59.7908 241.806 59.1651 241.524 58.6285C241.327 58.0547 240.92 57.5796 240.391 57.3052C239.861 57.0308 239.251 56.9788 238.691 57.1606L238.689 57.1612ZM240.128 60.4983C240.042 60.5274 239.952 60.5366 239.862 60.5252C239.772 60.5138 239.685 60.4821 239.609 60.4323C239.35 60.2655 239.145 60.023 239.022 59.7366C238.898 59.4502 238.861 59.1333 238.916 58.8276C238.932 58.7363 238.968 58.6502 239.021 58.5755C239.074 58.5007 239.143 58.4393 239.222 58.3955C239.242 58.3884 239.262 58.3832 239.283 58.38C239.596 58.3 240.08 58.5819 240.329 59.1625C240.598 59.777 240.44 60.3603 240.13 60.4977L240.128 60.4983ZM243.499 59.0406C243.25 59.1244 243.024 59.2665 242.839 59.4556C242.654 59.6447 242.514 59.8759 242.431 60.1311C242.265 60.645 242.263 61.2023 242.425 61.7225C242.588 62.2426 242.906 62.6985 243.335 63.0243C243.537 63.1761 243.768 63.2817 244.012 63.3339C244.257 63.3861 244.508 63.3838 244.75 63.3269L244.832 63.306C245.081 63.2221 245.307 63.0801 245.492 62.891C245.677 62.7018 245.817 62.4706 245.9 62.2155C246.066 61.7015 246.068 61.1442 245.906 60.6241C245.743 60.104 245.424 59.6481 244.996 59.3222C244.782 59.1625 244.537 59.0542 244.278 59.0053C244.019 58.9564 243.754 58.9682 243.502 59.04L243.499 59.0406ZM244.671 61.7377C244.653 61.8001 244.623 61.8576 244.581 61.9062C244.54 61.9549 244.488 61.9937 244.431 62.0199C244.368 62.0325 244.304 62.0306 244.242 62.0145C244.18 61.9983 244.122 61.9683 244.073 61.9265C243.883 61.7727 243.743 61.5645 243.669 61.329C243.595 61.0934 243.592 60.8416 243.659 60.6062C243.677 60.544 243.708 60.4866 243.749 60.438C243.791 60.3893 243.842 60.3505 243.9 60.3241L243.915 60.3202C243.975 60.3117 244.036 60.3159 244.095 60.3326C244.154 60.3493 244.209 60.3782 244.257 60.4174C244.449 60.566 244.59 60.7733 244.66 61.0088C244.741 61.2449 244.745 61.5003 244.674 61.7371L244.671 61.7377ZM243.793 64.3291C243.506 64.2454 243.229 64.1264 242.968 63.9748C241.223 62.7471 239.715 62.4088 238.488 62.9413C237.261 63.4739 236.487 64.8406 236.187 66.9735C236.121 67.2706 236.019 67.5578 235.884 67.8283C235.499 68.4338 235.331 69.1597 235.407 69.8845C235.483 70.6093 235.798 71.2889 236.301 71.8095C236.64 72.2389 237.082 72.5704 237.582 72.7704C238.082 72.9704 238.623 73.0317 239.15 72.9482C239.205 72.9344 239.259 72.9205 239.312 72.9069C239.677 72.8238 240.018 72.656 240.308 72.4164C240.598 72.1768 240.83 71.8717 240.987 71.5241C241.036 71.3149 241.139 71.1238 241.285 70.9707C241.431 70.8177 241.615 70.7083 241.818 70.6538C241.994 70.5398 242.198 70.4771 242.408 70.4724C242.618 70.4677 242.825 70.5213 243.01 70.6273C243.438 70.7838 243.9 70.8023 244.335 70.6806C244.679 70.5925 245.002 70.4374 245.287 70.2236C245.705 69.8882 246.027 69.4444 246.221 68.9369C246.415 68.4295 246.475 67.8764 246.394 67.3335C246.357 66.6078 246.079 65.9135 245.606 65.3666C245.133 64.8197 244.494 64.4533 243.796 64.3285L243.793 64.3291ZM245.089 67.4307C245.145 67.7471 245.12 68.0718 245.016 68.3729C244.913 68.6739 244.734 68.9409 244.498 69.1476C244.356 69.2639 244.19 69.3459 244.013 69.3877C243.835 69.4294 243.65 69.43 243.471 69.3892C243.126 69.2171 242.748 69.131 242.367 69.1379C241.986 69.1448 241.614 69.2446 241.28 69.429C240.921 69.5521 240.596 69.7613 240.333 70.0395C240.069 70.3177 239.875 70.6569 239.765 71.0294C239.672 71.19 239.546 71.3272 239.396 71.4311C239.245 71.5351 239.074 71.6033 238.893 71.6309C238.584 71.6653 238.269 71.6164 237.981 71.489C237.693 71.3615 237.441 71.1598 237.249 70.9037C236.391 69.96 236.678 69.305 237.075 68.399C237.075 68.3985 237.075 68.398 237.076 68.3975C237.265 68.015 237.401 67.6064 237.479 67.1836C237.639 66.0516 238.034 64.6094 239.018 64.175C240.002 63.7405 241.313 64.4223 242.241 65.0752C242.601 65.3024 242.988 65.4777 243.392 65.5964C243.393 65.5966 243.394 65.5968 243.394 65.5969C244.323 65.9203 244.993 66.1535 245.091 67.4301L245.089 67.4307ZM248.747 40.9575C248.935 40.9097 249.113 40.8294 249.275 40.72C249.728 40.3383 250.014 39.7872 250.073 39.185C250.131 38.5829 249.957 37.9777 249.588 37.4994C249.26 36.9858 248.777 36.595 248.216 36.3876C247.943 36.2776 247.65 36.2362 247.361 36.2669C247.072 36.2976 246.795 36.3995 246.554 36.5639C246.313 36.7284 246.115 36.9506 245.977 37.2117C245.839 37.4729 245.764 37.7653 245.759 38.0643C245.732 38.6735 245.901 39.2781 246.24 39.7841C246.496 40.2168 246.874 40.5609 247.322 40.7705C247.771 40.98 248.268 41.045 248.749 40.9569L248.747 40.9575ZM247.064 38.1673C247.065 38.0755 247.086 37.9854 247.125 37.9034C247.164 37.8214 247.22 37.7495 247.29 37.693C247.331 37.6652 247.376 37.6447 247.424 37.6324C247.553 37.6062 247.687 37.6171 247.812 37.664C248.098 37.7762 248.342 37.9798 248.508 38.2443C248.877 38.8083 248.821 39.4139 248.541 39.6035C248.261 39.793 247.693 39.6158 247.323 39.0522C247.146 38.7924 247.056 38.4814 247.066 38.1667L247.064 38.1673ZM247.696 45.4648C247.927 45.4068 248.142 45.296 248.324 45.1406C248.522 44.9648 248.677 44.744 248.777 44.4952C248.877 44.2464 248.919 43.9765 248.9 43.7063C248.863 43.1634 248.657 42.6444 248.315 42.2246C247.972 41.8047 247.51 41.5059 246.996 41.3713C246.739 41.3052 246.473 41.3004 246.217 41.3572C245.96 41.414 245.721 41.5308 245.517 41.6987C245.35 41.8449 245.214 42.0239 245.115 42.2256C245.017 42.4273 244.959 42.6476 244.944 42.8737C244.909 43.5061 245.117 44.1312 245.523 44.6142C245.862 45.0391 246.326 45.3389 246.844 45.467C247.126 45.5351 247.419 45.5341 247.698 45.4642L247.696 45.4648ZM246.246 43.0025C246.249 42.9012 246.29 42.8056 246.361 42.7357C246.396 42.7067 246.436 42.6863 246.48 42.6761C246.561 42.6589 246.646 42.6607 246.727 42.6812C246.958 42.7499 247.164 42.8883 247.32 43.0783C247.475 43.2683 247.571 43.5011 247.596 43.7463C247.604 43.8113 247.597 43.877 247.577 43.9388C247.557 44.0005 247.524 44.0568 247.48 44.1036C247.428 44.1387 247.368 44.1616 247.305 44.1708C247.243 44.1801 247.179 44.1754 247.118 44.1571C246.883 44.0916 246.674 43.9501 246.522 43.7538C246.343 43.5462 246.245 43.2777 246.248 43.0018L246.246 43.0025ZM251.716 38.0961C252.08 38.2279 252.472 38.2497 252.845 38.159C253.035 38.1106 253.215 38.0299 253.378 37.9203C253.615 37.751 253.809 37.5277 253.947 37.2674C254.085 37.0071 254.162 36.7168 254.173 36.4191C254.193 35.8107 254.024 35.2086 253.691 34.6997C253.358 34.1909 252.878 33.8015 252.319 33.5878C252.047 33.4775 251.754 33.4358 251.465 33.4663C251.175 33.4967 250.898 33.5984 250.657 33.7628C250.416 33.9272 250.218 34.1493 250.08 34.4105C249.942 34.6717 249.867 34.9642 249.863 35.2632C249.842 35.8719 250.01 36.4743 250.343 36.9835C250.677 37.4927 251.157 37.8824 251.716 38.0961ZM251.167 35.3676C251.168 35.2758 251.189 35.1856 251.228 35.1036C251.267 35.0216 251.324 34.9498 251.393 34.8933C251.434 34.8654 251.48 34.845 251.527 34.8327C251.657 34.8065 251.791 34.8174 251.915 34.8642C252.198 34.9821 252.44 35.1846 252.61 35.4449C252.781 35.7053 252.871 36.0114 252.869 36.3229C252.875 36.4164 252.857 36.5096 252.817 36.5931C252.777 36.6767 252.716 36.7477 252.641 36.7991C252.565 36.8505 252.478 36.8805 252.387 36.8862C252.296 36.8919 252.205 36.873 252.123 36.8315C251.837 36.7199 251.593 36.5166 251.428 36.2521C251.25 35.9926 251.16 35.6817 251.17 35.3669L251.167 35.3676ZM255.111 37.5931C255.309 38.0321 255.642 38.3935 256.058 38.6205C256.473 38.8476 256.949 38.9274 257.41 38.8475C257.526 38.818 257.639 38.7743 257.745 38.7173C257.975 38.5892 258.172 38.408 258.322 38.1878C258.471 37.9677 258.569 37.7144 258.608 37.4475C258.689 36.9103 258.595 36.3578 258.341 35.8758C258.257 35.6103 258.117 35.3661 257.932 35.1604C257.747 34.9546 257.521 34.7923 257.27 34.6847C257.018 34.5772 256.748 34.5271 256.478 34.5378C256.208 34.5486 255.944 34.6201 255.705 34.7472C255.466 34.8742 255.257 35.0539 255.094 35.2735C254.932 35.4932 254.818 35.7475 254.761 36.0186C254.705 36.2897 254.707 36.5711 254.768 36.8431C254.829 37.115 254.945 37.3712 255.111 37.5931ZM256.32 35.946C256.541 35.8257 256.954 36.0383 257.185 36.4903C257.303 36.7075 257.35 36.9569 257.319 37.2016C257.313 37.2668 257.294 37.3297 257.262 37.3859C257.229 37.4421 257.186 37.4902 257.133 37.5268C256.929 37.6524 256.501 37.4355 256.267 36.9842C256.034 36.5329 256.102 36.0572 256.319 35.9421L256.32 35.946ZM259.972 42.4213C259.812 41.7106 259.421 41.074 258.864 40.6179C258.306 40.1618 257.616 39.9139 256.908 39.9155C256.611 39.8854 256.318 39.8179 256.037 39.7145C254.11 38.8179 252.569 38.7544 251.46 39.511C250.351 40.2689 249.825 41.7485 249.896 43.9063C249.878 44.2099 249.823 44.5093 249.733 44.7977C249.537 45.3653 249.492 45.9782 249.602 46.574C249.713 47.1699 249.974 47.7274 250.36 48.19C250.746 48.6525 251.243 49.0036 251.8 49.2075C252.358 49.4114 252.955 49.4609 253.533 49.3509C253.97 49.2389 254.369 49.0121 254.692 48.6926C255.016 48.3731 255.251 47.9717 255.377 47.5278C255.389 47.3132 255.458 47.1069 255.575 46.9305C255.692 46.754 255.854 46.6138 256.043 46.5246C256.197 46.3797 256.387 46.2807 256.592 46.238C256.798 46.1953 257.011 46.2105 257.211 46.2821C257.504 46.3379 257.805 46.3266 258.091 46.2489C258.582 46.1186 259.027 45.8499 259.374 45.4729C259.727 45.0664 259.968 44.5699 260.073 44.0334C260.178 43.497 260.142 42.9395 259.971 42.4174L259.972 42.4213ZM258.42 44.5418C258.3 44.6821 258.151 44.7929 257.984 44.8662C257.816 44.9395 257.634 44.9734 257.451 44.9656C257.083 44.859 256.697 44.843 256.324 44.9189C255.952 44.9947 255.603 45.1602 255.307 45.4018C254.975 45.5883 254.692 45.8535 254.482 46.1757C254.271 46.4979 254.138 46.8679 254.094 47.2554C254.03 47.4296 253.93 47.5868 253.8 47.7159C253.67 47.845 253.514 47.9429 253.342 48.0027C253.044 48.0953 252.727 48.1052 252.421 48.0315C252.116 47.9579 251.834 47.8032 251.603 47.5831C250.598 46.8092 250.768 46.1107 251.003 45.1458C251.004 45.1447 251.004 45.1435 251.004 45.1423C251.124 44.7317 251.187 44.3053 251.192 43.8752C251.155 42.728 251.298 41.2338 252.186 40.6265C253.071 40.0176 254.481 40.4573 255.506 40.9316C255.897 41.0901 256.307 41.1929 256.724 41.237C256.725 41.2372 256.726 41.2374 256.727 41.2375C257.691 41.3864 258.388 41.494 258.705 42.7362C258.815 43.039 258.846 43.3648 258.796 43.6814C258.746 43.998 258.617 44.2946 258.42 44.5418ZM225.018 41.979C225.302 41.9081 225.563 41.7641 225.777 41.5604C225.983 41.3537 226.14 41.1005 226.235 40.8201C226.33 40.5397 226.36 40.2397 226.324 39.9433C226.254 39.3384 225.993 38.771 225.581 38.3281C225.21 37.8511 224.674 37.5396 224.088 37.4604C223.502 37.3813 222.913 37.5409 222.447 37.9049C222.061 38.3574 221.865 38.95 221.902 39.5554C221.939 40.1608 222.205 40.7306 222.644 41.1423C222.936 41.4837 223.309 41.741 223.726 41.8879C224.143 42.0349 224.589 42.0663 225.018 41.979ZM223.345 38.8876C223.402 38.8361 223.471 38.8 223.545 38.7826C223.746 38.7573 223.951 38.7856 224.14 38.8646C224.33 38.9437 224.497 39.0709 224.625 39.2342C224.839 39.4599 224.977 39.7497 225.018 40.0601C225.032 40.152 225.026 40.2458 225.001 40.3346C224.976 40.4234 224.932 40.505 224.872 40.5737C224.628 40.804 224.038 40.7255 223.587 40.2297C223.136 39.7339 223.1 39.1238 223.345 38.8876ZM223.633 42.5838C223.371 42.5606 223.108 42.5998 222.864 42.6983C222.621 42.7968 222.404 42.952 222.229 43.1518C221.924 43.5936 221.802 44.1434 221.89 44.6827C221.977 45.2219 222.266 45.7075 222.696 46.0346C223.096 46.3978 223.6 46.6176 224.13 46.66C224.322 46.6724 224.515 46.6549 224.702 46.6082C225.026 46.529 225.317 46.3486 225.534 46.0917C225.839 45.6498 225.961 45.1001 225.874 44.5609C225.787 44.0218 225.497 43.5362 225.068 43.2089C224.668 42.8443 224.163 42.6244 223.633 42.5838ZM224.539 45.2058C224.493 45.2503 224.438 45.2835 224.378 45.303C224.317 45.3225 224.253 45.3279 224.19 45.3186C223.95 45.2948 223.723 45.1913 223.544 45.024C223.167 44.6896 223.07 44.2256 223.224 44.0364C223.269 43.9866 223.327 43.9523 223.392 43.9381C223.451 43.924 223.513 43.9191 223.574 43.9236C223.813 43.9485 224.039 44.052 224.219 44.2185C224.594 44.5503 224.698 45.0153 224.534 45.2071L224.539 45.2058ZM228.047 38.5912C228.236 38.6 228.425 38.5808 228.608 38.5342C228.896 38.4624 229.16 38.3166 229.376 38.1103C229.583 37.9042 229.739 37.6515 229.834 37.3715C229.929 37.0916 229.96 36.792 229.924 36.4959C229.849 35.8902 229.589 35.322 229.181 34.8733C228.773 34.4246 228.239 34.1187 227.655 33.9997C227.369 33.9365 227.074 33.9444 226.794 34.0229C226.515 34.1014 226.258 34.2481 226.047 34.4507C225.835 34.6533 225.675 34.9058 225.58 35.187C225.485 35.4682 225.457 35.7698 225.499 36.0664C225.568 36.6715 225.83 37.2391 226.242 37.6816C226.707 38.216 227.356 38.5429 228.047 38.5912ZM226.945 35.4389C227.002 35.3859 227.071 35.3486 227.146 35.3306C227.247 35.3071 227.352 35.3049 227.454 35.3242C227.751 35.3932 228.022 35.553 228.231 35.7824C228.44 36.0117 228.577 36.2998 228.624 36.6085C228.638 36.7006 228.632 36.7945 228.607 36.8833C228.581 36.9722 228.537 37.0539 228.476 37.1224C228.422 37.1694 228.36 37.2049 228.292 37.2267C228.224 37.2485 228.153 37.2562 228.082 37.2494C227.74 37.2151 227.422 37.0478 227.194 36.782C226.98 36.5562 226.842 36.2665 226.801 35.9561C226.786 35.8637 226.791 35.7694 226.816 35.6799C226.841 35.5905 226.885 35.5081 226.945 35.4389ZM233.245 38.4418C233.445 38.3913 233.634 38.3003 233.799 38.1741C234.189 37.8103 234.422 37.3014 234.448 36.7572C234.474 36.2129 234.29 35.677 233.937 35.2647C233.649 34.8014 233.197 34.4703 232.678 34.3428C232.16 34.2154 231.616 34.302 231.165 34.5838C230.775 34.9476 230.542 35.4565 230.516 36.0007C230.49 36.5449 230.674 37.0809 231.027 37.4931C231.27 37.8545 231.609 38.1368 232.003 38.3053C232.397 38.4738 232.829 38.5213 233.245 38.4418ZM231.959 35.6682C232.154 35.5172 232.598 35.6537 232.897 36.0619C233.197 36.47 233.202 36.9436 233.006 37.0936C232.81 37.2436 232.367 37.108 232.068 36.6999C231.768 36.2918 231.764 35.8179 231.959 35.6682ZM232.267 39.4469C230.229 38.8813 228.701 39.0685 227.728 40.0029C226.754 40.9373 226.467 42.4866 226.876 44.6107C226.91 44.9151 226.908 45.2222 226.868 45.5249C226.703 46.2302 226.78 46.9759 227.086 47.637C227.392 48.298 227.909 48.8342 228.549 49.1556C229.265 49.5865 230.109 49.7248 230.912 49.5425C231.149 49.482 231.377 49.3883 231.589 49.264C231.941 49.0661 232.239 48.7834 232.459 48.4398C232.679 48.0962 232.814 47.7019 232.854 47.2904C232.831 47.0753 232.865 46.8588 232.952 46.6637C233.04 46.4686 233.177 46.3022 233.35 46.182C233.479 46.0132 233.65 45.8839 233.846 45.8078C234.041 45.7317 234.254 45.7117 234.461 45.7498C234.864 45.7377 235.257 45.6257 235.607 45.4235C235.956 45.2212 236.251 44.9345 236.467 44.5879C236.75 44.1276 236.909 43.597 236.927 43.0497C236.945 42.5024 236.822 41.9577 236.571 41.4706C236.302 40.7931 235.816 40.2276 235.194 39.869C234.572 39.5104 233.852 39.3804 233.154 39.5007C232.858 39.52 232.56 39.5019 232.267 39.4469ZM235.377 41.999C235.531 42.2798 235.613 42.5959 235.613 42.9163C235.614 43.2368 235.533 43.5506 235.379 43.8271C235.284 43.9861 235.155 44.1207 235.001 44.221C234.848 44.3214 234.674 44.3851 234.493 44.4074C234.114 44.3628 233.732 44.4108 233.377 44.5474C233.022 44.6841 232.705 44.9055 232.452 45.1937C232.154 45.433 231.916 45.7424 231.759 46.0963C231.602 46.4502 231.529 46.8386 231.547 47.2297C231.512 47.4135 231.438 47.5867 231.33 47.7368C231.222 47.8869 231.083 48.0104 230.923 48.0985C230.642 48.237 230.331 48.2981 230.018 48.2756C229.706 48.2532 229.403 48.1481 229.14 47.9705C228.029 47.371 228.086 46.651 228.166 45.6559C228.22 45.2299 228.216 44.7973 228.153 44.3707C227.936 43.2417 227.841 41.7401 228.623 40.9922C229.115 40.6908 229.671 40.5116 230.246 40.4686C230.821 40.4256 231.4 40.5199 231.938 40.7443C232.348 40.8354 232.768 40.8684 233.186 40.8423C233.189 40.8423 233.192 40.8422 233.194 40.8422C234.17 40.8295 234.869 40.8205 235.377 41.999Z" fill="#3E2029"/>
<path d="M235.377 41.999C235.531 42.2798 235.613 42.5959 235.613 42.9163C235.614 43.2368 235.533 43.5506 235.379 43.8271C235.284 43.9861 235.155 44.1207 235.001 44.221C234.848 44.3214 234.674 44.3851 234.493 44.4074C234.114 44.3628 233.732 44.4108 233.377 44.5474C233.022 44.6841 232.705 44.9055 232.452 45.1937C232.154 45.433 231.916 45.7424 231.759 46.0963C231.602 46.4502 231.529 46.8386 231.547 47.2297C231.512 47.4135 231.438 47.5867 231.33 47.7368C231.222 47.8869 231.083 48.0104 230.923 48.0985C230.642 48.237 230.331 48.2981 230.018 48.2756C229.706 48.2532 229.403 48.1481 229.14 47.9705C228.029 47.371 228.086 46.651 228.166 45.6559C228.22 45.2299 228.216 44.7973 228.153 44.3707C227.936 43.2417 227.841 41.7401 228.623 40.9922C229.115 40.6908 229.671 40.5116 230.246 40.4686C230.821 40.4256 231.4 40.5199 231.938 40.7443C232.348 40.8354 232.768 40.8684 233.186 40.8423L233.194 40.8422C234.17 40.8295 234.869 40.8205 235.377 41.999Z" fill="#3E2029"/>
<path d="M258.42 44.5418C258.3 44.6821 258.151 44.7929 257.984 44.8662C257.816 44.9395 257.634 44.9734 257.451 44.9656C257.083 44.859 256.697 44.843 256.324 44.9189C255.952 44.9947 255.603 45.1602 255.307 45.4018C254.975 45.5883 254.692 45.8535 254.482 46.1757C254.271 46.4979 254.138 46.8679 254.094 47.2554C254.03 47.4296 253.93 47.5868 253.8 47.7159C253.67 47.845 253.514 47.9429 253.342 48.0027C253.044 48.0953 252.727 48.1052 252.421 48.0315C252.116 47.9579 251.834 47.8032 251.603 47.5831C250.598 46.8092 250.768 46.1107 251.003 45.1458L251.004 45.1423C251.124 44.7317 251.187 44.3053 251.192 43.8752C251.155 42.728 251.298 41.2338 252.186 40.6265C253.071 40.0176 254.481 40.4573 255.506 40.9316C255.897 41.0901 256.307 41.1929 256.724 41.237L256.727 41.2375C257.691 41.3864 258.388 41.494 258.705 42.7362C258.815 43.039 258.846 43.3648 258.796 43.6814C258.746 43.998 258.617 44.2946 258.42 44.5418Z" fill="#3E2029"/>
<path d="M247.064 38.1673C247.065 38.0755 247.086 37.9854 247.125 37.9034C247.164 37.8214 247.22 37.7495 247.29 37.693C247.331 37.6652 247.376 37.6447 247.424 37.6324C247.553 37.6062 247.687 37.6171 247.812 37.664C248.098 37.7762 248.342 37.9798 248.508 38.2443C248.877 38.8083 248.821 39.4139 248.541 39.6035C248.261 39.793 247.693 39.6158 247.323 39.0522C247.146 38.7924 247.056 38.4814 247.066 38.1667L247.064 38.1673Z" fill="#3E2029"/>
<path d="M246.246 43.0025C246.249 42.9012 246.29 42.8056 246.361 42.7357C246.396 42.7067 246.436 42.6863 246.48 42.6761C246.561 42.6589 246.646 42.6607 246.727 42.6812C246.958 42.7499 247.164 42.8883 247.32 43.0783C247.475 43.2683 247.571 43.5011 247.596 43.7463C247.604 43.8113 247.597 43.877 247.577 43.9388C247.557 44.0005 247.524 44.0568 247.48 44.1036C247.428 44.1387 247.368 44.1616 247.305 44.1708C247.243 44.1801 247.179 44.1754 247.118 44.1571C246.883 44.0916 246.674 43.9501 246.522 43.7538C246.343 43.5462 246.245 43.2777 246.248 43.0018L246.246 43.0025Z" fill="#3E2029"/>
<path d="M251.167 35.3676C251.168 35.2758 251.189 35.1856 251.228 35.1036C251.267 35.0216 251.324 34.9498 251.393 34.8933C251.434 34.8654 251.48 34.845 251.527 34.8327C251.657 34.8065 251.791 34.8174 251.915 34.8642C252.198 34.9821 252.44 35.1846 252.61 35.4449C252.781 35.7053 252.871 36.0114 252.869 36.3229C252.875 36.4164 252.857 36.5096 252.817 36.5931C252.777 36.6767 252.716 36.7477 252.641 36.7991C252.565 36.8505 252.478 36.8805 252.387 36.8862C252.296 36.8919 252.205 36.873 252.123 36.8315C251.837 36.7199 251.593 36.5166 251.428 36.2521C251.25 35.9926 251.16 35.6817 251.17 35.3669L251.167 35.3676Z" fill="#3E2029"/>
<path d="M256.32 35.946C256.541 35.8257 256.954 36.0383 257.185 36.4903C257.303 36.7075 257.35 36.9569 257.319 37.2016C257.313 37.2668 257.294 37.3297 257.262 37.3859C257.229 37.4421 257.186 37.4902 257.133 37.5268C256.929 37.6524 256.501 37.4355 256.267 36.9842C256.034 36.5329 256.102 36.0572 256.319 35.9421L256.32 35.946Z" fill="#3E2029"/>
<path d="M226.945 35.4389C227.002 35.3859 227.071 35.3486 227.146 35.3306C227.247 35.3071 227.352 35.3049 227.454 35.3242C227.751 35.3932 228.022 35.553 228.231 35.7824C228.44 36.0117 228.577 36.2998 228.624 36.6085C228.638 36.7006 228.632 36.7945 228.607 36.8833C228.581 36.9722 228.537 37.0539 228.476 37.1224C228.422 37.1694 228.36 37.2049 228.292 37.2267C228.224 37.2485 228.153 37.2562 228.082 37.2494C227.74 37.2151 227.422 37.0478 227.194 36.782C226.98 36.5562 226.842 36.2665 226.801 35.9561C226.786 35.8637 226.791 35.7694 226.816 35.6799C226.841 35.5905 226.885 35.5081 226.945 35.4389Z" fill="#3E2029"/>
<path d="M231.959 35.6682C232.154 35.5172 232.598 35.6537 232.897 36.0619C233.197 36.47 233.202 36.9436 233.006 37.0936C232.81 37.2436 232.367 37.108 232.068 36.6999C231.768 36.2918 231.764 35.8179 231.959 35.6682Z" fill="#3E2029"/>
<path d="M223.345 38.8876C223.402 38.8361 223.471 38.8 223.545 38.7826C223.746 38.7573 223.951 38.7856 224.14 38.8646C224.33 38.9437 224.497 39.0709 224.625 39.2342C224.839 39.4599 224.977 39.7497 225.018 40.0601C225.032 40.152 225.026 40.2458 225.001 40.3346C224.976 40.4234 224.932 40.505 224.872 40.5737C224.628 40.804 224.038 40.7255 223.587 40.2297C223.136 39.7339 223.1 39.1238 223.345 38.8876Z" fill="#3E2029"/>
<path d="M224.539 45.2058C224.493 45.2503 224.438 45.2835 224.378 45.303C224.317 45.3225 224.253 45.3279 224.19 45.3186C223.95 45.2948 223.723 45.1913 223.544 45.024C223.167 44.6896 223.07 44.2256 223.224 44.0364C223.269 43.9866 223.327 43.9523 223.392 43.9381C223.451 43.924 223.513 43.9191 223.574 43.9236C223.813 43.9485 224.039 44.052 224.219 44.2185C224.594 44.5503 224.698 45.0153 224.534 45.2071L224.539 45.2058Z" fill="#3E2029"/>
<path d="M240.128 60.4983C240.042 60.5274 239.952 60.5366 239.862 60.5252C239.772 60.5138 239.685 60.4821 239.609 60.4323C239.35 60.2655 239.145 60.023 239.022 59.7366C238.898 59.4502 238.861 59.1333 238.916 58.8276C238.932 58.7363 238.968 58.6502 239.021 58.5755C239.074 58.5007 239.143 58.4393 239.222 58.3955C239.242 58.3884 239.262 58.3832 239.283 58.38C239.596 58.3 240.08 58.5819 240.329 59.1625C240.598 59.777 240.44 60.3603 240.13 60.4977L240.128 60.4983Z" fill="#3E2029"/>
<path d="M244.671 61.7377C244.653 61.8001 244.623 61.8576 244.581 61.9062C244.54 61.9549 244.488 61.9937 244.431 62.0199C244.368 62.0325 244.304 62.0306 244.242 62.0145C244.18 61.9983 244.122 61.9683 244.073 61.9265C243.883 61.7727 243.743 61.5645 243.669 61.329C243.595 61.0934 243.592 60.8416 243.659 60.6062C243.677 60.544 243.708 60.4866 243.749 60.438C243.791 60.3893 243.842 60.3505 243.9 60.3241L243.915 60.3202C243.975 60.3117 244.036 60.3159 244.095 60.3326C244.154 60.3493 244.209 60.3782 244.257 60.4174C244.449 60.566 244.59 60.7733 244.66 61.0088C244.741 61.2449 244.745 61.5003 244.674 61.7371L244.671 61.7377Z" fill="#3E2029"/>
<path d="M245.089 67.4307C245.145 67.7471 245.12 68.0718 245.016 68.3729C244.913 68.6739 244.734 68.9409 244.498 69.1476C244.356 69.2639 244.19 69.3459 244.013 69.3877C243.835 69.4294 243.65 69.43 243.471 69.3892C243.126 69.2171 242.748 69.131 242.367 69.1379C241.986 69.1448 241.614 69.2446 241.28 69.429C240.921 69.5521 240.596 69.7613 240.333 70.0395C240.069 70.3177 239.875 70.6569 239.765 71.0294C239.672 71.19 239.546 71.3272 239.396 71.4311C239.245 71.5351 239.074 71.6033 238.893 71.6309C238.584 71.6653 238.269 71.6164 237.981 71.489C237.693 71.3615 237.441 71.1598 237.249 70.9037C236.391 69.96 236.678 69.305 237.075 68.399L237.076 68.3975C237.265 68.015 237.401 67.6064 237.479 67.1836C237.639 66.0516 238.034 64.6094 239.018 64.175C240.002 63.7405 241.313 64.4223 242.241 65.0752C242.601 65.3024 242.988 65.4777 243.392 65.5964L243.394 65.5969C244.323 65.9203 244.993 66.1535 245.091 67.4301L245.089 67.4307Z" fill="#3E2029"/>
<path d="M235.597 62.5047C235.275 62.6534 234.753 62.3633 234.491 61.7429C234.361 61.4582 234.324 61.1393 234.385 60.834C234.402 60.7428 234.437 60.6567 234.49 60.5819C234.542 60.507 234.611 60.4452 234.689 60.4009C234.71 60.3937 234.73 60.3885 234.751 60.3851C235.065 60.305 235.548 60.5872 235.799 61.1689C236.068 61.7818 235.909 62.368 235.601 62.5037L235.597 62.5047Z" fill="#3E2029"/>
<path d="M233.952 66.4068C233.956 66.4734 233.941 66.5394 233.91 66.5976C233.879 66.6558 233.833 66.7039 233.777 66.7365C233.721 66.7692 233.657 66.7853 233.592 66.7829C233.527 66.7805 233.464 66.7598 233.409 66.723C233.19 66.6187 233.008 66.4443 232.892 66.2261C232.644 65.7826 232.697 65.3138 232.909 65.1902C232.93 65.178 232.953 65.169 232.976 65.1633C233.201 65.1058 233.569 65.3008 233.787 65.7019C233.915 65.9132 233.973 66.1601 233.955 66.4061L233.952 66.4068Z" fill="#3E2029"/>
<path d="M255.116 73.2198C255.025 72.9898 255.007 72.7366 255.067 72.4979C255.081 72.4346 255.108 72.3754 255.147 72.3244C255.186 72.2735 255.235 72.2321 255.292 72.2031L255.319 72.196C255.437 72.1787 255.556 72.2082 255.654 72.2785C255.855 72.4181 256.006 72.62 256.087 72.854C256.178 73.0841 256.196 73.3371 256.136 73.5758C256.122 73.639 256.095 73.698 256.056 73.7487C256.017 73.7995 255.967 73.8406 255.911 73.8694C255.691 73.9477 255.293 73.6953 255.116 73.2198Z" fill="#3E2029"/>
<path d="M258.786 68.716C258.952 69.3677 258.704 69.9198 258.377 70.0034C258.049 70.087 257.569 69.7237 257.402 69.0694C257.235 68.415 257.484 67.8655 257.81 67.7822C258.136 67.699 258.619 68.0616 258.786 68.716Z" fill="#3E2029"/>
<path d="M266.998 76.4236C267.003 76.7442 266.928 77.0596 266.778 77.3387C266.629 77.6178 266.411 77.8512 266.145 78.0159C265.986 78.1072 265.808 78.1607 265.624 78.1725C265.441 78.1842 265.257 78.1539 265.085 78.0837C264.426 77.6915 263.648 77.5766 262.916 77.7634C262.184 77.9502 261.557 78.4241 261.166 79.0842C261.049 79.2283 260.902 79.3433 260.736 79.4209C260.569 79.4985 260.387 79.5367 260.203 79.5327C259.891 79.5155 259.588 79.4153 259.323 79.2421C259.058 79.0688 258.84 78.8283 258.691 78.5443C257.99 77.4745 258.376 76.8772 258.911 76.0498L258.913 76.0481C259.16 75.7047 259.358 75.3269 259.503 74.9255C259.839 73.8372 260.458 72.4838 261.497 72.2185C262.536 71.9533 263.73 72.8439 264.546 73.6382C264.865 73.9208 265.22 74.1572 265.602 74.3405L265.605 74.3424C266.471 74.8128 267.096 75.1521 266.993 76.4262L266.998 76.4236Z" fill="#3E2029"/>
<path d="M263.583 67.4916C263.749 68.1433 263.502 68.6951 263.175 68.7787C262.847 68.8623 262.367 68.499 262.199 67.8446C262.032 67.1903 262.28 66.6411 262.607 66.5575C262.935 66.4739 263.415 66.8372 263.583 67.4916Z" fill="#3E2029"/>
<path d="M267.196 70.9871C266.953 71.0214 266.626 70.6842 266.551 70.1799C266.476 69.6755 266.694 69.2631 266.937 69.2288C267.036 69.222 267.134 69.2553 267.21 69.3216C267.418 69.5035 267.551 69.7591 267.582 70.036C267.651 70.5407 267.429 70.9486 267.191 70.9884L267.196 70.9871Z" fill="#3E2029"/>
</g>
<defs>
<clipPath id="clip0_89_174">
<rect width="320" height="583" fill="white"/>
</clipPath>
</defs>
</svg>
