<svg id="visual" viewBox="0 0 900 900" width="900" height="900" xmlns="http://www.w3.org/2000/svg" xmlns:xlink="http://www.w3.org/1999/xlink" version="1.1"><g transform="translate(470.11788853511393 449.1528507038103)"><path d="M188.3 -224.3C256.1 -167.5 331.4 -119.6 351.7 -54.6C371.9 10.4 337.1 92.4 291.1 164.4C245.2 236.3 188.1 298.1 113.2 336.2C38.4 374.3 -54.2 388.7 -130.4 360.2C-206.6 331.6 -266.6 260 -316 179.8C-365.4 99.6 -404.3 10.7 -396.9 -76.7C-389.5 -164.2 -335.8 -250.2 -262 -305.9C-188.1 -361.5 -94.1 -386.8 -16.9 -366.6C60.3 -346.5 120.5 -281 188.3 -224.3" fill="#3e2029"></path></g></svg>