<svg width="504" height="867" viewBox="0 0 504 867" fill="none" xmlns="http://www.w3.org/2000/svg">
<g clip-path="url(#clip0_93_233)">
<path d="M418.126 5.26725C410.723 113.354 416.426 223.636 416.371 331.997C416.317 440.688 412.807 550.091 417.084 658.727C417.249 662.458 422.678 662.458 422.842 658.727C427.119 550.091 423.61 440.742 423.555 331.997C423.5 223.691 429.148 113.354 421.8 5.26725C421.581 2.90799 418.291 2.90799 418.126 5.26725Z" fill="#3E2029"/>
<path d="M384.292 637.987C406.72 638.701 429.148 639.14 451.576 639.798C451.302 637.933 451.083 636.122 450.808 634.256C434.851 636.616 418.949 639.359 403.101 641.993C393.998 643.529 381.715 642.816 375.134 649.893C373.709 651.43 373.983 653.789 375.792 654.941C384.018 660.044 395.479 657.3 404.746 656.916C420.155 656.313 435.564 655.764 450.973 655.161C450.973 653.185 450.973 651.21 450.973 649.235C429.148 652.088 407.652 656.258 386.211 661.525C382.428 662.458 383.415 667.944 387.089 668.109C409.736 669.316 432.384 669.152 455.031 668.822C454.757 666.683 454.428 664.488 454.153 662.348C432.109 666.244 410.065 670.139 388.021 674.035C384.182 674.693 385.115 680.838 388.953 680.728C414.178 680.18 439.403 680.564 464.627 681.826C469.069 682.045 469.069 675.132 464.627 674.913C439.403 673.651 414.178 673.321 388.953 673.925C389.282 676.174 389.556 678.369 389.885 680.619C411.93 676.613 433.919 672.663 455.963 668.658C459.637 667.999 458.76 662.129 455.086 662.184C432.383 662.458 409.791 662.568 387.144 661.306C387.418 663.5 387.747 665.695 388.021 667.89C409.078 662.622 430.355 658.398 451.741 654.941C455.031 654.392 454.263 649.016 450.973 649.125C438.854 649.564 426.79 649.948 414.671 650.332C405.24 650.662 387.089 654.612 379.083 649.29C379.302 650.991 379.521 652.637 379.741 654.338C386.54 647.534 406.062 647.918 415.11 646.327C427.558 644.187 440.006 641.993 452.454 639.579C455.634 638.975 454.812 634.037 451.686 634.037C429.258 634.202 406.83 634.147 384.402 634.366C381.989 634.531 382.044 637.933 384.292 637.987Z" fill="#3E2029"/>
<path d="M394.601 690.879C379.85 738.997 349.307 781.299 370.364 833.147C382.812 863.873 409.243 872.706 439.896 863.653C442.254 862.94 441.267 859.648 438.909 860.032C400.469 866.177 377.712 848.071 370.748 810.981C362.248 765.278 393.34 733.674 397.234 691.263C397.398 689.617 395.04 689.452 394.601 690.879Z" fill="#3E2029"/>
<path d="M444.667 691.208C448.56 733.784 479.762 764.894 471.153 810.926C464.244 848.016 441.761 866.177 402.991 859.977C400.633 859.593 399.592 862.94 402.004 863.598C432.713 872.651 458.979 863.763 471.537 833.093C492.704 781.299 462.05 738.887 447.299 690.824C446.915 689.452 444.502 689.617 444.667 691.208Z" fill="#3E2029"/>
<path d="M449.821 788.431C437.703 798.801 433.59 752.878 433.535 751.89C432.713 744.373 432.109 736.802 431.726 729.23C430.848 712.277 431.067 695.378 432.932 678.479C433.316 674.912 427.722 674.912 427.284 678.479C423.774 710.082 425.584 742.673 430.793 774.001C432.932 786.785 439.019 804.946 453.715 792.382C456.457 790.022 452.508 786.127 449.821 788.431Z" fill="#3E2029"/>
<path d="M389.447 810.542C377.931 791.229 395.15 771.916 413.026 765.936C419.332 763.851 426.461 762.37 433.151 762.37C448.176 762.425 453.221 777.238 449.054 789.638C447.902 793.095 453.331 794.576 454.482 791.12C457.498 782.012 456.731 768.679 449.273 761.766C440.335 753.372 424.048 756.883 413.629 759.956C391.366 766.539 371.186 789.858 385.06 813.121C386.76 815.864 391.147 813.341 389.447 810.542Z" fill="#3E2029"/>
<path d="M411.217 678.479C413.355 697.353 414.507 716.501 415.275 735.485C415.768 747.501 414.233 826.344 388.569 809.61C385.827 807.799 383.25 812.243 385.992 813.999C406.501 827.277 416.152 794.192 418.839 778.665C424.432 746.294 419.003 710.192 413.575 678.15C413.355 676.833 411.052 677.107 411.217 678.479Z" fill="#3E2029"/>
<path d="M203.223 411.444C227.516 412.157 251.863 412.651 276.155 413.309C275.881 411.444 275.662 409.633 275.388 407.768C258.114 410.346 240.896 413.309 223.622 416.162C213.806 417.808 200.536 417.04 193.407 424.667C191.982 426.203 192.256 428.562 194.065 429.714C202.949 435.201 215.342 432.238 225.322 431.854C242.047 431.25 258.717 430.592 275.442 429.989C275.442 428.013 275.442 426.038 275.442 424.063C251.808 427.19 228.503 431.689 205.307 437.396C201.523 438.328 202.51 443.815 206.184 443.98C230.751 445.296 255.318 445.132 279.884 444.803C279.61 442.663 279.281 440.468 279.007 438.328C255.098 442.553 231.19 446.778 207.336 451.057C203.497 451.716 204.429 457.861 208.268 457.751C235.631 457.147 262.995 457.532 290.358 458.903C294.8 459.123 294.8 452.209 290.358 451.99C262.995 450.618 235.686 450.234 208.268 450.948C208.597 453.197 208.871 455.392 209.2 457.641C233.054 453.307 256.963 449.027 280.816 444.693C284.49 444.034 283.613 438.164 279.939 438.219C255.372 438.548 230.806 438.657 206.239 437.286C206.513 439.48 206.842 441.675 207.116 443.87C229.983 438.164 253.014 433.61 276.265 429.824C279.555 429.275 278.787 423.898 275.497 424.008C262.391 424.447 249.231 424.886 236.125 425.325C225.87 425.654 206.184 429.989 197.41 424.173C197.63 425.874 197.849 427.52 198.068 429.22C205.471 421.759 226.638 422.198 236.564 420.497C250.053 418.137 263.598 415.833 277.033 413.254C280.213 412.651 279.391 407.713 276.265 407.713C251.973 407.823 227.625 407.768 203.333 407.987C200.92 407.932 200.92 411.334 203.223 411.444Z" fill="#3E2029"/>
<path d="M214.465 468.944C199.823 520.847 166.483 564.247 187.321 620.375C200.152 654.941 228.996 666.244 263.488 656.093C265.846 655.38 264.859 652.033 262.501 652.472C220.003 659.66 195.601 639.304 188.198 598.538C183.153 570.831 189.679 544.605 200.317 519.147C207.281 502.412 215.726 487.598 217.206 469.273C217.316 467.737 214.903 467.462 214.465 468.944Z" fill="#3E2029"/>
<path d="M268.807 469.273C270.068 484.526 275.991 496.706 282.078 510.478C294.525 538.624 303.519 567.429 297.816 598.483C290.413 639.03 265.956 659.605 223.512 652.417C221.154 652.033 220.113 655.38 222.525 656.038C256.963 666.134 285.916 654.831 298.693 620.32C319.476 564.137 286.19 520.902 271.549 468.889C271.11 467.462 268.643 467.682 268.807 469.273Z" fill="#3E2029"/>
<path d="M274.455 574.836C260.856 586.468 256.469 536.155 256.359 535.058C255.482 526.883 254.824 518.708 254.385 510.478C253.453 492.097 253.672 473.772 255.701 455.447C256.085 451.88 250.492 451.88 250.053 455.447C246.215 489.683 248.189 524.962 253.837 558.98C256.085 572.586 262.556 592.284 278.294 578.786C281.09 576.427 277.142 572.532 274.455 574.836Z" fill="#3E2029"/>
<path d="M208.652 598.758C196.094 577.689 214.793 556.565 234.37 550.036C241.279 547.732 248.956 546.141 256.249 546.196C272.7 546.251 278.239 562.491 273.742 576.043C272.591 579.5 278.019 580.981 279.171 577.524C282.406 567.703 281.584 553.438 273.633 545.921C263.981 536.868 246.379 540.654 235.138 543.946C211.119 551.024 189.294 576.153 204.32 601.227C205.91 604.135 210.297 601.556 208.652 598.758Z" fill="#3E2029"/>
<path d="M232.506 455.447C234.973 476.515 236.235 497.913 237.057 519.147C237.496 531.053 235.357 615.876 207.72 597.825C204.978 596.015 202.401 600.459 205.142 602.214C228.283 617.193 238.647 577.195 240.95 560.626C245.776 526.224 240.567 489.19 234.809 455.117C234.644 453.801 232.341 454.13 232.506 455.447Z" fill="#3E2029"/>
<path d="M243.638 412.157C248.299 344.452 244.57 275.32 244.57 207.45C244.57 139.416 247.476 70.6132 243.747 2.74334C243.528 -0.822977 238.373 -0.822977 238.209 2.74334C234.48 70.668 237.386 139.471 237.386 207.45C237.386 275.32 233.657 344.452 238.318 412.157C238.593 415.559 243.418 415.559 243.638 412.157Z" fill="#3E2029"/>
<path d="M37.6724 304.454C56.3168 305.112 75.0159 305.551 93.6602 306.155C93.3861 304.289 93.1667 302.479 92.8925 300.613C79.6222 302.479 66.3518 304.783 53.1363 306.978C45.4592 308.24 35.15 307.691 29.6115 313.726C28.1858 315.263 28.4599 317.622 30.2695 318.774C37.2337 323.054 46.7752 320.804 54.6168 320.475C67.4485 319.981 80.2802 319.487 93.1119 318.994C93.1119 317.018 93.1119 315.043 93.1119 313.068C74.8514 315.372 56.92 318.829 39.0433 323.273C35.2596 324.206 36.2467 329.693 39.9207 329.857C58.7844 330.9 77.6481 330.735 96.5117 330.461C96.2375 328.321 95.9085 326.126 95.6344 323.987C77.2642 327.224 58.9489 330.461 40.5788 333.698C36.7402 334.356 37.6724 340.501 41.511 340.392C62.5133 339.953 83.5155 340.227 104.518 341.324C108.96 341.544 108.96 334.631 104.518 334.411C83.5155 333.369 62.5133 333.094 41.511 333.588C41.84 335.838 42.1142 338.032 42.4432 340.282C60.7585 336.99 79.1286 333.643 97.4439 330.351C101.118 329.693 100.241 323.822 96.5666 323.877C77.7029 324.096 58.8392 324.206 39.9756 323.164C40.2497 325.358 40.5788 327.553 40.8529 329.747C58.4005 325.358 76.0578 321.847 93.8796 318.884C97.1698 318.335 96.4021 312.958 93.1119 313.068C83.022 313.397 72.9321 313.726 62.8971 314.056C55.1652 314.33 40.0852 317.622 33.5049 313.233C33.7242 314.879 33.9436 316.58 34.1629 318.226C39.7562 312.684 55.9329 313.013 63.3906 311.696C73.7547 309.886 84.1187 308.075 94.4279 306.045C97.5536 305.442 96.7859 300.504 93.6602 300.504C75.0159 300.723 56.3168 300.668 37.6724 300.943C35.4241 300.997 35.4241 304.399 37.6724 304.454Z" fill="#3E2029"/>
<path d="M46.0624 348.128C33.0113 387.687 8.22534 423.514 25.3891 466.31C35.8628 492.481 58.0167 500.163 84.0639 492.317C86.4767 491.604 85.38 488.366 83.0768 488.696C47.8171 493.689 29.0083 474.211 26.0471 440.523C22.9763 406.012 46.4462 380.938 48.7493 348.512C48.859 346.866 46.501 346.701 46.0624 348.128Z" fill="#3E2029"/>
<path d="M87.7379 348.512C90.041 381.102 113.84 405.792 110.44 440.523C107.15 474.211 89.1636 493.743 53.4104 488.696C51.0524 488.366 50.0105 491.604 52.4233 492.317C78.4705 500.108 100.624 492.427 111.098 466.31C128.262 423.459 103.531 387.686 90.4797 348.128C89.9313 346.756 87.6282 346.866 87.7379 348.512Z" fill="#3E2029"/>
<path d="M91.9056 429.111C82.6931 437.011 79.1836 399.702 79.1288 399.044C78.4707 392.789 77.9772 386.479 77.6482 380.17C76.9353 366.069 77.0998 351.968 78.6901 337.923C79.0739 334.356 73.4806 334.356 73.042 337.923C70.0808 364.258 71.6162 391.417 76.0031 417.589C77.8675 428.617 83.3512 443.815 95.8538 433.061C98.5956 430.702 94.6474 426.751 91.9056 429.111Z" fill="#3E2029"/>
<path d="M42.3883 447.601C32.9016 431.799 47.159 415.998 61.7455 411.114C66.9549 409.359 72.8224 408.152 78.3609 408.207C90.5345 408.261 94.4827 420.277 91.1377 430.318C89.9862 433.774 95.4149 435.256 96.5665 431.799C99.1438 424.063 98.4309 412.651 92.0151 406.835C84.338 399.867 70.8483 402.61 61.9648 405.244C43.1012 410.84 26.2116 430.537 37.9466 450.179C39.6465 452.978 44.0334 450.399 42.3883 447.601Z" fill="#3E2029"/>
<path d="M59.881 337.868C61.5809 353.614 62.4583 369.526 63.0615 385.327C63.4453 395.094 62.1841 460.22 41.456 446.668C38.7142 444.857 36.1369 449.302 38.8787 451.057C56.2618 462.305 64.5969 434.542 66.8452 421.32C71.5063 394.325 66.9549 364.259 62.2389 337.539C62.0196 336.222 59.7713 336.496 59.881 337.868Z" fill="#3E2029"/>
<path d="M70.8485 302.753C74.5773 253.154 71.7807 202.457 71.7807 152.748C71.7807 102.93 74.2483 52.3975 70.9581 2.74334C70.7388 -0.822977 65.639 -0.822977 65.4197 2.74334C62.1295 52.3975 64.5971 102.984 64.5971 152.748C64.5971 202.512 61.8005 253.209 65.5293 302.753C65.8584 306.1 70.6291 306.155 70.8485 302.753Z" fill="#3E2029"/>
</g>
<defs>
<clipPath id="clip0_93_233">
<rect width="504" height="867" fill="white"/>
</clipPath>
</defs>
</svg>
