<svg width="500" height="500" viewBox="0 0 500 500" fill="none" xmlns="http://www.w3.org/2000/svg">
<path d="M383.163 127.237C379.813 120.745 376.301 114.35 372.306 108.257C326.195 37.939 202.699 -0.340996 141.507 72.341C126.922 89.664 121.839 110.597 112.023 130.464C89.6958 175.649 47.9808 202.663 21.8248 244.503C1.54982 276.937 4.25282 318.505 15.5628 353.567C27.8538 391.667 49.4838 418.276 84.0818 438.503C122.869 461.179 164.354 454.883 206.279 446.992C225.134 443.443 244.574 439.823 263.853 441.177C287.99 442.873 311.821 449.704 335.768 453.025C360.673 456.478 386.513 457.295 410.504 449.769C487.334 425.669 505.535 312.732 473.941 248.037C462.757 225.137 443.803 207.47 426.203 189.545C407.204 170.195 395.559 151.258 383.163 127.237Z" fill="#D2ADE7"/>
<path d="M11.5679 448.163H485.756" stroke="#263238" stroke-miterlimit="10" stroke-linecap="round" stroke-linejoin="round"/>
<path d="M264.036 383.208C264.036 383.208 274.916 395.213 276.041 419.974C277.167 444.734 256.908 458.99 251.281 460.491C245.654 461.992 238.901 462.367 238.901 462.367V385.835L264.036 383.208Z" fill="#30FC8B" stroke="#263238" stroke-miterlimit="10" stroke-linecap="round" stroke-linejoin="round"/>
<path d="M131.605 383.208C131.605 383.208 120.725 395.213 119.6 419.974C118.475 444.734 138.733 458.99 144.361 460.491C149.988 461.992 156.741 462.367 156.741 462.367V385.835L131.605 383.208Z" fill="#30FC8B" stroke="#263238" stroke-miterlimit="10" stroke-linecap="round" stroke-linejoin="round"/>
<path d="M296.39 215.697C305.206 206.228 311.083 182.718 305.206 173.902C299.329 165.086 267.656 177.494 256.228 189.575C244.8 201.656 240.229 209.166 240.229 209.166C227.319 207.283 204.453 207.616 196.789 207.792C189.046 207.616 165.959 207.284 153.049 209.166C153.049 209.166 148.478 201.656 137.05 189.575C125.622 177.494 93.9492 165.086 88.0722 173.902C82.1952 182.718 88.0722 206.227 96.8882 215.697C105.704 225.167 123.01 246.063 125.295 248.349C127.581 250.635 123.662 277.409 124.316 311.367C124.969 345.325 125.622 373.406 129.867 389.079C134.112 404.752 141.295 425.323 141.295 431.2C141.295 437.077 139.662 442.628 136.397 448.179C133.132 453.73 125.622 456.015 124.642 462.546C123.662 469.076 126.601 472.668 135.417 474.954C144.233 477.24 148.478 477.24 154.682 473.321C160.886 469.403 165.457 462.546 165.457 462.546L198.762 463.199L232.067 462.546C232.067 462.546 236.638 469.403 242.842 473.321C249.046 477.239 253.291 477.239 262.107 474.954C270.923 472.668 273.862 469.077 272.882 462.546C271.903 456.016 264.392 453.73 261.127 448.179C257.862 442.628 256.229 437.077 256.229 431.2C256.229 425.323 263.413 404.752 267.657 389.079C271.902 373.406 268.31 345.325 268.963 311.367C269.616 277.409 265.698 250.634 267.983 248.349C270.268 246.064 287.574 225.166 296.39 215.697Z" fill="#30FC8B" stroke="#263238" stroke-miterlimit="10" stroke-linecap="round" stroke-linejoin="round"/>
<path d="M235.524 378.78C222.089 381.966 222.815 378.201 221.726 363.43C220.637 348.659 235.887 341.418 247.869 334.467C259.852 327.516 267.84 306.952 264.935 303.477C262.03 300.002 233.708 302.318 231.529 297.105C229.35 291.892 228.468 275.505 228.468 275.505L197.76 266.838L165.776 275.505C165.776 275.505 166.169 291.891 163.991 297.105C161.812 302.318 133.49 300.001 130.585 303.477C127.68 306.953 135.668 327.516 147.651 334.467C159.633 341.418 174.884 348.659 173.795 363.43C172.706 378.201 173.432 381.966 159.997 378.78C146.562 375.594 135.669 368.353 135.669 379.359C135.669 390.365 138.211 405.715 146.199 411.218C154.187 416.721 161.086 413.825 165.444 423.962C169.801 434.099 169.247 452.069 164.259 460.968C164.038 461.362 163.9 461.767 163.797 462.177C164.356 461.431 164.666 460.968 164.666 460.968L197.971 461.621L231.262 460.968C226.274 452.068 225.72 434.099 230.077 423.962C234.434 413.825 241.333 416.721 249.322 411.218C257.31 405.715 259.852 390.365 259.852 379.359C259.852 368.353 248.959 375.594 235.524 378.78Z" fill="white"/>
<path opacity="0.33" d="M243.767 209.933C243.767 209.933 246.871 221.02 251.528 228.781C256.185 236.542 260.62 242.529 267.494 239.868C274.368 237.207 295.656 214.367 299.647 204.167C303.638 193.967 306.078 178.001 300.312 174.01C294.547 170.019 261.063 179.11 243.767 209.933Z" fill="black"/>
<path opacity="0.33" d="M148.817 209.933C148.817 209.933 145.713 221.02 141.056 228.781C136.399 236.542 131.964 242.529 125.09 239.868C118.216 237.207 96.9283 214.367 92.9373 204.167C88.9463 193.967 86.5064 178.001 92.2724 174.01C98.0374 170.019 131.521 179.11 148.817 209.933Z" fill="black"/>
<path d="M165.456 462.618C165.145 460.646 168.214 458.541 167.265 456.292C160.135 439.396 146.836 439.839 139.473 441.635C138.695 443.829 137.675 446.005 136.396 448.179C133.131 453.73 125.621 456.015 124.641 462.546C123.661 469.076 126.6 472.668 135.416 474.954C144.232 477.24 148.477 477.24 154.681 473.321C160.885 469.403 165.456 462.546 165.456 462.546V462.618Z" fill="white" stroke="#263238" stroke-miterlimit="10" stroke-linecap="round" stroke-linejoin="round"/>
<path d="M129.49 472.98C129.49 472.98 127.249 466.968 129.852 463.064C132.455 459.159 140.264 456.556 140.264 456.556" stroke="#263238" stroke-miterlimit="10" stroke-linecap="round" stroke-linejoin="round"/>
<path d="M135.416 474.954C135.416 474.954 137.061 468.626 138.765 466.544C140.469 464.462 149.744 459.351 149.744 459.351" stroke="#263238" stroke-miterlimit="10" stroke-linecap="round" stroke-linejoin="round"/>
<path d="M232.066 462.618C232.377 460.646 229.407 458.541 230.356 456.292C237.486 439.396 250.785 439.839 258.148 441.635C258.926 443.829 259.946 446.005 261.225 448.179C264.49 453.73 272 456.015 272.98 462.546C273.96 469.076 271.021 472.668 262.205 474.954C253.389 477.24 249.144 477.24 242.94 473.321C236.736 469.403 232.165 462.546 232.165 462.546L232.066 462.618Z" fill="white" stroke="#263238" stroke-miterlimit="10" stroke-linecap="round" stroke-linejoin="round"/>
<path d="M257.258 476.008C257.258 476.008 257.826 470.14 257.069 468.247C256.312 466.354 249.687 460.486 249.687 460.486" stroke="#263238" stroke-miterlimit="10" stroke-linecap="round" stroke-linejoin="round"/>
<path d="M267.1 472.98C267.1 472.98 267.1 469.194 266.153 464.651C265.207 460.108 259.907 456.133 259.907 456.133" stroke="#263238" stroke-miterlimit="10" stroke-linecap="round" stroke-linejoin="round"/>
<path d="M199.109 310.061H197.371C192.907 310.061 189.288 306.442 189.288 301.978V278.389H207.193V301.978C207.192 306.442 203.573 310.061 199.109 310.061Z" fill="#30FC8B" stroke="#263238" stroke-miterlimit="10" stroke-linecap="round" stroke-linejoin="round"/>
<path d="M197.913 283.287V297.428" stroke="#263238" stroke-miterlimit="10" stroke-linecap="round" stroke-linejoin="round"/>
<path d="M206.402 252.267C203.79 245.41 207.381 232.676 205.422 226.472C203.463 220.268 199.545 221.574 199.545 221.574L197.912 221.9L196.279 221.574C196.279 221.574 192.361 220.268 190.402 226.472C188.443 232.676 192.035 245.41 189.422 252.267C186.81 259.124 166.566 271.205 166.566 277.082C166.566 282.959 177.341 292.102 181.913 294.061C186.484 296.02 197.912 283.286 197.912 283.286C197.912 283.286 209.34 296.02 213.911 294.061C218.482 292.102 229.257 282.959 229.257 277.082C229.258 271.206 209.014 259.124 206.402 252.267Z" fill="white" stroke="#263238" stroke-miterlimit="10" stroke-linecap="round" stroke-linejoin="round"/>
<path d="M210.32 269.246C210.32 269.246 205.758 264.177 198.324 264.053C190.147 263.917 183.872 267.287 184.525 270.226C185.178 273.165 193.668 279.369 196.933 280.348C200.198 281.328 209.667 273.818 210.32 269.246Z" fill="#263238"/>
<path d="M214.18 252.139C216.143 252.139 217.735 249.884 217.735 247.102C217.735 244.32 216.143 242.065 214.18 242.065C212.216 242.065 210.625 244.32 210.625 247.102C210.625 249.884 212.216 252.139 214.18 252.139Z" fill="#263238"/>
<path d="M214.911 246.067C215.426 246.067 215.845 245.649 215.845 245.133C215.845 244.617 215.426 244.199 214.911 244.199C214.395 244.199 213.977 244.617 213.977 245.133C213.977 245.649 214.395 246.067 214.911 246.067Z" fill="white"/>
<path d="M182.971 247.102C182.971 249.884 181.379 252.139 179.416 252.139C177.452 252.139 175.861 249.884 175.861 247.102C175.861 244.32 177.453 242.065 179.416 242.065C181.379 242.066 182.971 244.321 182.971 247.102Z" fill="#263238"/>
<path d="M180.35 246.067C180.865 246.067 181.284 245.649 181.284 245.133C181.284 244.617 180.865 244.199 180.35 244.199C179.834 244.199 179.416 244.617 179.416 245.133C179.416 245.649 179.834 246.067 180.35 246.067Z" fill="white"/>
<path d="M284.679 421.889C284.679 421.889 287.939 445.509 285.433 453.282C282.928 461.055 276.342 462.831 277.819 468.428C279.296 474.025 288.149 472.966 294.081 471.171C300.013 469.377 305.457 461.686 304.734 452.516C304.011 443.346 299.851 428.524 296.65 426.147C293.45 423.768 286.367 419.975 284.679 421.889Z" fill="#263238"/>
<path d="M297.721 469.27C297.623 468.954 297.537 468.655 297.43 468.323C295.051 460.928 288.139 458.099 283.707 457.028C280.773 461.836 276.615 463.862 277.82 468.427C279.297 474.024 288.15 472.965 294.082 471.17C295.336 470.791 296.564 470.134 297.721 469.27Z" fill="white" stroke="#263238" stroke-miterlimit="10" stroke-linecap="round" stroke-linejoin="round"/>
<path d="M311.372 292.687L285.554 292.164C285.554 292.164 268.73 275.436 266.676 279.82C262.416 288.912 268.943 306.117 268.943 306.117C268.943 306.117 261.257 323.123 261.078 350.954C260.899 378.784 272.297 407.94 279.593 419.158C286.888 430.376 296.196 441.25 296.196 441.25C296.196 441.25 298.339 450.522 296.542 457.48C294.745 464.438 290.659 467.328 291.959 470.969C293.259 474.61 303.647 475.502 308.167 471.423C312.687 467.344 316.363 457.635 316.363 457.635L318.558 457.897C318.558 457.897 316.166 464.639 321.896 467.402C327.626 470.166 341.694 468.357 347.108 468.109C352.522 467.86 410.177 468.475 429.586 469.018C448.995 469.562 471.107 466.577 477.669 453.945C484.231 441.313 481.934 423.226 475.654 418.644C469.374 414.062 462.203 419.869 462.396 427.284C462.589 434.699 462.196 448.705 456.104 451.739C450.012 454.772 418.43 452.686 408.098 449.793C397.766 446.9 393.865 443.186 393.865 443.186C393.865 443.186 399.744 404.902 396.819 387.799C393.894 370.696 381.159 353.517 369.082 348.573C357.005 343.629 341.721 338.795 333.592 328.755C325.463 318.715 327.217 306.148 327.217 306.148C329.091 303.597 332.918 296.61 331.852 283.649C331.482 279.148 330.792 278.613 329.991 278.59C329.189 278.568 319.634 283.376 311.372 292.687Z" fill="#30FC8B" stroke="#263238" stroke-miterlimit="10" stroke-linecap="round" stroke-linejoin="round"/>
<path d="M337.251 458.328L373.088 457.552" stroke="#263238" stroke-miterlimit="10" stroke-linecap="round" stroke-linejoin="round"/>
<path opacity="0.33" d="M282.502 293.88C282.502 293.88 275.1 286.464 271.972 283.773C268.843 281.082 267.888 279.453 267.237 281.237C266.586 283.021 266.579 290.43 267.817 296.272C269.055 302.114 270.355 305.755 273.362 305.639C276.369 305.523 280.855 302.645 282.357 299.083C283.858 295.52 282.502 293.88 282.502 293.88Z" fill="black"/>
<path opacity="0.33" d="M314.517 294.777C314.517 294.777 322.323 287.787 325.597 285.275C328.871 282.763 329.917 281.191 330.466 283.008C331.016 284.826 330.608 292.224 329.045 297.987C327.482 303.75 325.98 307.313 322.984 307.029C319.988 306.745 315.67 303.62 314.371 299.979C313.072 296.339 314.517 294.777 314.517 294.777Z" fill="black"/>
<path d="M331.024 330.389C330.246 323.178 325.391 333.172 318.253 331.338C311.115 329.504 304.071 308.662 302.829 306.34C301.587 304.018 297.118 299.478 293.38 304.601C289.642 309.725 280.767 327.999 274.2 329.122C269.798 329.875 266.549 326.257 264.883 323.788C263.551 330.772 262.478 339.501 262.413 349.689C262.234 377.519 273.632 406.675 280.927 417.893C288.222 429.111 297.53 439.985 297.53 439.985C297.53 439.985 297.495 434.347 297.986 424.882C298.697 411.177 306.039 394.063 315.593 379.625C325.147 365.191 331.802 337.6 331.024 330.389Z" fill="white"/>
<path d="M312.05 466.448C307.932 461.069 299.917 459.61 296.013 459.217C294.061 464.943 290.772 467.648 291.957 470.968C293.257 474.609 303.645 475.501 308.165 471.422C309.57 470.155 310.893 468.343 312.05 466.448Z" fill="white" stroke="#263238" stroke-miterlimit="10" stroke-linecap="round" stroke-linejoin="round"/>
<path d="M330.121 412.329C330.713 420.418 331.235 434.428 328.565 441.745C324.671 452.42 316.361 457.634 316.361 457.634" stroke="#263238" stroke-miterlimit="10" stroke-linecap="round" stroke-linejoin="round"/>
<path d="M329.563 406.154C329.563 406.154 329.711 407.422 329.895 409.509" stroke="#263238" stroke-miterlimit="10" stroke-linecap="round" stroke-linejoin="round"/>
<path d="M318.557 457.896C318.557 457.896 316.165 464.638 321.895 467.401C325.173 468.982 331.178 469.065 336.732 468.802C337.369 467.964 337.847 467.083 338.01 466.192C338.782 461.965 337.25 458.328 337.25 458.328L318.557 457.896Z" fill="white" stroke="#263238" stroke-miterlimit="10" stroke-linecap="round" stroke-linejoin="round"/>
<path d="M376.375 403.698C372.442 400.194 366.204 396.257 357.986 396.188C343.129 396.063 333.655 411.823 331.098 419.91" stroke="#263238" stroke-miterlimit="10" stroke-linecap="round" stroke-linejoin="round"/>
<path d="M381.225 409.076C381.225 409.076 380.472 407.93 379.018 406.321" stroke="#263238" stroke-miterlimit="10" stroke-linecap="round" stroke-linejoin="round"/>
<path d="M300.242 321.388C300.242 321.388 298.783 319.673 296.331 319.563C293.634 319.442 291.531 320.497 291.72 321.473C291.908 322.449 294.653 324.575 295.721 324.928C296.789 325.282 299.984 322.891 300.242 321.388Z" fill="#30FC8B" stroke="#263238" stroke-miterlimit="10" stroke-linecap="round" stroke-linejoin="round"/>
<path d="M288.515 326.245C288.515 326.245 293.559 333.264 295.721 324.928C295.721 324.928 296.49 333.837 303.073 326.816" stroke="#263238" stroke-miterlimit="10" stroke-linecap="round" stroke-linejoin="round"/>
<path d="M310.748 315.471C310.966 316.553 309.797 317.7 308.139 318.034C306.481 318.368 304.96 317.762 304.742 316.681C304.524 315.599 305.691 314.452 307.35 314.118C309.008 313.784 310.53 314.39 310.748 315.471Z" fill="#263238"/>
<path d="M309.46 315.206C309.52 315.504 309.199 315.82 308.742 315.912C308.286 316.004 307.867 315.837 307.807 315.54C307.747 315.242 308.068 314.926 308.525 314.834C308.982 314.742 309.4 314.909 309.46 315.206Z" fill="white"/>
<path d="M286.567 316.471C286.182 317.505 284.585 317.865 283 317.275C281.415 316.685 280.442 315.368 280.826 314.334C281.211 313.3 282.808 312.94 284.393 313.53C285.978 314.12 286.952 315.437 286.567 316.471Z" fill="#263238"/>
<path d="M285.457 315.509C285.351 315.794 284.911 315.893 284.475 315.73C284.039 315.568 283.771 315.205 283.877 314.921C283.983 314.636 284.423 314.537 284.859 314.7C285.295 314.862 285.563 315.224 285.457 315.509Z" fill="white"/>
<path d="M284.74 323.148L276.092 322.275" stroke="#263238" stroke-miterlimit="10" stroke-linecap="round" stroke-linejoin="round"/>
<path d="M284.701 324.566L278.021 326.586" stroke="#263238" stroke-miterlimit="10" stroke-linecap="round" stroke-linejoin="round"/>
<path d="M285.111 326.785L281.591 328.579" stroke="#263238" stroke-miterlimit="10" stroke-linecap="round" stroke-linejoin="round"/>
<path d="M306.641 323.762L315.324 323.374" stroke="#263238" stroke-miterlimit="10" stroke-linecap="round" stroke-linejoin="round"/>
<path d="M306.601 325.18L313.157 327.571" stroke="#263238" stroke-miterlimit="10" stroke-linecap="round" stroke-linejoin="round"/>
<path d="M306.066 327.372L309.479 329.36" stroke="#263238" stroke-miterlimit="10" stroke-linecap="round" stroke-linejoin="round"/>
</svg>
