<svg width="152" height="155" viewBox="0 0 152 155" fill="none" xmlns="http://www.w3.org/2000/svg">
<path d="M97.0164 101.468C97.2214 102.648 97.8684 103.706 98.8181 104.413C99.7678 105.12 100.944 105.42 102.095 105.248C103.119 104.766 103.942 103.928 104.42 102.879C104.899 101.831 105.003 100.638 104.714 99.508C104.426 98.3777 103.763 97.3808 102.84 96.6901C101.918 95.9993 100.794 95.6582 99.6637 95.7257C98.5737 96.1257 97.6861 96.951 97.1912 98.0244C96.6962 99.0978 96.6335 100.334 97.0164 101.468ZM102.246 100.133C102.574 101.419 102.084 102.51 101.438 102.675C100.791 102.84 99.8422 102.122 99.5124 100.83C99.1826 99.5384 99.674 98.4535 100.318 98.2891C100.962 98.1247 101.916 98.8407 102.246 100.133ZM99.4861 110.528C99.7599 109.496 99.7064 108.397 99.3334 107.388C98.9603 106.38 98.287 105.515 97.4104 104.917C96.9773 104.613 96.4809 104.418 95.9629 104.35C95.4449 104.282 94.9204 104.342 94.4334 104.526C93.9464 104.71 93.5111 105.011 93.164 105.406C92.817 105.8 92.5682 106.275 92.4387 106.792C92.1524 107.823 92.2053 108.927 92.5892 109.934C92.8819 110.91 93.509 111.749 94.3536 112.294C95.1982 112.838 96.2024 113.051 97.1787 112.893C97.2835 112.866 97.3883 112.84 97.4917 112.797C97.9737 112.604 98.4043 112.299 98.7501 111.905C99.096 111.512 99.3478 111.04 99.4861 110.528ZM95 109.025C94.8192 108.571 94.7848 108.071 94.9021 107.6C94.9299 107.475 94.984 107.358 95.0608 107.257C95.1375 107.157 95.235 107.075 95.3464 107.017L95.4013 107.003C95.6326 106.969 95.8691 107.028 96.0624 107.166C96.4579 107.442 96.7575 107.841 96.9161 108.303C97.0966 108.757 97.1309 109.257 97.014 109.728C96.986 109.853 96.9316 109.969 96.8548 110.069C96.7779 110.169 96.6804 110.251 96.5691 110.307C96.1353 110.462 95.3487 109.964 95 109.025ZM106.489 99.0494C106.815 99.7725 107.334 100.388 107.984 100.824C108.635 101.26 109.39 101.498 110.162 101.511C110.933 101.523 111.689 101.309 112.341 100.894C112.992 100.479 113.512 99.8806 113.84 99.1681C114.167 98.4555 114.289 97.6588 114.19 96.8713C114.092 96.0839 113.777 95.3383 113.283 94.7221C112.789 94.1059 112.136 93.6445 111.401 93.3922C110.666 93.1398 109.88 93.1069 109.134 93.2973C108.042 93.6978 107.153 94.5249 106.658 95.6006C106.164 96.6764 106.103 97.9148 106.489 99.0494ZM111.716 97.7152C112.044 99.002 111.557 100.091 110.91 100.256C110.264 100.421 109.315 99.7042 108.985 98.4122C108.655 97.1203 109.144 96.036 109.791 95.871C110.437 95.7059 111.386 96.4232 111.716 97.7152ZM120.398 99.2215C120.052 98.9446 119.657 98.7404 119.236 98.6206C118.814 98.5008 118.375 98.4679 117.944 98.5239C116.924 98.7616 116.042 99.4065 115.494 100.317C114.945 101.228 114.773 102.331 115.016 103.383C115.093 104.458 115.578 105.464 116.365 106.186C117.153 106.908 118.18 107.287 119.226 107.243C119.334 107.227 119.44 107.205 119.545 107.178C120.478 106.85 121.258 106.182 121.738 105.299C122.218 104.416 122.366 103.378 122.154 102.381C121.991 101.138 121.361 100.003 120.398 99.2215ZM118.851 104.617C118.371 104.684 117.725 104.019 117.577 103.023C117.429 102.027 117.859 101.213 118.339 101.145C118.534 101.132 118.728 101.197 118.878 101.328C119.288 101.687 119.551 102.192 119.613 102.739C119.748 103.735 119.31 104.541 118.841 104.619L118.851 104.617ZM116.889 108.898C116.353 108.642 115.849 108.319 115.389 107.938C112.354 104.984 109.514 103.817 106.951 104.472C104.387 105.126 102.457 107.511 101.211 111.557C100.988 112.112 100.699 112.637 100.352 113.119C99.414 114.171 98.8603 115.527 98.7839 116.961C98.7076 118.394 99.1132 119.819 99.9329 120.995C100.461 121.94 101.22 122.728 102.135 123.28C103.049 123.833 104.085 124.129 105.139 124.14C105.543 124.132 105.945 124.077 106.336 123.977C107.5 123.715 108.515 123.001 109.169 121.982C109.593 121.27 110.273 120.759 111.065 120.557C111.856 120.355 112.698 120.478 113.412 120.899C114.474 121.479 115.707 121.62 116.854 121.292C117.246 121.192 117.626 121.047 117.986 120.861C118.905 120.345 119.672 119.588 120.209 118.666C120.747 117.743 121.036 116.687 121.047 115.605C121.2 114.177 120.869 112.732 120.11 111.511C119.351 110.29 118.21 109.368 116.879 108.9L116.889 108.898ZM118.459 115.35C118.47 115.983 118.32 116.606 118.025 117.157C117.73 117.708 117.299 118.169 116.775 118.494C116.46 118.675 116.109 118.78 115.747 118.803C115.385 118.827 115.022 118.767 114.683 118.628C113.382 117.854 111.845 117.627 110.4 117.996C108.955 118.365 107.716 119.3 106.945 120.603C106.714 120.888 106.424 121.115 106.095 121.268C105.766 121.421 105.407 121.497 105.044 121.489C104.428 121.455 103.829 121.257 103.305 120.915C102.782 120.573 102.352 120.098 102.057 119.537C100.673 117.425 101.436 116.246 102.493 114.612C102.494 114.611 102.495 114.61 102.495 114.609C102.983 113.931 103.375 113.185 103.66 112.393C104.324 110.244 105.546 107.572 107.598 107.048C109.649 106.524 112.007 108.283 113.617 109.851C114.248 110.409 114.949 110.876 115.702 111.238C115.704 111.239 115.706 111.24 115.709 111.241C117.418 112.17 118.652 112.84 118.45 115.356L118.459 115.35ZM53.6195 81.2779C53.1012 81.5212 52.646 81.8845 52.2892 82.3397C51.9324 82.7948 51.6835 83.3298 51.5618 83.9031C51.304 85.0746 51.4315 86.3064 51.9245 87.4071C52.2961 88.4457 53.0081 89.3232 53.9369 89.8873C54.8657 90.4514 55.9527 90.6665 57.0093 90.4953C57.1851 90.4511 57.3567 90.3917 57.5223 90.3177C58.5343 89.7406 59.2797 88.7753 59.5981 87.6293C59.9166 86.4833 59.7828 85.2481 59.2254 84.1891C58.84 83.0501 58.0359 82.1061 56.9868 81.5613C55.9377 81.0165 54.7281 80.9147 53.6195 81.2779ZM56.4612 87.8691C55.8263 88.1628 54.7948 87.59 54.2774 86.3651C54.0209 85.8031 53.9479 85.1733 54.0692 84.5706C54.1013 84.3906 54.1718 84.2206 54.2756 84.0728C54.3794 83.925 54.514 83.803 54.6698 83.7155C54.7095 83.7014 54.7504 83.6909 54.7921 83.6843C55.4111 83.5263 56.3642 84.0834 56.8594 85.2317C57.3917 86.4419 57.0783 87.5992 56.4687 87.8672L56.4612 87.8691ZM55.7727 95.9619C55.8946 94.896 55.6697 93.8133 55.1328 92.8823C54.677 91.9059 53.8687 91.1469 52.882 90.7686C51.8953 90.3903 50.8092 90.4231 49.8574 90.8598C49.0075 91.4735 48.4305 92.4084 48.2501 93.464C48.0698 94.5197 48.3005 95.612 48.8927 96.5066C49.4081 97.4515 50.2104 98.1998 51.1749 98.6352C51.878 98.9489 52.6578 99.022 53.3976 98.8436C53.6677 98.7753 53.9269 98.6694 54.1681 98.529C54.6111 98.259 54.9862 97.8871 55.2644 97.442C55.5427 96.9968 55.7166 96.4904 55.7727 95.9619ZM53.2142 95.5733C53.221 95.7049 53.1923 95.8353 53.1314 95.9501C53.0704 96.065 52.9796 96.1599 52.8688 96.2245C52.7581 96.289 52.6317 96.3207 52.5036 96.316C52.3755 96.3113 52.2506 96.2704 52.1426 96.1978C51.7091 95.9917 51.3506 95.6474 51.1212 95.2167C50.6317 94.3411 50.7357 93.4153 51.1547 93.1713C51.1962 93.1474 51.2409 93.1295 51.2874 93.1183C51.7317 93.0049 52.4574 93.3898 52.8882 94.1817C53.1401 94.599 53.2562 95.0864 53.2192 95.5721L53.2142 95.5733ZM62.5658 77.3192C62.0481 77.5622 61.5934 77.925 61.237 78.3796C60.8805 78.8343 60.6317 79.3685 60.5099 79.9411C60.2641 81.1138 60.3886 82.3419 60.8655 83.448C61.3424 84.5542 62.1469 85.4812 63.163 86.0953C64.0089 86.5949 65.0032 86.7487 65.9449 86.5255C66.1211 86.48 66.2935 86.4204 66.4604 86.3473C67.4719 85.7691 68.2167 84.8033 68.535 83.6571C68.8532 82.5109 68.7196 81.2756 68.1628 80.2162C67.7743 79.0832 66.9713 78.1452 65.9259 77.6034C64.8805 77.0616 63.676 76.9591 62.5708 77.3179L62.5658 77.3192ZM65.4069 83.9078C65.2384 83.9654 65.0591 83.9835 64.8818 83.961C64.7045 83.9384 64.5338 83.8757 64.3819 83.7775C63.8712 83.4483 63.4673 82.9694 63.2233 82.4039C62.9792 81.8384 62.9066 81.2127 63.0148 80.6093C63.0469 80.429 63.1177 80.259 63.2221 80.1114C63.3265 79.9638 63.462 79.8425 63.6186 79.7561C63.6574 79.742 63.6975 79.7318 63.7384 79.7255C64.3574 79.5675 65.313 80.124 65.8051 81.2704C66.3355 82.4838 66.0233 83.6353 65.4119 83.9065L65.4069 83.9078ZM72.0634 81.0298C71.5719 81.1953 71.1259 81.4757 70.76 81.8491C70.3942 82.2226 70.1185 82.679 69.9543 83.1828C69.6261 84.1975 69.6222 85.2979 69.9431 86.3248C70.2641 87.3517 70.8932 88.2519 71.7396 88.8951C72.1387 89.1948 72.5948 89.4033 73.0768 89.5064C73.5588 89.6095 74.0552 89.6048 74.5322 89.4926L74.6945 89.4512C75.186 89.2857 75.632 89.0053 75.9978 88.6318C76.3637 88.2584 76.6394 87.802 76.8035 87.2981C77.1318 86.2835 77.1357 85.1831 76.8147 84.1562C76.4938 83.1293 75.8647 82.2291 75.0183 81.5858C74.5963 81.2705 74.1117 81.0565 73.6007 80.96C73.0898 80.8635 72.5659 80.8869 72.0684 81.0285L72.0634 81.0298ZM74.3773 86.3549C74.3424 86.478 74.2819 86.5915 74.2 86.6876C74.1181 86.7838 74.0167 86.8603 73.9027 86.912C73.7798 86.9368 73.6526 86.9332 73.5304 86.9013C73.4082 86.8694 73.2941 86.8101 73.1963 86.7277C72.822 86.424 72.5439 86.0128 72.3982 85.5478C72.2525 85.0828 72.2459 84.5856 72.3793 84.1209C72.4146 83.998 72.4753 83.8848 72.5571 83.7887C72.639 83.6926 72.7402 83.616 72.8539 83.5639L72.8838 83.5562C73.0027 83.5394 73.124 83.5477 73.2403 83.5807C73.3567 83.6137 73.4655 83.6707 73.5603 83.7481C73.9392 84.0415 74.218 84.4509 74.3555 84.9158C74.5144 85.382 74.5238 85.8861 74.3823 86.3537L74.3773 86.3549ZM72.6445 91.4713C72.0766 91.3059 71.5292 91.071 71.0142 90.7717C67.5692 88.3478 64.5911 87.6798 62.1689 88.7313C59.7467 89.7828 58.2182 92.4812 57.6262 96.6922C57.4955 97.279 57.2946 97.8459 57.0281 98.3801C56.2686 99.5755 55.9359 101.009 56.0858 102.44C56.2357 103.871 56.8591 105.213 57.8515 106.24C58.5204 107.088 59.393 107.743 60.3809 108.138C61.3688 108.532 62.4369 108.654 63.477 108.489C63.5844 108.461 63.6917 108.434 63.7965 108.407C64.5171 108.243 65.1894 107.912 65.7624 107.439C66.3354 106.966 66.7941 106.363 67.1036 105.677C67.2005 105.264 67.4038 104.887 67.6923 104.584C67.9808 104.282 68.344 104.066 68.7441 103.959C69.0924 103.733 69.4947 103.61 69.9088 103.601C70.3229 103.591 70.7333 103.697 71.097 103.906C71.9421 104.215 72.8552 104.252 73.7134 104.011C74.3924 103.838 75.0308 103.531 75.5941 103.109C76.4177 102.447 77.0535 101.571 77.4373 100.569C77.8211 99.567 77.9392 98.475 77.7799 97.403C77.7062 95.9702 77.1566 94.5995 76.2229 93.5198C75.2892 92.44 74.0279 91.7165 72.6495 91.47L72.6445 91.4713ZM75.2021 97.595C75.3124 98.2197 75.2629 98.8608 75.0585 99.4552C74.8541 100.05 74.5018 100.577 74.0362 100.985C73.7557 101.214 73.4282 101.376 73.0772 101.459C72.7263 101.541 72.3607 101.542 72.007 101.462C71.3266 101.122 70.5798 100.952 69.828 100.966C69.0762 100.979 68.3409 101.176 67.6827 101.54C66.9731 101.784 66.332 102.197 65.8119 102.746C65.2917 103.295 64.9073 103.965 64.6901 104.7C64.5079 105.017 64.2593 105.288 63.962 105.493C63.6646 105.699 63.3259 105.833 62.9699 105.888C62.3583 105.956 61.7376 105.859 61.1687 105.608C60.5997 105.356 60.1019 104.958 59.724 104.452C58.0287 102.589 58.5955 101.295 59.3795 99.5068C59.3799 99.5058 59.3803 99.5048 59.3808 99.5038C59.7546 98.7487 60.023 97.942 60.1781 97.1072C60.4929 94.8721 61.2735 92.0247 63.2161 91.1669C65.1586 90.3092 67.7462 91.6553 69.5801 92.9444C70.2893 93.3928 71.0542 93.7391 71.8528 93.9734C71.8539 93.9737 71.8549 93.9741 71.856 93.9745C73.6898 94.6129 75.0128 95.0734 75.2071 97.5937L75.2021 97.595ZM82.4244 45.3269C82.7959 45.2324 83.1482 45.0739 83.4666 44.858C84.3607 44.1044 84.9262 43.0163 85.0418 41.8274C85.1574 40.6384 84.8137 39.4435 84.0846 38.4993C83.4367 37.4852 82.4848 36.7137 81.376 36.3041C80.8382 36.087 80.2593 36.0053 79.6883 36.0659C79.1173 36.1265 78.5709 36.3276 78.0952 36.6523C77.6196 36.977 77.2287 37.4157 76.9556 37.9312C76.6825 38.4468 76.5352 39.0242 76.5261 39.6146C76.4714 40.8174 76.8051 42.011 77.4753 43.0101C77.9811 43.8644 78.7264 44.5438 79.6115 44.9576C80.4967 45.3713 81.4797 45.4997 82.4294 45.3256L82.4244 45.3269ZM79.1012 39.818C79.1034 39.6367 79.1446 39.4588 79.2218 39.2969C79.2991 39.135 79.4105 38.9931 79.5481 38.8815C79.6289 38.8266 79.7183 38.7862 79.8126 38.7619C80.0675 38.7102 80.3324 38.7317 80.5783 38.8241C81.1425 39.0458 81.6247 39.4477 81.9529 39.97C82.6812 41.0835 82.5717 42.2793 82.0185 42.6535C81.4653 43.0278 80.3444 42.6779 79.6136 41.565C79.2636 41.0522 79.0853 40.4381 79.1062 39.8168L79.1012 39.818ZM80.3491 54.226C80.8054 54.1115 81.2293 53.8927 81.5895 53.5859C81.9799 53.2389 82.2857 52.8028 82.4832 52.3117C82.6806 51.8205 82.7643 51.2874 82.7277 50.7541C82.6528 49.6821 82.2479 48.6574 81.5717 47.8285C80.8954 46.9997 79.983 46.4096 78.9666 46.1438C78.461 46.0134 77.9348 46.0039 77.4286 46.116C76.9224 46.2281 76.4498 46.4588 76.0475 46.7903C75.7181 47.0788 75.4486 47.4324 75.2545 47.8306C75.0605 48.2288 74.9457 48.6637 74.9169 49.1102C74.8466 50.3588 75.2571 51.5929 76.06 52.5467C76.7285 53.3855 77.6453 53.9775 78.6673 54.2304C79.2241 54.3647 79.802 54.3627 80.3541 54.2247L80.3491 54.226ZM77.4863 49.3645C77.4929 49.1644 77.5742 48.9758 77.7134 48.8377C77.7821 48.7805 77.8627 48.7402 77.9492 48.7199C78.1096 48.6862 78.2757 48.6896 78.4357 48.7301C78.892 48.8657 79.3 49.1389 79.6063 49.5141C79.9127 49.8892 80.1032 50.3488 80.153 50.8329C80.1675 50.9614 80.1545 51.0911 80.1149 51.213C80.0753 51.3349 80.01 51.446 79.9236 51.5384C79.8195 51.6077 79.7019 51.653 79.5785 51.6712C79.4552 51.6894 79.3291 51.6802 79.2088 51.6442C78.7452 51.5147 78.3326 51.2354 78.0325 50.8479C77.6773 50.438 77.484 49.9077 77.4913 49.3632L77.4863 49.3645ZM88.2857 39.6775C89.0054 39.9376 89.7796 39.9807 90.5162 39.8016C90.8908 39.706 91.2464 39.5466 91.5683 39.3302C92.0353 38.9961 92.4198 38.555 92.692 38.0411C92.9641 37.5272 93.1168 36.9542 93.1381 36.3663C93.1775 35.165 92.8442 33.9763 92.1864 32.9717C91.5285 31.967 90.5801 31.1982 89.4778 30.7763C88.9402 30.5585 88.3613 30.4762 87.7901 30.5363C87.2189 30.5964 86.6723 30.7973 86.1965 31.1218C85.7206 31.4463 85.3296 31.8849 85.0564 32.4006C84.7833 32.9163 84.6361 33.4938 84.6272 34.0842C84.5866 35.2859 84.9191 36.4753 85.5767 37.4807C86.2343 38.4861 87.183 39.2554 88.2857 39.6775ZM87.2029 34.2902C87.2051 34.1089 87.2463 33.931 87.3236 33.7691C87.4009 33.6072 87.5123 33.4653 87.6498 33.3538C87.7307 33.2988 87.8201 33.2584 87.9144 33.2341C88.1693 33.1824 88.4342 33.2039 88.6801 33.2964C89.2377 33.5292 89.7161 33.9289 90.0523 34.4429C90.3885 34.957 90.5669 35.5613 90.5638 36.1764C90.5756 36.3611 90.5401 36.545 90.461 36.71C90.3819 36.8749 90.2618 37.0151 90.1128 37.1166C89.9638 37.2181 89.7909 37.2774 89.6114 37.2886C89.4318 37.2998 89.2519 37.2626 89.0893 37.1806C88.5257 36.9603 88.0443 36.5588 87.7179 36.0366C87.3671 35.5243 87.188 34.9103 87.2079 34.289L87.2029 34.2902ZM94.99 38.6842C95.38 39.551 96.0371 40.2646 96.8584 40.7128C97.6797 41.161 98.6187 41.3186 99.5279 41.1609C99.7584 41.1026 99.9809 41.0164 100.191 40.9039C100.645 40.6509 101.034 40.2932 101.329 39.8585C101.624 39.4238 101.817 38.9237 101.893 38.3969C102.054 37.3362 101.869 36.2454 101.367 35.2937C101.2 34.7695 100.925 34.2874 100.559 33.8811C100.194 33.4749 99.7476 33.1544 99.2516 32.942C98.7557 32.7297 98.2221 32.6307 97.6883 32.652C97.1545 32.6733 96.6335 32.8144 96.1616 33.0653C95.6898 33.3162 95.2786 33.6709 94.957 34.1046C94.6353 34.5382 94.4109 35.0403 94.2995 35.5756C94.1881 36.1109 94.1924 36.6665 94.3121 37.2034C94.4319 37.7403 94.6616 38.2461 94.99 38.6842ZM97.3769 35.4323C97.8135 35.1947 98.6279 35.6146 99.0843 36.5069C99.3171 36.9357 99.4101 37.4282 99.3497 37.9112C99.3381 38.04 99.2992 38.1643 99.2357 38.2752C99.1721 38.3861 99.0855 38.4811 98.9819 38.5534C98.5799 38.8013 97.7341 38.373 97.2727 37.482C96.8113 36.591 96.9464 35.6518 97.375 35.4245L97.3769 35.4323ZM104.586 48.217C104.272 46.8138 103.5 45.5569 102.399 44.6564C101.298 43.7559 99.9347 43.2663 98.5375 43.2696C97.9513 43.2102 97.3735 43.0769 96.817 42.8727C93.0125 41.1025 89.9708 40.9771 87.7811 42.4709C85.5921 43.9672 84.5539 46.8886 84.6923 51.149C84.6576 51.7482 84.5495 52.3395 84.3705 52.9088C83.9845 54.0295 83.8958 55.2396 84.1134 56.416C84.331 57.5924 84.8472 58.6932 85.6095 59.6065C86.3717 60.5198 87.3529 61.213 88.4532 61.6156C89.5535 62.0181 90.7337 62.1158 91.8738 61.8985C92.7364 61.6775 93.5252 61.2297 94.1633 60.5989C94.8014 59.968 95.267 59.1756 95.5146 58.299C95.5393 57.8755 95.6744 57.4682 95.9059 57.1197C96.1373 56.7713 96.4566 56.4945 96.8303 56.3184C97.134 56.0323 97.5084 55.8368 97.9141 55.7525C98.3198 55.6683 98.7417 55.6983 99.1354 55.8396C99.7143 55.9498 100.308 55.9275 100.873 55.7742C101.843 55.5168 102.721 54.9863 103.407 54.242C104.104 53.4395 104.58 52.4591 104.786 51.3999C104.993 50.3407 104.923 49.2402 104.584 48.2093L104.586 48.217ZM101.523 52.4037C101.286 52.6807 100.992 52.8995 100.661 53.0441C100.33 53.1888 99.9712 53.2558 99.6098 53.2403C98.8831 53.03 98.1208 52.9984 97.3851 53.1481C96.6494 53.2978 95.9611 53.6245 95.3764 54.1017C94.7215 54.4699 94.1631 54.9934 93.7469 55.6295C93.3307 56.2656 93.0685 56.9962 92.9819 57.7613C92.8559 58.1053 92.6577 58.4156 92.4013 58.6705C92.1448 58.9254 91.8363 59.1187 91.4974 59.2368C90.9091 59.4195 90.2819 59.4391 89.6792 59.2937C89.0764 59.1482 88.5192 58.8429 88.0636 58.4083C86.0802 56.8802 86.4158 55.5013 86.8795 53.5962C86.8801 53.5939 86.8807 53.5916 86.8812 53.5893C87.1173 52.7787 87.2424 51.9367 87.2529 51.0875C87.1799 48.8226 87.461 45.8724 89.2154 44.6734C90.9611 43.4711 93.7457 44.3393 95.7687 45.2758C96.5416 45.5888 97.3511 45.7917 98.1746 45.8788C98.1766 45.8791 98.1786 45.8794 98.1806 45.8797C100.084 46.1737 101.46 46.3861 102.086 48.8388C102.303 49.4366 102.365 50.0797 102.266 50.7048C102.167 51.3299 101.911 51.9155 101.523 52.4037ZM35.5742 47.3438C36.1356 47.2037 36.6511 46.9193 37.0728 46.5171C37.4803 46.1092 37.7897 45.6092 37.977 45.0556C38.1644 44.502 38.2248 43.9097 38.1534 43.3245C38.0145 42.1302 37.4988 41.01 36.6853 40.1355C35.9537 39.1936 34.896 38.5785 33.7391 38.4223C32.5823 38.2661 31.4186 38.5811 30.4978 39.2999C29.7356 40.1932 29.3494 41.3633 29.4224 42.5586C29.4953 43.7538 30.0215 44.8789 30.8879 45.6918C31.4634 46.3658 32.2003 46.8737 33.0234 47.1639C33.8466 47.4541 34.7267 47.5161 35.5742 47.3438ZM32.272 41.2402C32.3841 41.1384 32.5193 41.0671 32.6657 41.0327C33.0633 40.9829 33.4681 41.0386 33.8417 41.1947C34.2153 41.3508 34.5451 41.6021 34.7997 41.9245C35.2219 42.37 35.4939 42.9422 35.5748 43.5551C35.6028 43.7366 35.5914 43.9217 35.5415 44.097C35.4915 44.2723 35.4043 44.4335 35.286 44.5691C34.8039 45.0239 33.6396 44.8687 32.749 43.8899C31.8584 42.9111 31.7875 41.7065 32.272 41.2402ZM32.8402 48.5379C32.3223 48.492 31.8028 48.5693 31.3221 48.7638C30.8415 48.9583 30.4126 49.2648 30.0689 49.6593C29.4665 50.5315 29.2255 51.617 29.3979 52.6817C29.5702 53.7465 30.142 54.7051 30.9901 55.3509C31.7808 56.0681 32.7753 56.502 33.8205 56.5857C34.201 56.6102 34.5821 56.5758 34.9509 56.4836C35.5903 56.3271 36.1642 55.9709 36.5942 55.4637C37.1959 54.5913 37.4365 53.5059 37.2642 52.4414C37.0919 51.3769 36.5205 50.4183 35.673 49.7721C34.8831 49.052 33.8868 48.618 32.8402 48.5379ZM34.6296 53.7146C34.5387 53.8024 34.4296 53.868 34.3101 53.9066C34.1907 53.9451 34.064 53.9556 33.9394 53.9374C33.4658 53.8903 33.0179 53.6861 32.6636 53.3557C31.9207 52.6955 31.7294 51.7794 32.0329 51.4058C32.1206 51.3075 32.236 51.2398 32.3635 51.2118C32.4811 51.1839 32.6023 51.1742 32.7231 51.183C33.1955 51.2323 33.642 51.4365 33.9964 51.7654C34.7379 52.4204 34.943 53.3385 34.6196 53.7171L34.6296 53.7146ZM41.5557 40.6549C41.9287 40.6722 42.3014 40.6343 42.6623 40.5423C43.2306 40.4007 43.7526 40.1127 44.1795 39.7055C44.587 39.2986 44.8965 38.7995 45.0841 38.2467C45.2717 37.694 45.3324 37.1025 45.2614 36.5179C45.113 35.3222 44.5989 34.2003 43.7935 33.3144C42.9881 32.4285 41.9331 31.8245 40.781 31.5896C40.2173 31.4647 39.6346 31.4804 39.082 31.6354C38.5294 31.7903 38.0232 32.08 37.6059 32.4799C37.1885 32.8799 36.8724 33.3785 36.6841 33.9336C36.4958 34.4888 36.4408 35.0843 36.5238 35.6699C36.661 36.8647 37.1769 37.9854 37.9919 38.8589C38.9093 39.914 40.1904 40.5596 41.5557 40.6549ZM39.3794 34.4311C39.4917 34.3263 39.6284 34.2528 39.7767 34.2172C39.976 34.1708 40.1829 34.1665 40.385 34.2045C40.9712 34.3409 41.5059 34.6564 41.9182 35.1092C42.3305 35.562 42.6011 36.1308 42.694 36.7402C42.7221 36.9221 42.7105 37.1074 42.6601 37.2829C42.6097 37.4584 42.5218 37.6196 42.4027 37.7549C42.2962 37.8478 42.1726 37.9178 42.0389 37.9609C41.9052 38.0039 41.7642 38.0192 41.6239 38.0058C40.9492 37.938 40.3217 37.6077 39.8702 37.0828C39.448 36.6371 39.176 36.065 39.095 35.4522C39.0652 35.2698 39.0753 35.0836 39.1245 34.9069C39.1737 34.7303 39.2607 34.5677 39.3794 34.4311ZM51.8175 40.3599C52.2134 40.2602 52.5851 40.0805 52.9109 39.8313C53.6813 39.113 54.1416 38.1083 54.1926 37.0338C54.2435 35.9593 53.8811 34.9011 53.1834 34.0872C52.6154 33.1724 51.7231 32.5186 50.6992 32.267C49.6754 32.0154 48.6022 32.1863 47.7115 32.7427C46.9411 33.461 46.4808 34.4657 46.4298 35.5402C46.3789 36.6147 46.7413 37.673 47.439 38.4868C47.9183 39.2004 48.588 39.7577 49.3658 40.0904C50.1435 40.4232 50.9956 40.5168 51.8175 40.3599ZM49.279 34.8838C49.6628 34.5857 50.5399 34.8552 51.1311 35.661C51.7223 36.4668 51.7324 37.4018 51.3454 37.698C50.9584 37.9942 50.0844 37.7265 49.4932 36.9207C48.902 36.1149 48.8945 35.1793 49.279 34.8838ZM49.886 42.3443C45.8628 41.2276 42.8465 41.5973 40.9246 43.4422C39.0027 45.287 38.4356 48.3459 39.2429 52.5396C39.3111 53.1407 39.306 53.747 39.2278 54.3446C38.9022 55.7372 39.0543 57.2095 39.6585 58.5146C40.2628 59.8198 41.2825 60.8784 42.5466 61.5131C43.9598 62.3639 45.6267 62.6369 47.2109 62.277C47.6801 62.1575 48.1302 61.9725 48.5488 61.7271C49.2423 61.3363 49.8313 60.7781 50.2658 60.0997C50.7004 59.4213 50.9677 58.6429 51.045 57.8304C51.0001 57.4058 51.0675 56.9783 51.2402 56.5931C51.4128 56.2079 51.6842 55.8792 52.0257 55.6419C52.2796 55.3087 52.6175 55.0534 53.0037 54.9032C53.3898 54.753 53.8099 54.7134 54.2193 54.7886C55.0152 54.7648 55.791 54.5438 56.4805 54.1444C57.1701 53.745 57.7532 53.179 58.1801 52.4946C58.7385 51.5858 59.0514 50.5382 59.0874 49.4577C59.1234 48.3771 58.8811 47.3017 58.385 46.34C57.8534 45.0022 56.8931 43.8858 55.665 43.1778C54.4369 42.4698 53.0155 42.2131 51.6387 42.4506C51.0535 42.4887 50.4649 42.4529 49.886 42.3443ZM56.0272 47.3833C56.3321 47.9376 56.4928 48.5617 56.4935 49.1943C56.4942 49.827 56.335 50.4467 56.0313 50.9926C55.8429 51.3064 55.5881 51.5722 55.2855 51.7703C54.9829 51.9685 54.64 52.0942 54.2819 52.1382C53.5338 52.0502 52.7786 52.1449 52.0781 52.4147C51.3776 52.6846 50.7517 53.1218 50.2514 53.6907C49.6634 54.1633 49.1948 54.774 48.8842 55.4728C48.5736 56.1716 48.4299 56.9384 48.4647 57.7106C48.3955 58.0735 48.2494 58.4153 48.0365 58.7117C47.8237 59.0081 47.5493 59.2519 47.2329 59.4258C46.6792 59.6994 46.0639 59.8199 45.4469 59.7757C44.8298 59.7314 44.2322 59.5239 43.7121 59.1732C41.5195 57.9895 41.6326 56.568 41.7904 54.6033C41.897 53.7621 41.8884 52.908 41.7648 52.0658C41.3366 49.8368 41.1488 46.872 42.6914 45.3953C43.6645 44.8002 44.7616 44.4464 45.8972 44.3615C47.0327 44.2766 48.1758 44.4629 49.2372 44.9059C50.0475 45.0857 50.8764 45.1508 51.7007 45.0994C51.7065 45.0993 51.7123 45.0992 51.7181 45.0992C53.6435 45.0742 55.025 45.0563 56.0272 47.3833Z" fill="#3E2029"/>
<path d="M56.0272 47.3833C56.3321 47.9376 56.4928 48.5617 56.4935 49.1943C56.4942 49.827 56.335 50.4467 56.0313 50.9926C55.8429 51.3064 55.5881 51.5722 55.2855 51.7703C54.9829 51.9685 54.64 52.0942 54.2819 52.1382C53.5338 52.0502 52.7786 52.1449 52.0781 52.4147C51.3776 52.6846 50.7517 53.1218 50.2514 53.6907C49.6634 54.1633 49.1948 54.774 48.8842 55.4728C48.5736 56.1716 48.4299 56.9384 48.4647 57.7106C48.3955 58.0735 48.2494 58.4153 48.0365 58.7117C47.8237 59.0081 47.5493 59.2519 47.2329 59.4258C46.6792 59.6994 46.0639 59.8199 45.4469 59.7757C44.8298 59.7314 44.2322 59.5239 43.7121 59.1732C41.5195 57.9895 41.6326 56.568 41.7904 54.6033C41.897 53.7621 41.8884 52.908 41.7648 52.0658C41.3366 49.8368 41.1488 46.872 42.6914 45.3953C43.6645 44.8002 44.7616 44.4464 45.8972 44.3615C47.0327 44.2766 48.1758 44.4629 49.2372 44.9059C50.0475 45.0857 50.8764 45.1508 51.7007 45.0994L51.7181 45.0992C53.6435 45.0742 55.025 45.0563 56.0272 47.3833Z" fill="#3E2029"/>
<path d="M101.523 52.4037C101.286 52.6807 100.992 52.8995 100.661 53.0441C100.33 53.1888 99.9712 53.2558 99.6098 53.2403C98.8831 53.03 98.1208 52.9984 97.3851 53.1481C96.6494 53.2978 95.9611 53.6245 95.3764 54.1017C94.7215 54.4699 94.1631 54.9934 93.7469 55.6295C93.3307 56.2656 93.0685 56.9962 92.9819 57.7613C92.8559 58.1053 92.6577 58.4156 92.4013 58.6705C92.1448 58.9254 91.8363 59.1187 91.4974 59.2368C90.9091 59.4195 90.2819 59.4391 89.6792 59.2937C89.0764 59.1482 88.5192 58.8429 88.0636 58.4083C86.0802 56.8802 86.4158 55.5013 86.8795 53.5962L86.8812 53.5893C87.1173 52.7787 87.2424 51.9367 87.2529 51.0875C87.1799 48.8226 87.461 45.8724 89.2154 44.6734C90.9611 43.4711 93.7457 44.3393 95.7687 45.2758C96.5416 45.5888 97.3511 45.7917 98.1746 45.8788L98.1806 45.8797C100.084 46.1737 101.46 46.3861 102.086 48.8388C102.303 49.4366 102.365 50.0797 102.266 50.7048C102.167 51.3299 101.911 51.9155 101.523 52.4037Z" fill="#3E2029"/>
<path d="M79.1012 39.818C79.1034 39.6367 79.1446 39.4588 79.2218 39.2969C79.2991 39.135 79.4105 38.9931 79.5481 38.8815C79.6289 38.8266 79.7183 38.7862 79.8126 38.7619C80.0675 38.7102 80.3324 38.7317 80.5783 38.8241C81.1425 39.0458 81.6247 39.4477 81.9529 39.97C82.6812 41.0835 82.5717 42.2793 82.0185 42.6535C81.4653 43.0278 80.3444 42.6779 79.6136 41.565C79.2636 41.0522 79.0853 40.4381 79.1062 39.8168L79.1012 39.818Z" fill="#3E2029"/>
<path d="M77.4863 49.3645C77.4929 49.1644 77.5742 48.9758 77.7134 48.8377C77.7821 48.7805 77.8627 48.7402 77.9492 48.7199C78.1096 48.6862 78.2757 48.6896 78.4357 48.7301C78.892 48.8657 79.3 49.1389 79.6063 49.5141C79.9127 49.8892 80.1032 50.3488 80.153 50.8329C80.1675 50.9614 80.1545 51.0911 80.1149 51.213C80.0753 51.3349 80.01 51.446 79.9236 51.5384C79.8195 51.6077 79.7019 51.653 79.5785 51.6712C79.4552 51.6894 79.3291 51.6802 79.2088 51.6442C78.7452 51.5147 78.3326 51.2354 78.0325 50.8479C77.6773 50.438 77.484 49.9077 77.4913 49.3632L77.4863 49.3645Z" fill="#3E2029"/>
<path d="M87.2029 34.2902C87.2051 34.1089 87.2463 33.931 87.3236 33.7691C87.4009 33.6072 87.5123 33.4653 87.6498 33.3538C87.7307 33.2988 87.8201 33.2584 87.9144 33.2341C88.1693 33.1824 88.4342 33.2039 88.6801 33.2964C89.2377 33.5292 89.7161 33.9289 90.0523 34.4429C90.3885 34.957 90.5669 35.5613 90.5638 36.1764C90.5756 36.3611 90.5401 36.545 90.461 36.71C90.3819 36.8749 90.2618 37.0151 90.1128 37.1166C89.9638 37.2181 89.7909 37.2774 89.6114 37.2886C89.4318 37.2998 89.2519 37.2626 89.0893 37.1806C88.5257 36.9603 88.0443 36.5588 87.7179 36.0366C87.3671 35.5243 87.188 34.9103 87.2079 34.289L87.2029 34.2902Z" fill="#3E2029"/>
<path d="M97.3769 35.4323C97.8135 35.1947 98.6279 35.6146 99.0843 36.5069C99.3171 36.9357 99.4101 37.4282 99.3497 37.9112C99.3381 38.04 99.2992 38.1643 99.2357 38.2752C99.1721 38.3861 99.0855 38.4811 98.9819 38.5534C98.5799 38.8013 97.7341 38.373 97.2727 37.482C96.8113 36.591 96.9464 35.6518 97.375 35.4245L97.3769 35.4323Z" fill="#3E2029"/>
<path d="M39.3794 34.4311C39.4917 34.3263 39.6284 34.2528 39.7767 34.2172C39.976 34.1708 40.1829 34.1665 40.385 34.2045C40.9712 34.3409 41.5059 34.6564 41.9182 35.1092C42.3305 35.562 42.6011 36.1308 42.694 36.7402C42.7221 36.9221 42.7105 37.1074 42.6601 37.2829C42.6097 37.4584 42.5218 37.6196 42.4027 37.7549C42.2962 37.8478 42.1726 37.9178 42.0389 37.9609C41.9052 38.0039 41.7642 38.0192 41.6239 38.0058C40.9492 37.938 40.3217 37.6077 39.8702 37.0828C39.448 36.6371 39.176 36.065 39.095 35.4522C39.0652 35.2698 39.0753 35.0836 39.1245 34.9069C39.1737 34.7303 39.2607 34.5677 39.3794 34.4311Z" fill="#3E2029"/>
<path d="M49.279 34.8838C49.6628 34.5857 50.5399 34.8552 51.1311 35.661C51.7223 36.4668 51.7324 37.4018 51.3454 37.698C50.9584 37.9942 50.0844 37.7265 49.4932 36.9207C48.902 36.1149 48.8945 35.1793 49.279 34.8838Z" fill="#3E2029"/>
<path d="M32.272 41.2402C32.3841 41.1384 32.5193 41.0671 32.6657 41.0327C33.0633 40.9829 33.4681 41.0386 33.8417 41.1947C34.2153 41.3508 34.5451 41.6021 34.7997 41.9245C35.2219 42.37 35.4939 42.9422 35.5748 43.5551C35.6028 43.7366 35.5914 43.9217 35.5415 44.097C35.4915 44.2723 35.4043 44.4335 35.286 44.5691C34.8039 45.0239 33.6396 44.8687 32.749 43.8899C31.8584 42.9111 31.7875 41.7065 32.272 41.2402Z" fill="#3E2029"/>
<path d="M34.6296 53.7146C34.5387 53.8024 34.4296 53.868 34.3101 53.9066C34.1907 53.9451 34.064 53.9556 33.9394 53.9374C33.4658 53.8903 33.0179 53.6861 32.6636 53.3557C31.9207 52.6955 31.7294 51.7794 32.0329 51.4058C32.1206 51.3075 32.236 51.2398 32.3635 51.2118C32.4811 51.1839 32.6023 51.1742 32.7231 51.183C33.1955 51.2323 33.642 51.4365 33.9964 51.7654C34.7379 52.4204 34.943 53.3385 34.6196 53.7171L34.6296 53.7146Z" fill="#3E2029"/>
<path d="M65.4069 83.9078C65.2384 83.9654 65.0591 83.9835 64.8818 83.961C64.7045 83.9384 64.5338 83.8757 64.3819 83.7775C63.8712 83.4483 63.4673 82.9694 63.2233 82.4039C62.9792 81.8384 62.9066 81.2127 63.0148 80.6093C63.0469 80.429 63.1177 80.259 63.2221 80.1114C63.3265 79.9638 63.462 79.8425 63.6186 79.7561C63.6574 79.742 63.6975 79.7318 63.7384 79.7255C64.3574 79.5675 65.313 80.124 65.8051 81.2704C66.3355 82.4838 66.0233 83.6353 65.4119 83.9065L65.4069 83.9078Z" fill="#3E2029"/>
<path d="M74.3773 86.3549C74.3424 86.478 74.2819 86.5915 74.2 86.6876C74.1181 86.7838 74.0167 86.8603 73.9027 86.912C73.7798 86.9368 73.6526 86.9332 73.5304 86.9013C73.4082 86.8694 73.2941 86.8101 73.1963 86.7277C72.822 86.424 72.5439 86.0128 72.3982 85.5478C72.2525 85.0828 72.2459 84.5856 72.3793 84.1209C72.4146 83.998 72.4753 83.8848 72.5571 83.7887C72.639 83.6926 72.7402 83.616 72.8539 83.5639L72.8838 83.5562C73.0027 83.5394 73.124 83.5477 73.2403 83.5807C73.3567 83.6137 73.4655 83.6707 73.5603 83.7481C73.9392 84.0415 74.218 84.4509 74.3555 84.9158C74.5144 85.382 74.5238 85.8861 74.3823 86.3537L74.3773 86.3549Z" fill="#3E2029"/>
<path d="M75.2021 97.595C75.3124 98.2197 75.2629 98.8608 75.0585 99.4552C74.8541 100.05 74.5018 100.577 74.0362 100.985C73.7557 101.214 73.4282 101.376 73.0772 101.459C72.7263 101.541 72.3607 101.542 72.007 101.462C71.3266 101.122 70.5798 100.952 69.828 100.966C69.0762 100.979 68.3409 101.176 67.6827 101.54C66.9731 101.784 66.332 102.197 65.8119 102.746C65.2917 103.295 64.9073 103.965 64.6901 104.7C64.5079 105.017 64.2593 105.288 63.962 105.493C63.6646 105.699 63.3259 105.833 62.9699 105.888C62.3583 105.956 61.7376 105.859 61.1687 105.608C60.5997 105.356 60.1019 104.958 59.724 104.452C58.0287 102.589 58.5955 101.295 59.3795 99.5068L59.3808 99.5038C59.7546 98.7487 60.023 97.942 60.1781 97.1072C60.4929 94.8721 61.2735 92.0247 63.2161 91.1669C65.1586 90.3092 67.7462 91.6553 69.5801 92.9444C70.2893 93.3928 71.0542 93.7391 71.8528 93.9734L71.856 93.9745C73.6898 94.6129 75.0128 95.0734 75.2071 97.5937L75.2021 97.595Z" fill="#3E2029"/>
<path d="M56.4612 87.8691C55.8263 88.1628 54.7948 87.59 54.2774 86.3651C54.0209 85.8031 53.9479 85.1733 54.0692 84.5706C54.1013 84.3906 54.1718 84.2206 54.2756 84.0728C54.3794 83.925 54.514 83.803 54.6698 83.7155C54.7095 83.7014 54.7504 83.6909 54.7921 83.6843C55.4111 83.5263 56.3642 84.0834 56.8594 85.2317C57.3917 86.4419 57.0783 87.5992 56.4687 87.8672L56.4612 87.8691Z" fill="#3E2029"/>
<path d="M53.2142 95.5733C53.221 95.7049 53.1923 95.8353 53.1314 95.9501C53.0704 96.065 52.9796 96.1599 52.8688 96.2245C52.7581 96.289 52.6317 96.3207 52.5036 96.316C52.3755 96.3113 52.2506 96.2704 52.1426 96.1978C51.7091 95.9917 51.3506 95.6474 51.1212 95.2167C50.6317 94.3411 50.7357 93.4153 51.1547 93.1713C51.1962 93.1474 51.2409 93.1295 51.2874 93.1183C51.7317 93.0049 52.4574 93.3898 52.8882 94.1817C53.1401 94.599 53.2562 95.0864 53.2192 95.5721L53.2142 95.5733Z" fill="#3E2029"/>
<path d="M95 109.025C94.8192 108.571 94.7848 108.071 94.9021 107.6C94.9299 107.475 94.984 107.358 95.0608 107.257C95.1375 107.157 95.235 107.075 95.3464 107.017L95.4013 107.003C95.6326 106.969 95.8691 107.028 96.0624 107.166C96.4579 107.442 96.7575 107.841 96.9161 108.303C97.0966 108.757 97.1309 109.257 97.014 109.728C96.986 109.853 96.9316 109.969 96.8548 110.069C96.7779 110.169 96.6804 110.251 96.5691 110.307C96.1353 110.462 95.3487 109.964 95 109.025Z" fill="#3E2029"/>
<path d="M102.246 100.133C102.574 101.419 102.084 102.51 101.438 102.675C100.791 102.84 99.8422 102.122 99.5124 100.83C99.1826 99.5384 99.674 98.4535 100.318 98.2891C100.962 98.1247 101.916 98.8407 102.246 100.133Z" fill="#3E2029"/>
<path d="M118.459 115.35C118.47 115.983 118.32 116.606 118.025 117.157C117.73 117.708 117.299 118.169 116.775 118.494C116.46 118.675 116.109 118.78 115.747 118.803C115.385 118.827 115.022 118.767 114.683 118.628C113.382 117.854 111.845 117.627 110.4 117.996C108.955 118.365 107.716 119.3 106.945 120.603C106.714 120.888 106.424 121.115 106.095 121.268C105.766 121.421 105.407 121.497 105.044 121.489C104.428 121.455 103.829 121.257 103.305 120.915C102.782 120.573 102.352 120.098 102.057 119.537C100.673 117.425 101.436 116.246 102.493 114.612L102.495 114.609C102.983 113.931 103.375 113.185 103.66 112.393C104.324 110.244 105.546 107.572 107.598 107.048C109.649 106.524 112.007 108.283 113.617 109.851C114.248 110.409 114.949 110.876 115.702 111.238L115.709 111.241C117.418 112.17 118.652 112.84 118.45 115.356L118.459 115.35Z" fill="#3E2029"/>
<path d="M111.716 97.7152C112.044 99.002 111.557 100.091 110.91 100.256C110.264 100.421 109.315 99.7042 108.985 98.4122C108.655 97.1203 109.144 96.036 109.791 95.871C110.437 95.7059 111.386 96.4232 111.716 97.7152Z" fill="#3E2029"/>
<path d="M118.851 104.617C118.371 104.684 117.725 104.019 117.577 103.023C117.429 102.027 117.859 101.213 118.339 101.145C118.534 101.132 118.728 101.197 118.878 101.328C119.288 101.687 119.551 102.192 119.613 102.739C119.748 103.735 119.31 104.541 118.841 104.619L118.851 104.617Z" fill="#3E2029"/>
</svg>
