<svg width="230" height="223" viewBox="0 0 230 223" fill="none" xmlns="http://www.w3.org/2000/svg">
<path d="M17.4307 25.5168C17.2918 25.5445 17.1748 25.597 17.0358 25.6247C16.9033 25.6599 16.7724 25.7005 16.6438 25.7466C11.5428 26.927 7.03 29.7105 4.00784 33.5407L4.01064 33.5547C2.43603 35.5587 1.31531 37.7896 0.71275 40.1195C0.110185 42.4494 0.0376265 44.8323 0.499234 47.1318L1.89669 54.1361C2.08584 55.0616 2.69526 55.8625 3.59152 56.3635C4.48779 56.8645 5.59787 57.0246 6.67875 56.809L35.2817 51.1023L43.6804 93.1982C32.1105 103.78 22.8364 112.367 19.361 116.797C16.8253 120.041 15.8204 123.951 16.5672 127.667L33.3529 211.716C34.8901 219.42 43.5029 224.257 52.4924 222.463L215.905 189.86C224.895 188.067 230.992 180.295 229.455 172.591L212.702 88.5358C211.933 84.6834 209.405 81.5098 205.95 79.5699C200.562 76.5444 188.865 72.389 174.498 67.4187L163.942 14.5082C162.019 4.87028 151.263 -1.16989 140.018 1.07365L17.5969 25.4982L17.4307 25.5168ZM18.8473 32.5319C25.712 31.1623 32.0117 34.7122 33.1855 40.5959L33.8842 44.098L9.37023 49.0035L8.6715 45.5013C8.08457 42.5595 8.90755 39.6569 10.7449 37.3238C11.696 36.1194 12.9014 35.076 14.2918 34.2536C15.6823 33.4313 17.2305 32.8461 18.8473 32.5319ZM35.0611 29.297L141.415 8.07795C148.28 6.70835 154.596 10.2551 155.77 16.1387L173.361 104.309L127.682 146.706C123.889 150.23 119.975 151.011 115.121 149.212L59.2312 128.55L42.8838 46.6141C42.8778 46.5813 42.8713 46.5486 42.8642 46.516C42.8595 46.1358 42.785 45.7623 42.6434 45.4093L41.355 38.9514C40.5682 35.008 38.2372 31.7149 35.0611 29.297ZM78.8317 35.1304L62.5554 38.3923C62.0066 38.4913 61.4798 38.6838 61.0062 38.9584C60.5326 39.2331 60.1218 39.5842 59.7982 39.9912C59.3195 40.5994 59.0533 41.3074 59.0338 42.0241C59.0142 42.7408 59.2423 43.4334 59.6887 44.013C60.135 44.5926 60.7792 45.0328 61.5386 45.2768C62.2979 45.5209 63.1377 45.5577 63.95 45.3826L80.2292 42.1347C81.3129 41.9185 82.2786 41.3421 82.9139 40.5325C83.5491 39.7228 83.8019 38.7461 83.6166 37.8173C83.4313 36.8885 82.823 36.0836 81.9257 35.5797C81.0284 35.0758 79.9154 34.9142 78.8317 35.1304ZM81.5612 49.152C81.0132 49.2537 80.4878 49.4487 80.0161 49.7255C79.5444 50.0023 79.136 50.3551 78.8151 50.7633C78.3359 51.3721 78.0696 52.0807 78.0504 52.798C78.0313 53.5153 78.2602 54.2085 78.7076 54.7882C79.155 55.3679 79.8006 55.8077 80.5611 56.0509C81.3216 56.2942 82.1623 56.3297 82.975 56.1531L140.165 44.743C141.248 44.5268 142.214 43.9504 142.849 43.1408C143.485 42.3311 143.737 41.3544 143.552 40.4256C143.367 39.4968 142.758 38.6919 141.861 38.188C140.964 37.6841 139.851 37.5225 138.767 37.7387L81.5612 49.152ZM68.0116 66.4216C67.4636 66.5233 66.9382 66.7183 66.4665 66.9951C65.9948 67.2718 65.5864 67.6247 65.2655 68.0328C64.7863 68.6416 64.52 69.3503 64.5008 70.0676C64.4817 70.7849 64.7105 71.478 65.158 72.0577C65.6054 72.6375 66.2509 73.0772 67.0115 73.3205C67.772 73.5637 68.6127 73.5993 69.4254 73.4226L142.959 58.7516C144.043 58.5354 145.009 57.959 145.644 57.1494C146.279 56.3397 146.532 55.363 146.347 54.4342C146.162 53.5054 145.553 52.7005 144.656 52.1966C143.759 51.6927 142.646 51.5311 141.562 51.7473L68.0116 66.4216ZM90.9789 77.061C87.8576 77.6576 84.8679 78.7815 82.1846 80.3673C79.5012 81.9531 77.178 83.9689 75.3505 86.2969L75.28 86.3692C75.2423 86.4123 75.2057 86.456 75.1702 86.5004L75.1128 86.4681C73.2724 88.8123 71.962 91.4212 71.2564 94.1456C70.5508 96.8701 70.4638 99.6568 71.0004 102.346C71.537 105.036 72.6867 107.576 74.3839 109.821C76.081 112.066 78.2922 113.972 80.8913 115.431L84.1832 117.28L117.127 135.673C117.572 135.924 118.074 136.092 118.606 136.17C119.138 136.248 119.688 136.232 120.225 136.125C120.763 136.018 121.277 135.821 121.738 135.545C122.199 135.269 122.599 134.921 122.913 134.519L146.279 104.905L148.607 101.921C150.446 99.5759 151.755 96.9666 152.459 94.2419C153.163 91.5172 153.248 88.7306 152.71 86.0412C152.172 83.3518 151.021 80.8124 149.323 78.5681C147.624 76.3238 145.412 74.4186 142.812 72.9613C137.552 70.0443 131.054 69.1136 124.725 70.3709C118.396 71.6282 112.745 74.9722 108.998 79.6785L109.071 79.7075C109.071 79.7075 109.051 79.7334 108.984 79.6958C103.748 76.792 97.2872 75.8466 90.9789 77.061ZM92.3157 83.9318C96.3107 83.1711 100.581 83.7466 104.262 85.8016L107.538 87.6534C108.435 88.1571 109.548 88.3186 110.632 88.1024C111.715 87.8862 112.681 87.3101 113.316 86.5007L115.638 83.5319C116.85 81.9719 118.392 80.6176 120.176 79.5474C121.96 78.4772 123.95 77.7124 126.032 77.2971C128.113 76.8818 130.245 76.8243 132.303 77.128C134.361 77.4316 136.305 78.0903 138.022 79.066C145.328 83.1436 146.994 91.5364 141.825 98.1248L139.508 101.078L118.521 127.668L88.9539 111.164L85.6619 109.315C83.935 108.369 82.4643 107.122 81.3362 105.646C80.2081 104.17 79.4455 102.496 79.093 100.722C78.7406 98.947 78.8054 97.1081 79.2838 95.3128C79.7621 93.5176 80.6443 91.8022 81.8786 90.2674L81.9491 90.1951C81.982 90.1576 82.0141 90.1197 82.0454 90.0812C83.2341 88.5343 84.756 87.1927 86.5204 86.1362C88.2849 85.0797 90.2558 84.33 92.3157 83.9318ZM93.4519 90.4784C89.9378 91.1795 88.1039 93.9561 87.583 96.4561C87.0635 98.9632 87.5456 101.38 88.9861 103.488C89.2558 103.884 89.6161 104.225 90.0464 104.492C90.4766 104.759 90.9684 104.946 91.4937 105.044C92.0189 105.141 92.5673 105.147 93.1075 105.06C93.6478 104.973 94.1693 104.796 94.6423 104.538C95.1154 104.28 95.5306 103.946 95.8644 103.557C96.1982 103.167 96.4439 102.728 96.5877 102.266C96.7314 101.804 96.7702 101.327 96.702 100.863C96.6338 100.399 96.4598 99.956 96.1901 99.5603C95.8044 98.8801 95.6506 98.1091 95.7457 97.333C95.7696 97.1971 95.7249 97.2716 95.7343 97.2333C95.4489 97.344 95.1521 97.4276 94.8493 97.4827C95.7074 97.3115 95.7745 97.0941 95.7343 97.2333C96.7008 96.8604 97.4926 96.1949 97.9536 95.3678C98.4147 94.5407 98.5115 93.612 98.2252 92.7645C97.9389 91.9171 97.2901 91.2124 96.4066 90.7893C95.5231 90.3661 94.469 90.2552 93.4519 90.4784ZM45.4076 101.855L50.0556 125.152L29.2199 117.445C32.417 114.09 37.9863 108.74 45.4076 101.855ZM176.207 75.985C182.855 78.2827 189.407 80.7647 195.851 83.4273L180.532 97.6633L176.207 75.985ZM202.864 87.1411C203.653 87.9886 204.29 88.9685 204.529 90.1662L221.282 174.221C222.069 178.165 219.109 181.938 214.508 182.856L51.0949 215.459C46.4939 216.377 42.312 214.029 41.5252 210.085L24.7394 126.037C24.5857 125.266 24.6939 124.531 24.8035 123.803L111.484 155.859C115.093 157.231 119.181 157.543 123.155 156.75C127.13 155.957 130.784 154.1 133.59 151.449L202.864 87.1411ZM170.721 155.176C170.171 155.277 169.644 155.472 169.171 155.749C168.698 156.027 168.288 156.38 167.966 156.789C167.488 157.397 167.222 158.104 167.202 158.82C167.182 159.536 167.409 160.229 167.855 160.808C168.3 161.388 168.943 161.828 169.701 162.073C170.459 162.318 171.298 162.356 172.11 162.182L196.627 157.291C197.71 157.075 198.676 156.498 199.311 155.689C199.947 154.879 200.199 153.902 200.014 152.974C199.829 152.045 199.221 151.24 198.323 150.736C197.426 150.232 196.313 150.07 195.229 150.287L170.712 155.178L170.721 155.176ZM157.212 172.438C156.664 172.54 156.138 172.735 155.667 173.011C155.195 173.288 154.787 173.641 154.466 174.049C153.987 174.657 153.721 175.364 153.701 176.08C153.681 176.796 153.909 177.488 154.354 178.068C154.799 178.647 155.442 179.088 156.2 179.333C156.959 179.578 157.797 179.616 158.609 179.442L199.422 171.3C200.505 171.083 201.471 170.507 202.106 169.697C202.742 168.888 202.994 167.911 202.809 166.982C202.624 166.053 202.015 165.248 201.118 164.745C200.221 164.241 199.108 164.079 198.024 164.295L157.212 172.438Z" fill="#3E2029"/>
</svg>
