<svg width="500" height="500" viewBox="0 0 500 500" fill="none" xmlns="http://www.w3.org/2000/svg">
<g clip-path="url(#clip0_88_62)">
<path d="M500 0.534973H0V500.535H500V0.534973Z" fill="#EFF1F4"/>
<path d="M218.448 409.039C145.544 386.868 48.1379 335.944 42.8929 269.725C38.5729 215.185 55.9299 232.97 115.631 113.438C175.331 -6.094 262.919 42.111 308.772 108.695C354.624 175.279 409.57 201.535 409.57 201.535C409.57 201.535 513.425 234.283 429.577 319.398C345.728 404.513 297.674 433.133 218.448 409.039Z" fill="#82E8B0"/>
<path d="M193.308 387.141C192.817 387.188 192.308 387.054 191.891 386.724C191.033 386.047 190.886 384.802 191.564 383.944C192.022 383.364 203.013 369.593 223.634 357.049C242.666 345.471 273.771 332.926 313.878 338.901C344.843 343.514 370.111 333.413 388.986 308.875C403.145 290.467 408.175 270.482 408.223 270.282C408.485 269.22 409.559 268.575 410.619 268.832C411.681 269.094 412.33 270.167 412.069 271.228C411.859 272.077 406.787 292.227 392.124 311.289C381.261 325.411 363.329 340.892 335.992 343.529C329.046 344.199 321.495 344.039 313.294 342.817C274.429 337.029 244.278 349.155 225.826 360.35C205.767 372.52 194.78 386.26 194.672 386.398C194.324 386.839 193.826 387.091 193.308 387.141Z" fill="#DBDBDB"/>
<path d="M312.129 351.797C311.606 351.847 311.094 351.688 310.683 351.35C310.576 351.271 310.488 351.18 310.408 351.078C310.319 350.977 310.249 350.875 310.189 350.761C310.129 350.647 310.086 350.522 310.045 350.407C310.003 350.282 309.98 350.144 309.967 350.016C309.955 349.888 309.952 349.759 309.97 349.628C309.988 349.497 310.006 349.376 310.044 349.253C310.082 349.13 310.139 349.005 310.198 348.891C310.257 348.775 310.336 348.669 310.416 348.571C311.074 347.762 312.395 347.634 313.195 348.303C313.604 348.632 313.861 349.125 313.91 349.637C313.922 349.765 313.926 349.905 313.909 350.035C313.901 350.155 313.874 350.287 313.836 350.41C313.797 350.533 313.749 350.647 313.69 350.762C313.622 350.878 313.552 350.984 313.462 351.082C313.134 351.491 312.651 351.747 312.129 351.797Z" fill="#DBDBDB"/>
<path d="M311.458 351.753C310.398 351.487 309.756 350.405 310.022 349.345C310.278 348.286 311.36 347.644 312.42 347.91C313.48 348.176 314.13 349.247 313.865 350.307C313.646 351.144 312.937 351.719 312.128 351.797C311.912 351.818 311.681 351.8 311.458 351.753Z" fill="#DBDBDB"/>
<path d="M340.67 352.478C340.546 351.396 341.337 350.415 342.42 350.301C343.512 350.185 344.483 350.968 344.608 352.059C344.723 353.143 343.941 354.122 342.849 354.238C342.839 354.239 342.839 354.239 342.829 354.24C341.746 354.344 340.785 353.561 340.67 352.478ZM334.936 354.691C333.893 354.702 333.03 353.901 332.942 352.884C332.937 352.835 332.932 352.775 332.936 352.725C332.931 351.632 333.809 350.741 334.902 350.736C335.945 350.725 336.799 351.527 336.887 352.544C336.892 352.593 336.896 352.642 336.892 352.693C336.901 353.726 336.12 354.587 335.104 354.685C335.045 354.691 334.986 354.696 334.936 354.691ZM348.321 351.461C348.303 351.373 348.295 351.294 348.287 351.206C348.203 350.229 348.86 349.311 349.846 349.106C350.917 348.874 351.967 349.548 352.2 350.62C352.218 350.708 352.226 350.787 352.234 350.875C352.319 351.852 351.67 352.76 350.676 352.975C350.608 352.992 350.529 353 350.45 353.008C349.464 353.103 348.535 352.446 348.321 351.461ZM327.018 354.38C326.046 354.305 325.305 353.531 325.215 352.595C325.205 352.486 325.203 352.367 325.212 352.248C325.306 351.154 326.262 350.346 327.355 350.44C328.328 350.525 329.068 351.289 329.158 352.225C329.169 352.343 329.171 352.463 329.162 352.583C329.076 353.546 328.313 354.296 327.377 354.386C327.259 354.397 327.139 354.399 327.018 354.38ZM355.833 349.634C355.779 349.49 355.755 349.333 355.74 349.185C355.654 348.288 356.196 347.42 357.093 347.125C358.135 346.786 359.254 347.355 359.591 348.386C359.645 348.53 359.671 348.687 359.684 348.825C359.771 349.722 359.227 350.59 358.331 350.886L358.332 350.896C358.188 350.94 358.051 350.973 357.904 350.987C357.007 351.072 356.129 350.53 355.833 349.634ZM319.185 353.385C318.295 353.232 317.637 352.5 317.545 351.643C317.528 351.466 317.53 351.276 317.562 351.095C317.746 350.013 318.77 349.288 319.852 349.472C319.852 349.472 319.852 349.472 319.853 349.482C320.743 349.635 321.39 350.359 321.482 351.215C321.499 351.392 321.498 351.582 321.466 351.763C321.314 352.664 320.571 353.322 319.704 353.405C319.536 353.421 319.356 353.408 319.185 353.385ZM363.11 347.012C363.012 346.813 362.961 346.599 362.941 346.392C362.862 345.574 363.299 344.746 364.091 344.391C365.091 343.937 366.259 344.381 366.713 345.382C366.802 345.583 366.863 345.796 366.883 346.003C366.962 346.821 366.523 347.638 365.723 348.004C365.523 348.093 365.309 348.144 365.102 348.164C364.283 348.242 363.465 347.804 363.11 347.012ZM370.066 343.646C369.922 343.392 369.837 343.121 369.811 342.856C369.729 342.107 370.083 341.347 370.781 340.942C371.732 340.393 372.936 340.704 373.485 341.656C373.638 341.901 373.724 342.17 373.751 342.446C373.823 343.195 373.469 343.955 372.772 344.361C372.518 344.515 372.247 344.59 371.971 344.617C371.221 344.689 370.47 344.334 370.066 343.646ZM376.658 339.59C376.45 339.301 376.33 338.975 376.297 338.64C376.222 337.962 376.512 337.257 377.108 336.831C377.991 336.189 379.233 336.388 379.866 337.282C380.083 337.569 380.204 337.895 380.236 338.23C380.302 338.92 380.012 339.614 379.416 340.04C379.129 340.257 378.792 340.379 378.457 340.411C377.778 340.477 377.083 340.185 376.658 339.59ZM382.833 334.936C382.553 334.615 382.397 334.222 382.359 333.828C382.299 333.207 382.537 332.577 383.041 332.141C383.868 331.425 385.109 331.514 385.826 332.349C386.106 332.671 386.262 333.053 386.3 333.448C386.36 334.069 386.132 334.698 385.626 335.134C385.305 335.414 384.912 335.571 384.519 335.609C383.909 335.668 383.27 335.441 382.833 334.936ZM388.58 329.757C388.24 329.422 388.049 328.993 387.997 328.551C387.942 327.979 388.125 327.395 388.559 326.955C389.319 326.175 390.572 326.164 391.351 326.924C391.701 327.258 391.892 327.688 391.934 328.131C391.999 328.702 391.816 329.286 391.382 329.726C391.047 330.067 390.609 330.268 390.165 330.311C389.594 330.366 389.02 330.183 388.58 329.757ZM393.896 324.123C393.495 323.784 393.26 323.309 393.213 322.826C393.153 322.304 393.3 321.763 393.666 321.33C394.37 320.496 395.615 320.396 396.458 321.101C396.87 321.449 397.106 321.944 397.155 322.446C397.194 322.949 397.045 323.471 396.688 323.894C396.34 324.305 395.865 324.54 395.373 324.587C394.86 324.626 394.328 324.479 393.896 324.123ZM398.798 318.12C398.327 317.778 398.049 317.267 397.998 316.735C397.942 316.262 398.064 315.764 398.363 315.357C399.013 314.469 400.248 314.28 401.137 314.93C401.607 315.272 401.875 315.784 401.937 316.315C401.983 316.789 401.861 317.277 401.562 317.694C401.21 318.166 400.7 318.444 400.148 318.498C399.684 318.542 399.204 318.419 398.798 318.12ZM403.271 311.8C402.732 311.464 402.42 310.908 402.364 310.327C402.322 309.893 402.419 309.456 402.66 309.065C403.258 308.142 404.475 307.875 405.397 308.463C405.927 308.799 406.249 309.355 406.305 309.936C406.346 310.36 406.25 310.807 405.999 311.199C405.662 311.729 405.105 312.041 404.524 312.097C404.1 312.138 403.652 312.042 403.271 311.8ZM407.34 305.201C406.741 304.871 406.376 304.28 406.325 303.649C406.288 303.264 406.369 302.869 406.563 302.512C407.098 301.555 408.298 301.21 409.254 301.745C409.853 302.076 410.208 302.668 410.269 303.298C410.306 303.683 410.225 304.078 410.031 304.435C409.699 305.025 409.107 305.38 408.486 305.44C408.102 305.477 407.697 305.406 407.34 305.201ZM410.987 298.365C410.341 298.059 409.934 297.442 409.87 296.782C409.836 296.428 409.89 296.064 410.046 295.731C410.046 295.731 410.046 295.731 410.057 295.73C410.518 294.74 411.701 294.319 412.691 294.79C413.337 295.096 413.745 295.712 413.809 296.372C413.843 296.727 413.787 297.08 413.632 297.424C413.318 298.082 412.699 298.479 412.029 298.544C411.684 298.577 411.321 298.523 410.987 298.365Z" fill="#DBDBDB"/>
<path d="M415.064 291.437C414.542 291.487 414.02 291.339 413.62 290.999C413.512 290.92 413.423 290.82 413.334 290.719C413.256 290.627 413.185 290.515 413.125 290.401C413.064 290.287 413.014 290.173 412.981 290.047C412.94 289.922 412.917 289.795 412.903 289.656C412.891 289.528 412.889 289.399 412.906 289.268C412.924 289.147 412.942 289.016 412.98 288.893C413.018 288.77 413.066 288.646 413.134 288.53C413.192 288.415 413.261 288.309 413.352 288.21C414.01 287.411 415.331 287.284 416.13 287.942C416.238 288.022 416.326 288.113 416.405 288.215C416.485 288.316 416.565 288.428 416.626 288.541C416.687 288.655 416.738 288.779 416.769 288.895C416.811 289.02 416.833 289.147 416.845 289.275C416.858 289.414 416.861 289.542 416.844 289.673C416.837 289.803 416.809 289.925 416.771 290.048C416.733 290.171 416.684 290.285 416.616 290.401C416.558 290.516 416.49 290.632 416.399 290.73C416.24 290.935 416.037 291.093 415.81 291.215C415.572 291.339 415.33 291.412 415.064 291.437Z" fill="#DBDBDB"/>
<path d="M362.439 269.018H335.154V264.52H356.217L338.068 209.574L342.34 208.163L362.439 269.018Z" fill="#DBDBDB"/>
<path d="M111.68 270.989C111.68 270.989 154.78 289.728 175.393 289.728C175.429 289.728 175.468 289.727 175.504 289.727C186.924 272.746 219.523 221.633 215.495 197.156C210.623 167.548 193.195 169.516 193.195 169.516C193.195 169.516 176.517 166.424 150.282 205.776C129.488 236.967 114.344 260.859 108.958 269.428L111.68 270.989Z" fill="#30FC8B"/>
<path d="M253.265 255.503L252.665 246.51L252.598 245.503L211.746 242.505C211.746 242.505 209.497 207.65 208.373 198.655C207.249 189.66 201.639 169.413 193.194 169.516C185.511 169.61 174.642 178.792 172.768 217.02C170.894 255.248 173.892 261.994 185.511 266.491C197.129 270.988 253.347 256.747 253.347 256.747L253.265 255.503Z" fill="#30FC8B"/>
<path opacity="0.2" d="M185.512 266.491C173.894 261.994 170.895 255.247 172.769 217.02C172.916 214.012 173.125 211.203 173.378 208.545C172.256 212.509 171.193 216.935 170.214 221.901C162.808 259.452 164.795 266.561 175.637 272.698C177.533 273.771 180.866 274.475 185.068 274.906C186.561 272.498 188.115 269.942 189.698 267.272C187.992 267.147 186.564 266.899 185.512 266.491Z" fill="#76A5DD"/>
<path d="M183.076 348.53L177.692 350.151L206.55 446.036L211.933 444.416L183.076 348.53Z" fill="#B6C3E6"/>
<path d="M201.44 445.995C201.44 442.104 204.46 438.951 208.186 438.951C211.912 438.951 214.932 442.105 214.932 445.995H201.44Z" fill="#5B6185"/>
<path d="M240.418 147.591C242.226 150.707 245.374 155.088 245.896 160.569C246.171 163.454 246.18 170.922 244.212 172.608C242.244 174.294 231.001 174.013 231.001 174.013L217.649 190.316L205.281 166.845L212.73 164.034C212.73 164.034 209.732 149.312 215.4 143.515C221.585 137.191 233.264 135.266 240.418 147.591Z" fill="#D9ABA9"/>
<path d="M222.029 166.668C223.657 166.574 219.369 169.47 216.244 169.235C210.622 168.813 207.249 160.802 208.233 150.261C209.217 139.72 216.103 140.142 218.774 139.439C221.444 138.736 222.709 136.628 226.925 136.207C231.141 135.785 235.077 140.985 237.608 140.43C243.732 139.087 247.542 139.966 245.196 143.796C238.309 155.039 224.817 152.931 224.817 152.931L226.644 160.661C226.644 160.661 221.163 156.164 218.493 159.537C215.823 162.91 217.836 166.911 222.029 166.668Z" fill="#171717"/>
<path d="M231.001 174.013C227.277 174.154 223.833 168.321 223.833 168.321C223.833 168.321 222.076 175.278 227.206 178.651L231.001 174.013Z" fill="#8E5150"/>
<path d="M205.282 166.846C205.282 166.846 198.536 164.738 193.195 169.516L210.06 202.684L218.774 193.97L217.65 190.316L205.282 166.846Z" fill="#63CC92"/>
<path d="M270.914 246.44C270.489 245.855 255.815 246.389 252.665 246.51L253.265 255.503C255.151 256.067 261.671 257.951 264.345 257.871C267.487 257.777 268.724 254.966 268.724 254.966C268.724 254.966 273.865 263.492 274.627 263.305C275.389 263.118 273.77 256.278 273.77 256.278C273.77 256.278 277.864 261.525 279.197 260.869C280.53 260.214 271.39 247.096 270.914 246.44Z" fill="#D9ABA9"/>
<path d="M247.172 245.413L246.047 245.438L246.328 258.087L247.453 258.062L247.172 245.413Z" fill="#63CC92"/>
<path d="M165.583 435.834L163.241 445.996H194.442C194.442 445.996 200.72 435.869 167.458 435.869L165.583 435.834Z" fill="url(#paint0_linear_88_62)"/>
<path d="M112.242 335.077C101.746 327.861 99.338 316.564 100.304 305.452C100.148 285.509 110.086 255.42 115.053 242.88C116.602 238.969 123.854 223.335 118.994 221.876C112.804 220.018 108.774 229.545 104.879 238.358C92.571 266.207 77.533 322.627 99.312 340.136C127.983 363.185 188.698 351.942 190.947 343.509C191.37 341.922 191.634 340.254 191.783 338.594C165.186 344.506 130.423 347.576 112.242 335.077Z" fill="#5B6185"/>
<path d="M175.504 289.727C175.468 289.727 175.429 289.728 175.393 289.728C154.78 289.728 111.68 270.989 111.68 270.989C111.68 270.989 110.786 272.532 109.496 275.158C103.769 286.821 90.217 319.935 112.242 335.077C132.531 349.026 173.476 343.588 200.67 336.446C186.662 365.163 164.149 436.268 164.149 436.268H182.513C182.513 436.268 234.233 351.942 246.226 317.461C258.199 283.042 196.225 289.704 175.504 289.727Z" fill="url(#paint1_linear_88_62)"/>
<path d="M113.138 348.528L84.2701 444.413L89.6538 446.034L118.521 350.149L113.138 348.528Z" fill="#B6C3E6"/>
<path d="M94.744 445.995C94.744 442.104 91.724 438.951 87.998 438.951C84.272 438.951 81.252 442.105 81.252 445.995H94.744Z" fill="#5B6185"/>
<path d="M316.673 252.267C321.381 253.788 326.477 251.181 327.998 246.473L357.034 156.602C358.555 151.894 355.948 146.799 351.24 145.278L316.673 252.267Z" fill="#302F2B"/>
<path d="M391.363 266.772H256.581V272.956H391.363V266.772Z" fill="#B6C3E6"/>
<path d="M383.795 272.956H264.404V296.61H383.795V272.956Z" fill="#B6C3E6"/>
<path d="M264.404 292.11V272.959H360.959L264.404 292.11Z" fill="#95A8D0"/>
<path d="M303.944 260.577H264.498V266.761H303.944V260.577Z" fill="#DBDBDB"/>
<path d="M268.892 296.61H264.395V445.826H268.892V296.61Z" fill="#B6C3E6"/>
<path d="M383.744 296.61H379.247V445.825H383.744V296.61Z" fill="#B6C3E6"/>
<path d="M391.081 445.825H77.387V449.198H391.081V445.825Z" fill="#5B6185"/>
<path d="M235.78 159.204C235.935 160.017 235.401 160.801 234.589 160.956C233.776 161.111 232.992 160.578 232.837 159.765C232.682 158.952 233.216 158.168 234.028 158.013C234.841 157.858 235.625 158.391 235.78 159.204Z" fill="#181028"/>
<path d="M228.99 156.434C228.862 156.38 228.751 156.283 228.68 156.15C228.515 155.843 228.632 155.461 228.939 155.297C229.123 155.199 233.45 152.943 236.758 155.917C237.017 156.15 237.038 156.548 236.805 156.807C236.572 157.065 236.18 157.091 235.914 156.854C233.263 154.467 229.57 156.391 229.533 156.41C229.359 156.503 229.16 156.506 228.99 156.434Z" fill="#181028"/>
<path d="M243.927 155.883C244.082 156.696 243.548 157.48 242.736 157.635C241.923 157.79 241.139 157.257 240.984 156.444C240.829 155.631 241.363 154.847 242.175 154.692C242.988 154.537 243.772 155.07 243.927 155.883Z" fill="#181028"/>
<path d="M239.254 155.273C239.153 155.35 239.029 155.398 238.893 155.403C238.547 155.414 238.257 155.148 238.241 154.803C238.235 154.667 238.148 151.436 242.387 150.009C242.716 149.898 243.074 150.076 243.185 150.406C243.297 150.737 243.119 151.094 242.788 151.205C239.483 152.318 239.498 154.655 239.501 154.755C239.507 154.964 239.409 155.153 239.254 155.273Z" fill="#181028"/>
<path d="M239.736 167.912C239.732 167.913 239.729 167.914 239.725 167.915C238.774 168.175 237.93 168.099 237.216 167.689C236.094 167.045 235.751 165.802 235.737 165.75C235.648 165.414 235.885 165.089 236.184 164.978C236.52 164.889 236.864 165.087 236.955 165.422C237.04 165.725 237.556 167.203 239.393 166.699C239.728 166.607 240.076 166.805 240.168 167.141C240.258 167.473 240.066 167.816 239.736 167.912Z" fill="#562A35"/>
<path d="M239.271 163.456C239.239 163.465 239.219 163.471 239.213 163.472C238.876 163.555 238.533 163.349 238.45 163.011C238.368 162.674 238.597 162.331 238.909 162.248C238.949 162.247 239.717 162.018 239.916 161.461C240.11 160.913 239.699 160.181 239.32 159.662C237.115 156.651 237.402 155.068 237.442 154.897C237.521 154.557 237.862 154.348 238.2 154.427C238.539 154.506 238.75 154.846 238.67 155.185C238.67 155.185 238.506 156.414 240.337 158.917C241.155 160.035 241.412 161.037 241.099 161.896C240.706 162.977 239.549 163.375 239.271 163.456Z" fill="#562A35"/>
<path d="M221.406 163.498C221.358 163.552 221.301 163.599 221.235 163.637C220.913 163.821 220.503 163.709 220.32 163.387C219.584 162.094 220.195 161.079 220.608 160.726C220.892 160.487 221.315 160.525 221.554 160.808C221.789 161.087 221.752 161.503 221.484 161.743C221.398 161.822 221.153 162.136 221.486 162.722C221.631 162.978 221.59 163.289 221.406 163.498Z" fill="#562A35"/>
<path d="M224.625 163.623C224.545 163.713 224.441 163.784 224.317 163.821C222.198 164.468 220.262 162.552 220.18 162.47C219.92 162.208 219.898 161.803 220.183 161.523C220.444 161.262 220.868 161.262 221.13 161.523C221.144 161.537 222.582 162.948 223.926 162.539C224.279 162.431 224.655 162.63 224.764 162.985C224.834 163.214 224.773 163.454 224.625 163.623Z" fill="#562A35"/>
<path d="M98.753 202.935C98.726 202.935 98.699 202.934 98.672 202.934C97.437 202.89 96.469 201.866 96.504 200.63C96.522 200.005 97.184 185.182 118.397 173.722C122.682 171.407 126.797 168.236 130.51 164.642C127.499 155.663 128.026 142.075 131.776 133.597C134.688 127.013 139.444 124.066 144.821 125.517C148.725 126.569 151.146 129.465 151.637 133.674C152.645 142.319 145.667 155.395 135.771 165.732C136.467 167.116 137.292 168.171 138.238 168.777C140.883 170.47 144.42 167.451 146.922 164.617C153.877 156.733 160.382 146.401 166.674 136.409C180.134 115.029 194.069 92.941 213.61 93.345C221.105 93.507 226.736 95.998 230.345 100.749C237.43 110.075 233.835 124.593 233.678 125.206C233.371 126.409 232.147 127.136 230.943 126.829C229.74 126.522 229.013 125.297 229.32 124.094C229.352 123.967 232.53 111.042 226.754 103.458C224.016 99.862 219.561 97.972 213.512 97.842C213.359 97.839 213.205 97.837 213.052 97.837C196.273 97.837 183.74 117.743 170.479 138.806C164.093 148.949 157.489 159.438 150.293 167.594C143.655 175.118 138.752 174.45 135.812 172.566C134.524 171.741 133.412 170.511 132.473 168.974C128.721 172.438 124.663 175.451 120.535 177.681C101.763 187.821 101.021 200.251 100.999 200.775C100.947 201.982 99.952 202.935 98.753 202.935ZM142.217 129.662C139.705 129.662 137.581 131.59 135.889 135.417C132.807 142.385 132.388 153.314 134.117 160.88C142.44 151.543 147.911 140.558 147.169 134.196C146.891 131.81 145.773 130.432 143.651 129.861C143.161 129.728 142.682 129.662 142.217 129.662Z" fill="#DBDBDB"/>
<path d="M122.078 167.107C121.977 167.107 121.876 167.104 121.773 167.098C120.409 167.018 119.158 166.412 118.25 165.392C117.341 164.371 116.885 163.058 116.965 161.694C117.045 160.33 117.651 159.079 118.672 158.171C119.692 157.263 121.001 156.811 122.37 156.886C123.734 156.966 124.985 157.572 125.893 158.592C126.801 159.613 127.258 160.926 127.178 162.29C127.098 163.654 126.492 164.905 125.472 165.813C124.527 166.653 123.332 167.107 122.078 167.107ZM122.07 160.25C121.643 160.25 121.237 160.405 120.915 160.691C120.566 161.001 120.36 161.427 120.333 161.891C120.306 162.355 120.461 162.803 120.771 163.15C121.08 163.498 121.506 163.704 121.971 163.731C122.433 163.759 122.882 163.603 123.23 163.293C123.578 162.984 123.784 162.558 123.811 162.093C123.838 161.629 123.683 161.181 123.373 160.834C123.064 160.486 122.638 160.28 122.173 160.253C122.139 160.251 122.104 160.25 122.07 160.25Z" fill="url(#paint2_linear_88_62)"/>
<path d="M191.783 138.837C188.963 138.837 186.668 136.543 186.668 133.723C186.668 130.903 188.962 128.608 191.783 128.608C194.604 128.608 196.898 130.903 196.898 133.723C196.897 136.543 194.603 138.837 191.783 138.837ZM191.783 131.981C190.823 131.981 190.042 132.762 190.042 133.723C190.042 134.683 190.823 135.464 191.783 135.464C192.743 135.464 193.524 134.683 193.524 133.723C193.524 132.762 192.743 131.981 191.783 131.981Z" fill="url(#paint3_linear_88_62)"/>
<path d="M237.056 96.434C234.236 96.434 231.941 94.14 231.941 91.32C231.941 88.5 234.236 86.205 237.056 86.205C239.876 86.205 242.171 88.5 242.171 91.32C242.171 94.139 239.876 96.434 237.056 96.434ZM237.056 89.577C236.095 89.577 235.314 90.358 235.314 91.319C235.314 92.279 236.095 93.061 237.056 93.061C238.016 93.061 238.797 92.28 238.797 91.319C238.797 90.358 238.016 89.577 237.056 89.577Z" fill="url(#paint4_linear_88_62)"/>
<path d="M111.609 157.102C110.801 157.821 109.562 157.749 108.843 156.941C108.124 156.133 108.196 154.894 109.004 154.175C109.812 153.456 111.051 153.528 111.77 154.336C112.489 155.144 112.418 156.383 111.609 157.102Z" fill="#EFF1F4"/>
<path d="M214.063 105.183C214.063 106.265 213.186 107.142 212.104 107.142C211.022 107.142 210.145 106.265 210.145 105.183C210.145 104.101 211.022 103.224 212.104 103.224C213.186 103.224 214.063 104.101 214.063 105.183Z" fill="#EFF1F4"/>
<path d="M110.28 169.67C109.472 170.389 108.234 170.317 107.514 169.509C106.795 168.701 106.867 167.462 107.675 166.743C108.483 166.024 109.722 166.096 110.441 166.904C111.161 167.713 111.089 168.951 110.28 169.67Z" fill="#EFF1F4"/>
<path d="M165.935 96.906C166 96.569 166.037 96.222 166.037 95.865C166.037 92.867 163.606 90.436 160.608 90.436C159.672 90.436 158.792 90.673 158.023 91.09C156.335 88.772 153.608 87.26 150.521 87.26C145.393 87.26 141.237 91.417 141.237 96.544C141.237 96.567 141.24 96.588 141.24 96.611C136.364 97.161 132.574 101.294 132.574 106.317C132.574 111.714 136.95 116.09 142.347 116.09H163.331C168.729 116.09 173.104 111.715 173.104 106.317C173.104 101.823 170.066 98.047 165.935 96.906Z" fill="#DBDBDB"/>
<path d="M158.188 109.782V107.645L164.249 105.48L158.188 103.315V101.177L167.009 104.424V106.534L158.188 109.782Z" fill="white"/>
<path d="M137.399 106.536V104.426L146.22 101.179V103.317L140.159 105.482L146.22 107.647V109.784L137.399 106.536Z" fill="white"/>
<path d="M154.43 98.966H156.275L150.916 112.556H149.071L154.43 98.966Z" fill="white"/>
<path d="M146.82 191.828C146.82 187.252 144.703 183.165 141.4 180.483C141.328 180.414 141.25 180.353 141.165 180.307C138.688 178.376 135.584 177.214 132.207 177.214C128.832 177.214 125.73 178.375 123.253 180.303C123.163 180.35 123.081 180.414 123.005 180.488C119.707 183.17 117.593 187.255 117.593 191.827C117.593 196.406 119.713 200.495 123.019 203.176C123.081 203.235 123.148 203.285 123.22 203.326C125.702 205.27 128.817 206.44 132.207 206.44C135.584 206.44 138.689 205.278 141.166 203.347C141.251 203.302 141.328 203.241 141.4 203.172C144.702 200.492 146.82 196.404 146.82 191.828ZM140.593 201.018C139.951 200.569 139.276 200.175 138.574 199.835C139.245 197.827 139.663 195.467 139.756 192.904H144.613C144.337 196.11 142.84 198.965 140.593 201.018ZM128.646 201.035C129.787 200.696 130.979 200.513 132.206 200.513C133.433 200.513 134.625 200.697 135.766 201.035C134.746 203.091 133.443 204.289 132.206 204.289C130.969 204.289 129.667 203.09 128.646 201.035ZM127.514 203.365C126.856 203.096 126.23 202.768 125.634 202.396C125.964 202.19 126.301 202.001 126.646 201.828C126.914 202.383 127.203 202.897 127.514 203.365ZM132.207 179.366C133.444 179.366 134.746 180.565 135.766 182.62C134.625 182.959 133.433 183.142 132.207 183.142C130.98 183.142 129.788 182.958 128.647 182.62C129.667 180.565 130.969 179.366 132.207 179.366ZM126.646 181.829C126.301 181.656 125.964 181.467 125.634 181.261C126.231 180.889 126.856 180.56 127.514 180.292C127.203 180.759 126.914 181.273 126.646 181.829ZM136.899 180.291C137.557 180.56 138.183 180.888 138.779 181.26C138.449 181.466 138.112 181.655 137.767 181.828C137.499 181.273 137.21 180.758 136.899 180.291ZM132.207 185.295C133.696 185.295 135.168 185.053 136.575 184.612C137.136 186.334 137.514 188.417 137.605 190.752H126.807C126.898 188.417 127.275 186.334 127.837 184.612C129.245 185.053 130.717 185.295 132.207 185.295ZM137.605 192.904C137.514 195.239 137.136 197.322 136.575 199.044C135.167 198.603 133.696 198.36 132.207 198.36C130.718 198.36 129.246 198.602 127.838 199.044C127.276 197.322 126.899 195.239 126.808 192.904H137.605ZM137.767 201.827C138.112 202 138.449 202.189 138.779 202.395C138.182 202.767 137.557 203.096 136.899 203.364C137.21 202.897 137.499 202.383 137.767 201.827ZM144.613 190.752H139.756C139.663 188.189 139.245 185.829 138.574 183.82C139.276 183.48 139.952 183.087 140.593 182.637C142.84 184.69 144.337 187.545 144.613 190.752ZM123.82 182.638C124.461 183.088 125.136 183.481 125.839 183.821C125.167 185.829 124.75 188.189 124.657 190.753H119.8C120.075 187.545 121.572 184.69 123.82 182.638ZM119.799 192.904H124.656C124.749 195.467 125.167 197.827 125.838 199.835C125.136 200.174 124.461 200.568 123.819 201.018C121.572 198.965 120.075 196.11 119.799 192.904Z" fill="#EFF1F4"/>
<path d="M203.094 123.185L206.358 126.449C209.474 123.332 214.407 123.194 217.353 126.141L218.215 125.279L220.806 122.688C218.473 120.354 215.365 119.229 212.213 119.277C208.954 119.327 205.646 120.632 203.094 123.185Z" fill="#EFF1F4"/>
<path d="M205.732 112.795C202.843 113.841 200.105 115.515 197.765 117.855L201.029 121.119C203.456 118.693 206.435 117.183 209.514 116.577C214.333 115.628 219.399 116.913 222.99 120.503L226.443 117.05C220.97 111.579 212.876 110.208 205.732 112.795Z" fill="#EFF1F4"/>
<path d="M208.518 128.609L211.701 131.793L215.068 128.426C213.311 126.667 210.378 126.749 208.518 128.609Z" fill="#EFF1F4"/>
<path d="M253.98 200.925V157.703C253.98 157.36 254.257 157.084 254.599 157.084H323.813C324.154 157.084 324.433 157.361 324.433 157.703V200.945L253.98 200.925Z" fill="#302F2B"/>
<path d="M289.098 197.898L256.899 197.889V160.664C256.899 160.371 257.152 160.13 257.465 160.13H289.098V197.898Z" fill="#302F2B"/>
<path d="M289.106 197.894L321.305 197.885V160.66C321.305 160.367 321.052 160.126 320.739 160.126H289.106V197.894Z" fill="#86B0E2"/>
<g opacity="0.5">
<path d="M266.814 174.268C266.814 174.645 266.512 174.95 266.141 174.95H259.7C259.328 174.95 259.026 174.645 259.026 174.268C259.026 173.892 259.328 173.586 259.7 173.586H266.141C266.512 173.586 266.814 173.893 266.814 174.268Z" fill="#ECEDEF"/>
<path d="M266.814 186.335C266.814 186.711 266.512 187.017 266.141 187.017H259.7C259.328 187.017 259.026 186.711 259.026 186.335C259.026 185.96 259.328 185.654 259.7 185.654H266.141C266.512 185.654 266.814 185.96 266.814 186.335Z" fill="#FF2727"/>
<path d="M266.814 188.759C266.814 189.135 266.512 189.44 266.141 189.44H259.7C259.328 189.44 259.026 189.135 259.026 188.759C259.026 188.381 259.328 188.076 259.7 188.076H266.141C266.512 188.077 266.814 188.382 266.814 188.759Z" fill="#ECEDEF"/>
<path d="M266.814 183.862C266.814 184.238 266.512 184.543 266.141 184.543H259.7C259.328 184.543 259.026 184.238 259.026 183.862C259.026 183.484 259.328 183.179 259.7 183.179H266.141C266.512 183.179 266.814 183.485 266.814 183.862Z" fill="#FF2727"/>
<path d="M266.814 171.693C266.814 172.069 266.512 172.375 266.141 172.375H259.7C259.328 172.375 259.026 172.07 259.026 171.693C259.026 171.316 259.328 171.011 259.7 171.011H266.141C266.512 171.011 266.814 171.317 266.814 171.693Z" fill="#ECEDEF"/>
<path d="M266.814 169.27C266.814 169.646 266.512 169.951 266.141 169.951H259.7C259.328 169.951 259.026 169.646 259.026 169.27C259.026 168.894 259.328 168.588 259.7 168.588H266.141C266.512 168.588 266.814 168.893 266.814 169.27Z" fill="#ECEDEF"/>
<path d="M275.353 174.268C275.353 174.645 275.052 174.95 274.679 174.95H268.238C267.866 174.95 267.563 174.645 267.563 174.268C267.563 173.892 267.866 173.586 268.238 173.586H274.679C275.052 173.586 275.353 173.893 275.353 174.268Z" fill="#ECEDEF"/>
<path d="M275.353 186.33C275.353 186.707 275.052 187.012 274.679 187.012H268.238C267.866 187.012 267.563 186.707 267.563 186.33C267.563 185.953 267.866 185.648 268.238 185.648H274.679C275.052 185.648 275.353 185.953 275.353 186.33Z" fill="#86B0E2"/>
<path d="M279.473 188.753C279.473 189.13 279.171 189.436 278.798 189.436H268.238C267.866 189.436 267.563 189.13 267.563 188.753C267.563 188.378 267.866 188.072 268.238 188.072H278.798C279.17 188.072 279.473 188.378 279.473 188.753Z" fill="#ECEDEF"/>
<path d="M275.353 176.818C275.353 177.195 275.052 177.501 274.679 177.501H268.238C267.866 177.501 267.563 177.195 267.563 176.818C267.563 176.443 267.866 176.137 268.238 176.137H274.679C275.052 176.137 275.353 176.442 275.353 176.818Z" fill="#86B0E2"/>
<path d="M275.353 171.771C275.353 172.148 275.052 172.452 274.679 172.452H268.238C267.866 172.452 267.563 172.148 267.563 171.771C267.563 171.395 267.866 171.089 268.238 171.089H274.679C275.052 171.089 275.353 171.396 275.353 171.771Z" fill="#FF2727"/>
<path d="M281.345 174.268C281.345 174.645 281.043 174.95 280.67 174.95H276.626C276.254 174.95 275.952 174.645 275.952 174.268C275.952 173.892 276.254 173.586 276.626 173.586H280.67C281.043 173.586 281.345 173.893 281.345 174.268Z" fill="#ECEDEF"/>
<path d="M266.316 181.716C266.316 182.093 266.015 182.398 265.642 182.398H261.598C261.225 182.398 260.923 182.093 260.923 181.716C260.923 181.34 261.225 181.034 261.598 181.034H265.642C266.014 181.034 266.316 181.339 266.316 181.716Z" fill="#ECEDEF"/>
<path d="M281.345 176.794C281.345 177.17 281.043 177.475 280.67 177.475H276.626C276.254 177.475 275.952 177.17 275.952 176.794C275.952 176.416 276.254 176.112 276.626 176.112H280.67C281.043 176.112 281.345 176.416 281.345 176.794Z" fill="#86B0E2"/>
<path d="M287.287 176.794C287.287 177.17 286.985 177.475 286.614 177.475H282.569C282.197 177.475 281.895 177.17 281.895 176.794C281.895 176.416 282.196 176.112 282.569 176.112H286.614C286.984 176.112 287.287 176.416 287.287 176.794Z" fill="#ECEDEF"/>
</g>
<g opacity="0.5">
<path d="M301.643 179.922C301.643 180.302 301.335 180.611 300.956 180.611H296.347C295.968 180.611 295.659 180.302 295.659 179.922V175.798C295.659 175.418 295.968 175.11 296.347 175.11H300.956C301.335 175.11 301.643 175.419 301.643 175.798V179.922Z" fill="#ECEDEF"/>
<path d="M308.598 179.922C308.598 180.302 308.291 180.611 307.911 180.611H303.302C302.922 180.611 302.615 180.302 302.615 179.922V175.798C302.615 175.418 302.922 175.11 303.302 175.11H307.911C308.291 175.11 308.598 175.419 308.598 175.798V179.922Z" fill="#ECEDEF"/>
<path d="M316.513 175.575C316.513 175.906 316.245 176.172 315.915 176.172H309.937C309.607 176.172 309.339 175.905 309.339 175.575C309.339 175.246 309.607 174.978 309.937 174.978H315.915C316.245 174.977 316.513 175.245 316.513 175.575Z" fill="#ECEDEF"/>
<path d="M302.698 187.264C302.698 187.596 302.43 187.862 302.1 187.862H296.122C295.792 187.862 295.524 187.595 295.524 187.264C295.524 186.935 295.791 186.667 296.122 186.667H302.1C302.43 186.667 302.698 186.935 302.698 187.264Z" fill="#ECEDEF"/>
<path d="M316.513 173.317C316.513 173.646 316.245 173.914 315.915 173.914H296.189C295.858 173.914 295.591 173.646 295.591 173.317C295.591 172.987 295.858 172.72 296.189 172.72H315.915C316.245 172.72 316.513 172.987 316.513 173.317Z" fill="#ECEDEF"/>
<path d="M316.513 184.741C316.513 185.071 316.245 185.338 315.915 185.338H296.189C295.858 185.338 295.591 185.071 295.591 184.741C295.591 184.412 295.858 184.144 296.189 184.144H315.915C316.245 184.143 316.513 184.411 316.513 184.741Z" fill="#ECEDEF"/>
<path d="M313.755 177.604C313.755 177.806 313.59 177.971 313.387 177.971H309.708C309.505 177.971 309.34 177.806 309.34 177.604C309.34 177.4 309.505 177.235 309.708 177.235H313.387C313.59 177.235 313.755 177.4 313.755 177.604Z" fill="#ECEDEF"/>
<path d="M313.755 178.994C313.755 179.196 313.59 179.361 313.387 179.361H309.708C309.505 179.361 309.34 179.196 309.34 178.994C309.34 178.79 309.505 178.625 309.708 178.625H313.387C313.59 178.625 313.755 178.79 313.755 178.994Z" fill="#ECEDEF"/>
</g>
<path d="M329.374 174.621C329.374 176.049 328.216 177.206 326.788 177.206H312.964C311.536 177.206 310.378 176.05 310.378 174.621V144.226C310.378 142.799 311.536 141.642 312.964 141.642H326.788C328.215 141.642 329.374 142.798 329.374 144.226V174.621Z" fill="#DFDFDF"/>
<path d="M326.789 177.284H312.965C311.496 177.284 310.301 176.089 310.301 174.621V144.226C310.301 142.759 311.496 141.564 312.965 141.564H326.789C328.258 141.564 329.453 142.758 329.453 144.226V174.621C329.452 176.09 328.258 177.284 326.789 177.284ZM312.965 141.721C311.583 141.721 310.457 142.845 310.457 144.227V174.622C310.457 176.004 311.582 177.129 312.965 177.129H326.789C328.171 177.129 329.297 176.005 329.297 174.622V144.227C329.297 142.846 328.172 141.721 326.789 141.721H312.965Z" fill="#DFDFDF"/>
<mask id="mask0_88_62" style="mask-type:luminance" maskUnits="userSpaceOnUse" x="311" y="146" width="17" height="24">
<path d="M327.912 146.686H311.841V169.684H327.912V146.686Z" fill="white"/>
</mask>
<g mask="url(#mask0_88_62)">
<path d="M292.43 174.222V142.588C292.43 142.337 292.646 142.133 292.912 142.133H346.84C347.106 142.133 347.323 142.336 347.323 142.588V174.238L292.43 174.222Z" fill="#2D65C9"/>
</g>
<mask id="mask1_88_62" style="mask-type:luminance" maskUnits="userSpaceOnUse" x="311" y="146" width="17" height="24">
<path d="M327.912 146.686H311.841V169.684H327.912V146.686Z" fill="white"/>
</mask>
<g mask="url(#mask1_88_62)">
<path d="M292.43 174.229V142.593C292.43 142.344 292.646 142.14 292.912 142.14H346.84C347.106 142.14 347.323 142.344 347.323 142.593L292.43 174.229Z" fill="url(#paint5_linear_88_62)"/>
</g>
<path d="M321.908 173.398C321.908 174.52 320.999 175.429 319.877 175.429C318.755 175.429 317.845 174.52 317.845 173.398C317.845 172.277 318.755 171.367 319.877 171.367C320.999 171.367 321.908 172.277 321.908 173.398Z" fill="#868589"/>
<path d="M322.97 143.724C322.97 144.081 322.681 144.371 322.324 144.371H317.427C317.071 144.371 316.78 144.081 316.78 143.724C316.78 143.368 317.071 143.077 317.427 143.077H322.324C322.682 143.077 322.97 143.368 322.97 143.724Z" fill="#868589"/>
<path d="M320.749 138.223C320.749 138.645 320.409 138.986 319.988 138.986H315.004C314.584 138.986 314.243 138.645 314.243 138.223V133.241C314.243 132.82 314.584 132.478 315.004 132.478H319.988C320.409 132.478 320.749 132.821 320.749 133.241V138.223Z" fill="#302F2B"/>
<path d="M332.812 160.411C332.812 160.9 332.417 161.294 331.929 161.294H326.146C325.658 161.294 325.262 160.9 325.262 160.411V154.628C325.262 154.14 325.658 153.744 326.146 153.744H331.929C332.417 153.744 332.812 154.139 332.812 154.628V160.411Z" fill="#221A17"/>
<path d="M332.437 159.948C332.437 160.437 332.042 160.832 331.554 160.832H325.771C325.283 160.832 324.887 160.437 324.887 159.948V154.166C324.887 153.676 325.283 153.282 325.771 153.282H331.554C332.042 153.282 332.437 153.676 332.437 154.166V159.948Z" fill="#DFDFDF"/>
<path d="M331.554 160.91H325.771C325.241 160.91 324.809 160.479 324.809 159.948V154.165C324.809 153.635 325.24 153.204 325.771 153.204H331.554C332.084 153.204 332.515 153.635 332.515 154.165V159.948C332.515 160.478 332.084 160.91 331.554 160.91ZM325.771 153.36C325.326 153.36 324.965 153.721 324.965 154.165V159.948C324.965 160.392 325.326 160.754 325.771 160.754H331.554C331.998 160.754 332.359 160.392 332.359 159.948V154.165C332.359 153.721 331.998 153.36 331.554 153.36H325.771Z" fill="#DFDFDF"/>
<path d="M331.002 156.557H330.714C330.68 156.557 330.649 156.564 330.618 156.575C330.569 156.375 330.491 156.186 330.387 156.015C330.415 156.001 330.443 155.983 330.467 155.96L330.67 155.756C330.791 155.636 330.791 155.441 330.67 155.32L330.399 155.05C330.279 154.93 330.085 154.93 329.964 155.05L329.761 155.253C329.738 155.277 329.72 155.304 329.706 155.332C329.534 155.229 329.347 155.15 329.146 155.099C329.156 155.069 329.163 155.038 329.163 155.005V154.717C329.163 154.548 329.025 154.41 328.855 154.41H328.472C328.302 154.41 328.163 154.548 328.163 154.717V155.005C328.163 155.038 328.17 155.07 328.179 155.099C327.979 155.149 327.792 155.229 327.62 155.332C327.605 155.303 327.588 155.277 327.565 155.253L327.361 155.05C327.241 154.93 327.046 154.93 326.926 155.05L326.655 155.32C326.534 155.441 326.534 155.636 326.655 155.756L326.858 155.96C326.882 155.983 326.909 156 326.938 156.016C326.834 156.186 326.756 156.375 326.707 156.575C326.677 156.564 326.645 156.557 326.611 156.557H326.323C326.153 156.557 326.015 156.695 326.015 156.865V157.249C326.015 157.418 326.153 157.556 326.323 157.556H326.611C326.646 157.556 326.678 157.549 326.709 157.538C326.758 157.738 326.838 157.925 326.941 158.096C326.912 158.111 326.883 158.13 326.859 158.153L326.655 158.357C326.535 158.477 326.535 158.672 326.655 158.792L326.926 159.063C327.046 159.183 327.241 159.183 327.361 159.063L327.565 158.86C327.59 158.834 327.608 158.807 327.622 158.777C327.794 158.88 327.981 158.959 328.181 159.007C328.17 159.04 328.162 159.072 328.162 159.108V159.396C328.162 159.565 328.3 159.702 328.471 159.702H328.854C329.024 159.702 329.162 159.565 329.162 159.396V159.108C329.162 159.072 329.154 159.04 329.144 159.007C329.343 158.959 329.532 158.88 329.702 158.777C329.717 158.808 329.735 158.834 329.76 158.86L329.963 159.063C330.084 159.184 330.278 159.184 330.398 159.063L330.669 158.792C330.79 158.672 330.79 158.477 330.669 158.357L330.466 158.153C330.441 158.129 330.413 158.111 330.383 158.096C330.488 157.925 330.566 157.738 330.616 157.538C330.647 157.549 330.679 157.556 330.714 157.556H331.002C331.172 157.556 331.309 157.418 331.309 157.249V156.865C331.309 156.695 331.171 156.557 331.002 156.557ZM328.662 158.062C328.105 158.062 327.652 157.611 327.652 157.053C327.652 156.495 328.104 156.043 328.662 156.043C329.22 156.043 329.672 156.495 329.672 157.053C329.672 157.611 329.22 158.062 328.662 158.062Z" fill="#5C5C5F"/>
<path d="M315.716 148.529C315.716 149.098 315.253 149.561 314.682 149.561H307.917C307.347 149.561 306.884 149.098 306.884 148.529V141.763C306.884 141.192 307.347 140.73 307.917 140.73H314.682C315.253 140.73 315.716 141.192 315.716 141.763V148.529Z" fill="#302F2B"/>
<path d="M315.287 148.033C315.287 148.603 314.824 149.066 314.253 149.066H307.488C306.918 149.066 306.455 148.603 306.455 148.033V141.267C306.455 140.697 306.918 140.234 307.488 140.234H314.253C314.824 140.234 315.287 140.697 315.287 141.267V148.033Z" fill="#DFDFDF"/>
<path d="M314.252 149.144H307.487C306.874 149.144 306.376 148.646 306.376 148.033V141.267C306.376 140.654 306.875 140.156 307.487 140.156H314.252C314.866 140.156 315.364 140.655 315.364 141.267V148.033C315.364 148.646 314.866 149.144 314.252 149.144ZM307.487 140.312C306.96 140.312 306.532 140.741 306.532 141.267V148.033C306.532 148.56 306.96 148.988 307.487 148.988H314.252C314.779 148.988 315.208 148.56 315.208 148.033V141.267C315.208 140.74 314.779 140.312 314.252 140.312H307.487Z" fill="#DFDFDF"/>
<path d="M312.465 143.926C312.274 143.926 312.095 143.968 311.932 144.044C311.807 143.357 311.207 142.834 310.483 142.834C309.671 142.834 309.011 143.494 309.011 144.306C309.011 144.315 309.013 144.322 309.013 144.332C308.45 144.363 308.003 144.827 308.003 145.398C308.003 145.99 308.483 146.469 309.073 146.469C309.11 146.469 309.147 146.467 309.182 146.462H312.356C312.392 146.466 312.428 146.469 312.465 146.469C313.168 146.469 313.738 145.899 313.738 145.197C313.738 144.494 313.168 143.926 312.465 143.926Z" fill="#76A9DA"/>
<path d="M312.507 137.788C312.507 138.526 311.909 139.123 311.171 139.123H302.428C301.691 139.123 301.092 138.526 301.092 137.788V129.043C301.092 128.305 301.69 127.708 302.428 127.708H311.171C311.909 127.708 312.507 128.305 312.507 129.043V137.788Z" fill="#302F2B"/>
<path d="M311.949 137.225C311.949 137.964 311.351 138.56 310.613 138.56H301.87C301.133 138.56 300.535 137.964 300.535 137.225V128.482C300.535 127.742 301.133 127.146 301.87 127.146H310.613C311.351 127.146 311.949 127.742 311.949 128.482V137.225Z" fill="#DFDFDF"/>
<path d="M310.613 138.638H301.87C301.09 138.638 300.457 138.004 300.457 137.225V128.481C300.457 127.701 301.091 127.067 301.87 127.067H310.613C311.393 127.067 312.027 127.701 312.027 128.481V137.225C312.027 138.004 311.393 138.638 310.613 138.638ZM301.87 127.223C301.177 127.223 300.613 127.787 300.613 128.481V137.225C300.613 137.918 301.177 138.482 301.87 138.482H310.613C311.307 138.482 311.871 137.918 311.871 137.225V128.481C311.871 127.788 311.307 127.223 310.613 127.223H301.87Z" fill="#DFDFDF"/>
<path d="M310.033 130.076H302.942V136.566H310.033V130.076Z" fill="#C2C3C8"/>
<path d="M310.033 130.076H302.942V131.702H310.033V130.076Z" fill="#CA6121"/>
<path d="M309.803 129.81H302.712V136.299H309.803V129.81Z" fill="#D7D8DC"/>
<path d="M309.803 129.81H302.712V131.436H309.803V129.81Z" fill="#DA9500"/>
<path d="M309.579 129.568H302.488V136.057H309.579V129.568Z" fill="#ECEDEF"/>
<path d="M309.579 129.568H302.488V131.194H309.579V129.568Z" fill="#E5B44A"/>
<path d="M305.41 130.475C305.41 130.636 305.279 130.765 305.119 130.765C304.958 130.765 304.827 130.637 304.827 130.475C304.827 130.315 304.958 130.183 305.119 130.183C305.279 130.183 305.41 130.315 305.41 130.475Z" fill="#CA6121"/>
<path d="M305.119 130.35H304.775C304.676 130.35 304.594 130.247 304.594 130.121V129.693C304.594 129.568 304.676 129.465 304.775 129.465H305.055C305.119 129.465 305.17 129.5 305.202 129.564H305.418L305.417 129.515C305.417 129.305 305.284 129.136 305.119 129.136H304.658C304.494 129.136 304.36 129.305 304.36 129.515V130.221C304.36 130.43 304.493 130.599 304.658 130.599H305.119C305.119 130.599 305.168 130.583 305.168 130.476C305.168 130.361 305.119 130.35 305.119 130.35Z" fill="#F9FBFD"/>
<path d="M307.814 130.475C307.814 130.636 307.684 130.765 307.524 130.765C307.363 130.765 307.233 130.637 307.233 130.475C307.233 130.315 307.363 130.183 307.524 130.183C307.684 130.183 307.814 130.315 307.814 130.475Z" fill="#CA6121"/>
<path d="M307.524 130.35H307.181C307.081 130.35 307 130.247 307 130.121V129.693C307 129.568 307.081 129.465 307.181 129.465H307.459C307.524 129.465 307.574 129.5 307.606 129.564H307.823V129.515C307.823 129.305 307.689 129.136 307.524 129.136H307.063C306.899 129.136 306.765 129.305 306.765 129.515V130.221C306.765 130.43 306.899 130.599 307.063 130.599H307.524C307.524 130.599 307.574 130.583 307.574 130.476C307.574 130.361 307.524 130.35 307.524 130.35Z" fill="#F9FBFD"/>
<path d="M309.579 133.909H307.231V136.058H309.579V133.909Z" fill="#D7D8DC"/>
<path d="M307.231 136.057V133.909H309.579L307.231 136.057Z" fill="#C2C3C8"/>
<path d="M320.35 137.663C320.35 138.085 320.01 138.425 319.589 138.425H314.606C314.186 138.425 313.844 138.085 313.844 137.663V132.68C313.844 132.261 314.185 131.918 314.606 131.918H319.589C320.01 131.918 320.35 132.261 320.35 132.68V137.663Z" fill="#DFDFDF"/>
<path d="M319.589 138.502H314.605C314.143 138.502 313.766 138.125 313.766 137.662V132.679C313.766 132.216 314.143 131.839 314.605 131.839H319.589C320.051 131.839 320.428 132.216 320.428 132.679V137.662C320.428 138.126 320.051 138.502 319.589 138.502ZM314.605 131.996C314.228 131.996 313.922 132.303 313.922 132.68V137.663C313.922 138.04 314.228 138.347 314.605 138.347H319.589C319.966 138.347 320.272 138.04 320.272 137.663V132.68C320.272 132.303 319.966 131.996 319.589 131.996H314.605Z" fill="#DFDFDF"/>
<path d="M314.778 128.753L315.072 129.351L315.731 129.447L315.253 129.911L315.365 130.567L314.775 130.257L314.186 130.565L314.3 129.91L313.825 129.444L314.483 129.35L314.778 128.753Z" fill="#E5B44A"/>
<path d="M331.845 149.702L332.139 150.301L332.797 150.397L332.32 150.86L332.431 151.517L331.842 151.205L331.252 151.514L331.367 150.858L330.891 150.393L331.55 150.298L331.845 149.702Z" fill="#E5B44A"/>
<path d="M331.815 162.218L332.11 162.816L332.768 162.913L332.291 163.376L332.402 164.032L331.813 163.722L331.223 164.03L331.338 163.376L330.862 162.91L331.521 162.816L331.815 162.218Z" fill="#ECEDEF"/>
<path d="M304.034 140.105L304.328 140.702L304.987 140.8L304.509 141.262L304.621 141.919L304.032 141.609L303.442 141.916L303.556 141.262L303.081 140.796L303.74 140.702L304.034 140.105Z" fill="#E5B44A"/>
<path d="M298.771 120.715H298.041C297.952 120.715 297.87 120.738 297.791 120.766C297.667 120.256 297.464 119.78 297.2 119.342C297.276 119.305 297.351 119.263 297.414 119.2L297.929 118.684C298.234 118.379 298.234 117.886 297.929 117.581L297.244 116.897C296.938 116.591 296.445 116.591 296.142 116.897L295.625 117.411C295.563 117.473 295.522 117.547 295.485 117.622C295.048 117.356 294.571 117.153 294.06 117.028C294.086 116.95 294.109 116.87 294.109 116.783V116.053C294.109 115.623 293.76 115.274 293.33 115.274H292.36C291.929 115.274 291.579 115.623 291.579 116.053V116.783C291.579 116.87 291.602 116.95 291.629 117.029C291.119 117.154 290.642 117.357 290.205 117.623C290.168 117.548 290.127 117.474 290.065 117.411L289.548 116.897C289.244 116.591 288.751 116.591 288.446 116.897L287.76 117.581C287.455 117.886 287.455 118.38 287.76 118.684L288.275 119.2C288.338 119.263 288.413 119.305 288.49 119.342C288.225 119.779 288.023 120.256 287.899 120.766C287.819 120.738 287.737 120.715 287.648 120.715H286.92C286.489 120.715 286.14 121.065 286.14 121.496V122.465C286.14 122.896 286.489 123.245 286.92 123.245H287.648C287.739 123.245 287.823 123.222 287.904 123.193C288.03 123.702 288.232 124.178 288.497 124.614C288.418 124.651 288.341 124.696 288.275 124.761L287.758 125.277C287.454 125.58 287.454 126.075 287.758 126.378L288.445 127.064C288.749 127.369 289.243 127.369 289.547 127.064L290.064 126.549C290.13 126.483 290.175 126.405 290.212 126.325C290.648 126.589 291.122 126.791 291.631 126.915C291.601 126.997 291.578 127.084 291.578 127.176V127.905C291.578 128.336 291.928 128.684 292.359 128.684H293.329C293.759 128.684 294.108 128.336 294.108 127.905V127.176C294.108 127.084 294.085 126.997 294.055 126.915C294.564 126.791 295.039 126.589 295.475 126.325C295.512 126.405 295.558 126.483 295.624 126.549L296.141 127.063C296.445 127.368 296.938 127.368 297.243 127.063L297.928 126.377C298.233 126.073 298.233 125.579 297.928 125.276L297.413 124.76C297.348 124.695 297.271 124.651 297.192 124.613C297.458 124.177 297.66 123.701 297.785 123.192C297.866 123.22 297.949 123.243 298.04 123.243H298.77C299.2 123.243 299.549 122.894 299.549 122.463V121.494C299.549 121.065 299.2 120.715 298.771 120.715ZM292.844 124.529C291.431 124.529 290.285 123.384 290.285 121.97C290.285 120.557 291.43 119.413 292.844 119.413C294.256 119.413 295.402 120.558 295.402 121.97C295.402 123.384 294.257 124.529 292.844 124.529Z" fill="url(#paint6_linear_88_62)"/>
<path d="M285.499 129.007H283.304C283.046 129.007 282.803 129.059 282.571 129.136C282.198 127.611 281.6 126.179 280.81 124.871C281.026 124.761 281.233 124.627 281.414 124.446L282.965 122.895C283.882 121.979 283.882 120.494 282.965 119.578L280.9 117.514C279.985 116.598 278.5 116.598 277.584 117.514L276.033 119.065C275.854 119.244 275.721 119.448 275.612 119.662C274.305 118.869 272.873 118.267 271.348 117.891C271.421 117.664 271.471 117.426 271.471 117.175V114.982C271.471 113.685 270.422 112.636 269.126 112.636H266.204C264.909 112.636 263.859 113.685 263.859 114.982V117.175C263.859 117.426 263.909 117.664 263.982 117.891C262.457 118.267 261.026 118.868 259.719 119.661C259.61 119.448 259.477 119.243 259.299 119.065L257.747 117.514C256.831 116.598 255.346 116.598 254.43 117.514L252.365 119.58C251.448 120.495 251.448 121.981 252.365 122.897L253.916 124.448C254.097 124.629 254.304 124.763 254.52 124.872C253.731 126.18 253.132 127.612 252.76 129.136C252.528 129.059 252.284 129.007 252.026 129.007H249.833C248.537 129.007 247.488 130.058 247.488 131.353V134.273C247.488 135.568 248.537 136.619 249.833 136.619H252.026C252.288 136.619 252.536 136.566 252.772 136.486C253.149 138.008 253.751 139.438 254.544 140.743C254.318 140.854 254.103 140.993 253.915 141.181L252.363 142.732C251.447 143.648 251.447 145.133 252.363 146.049L254.429 148.114C255.345 149.029 256.83 149.029 257.746 148.114L259.298 146.562C259.488 146.373 259.628 146.155 259.739 145.927C261.045 146.717 262.474 147.315 263.996 147.689C263.913 147.929 263.858 148.184 263.858 148.453V150.646C263.858 151.942 264.908 152.992 266.203 152.992H269.125C270.42 152.992 271.47 151.942 271.47 150.646V148.453C271.47 148.184 271.415 147.93 271.332 147.689C272.854 147.315 274.284 146.716 275.59 145.927C275.701 146.156 275.842 146.374 276.032 146.564L277.583 148.115C278.499 149.032 279.985 149.032 280.9 148.115L282.965 146.05C283.882 145.133 283.882 143.649 282.965 142.733L281.414 141.182C281.226 140.994 281.011 140.855 280.786 140.744C281.579 139.439 282.181 138.009 282.559 136.487C282.795 136.566 283.042 136.62 283.305 136.62H285.5C286.794 136.62 287.845 135.569 287.845 134.274V131.354C287.843 130.058 286.793 129.007 285.499 129.007ZM267.665 140.485C263.412 140.485 259.967 137.038 259.967 132.787C259.967 128.536 263.413 125.089 267.665 125.089C271.916 125.089 275.362 128.536 275.362 132.787C275.363 137.038 271.917 140.485 267.665 140.485Z" fill="url(#paint7_linear_88_62)"/>
<path d="M316.736 134.012H316.013V134.302H316.736V134.012Z" fill="#FF2727"/>
<path d="M318.181 134.012H317.458V134.302H318.181V134.012Z" fill="#FF2727"/>
<path d="M319.627 134.012H318.904V134.881H319.627V134.012Z" fill="#FF2727"/>
<path d="M319.627 135.171H318.904V136.33H319.627V135.171Z" fill="#FF2727"/>
<path d="M318.543 133.723H317.82V134.012H318.543H319.266V133.723H318.543Z" fill="#FF2727"/>
<path d="M318.181 136.04H317.458V136.33H318.181V136.04Z" fill="#FF2727"/>
<path d="M318.543 136.62H317.82V136.33H318.543H319.266V136.62H318.543Z" fill="#FF2727"/>
<path d="M318.543 134.881H317.82V135.171H318.543H319.266V134.881H318.543Z" fill="#FF2727"/>
<path d="M316.374 134.302H315.651V134.592H316.374V134.302Z" fill="#FF2727"/>
<path d="M316.013 134.592H315.29V134.881H316.013V134.592Z" fill="#FF2727"/>
<path d="M315.652 134.881H314.929V135.171H315.652V134.881Z" fill="#FF2727"/>
<path d="M315.29 135.171H314.567V135.46H315.29V135.171Z" fill="#FF2727"/>
<path d="M316.736 136.33H316.013V136.62H316.736V136.33Z" fill="#FF2727"/>
<path d="M316.374 136.04H315.651V136.33H316.374V136.04Z" fill="#FF2727"/>
<path d="M316.013 135.751H315.29V136.04H316.013V135.751Z" fill="#FF2727"/>
<path d="M315.652 135.461H314.929V135.751H315.652V135.461Z" fill="#FF2727"/>
</g>
<defs>
<linearGradient id="paint0_linear_88_62" x1="163.241" y1="440.915" x2="194.913" y2="440.915" gradientUnits="userSpaceOnUse">
<stop stop-color="#F4512F"/>
<stop offset="0.9757" stop-color="#F4912F"/>
</linearGradient>
<linearGradient id="paint1_linear_88_62" x1="173.925" y1="436.268" x2="173.925" y2="270.989" gradientUnits="userSpaceOnUse">
<stop stop-color="#2E2A75"/>
<stop offset="1" stop-color="#2E7475"/>
</linearGradient>
<linearGradient id="paint2_linear_88_62" x1="116.957" y1="161.992" x2="127.187" y2="161.992" gradientUnits="userSpaceOnUse">
<stop stop-color="#86B0E2"/>
<stop offset="1" stop-color="#5CB0E2"/>
</linearGradient>
<linearGradient id="paint3_linear_88_62" x1="186.668" y1="133.723" x2="196.897" y2="133.723" gradientUnits="userSpaceOnUse">
<stop stop-color="#86B0E2"/>
<stop offset="1" stop-color="#5CB0E2"/>
</linearGradient>
<linearGradient id="paint4_linear_88_62" x1="231.941" y1="91.3188" x2="242.171" y2="91.3188" gradientUnits="userSpaceOnUse">
<stop stop-color="#86B0E2"/>
<stop offset="1" stop-color="#5CB0E2"/>
</linearGradient>
<linearGradient id="paint5_linear_88_62" x1="319.877" y1="174.229" x2="319.877" y2="142.14" gradientUnits="userSpaceOnUse">
<stop stop-color="#86B0E2"/>
<stop offset="1" stop-color="#5CB0E2"/>
</linearGradient>
<linearGradient id="paint6_linear_88_62" x1="286.139" y1="121.979" x2="299.55" y2="121.979" gradientUnits="userSpaceOnUse">
<stop stop-color="#86B0E2"/>
<stop offset="1" stop-color="#5CB0E2"/>
</linearGradient>
<linearGradient id="paint7_linear_88_62" x1="247.487" y1="132.813" x2="287.843" y2="132.813" gradientUnits="userSpaceOnUse">
<stop stop-color="#86B0E2"/>
<stop offset="1" stop-color="#5CB0E2"/>
</linearGradient>
<clipPath id="clip0_88_62">
<rect width="500" height="500" fill="white"/>
</clipPath>
</defs>
</svg>
