<svg width="153" height="264" viewBox="0 0 153 264" fill="none" xmlns="http://www.w3.org/2000/svg">
<path d="M132.409 -22.273C129.95 13.633 131.845 50.2681 131.827 86.2652C131.808 122.372 130.642 158.715 132.063 194.804C132.118 196.043 133.921 196.043 133.976 194.804C135.397 158.715 134.231 122.39 134.213 86.2652C134.195 50.2863 136.071 13.633 133.63 -22.273C133.557 -23.0568 132.464 -23.0568 132.409 -22.273Z" fill="#33000F"/>
<path d="M121.17 187.914C128.62 188.151 136.071 188.297 143.521 188.515C143.43 187.896 143.357 187.294 143.266 186.675C137.965 187.458 132.683 188.37 127.418 189.245C124.394 189.755 120.314 189.518 118.128 191.869C117.654 192.379 117.745 193.163 118.346 193.546C121.079 195.241 124.886 194.33 127.965 194.202C133.083 194.002 138.202 193.819 143.321 193.619C143.321 192.963 143.321 192.307 143.321 191.65C136.071 192.598 128.93 193.983 121.807 195.733C120.551 196.043 120.878 197.866 122.099 197.92C129.622 198.321 137.146 198.267 144.669 198.157C144.578 197.446 144.469 196.717 144.378 196.007C137.055 197.301 129.732 198.595 122.409 199.889C121.133 200.107 121.443 202.149 122.718 202.112C131.098 201.93 139.477 202.058 147.857 202.477C149.332 202.55 149.332 200.253 147.857 200.18C139.477 199.761 131.098 199.652 122.718 199.852C122.828 200.6 122.919 201.329 123.028 202.076C130.351 200.745 137.656 199.433 144.979 198.103C146.199 197.884 145.908 195.934 144.687 195.952C137.146 196.043 129.641 196.079 122.117 195.66C122.208 196.389 122.318 197.118 122.409 197.847C129.404 196.098 136.472 194.694 143.576 193.546C144.669 193.364 144.414 191.577 143.321 191.614C139.295 191.76 135.288 191.887 131.262 192.015C128.129 192.124 122.099 193.437 119.439 191.669C119.512 192.234 119.585 192.78 119.658 193.345C121.917 191.085 128.402 191.213 131.407 190.684C135.543 189.974 139.678 189.245 143.813 188.443C144.869 188.242 144.596 186.602 143.558 186.602C136.107 186.656 128.657 186.638 121.206 186.711C120.405 186.766 120.423 187.896 121.17 187.914Z" fill="#33000F"/>
<path d="M124.595 205.484C119.695 221.469 109.548 235.521 116.543 252.745C120.678 262.952 129.459 265.886 139.642 262.879C140.425 262.642 140.097 261.549 139.314 261.676C126.544 263.718 118.984 257.703 116.671 245.382C113.847 230.199 124.176 219.701 125.469 205.612C125.524 205.065 124.741 205.01 124.595 205.484Z" fill="#33000F"/>
<path d="M141.226 205.594C142.52 219.737 152.885 230.072 150.025 245.364C147.73 257.685 140.261 263.718 127.382 261.658C126.599 261.53 126.253 262.642 127.054 262.861C137.255 265.868 145.981 262.916 150.152 252.727C157.184 235.521 147.001 221.432 142.101 205.466C141.973 205.01 141.172 205.065 141.226 205.594Z" fill="#33000F"/>
<path d="M142.938 237.891C138.912 241.335 137.546 226.08 137.528 225.752C137.255 223.255 137.054 220.74 136.927 218.224C136.635 212.592 136.708 206.979 137.328 201.365C137.455 200.18 135.597 200.18 135.451 201.365C134.285 211.863 134.887 222.69 136.617 233.097C137.328 237.344 139.35 243.377 144.232 239.203C145.142 238.419 143.831 237.125 142.938 237.891Z" fill="#33000F"/>
<path d="M122.882 245.236C119.057 238.82 124.777 232.405 130.715 230.418C132.81 229.725 135.178 229.233 137.4 229.233C142.392 229.251 144.068 234.173 142.683 238.292C142.301 239.44 144.104 239.932 144.487 238.784C145.489 235.758 145.234 231.329 142.756 229.033C139.787 226.244 134.377 227.411 130.915 228.431C123.52 230.618 116.816 238.365 121.425 246.093C121.989 247.004 123.447 246.165 122.882 245.236Z" fill="#33000F"/>
<path d="M130.114 201.365C130.825 207.635 131.207 213.996 131.462 220.302C131.626 224.294 131.116 250.485 122.591 244.926C121.68 244.325 120.824 245.801 121.735 246.384C128.548 250.795 131.754 239.805 132.646 234.647C134.504 223.893 132.701 211.9 130.897 201.256C130.825 200.818 130.059 200.909 130.114 201.365Z" fill="#33000F"/>
<path d="M61.0194 112.657C69.0892 112.894 77.1773 113.058 85.2471 113.277C85.1561 112.657 85.0832 112.056 84.9921 111.436C79.2539 112.293 73.534 113.277 67.7958 114.225C64.5351 114.771 60.1268 114.516 57.7586 117.05C57.285 117.56 57.3761 118.344 57.9772 118.726C60.9283 120.549 65.0452 119.565 68.3606 119.437C73.9165 119.237 79.4543 119.018 85.0103 118.818C85.0103 118.161 85.0103 117.505 85.0103 116.849C77.1591 117.888 69.4171 119.383 61.7116 121.278C60.4546 121.588 60.7825 123.411 62.003 123.465C70.164 123.903 78.3249 123.848 86.4858 123.739C86.3948 123.028 86.2855 122.299 86.1944 121.588C78.252 122.991 70.3097 124.395 62.3856 125.817C61.1104 126.035 61.4201 128.077 62.6953 128.04C71.7852 127.84 80.8752 127.967 89.9652 128.423C91.4407 128.496 91.4407 126.199 89.9652 126.126C80.8752 125.671 71.8034 125.543 62.6953 125.78C62.8046 126.527 62.8956 127.256 63.0049 128.004C70.9291 126.564 78.8714 125.142 86.7955 123.702C88.016 123.484 87.7246 121.533 86.5041 121.552C78.3431 121.661 70.1822 121.697 62.0213 121.242C62.1123 121.971 62.2216 122.7 62.3127 123.429C69.9089 121.533 77.5598 120.021 85.2836 118.763C86.3766 118.581 86.1215 116.794 85.0285 116.831C80.6748 116.977 76.3029 117.123 71.9492 117.268C68.5427 117.378 62.003 118.818 59.0884 116.886C59.1613 117.451 59.2342 117.997 59.307 118.562C61.7662 116.084 68.7977 116.229 72.0949 115.664C76.5761 114.881 81.0756 114.115 85.5386 113.259C86.5951 113.058 86.3219 111.418 85.2836 111.418C77.2137 111.454 69.1256 111.436 61.0558 111.509C60.2543 111.491 60.2543 112.621 61.0194 112.657Z" fill="#33000F"/>
<path d="M64.7541 131.758C59.8903 149.001 48.8147 163.418 55.737 182.063C59.9996 193.546 69.5814 197.301 81.0395 193.929C81.8228 193.692 81.4949 192.58 80.7116 192.726C66.5939 195.113 58.4876 188.351 56.0284 174.809C54.3525 165.605 56.5203 156.893 60.0542 148.436C62.3677 142.876 65.173 137.955 65.6649 131.868C65.7013 131.357 64.8998 131.266 64.7541 131.758Z" fill="#33000F"/>
<path d="M82.8062 131.868C83.2251 136.935 85.1925 140.981 87.2145 145.556C91.3496 154.906 94.3371 164.475 92.4426 174.791C89.9834 188.26 81.8589 195.095 67.7594 192.708C66.9761 192.58 66.63 193.692 67.4315 193.91C78.8714 197.264 88.4897 193.509 92.7341 182.045C99.6381 163.381 88.5807 149.019 83.717 131.74C83.5712 131.266 82.7515 131.339 82.8062 131.868Z" fill="#33000F"/>
<path d="M84.6826 166.935C80.1649 170.799 78.7076 154.086 78.6712 153.721C78.3797 151.005 78.1611 148.29 78.0154 145.556C77.7057 139.45 77.7786 133.362 78.4526 127.275C78.5801 126.09 76.722 126.09 76.5763 127.275C75.3012 138.648 75.9569 150.367 77.8332 161.668C78.5801 166.188 80.7296 172.731 85.9577 168.248C86.8868 167.464 85.5752 166.17 84.6826 166.935Z" fill="#33000F"/>
<path d="M62.8227 174.882C58.6512 167.883 64.8629 160.866 71.3662 158.697C73.6615 157.932 76.2117 157.403 78.6345 157.421C84.0994 157.439 85.9393 162.834 84.4455 167.336C84.063 168.485 85.8664 168.977 86.249 167.828C87.3237 164.566 87.0505 159.827 84.4091 157.33C81.203 154.323 75.3556 155.58 71.6212 156.674C63.6424 159.025 56.3923 167.373 61.3836 175.702C61.9119 176.668 63.3692 175.812 62.8227 174.882Z" fill="#33000F"/>
<path d="M70.7474 127.275C71.5672 134.274 71.9861 141.382 72.2594 148.436C72.4051 152.391 71.6947 180.569 62.5136 174.572C61.6028 173.971 60.7466 175.447 61.6575 176.03C69.3448 181.006 72.7877 167.719 73.5527 162.215C75.1558 150.787 73.4252 138.484 71.5125 127.165C71.4579 126.728 70.6928 126.837 70.7474 127.275Z" fill="#33000F"/>
<path d="M74.4452 112.894C75.9936 90.4026 74.7549 67.4374 74.7549 44.8913C74.7549 22.2905 75.7203 -0.56539 74.4816 -23.1115C74.4087 -24.2962 72.6964 -24.2962 72.6418 -23.1115C71.403 -0.547163 72.3685 22.3088 72.3685 44.8913C72.3685 67.4374 71.1298 90.4026 72.6782 112.894C72.7693 114.024 74.3723 114.024 74.4452 112.894Z" fill="#33000F"/>
<path d="M6.02432 77.1156C12.2179 77.3343 18.4297 77.4801 24.6232 77.6806C24.5322 77.0609 24.4593 76.4594 24.3682 75.8397C19.9598 76.4594 15.5515 77.2249 11.1613 77.954C8.61105 78.3732 5.18637 78.1909 3.34652 80.1958C2.87289 80.7062 2.96397 81.4899 3.56511 81.8727C5.87859 83.2943 9.04824 82.5471 11.6532 82.4377C15.9158 82.2737 20.1784 82.1096 24.4411 81.9456C24.4411 81.2894 24.4411 80.6333 24.4411 79.9771C18.375 80.7426 12.4183 81.8909 6.47973 83.3672C5.2228 83.6771 5.5507 85.4997 6.7712 85.5544C13.0376 85.9007 19.3041 85.846 25.5705 85.7549C25.4794 85.0441 25.3701 84.315 25.279 83.6042C19.1765 84.6795 13.0923 85.7549 6.98979 86.8303C5.71465 87.049 6.02432 89.0903 7.29947 89.0539C14.2763 88.9081 21.2532 88.9992 28.2301 89.3637C29.7056 89.4366 29.7056 87.1401 28.2301 87.0672C21.2532 86.7209 14.2763 86.6298 7.29947 86.7938C7.40877 87.5411 7.49985 88.2701 7.60915 89.0174C13.6934 87.9238 19.7959 86.812 25.8802 85.7184C27.1007 85.4997 26.8092 83.5495 25.5887 83.5677C19.3223 83.6406 13.0558 83.6771 6.78941 83.3308C6.88049 84.0598 6.98979 84.7889 7.08087 85.518C12.9101 84.0598 18.7758 82.8934 24.6961 81.9091C25.7891 81.7269 25.5341 79.9407 24.4411 79.9771C21.0893 80.0865 17.7375 80.1959 14.4039 80.3052C11.8353 80.3963 6.82584 81.4899 4.63988 80.0318C4.71275 80.5786 4.78561 81.1436 4.85848 81.6904C6.71655 79.8495 12.0904 79.9589 14.5678 79.5215C18.0107 78.92 21.4536 78.3185 24.8783 77.6441C25.9166 77.4437 25.6616 75.8033 24.6232 75.8033C18.4297 75.8762 12.2179 75.858 6.02432 75.9491C5.27745 75.9673 5.27745 77.0974 6.02432 77.1156Z" fill="#33000F"/>
<path d="M8.81141 91.6238C4.47592 104.765 -3.75788 116.667 1.94384 130.883C5.42317 139.577 12.7826 142.129 21.4354 139.523C22.2369 139.286 21.8726 138.21 21.1075 138.32C9.39434 139.978 3.14612 133.508 2.16244 122.317C1.14232 110.853 8.93893 102.523 9.70402 91.7514C9.74045 91.2046 8.95714 91.1499 8.81141 91.6238Z" fill="#33000F"/>
<path d="M22.6556 91.7514C23.4206 102.578 31.3265 110.78 30.1971 122.317C29.1042 133.508 23.1292 139.997 11.2521 138.32C10.4688 138.21 10.1227 139.286 10.9242 139.523C19.577 142.111 26.9364 139.559 30.4157 130.883C36.1175 116.649 27.9019 104.765 23.5664 91.6238C23.3842 91.1681 22.6191 91.2046 22.6556 91.7514Z" fill="#33000F"/>
<path d="M24.0404 118.526C20.98 121.151 19.8142 108.757 19.796 108.538C19.5774 106.46 19.4134 104.364 19.3041 102.268C19.0673 97.5838 19.122 92.8997 19.6503 88.2337C19.7778 87.049 17.9197 87.049 17.774 88.2337C16.7903 96.9824 17.3003 106.004 18.7576 114.698C19.377 118.362 21.1986 123.411 25.352 119.838C26.2628 119.055 24.9512 117.742 24.0404 118.526Z" fill="#33000F"/>
<path d="M7.59067 124.668C4.43924 119.419 9.17549 114.17 14.021 112.548C15.7516 111.965 17.7008 111.564 19.5406 111.582C23.5846 111.6 24.8962 115.592 23.785 118.927C23.4025 120.075 25.2059 120.567 25.5884 119.419C26.4446 116.849 26.2078 113.058 24.0765 111.126C21.5262 108.811 17.045 109.723 14.0939 110.598C7.82748 112.457 2.21684 119 6.11514 125.525C6.67985 126.455 8.13716 125.598 7.59067 124.668Z" fill="#33000F"/>
<path d="M13.4019 88.2154C13.9666 93.4464 14.2581 98.7321 14.4585 103.981C14.586 107.226 14.167 128.86 7.2812 124.358C6.37038 123.757 5.51421 125.233 6.42503 125.817C12.1996 129.553 14.9685 120.33 15.7154 115.938C17.2638 106.97 15.7518 96.9823 14.1852 88.1061C14.1123 87.6686 13.3655 87.7598 13.4019 88.2154Z" fill="#33000F"/>
<path d="M17.0454 76.5505C18.2841 60.0739 17.3551 43.2327 17.3551 26.7195C17.3551 10.17 18.1748 -6.61656 17.0818 -23.1115C17.009 -24.2962 15.3148 -24.2962 15.242 -23.1115C14.149 -6.61656 14.9687 10.1882 14.9687 26.7195C14.9687 43.2509 14.0397 60.0921 15.2784 76.5505C15.3877 77.6624 16.9725 77.6806 17.0454 76.5505Z" fill="#33000F"/>
</svg>
