<svg width="210" height="210" viewBox="0 0 210 210" fill="none" xmlns="http://www.w3.org/2000/svg">
<path d="M134.277 137.741C134.551 139.338 135.44 140.764 136.755 141.713C138.069 142.661 139.703 143.055 141.305 142.811C142.736 142.147 143.889 141.003 144.565 139.578C145.241 138.153 145.398 136.537 145.008 135.009C144.618 133.481 143.705 132.137 142.429 131.211C141.153 130.284 139.592 129.834 138.019 129.936C136.498 130.489 135.255 131.616 134.555 133.075C133.856 134.534 133.756 136.209 134.277 137.741ZM141.567 135.88C142.011 137.62 141.318 139.101 140.417 139.331C139.516 139.561 138.203 138.599 137.757 136.852C137.311 135.106 138.006 133.631 138.903 133.402C139.801 133.173 141.121 134.133 141.567 135.88ZM137.622 149.988C138.014 148.588 137.95 147.099 137.442 145.737C136.933 144.375 136.004 143.21 134.791 142.409C134.191 142.001 133.502 141.743 132.782 141.656C132.062 141.569 131.332 141.656 130.652 141.91C129.973 142.163 129.364 142.576 128.877 143.114C128.39 143.651 128.04 144.298 127.854 144.999C127.445 146.398 127.508 147.893 128.032 149.253C128.429 150.573 129.294 151.703 130.463 152.432C131.633 153.161 133.028 153.44 134.388 153.216C134.534 153.178 134.68 153.141 134.825 153.082C135.497 152.816 136.099 152.398 136.585 151.862C137.07 151.325 137.425 150.684 137.622 149.988ZM131.396 147.998C131.148 147.384 131.106 146.708 131.274 146.068C131.314 145.898 131.39 145.74 131.498 145.603C131.606 145.466 131.742 145.354 131.898 145.275L131.974 145.256C132.296 145.207 132.625 145.284 132.892 145.47C133.44 145.839 133.853 146.376 134.069 147C134.315 147.614 134.358 148.29 134.191 148.93C134.151 149.099 134.074 149.257 133.966 149.394C133.858 149.53 133.721 149.641 133.566 149.719C132.961 149.933 131.871 149.266 131.396 147.998ZM147.482 134.37C147.929 135.346 148.644 136.175 149.545 136.759C150.446 137.342 151.494 137.657 152.568 137.667C153.641 137.676 154.695 137.379 155.605 136.81C156.516 136.241 157.246 135.425 157.709 134.457C158.172 133.488 158.349 132.408 158.22 131.342C158.09 130.276 157.66 129.27 156.979 128.44C156.298 127.61 155.394 126.992 154.374 126.657C153.354 126.323 152.26 126.286 151.22 126.552C149.697 127.105 148.451 128.234 147.752 129.697C147.053 131.159 146.956 132.837 147.482 134.37ZM154.768 132.51C155.212 134.25 154.523 135.73 153.622 135.96C152.72 136.19 151.407 135.228 150.961 133.482C150.516 131.735 151.207 130.261 152.108 130.031C153.009 129.801 154.322 130.763 154.768 132.51ZM166.834 134.463C166.355 134.091 165.807 133.819 165.222 133.661C164.638 133.503 164.027 133.462 163.426 133.543C162.004 133.875 160.771 134.757 159.998 135.997C159.226 137.236 158.975 138.731 159.303 140.155C159.4 141.609 160.064 142.967 161.152 143.937C162.241 144.907 163.666 145.411 165.122 145.34C165.272 145.317 165.42 145.287 165.566 145.249C166.868 144.795 167.96 143.882 168.637 142.681C169.314 141.48 169.53 140.074 169.245 138.725C169.031 137.043 168.165 135.512 166.834 134.463ZM164.627 141.787C163.958 141.883 163.066 140.988 162.87 139.64C162.675 138.293 163.282 137.186 163.95 137.089C164.221 137.069 164.49 137.156 164.698 137.332C165.265 137.814 165.625 138.495 165.706 139.235C165.883 140.584 165.266 141.679 164.613 141.79L164.627 141.787ZM161.853 147.605C161.111 147.263 160.413 146.832 159.776 146.32C155.582 142.35 151.643 140.798 148.07 141.71C144.496 142.622 141.786 145.871 140.012 151.365C139.696 152.119 139.289 152.833 138.802 153.49C137.485 154.924 136.701 156.766 136.581 158.709C136.46 160.652 137.01 162.577 138.139 164.163C138.864 165.437 139.913 166.497 141.179 167.236C142.445 167.974 143.884 168.366 145.35 168.37C145.913 168.355 146.473 168.277 147.018 168.137C148.641 167.771 150.06 166.793 150.98 165.406C151.578 164.437 152.529 163.739 153.632 163.457C154.736 163.175 155.905 163.333 156.895 163.896C158.367 164.672 160.081 164.85 161.681 164.394C162.227 164.255 162.757 164.055 163.259 163.799C164.543 163.091 165.618 162.058 166.375 160.803C167.133 159.547 167.545 158.115 167.572 156.649C167.799 154.713 167.353 152.758 166.309 151.112C165.265 149.466 163.687 148.229 161.84 147.609L161.853 147.605ZM163.973 156.33C163.982 157.187 163.768 158.032 163.352 158.781C162.935 159.531 162.331 160.159 161.599 160.605C161.159 160.853 160.669 160.999 160.165 161.034C159.661 161.069 159.156 160.992 158.686 160.808C156.883 159.772 154.748 159.48 152.733 159.994C150.719 160.508 148.985 161.788 147.899 163.561C147.575 163.949 147.169 164.259 146.71 164.47C146.251 164.681 145.751 164.787 145.245 164.78C144.389 164.74 143.557 164.478 142.832 164.02C142.107 163.562 141.513 162.923 141.109 162.166C139.205 159.319 140.278 157.714 141.766 155.491C141.767 155.489 141.768 155.488 141.769 155.486C142.454 154.563 143.007 153.549 143.412 152.472C144.357 149.555 146.084 145.923 148.944 145.193C151.804 144.463 155.067 146.821 157.292 148.929C158.164 149.679 159.135 150.304 160.179 150.787C160.182 150.788 160.185 150.79 160.188 150.791C162.557 152.032 164.267 152.927 163.96 156.337L163.973 156.33ZM74.0968 110.83C73.3732 111.165 72.7363 111.661 72.2352 112.281C71.7342 112.902 71.3825 113.629 71.2073 114.406C70.8368 115.996 71.0018 117.663 71.6767 119.149C72.1833 120.552 73.1651 121.734 74.4518 122.489C75.7385 123.243 77.2489 123.524 78.7208 123.281C78.9658 123.219 79.2052 123.137 79.4364 123.035C80.8503 122.243 81.8971 120.928 82.3518 119.373C82.8064 117.817 82.6327 116.146 81.8678 114.717C81.3431 113.178 80.2336 111.907 78.7794 111.18C77.3251 110.452 75.643 110.327 74.0968 110.83ZM77.9846 119.729C77.0982 120.134 75.6686 119.368 74.961 117.714C74.6099 116.955 74.5146 116.103 74.6894 115.285C74.7359 115.041 74.8357 114.81 74.9817 114.609C75.1276 114.408 75.3161 114.241 75.5337 114.121C75.5892 114.102 75.6462 114.087 75.7042 114.078C76.5671 113.857 77.8878 114.602 78.5652 116.153C79.2936 117.787 78.8459 119.358 77.995 119.727L77.9846 119.729ZM76.9451 130.698C77.1254 129.253 76.8233 127.789 76.0857 126.533C75.4612 125.215 74.3442 124.195 72.9751 123.693C71.6061 123.19 70.0944 123.246 68.7657 123.847C67.5769 124.687 66.7646 125.959 66.5031 127.391C66.2415 128.822 66.5515 130.3 67.3666 131.505C68.0742 132.78 69.1829 133.786 70.5206 134.366C71.4958 134.784 72.58 134.875 73.6113 134.626C73.9877 134.53 74.3494 134.384 74.6865 134.192C75.3056 133.822 75.8313 133.314 76.2229 132.708C76.6145 132.103 76.8616 131.415 76.9451 130.698ZM73.389 130.198C73.3971 130.376 73.3559 130.553 73.2699 130.709C73.184 130.865 73.0566 130.995 72.9019 131.083C72.7471 131.172 72.5709 131.216 72.3927 131.211C72.2145 131.206 72.0411 131.152 71.8917 131.054C71.2906 130.78 70.7952 130.317 70.4803 129.736C69.8081 128.555 69.9621 127.3 70.5475 126.965C70.6055 126.932 70.6678 126.907 70.7327 126.892C71.352 126.734 72.3579 127.248 72.9494 128.316C73.2957 128.879 73.4523 129.538 73.396 130.196L73.389 130.198ZM86.5849 105.377C85.8621 105.712 85.2258 106.208 84.7253 106.827C84.2247 107.447 83.8732 108.173 83.6979 108.95C83.3441 110.541 83.505 112.203 84.1574 113.696C84.8098 115.19 85.9199 116.438 87.3275 117.259C88.4994 117.927 89.8814 118.126 91.1939 117.814C91.4396 117.75 91.6801 117.668 91.913 117.567C93.3263 116.774 94.3724 115.458 94.8268 113.902C95.2811 112.347 95.1077 110.675 94.3435 109.245C93.8144 107.714 92.7065 106.452 91.2573 105.729C89.8082 105.005 88.1333 104.878 86.5918 105.376L86.5849 105.377ZM90.4717 114.273C90.2368 114.353 89.987 114.38 89.7406 114.351C89.4942 114.322 89.2572 114.239 89.0469 114.107C88.3396 113.666 87.7824 113.022 87.4485 112.258C87.1147 111.495 87.0199 110.648 87.1766 109.83C87.223 109.585 87.3232 109.354 87.47 109.153C87.6168 108.952 87.8064 108.786 88.0252 108.668C88.0794 108.648 88.1353 108.634 88.1922 108.625C89.0552 108.405 90.3793 109.149 91.0524 110.697C91.7782 112.335 91.3321 113.898 90.4787 114.272L90.4717 114.273ZM99.7628 110.308C99.0772 110.537 98.4538 110.921 97.941 111.431C97.4282 111.941 97.04 112.562 96.8065 113.246C96.3396 114.623 96.323 116.114 96.7593 117.502C97.1955 118.889 98.0618 120.102 99.233 120.965C99.7853 121.367 100.418 121.645 101.088 121.78C101.757 121.915 102.448 121.903 103.113 121.746L103.339 121.689C104.024 121.46 104.648 121.075 105.161 120.566C105.673 120.056 106.062 119.435 106.295 118.751C106.762 117.373 106.779 115.883 106.342 114.495C105.906 113.107 105.04 111.894 103.869 111.031C103.285 110.609 102.613 110.324 101.903 110.198C101.193 110.072 100.463 110.109 99.7698 110.306L99.7628 110.308ZM102.929 117.498C102.879 117.665 102.794 117.819 102.679 117.95C102.564 118.081 102.422 118.186 102.263 118.257C102.091 118.292 101.915 118.288 101.745 118.247C101.575 118.205 101.417 118.125 101.282 118.015C100.764 117.607 100.381 117.053 100.183 116.425C99.985 115.796 99.9809 115.123 100.171 114.492C100.222 114.325 100.307 114.171 100.422 114.04C100.537 113.909 100.678 113.804 100.837 113.733L100.879 113.722C101.044 113.698 101.213 113.708 101.375 113.752C101.536 113.795 101.687 113.871 101.818 113.975C102.342 114.369 102.726 114.92 102.913 115.549C103.129 116.179 103.137 116.861 102.936 117.496L102.929 117.498ZM100.466 124.446C99.6777 124.227 98.9184 123.915 98.2048 123.515C93.4358 120.266 89.2987 119.391 85.9177 120.84C82.5368 122.288 80.3828 125.959 79.5167 131.669C79.3289 132.465 79.0437 133.235 78.6675 133.961C77.5986 135.588 77.1212 137.533 77.3154 139.47C77.5096 141.407 78.3635 143.218 79.7341 144.6C80.6563 145.742 81.8638 146.62 83.2344 147.145C84.605 147.669 86.09 147.823 87.5389 147.589C87.6886 147.551 87.8382 147.513 87.9843 147.475C88.9886 147.246 89.9274 146.79 90.7294 146.144C91.5315 145.497 92.1758 144.676 92.6133 143.744C92.7523 143.183 93.039 142.67 93.4434 142.258C93.8479 141.846 94.3555 141.549 94.9133 141.4C95.4002 141.091 95.9613 140.92 96.5375 140.903C97.1137 140.886 97.6838 141.025 98.1877 141.305C99.3605 141.715 100.631 141.756 101.827 141.421C102.774 141.179 103.665 140.758 104.453 140.18C105.606 139.275 106.499 138.082 107.043 136.721C107.588 135.36 107.763 133.879 107.552 132.429C107.464 130.489 106.713 128.638 105.425 127.184C104.136 125.731 102.389 124.764 100.473 124.444L100.466 124.446ZM103.963 132.715C104.11 133.56 104.035 134.429 103.745 135.236C103.454 136.043 102.959 136.761 102.307 137.318C101.914 137.632 101.457 137.855 100.968 137.97C100.479 138.085 99.9699 138.09 99.4786 137.985C98.5353 137.531 97.4978 137.309 96.4516 137.335C95.4054 137.361 94.3803 137.635 93.4608 138.135C92.471 138.471 91.5748 139.037 90.8455 139.786C90.1163 140.535 89.5747 141.447 89.265 142.445C89.0083 142.876 88.6596 143.246 88.2438 143.527C87.8281 143.808 87.3554 143.994 86.8595 144.071C86.0078 144.169 85.1452 144.045 84.356 143.71C83.5668 143.374 82.8782 142.84 82.3576 142.159C80.0174 139.652 80.8191 137.895 81.9279 135.464C81.9285 135.462 81.9292 135.461 81.9298 135.46C82.4575 134.433 82.8391 133.338 83.0633 132.205C83.5238 129.175 84.6387 125.31 87.3503 124.128C90.0619 122.947 93.6488 124.744 96.1875 126.472C97.1698 127.072 98.2305 127.534 99.3394 127.843C99.3409 127.843 99.3423 127.844 99.3438 127.844C101.889 128.691 103.725 129.301 103.97 132.713L103.963 132.715ZM114.539 61.8423C115.057 61.7106 115.549 61.4924 115.994 61.1967C117.245 60.1669 118.043 58.6873 118.216 57.0757C118.389 55.4641 117.923 53.849 116.918 52.5773C116.027 51.2102 114.71 50.1748 113.171 49.631C112.425 49.3424 111.62 49.2375 110.825 49.3254C110.03 49.4133 109.268 49.6912 108.603 50.1358C107.937 50.5804 107.389 51.1785 107.004 51.8796C106.619 52.5808 106.408 53.3644 106.389 54.1641C106.301 55.794 106.753 57.4074 107.676 58.7539C108.371 59.9061 109.401 60.8189 110.629 61.3704C111.856 61.9219 113.223 62.0859 114.546 61.8405L114.539 61.8423ZM109.97 54.4138C109.975 54.1682 110.034 53.9267 110.144 53.7066C110.253 53.4865 110.409 53.2933 110.602 53.1408C110.715 53.0655 110.839 53.0098 110.971 52.976C111.326 52.9034 111.695 52.9299 112.036 53.0526C112.819 53.3472 113.485 53.8867 113.937 54.5909C114.939 56.0919 114.775 57.7127 114.001 58.2252C113.228 58.7377 111.671 58.2751 110.666 56.775C110.184 56.0839 109.942 55.2538 109.977 54.412L109.97 54.4138ZM111.562 73.9175C112.198 73.7578 112.79 73.4572 113.294 73.0379C113.841 72.564 114.271 71.9703 114.55 71.3029C114.83 70.6356 114.952 69.9128 114.906 69.1907C114.813 67.7394 114.26 66.3555 113.327 65.2395C112.395 64.1236 111.131 63.3335 109.719 62.9837C109.017 62.8122 108.285 62.8046 107.58 62.9616C106.874 63.1185 106.214 63.4358 105.651 63.8888C105.19 64.283 104.811 64.7647 104.537 65.306C104.263 65.8473 104.099 66.4376 104.055 67.0427C103.944 68.7346 104.503 70.4022 105.611 71.686C106.532 72.8154 107.802 73.6081 109.222 73.9404C109.995 74.1167 110.799 74.1083 111.569 73.9157L111.562 73.9175ZM107.627 67.3612C107.638 67.0901 107.753 66.8338 107.949 66.6454C108.045 66.5672 108.157 66.5118 108.278 66.4835C108.501 66.4361 108.733 66.4391 108.955 66.4923C109.588 66.6714 110.153 67.0374 110.576 67.5425C110.998 68.0475 111.259 68.6681 111.323 69.3234C111.342 69.4972 111.323 69.6731 111.266 69.8386C111.21 70.0041 111.118 70.1553 110.997 70.2814C110.851 70.3762 110.687 70.4387 110.515 70.4647C110.343 70.4906 110.168 70.4794 110.001 70.4318C109.357 70.2611 108.786 69.8869 108.372 69.3651C107.882 68.8134 107.619 68.0971 107.634 67.3594L107.627 67.3612ZM122.751 54.1309C123.75 54.476 124.827 54.5266 125.854 54.2766C126.376 54.1433 126.872 53.9238 127.322 53.6274C127.976 53.1701 128.515 52.5689 128.899 51.87C129.283 51.1712 129.501 50.3934 129.537 49.5969C129.603 47.9693 129.152 46.3625 128.246 45.0083C127.341 43.654 126.029 42.6222 124.5 42.0618C123.754 41.7722 122.949 41.6665 122.154 41.7537C121.359 41.8409 120.596 42.1184 119.931 42.5628C119.265 43.0072 118.717 43.6053 118.331 44.3065C117.946 45.0078 117.735 45.7915 117.717 46.5914C117.649 48.2195 118.099 49.8273 119.004 51.1825C119.909 52.5378 121.221 53.5703 122.751 54.1309ZM121.299 46.8445C121.304 46.5989 121.363 46.3574 121.472 46.1374C121.581 45.9173 121.738 45.724 121.93 45.5715C122.043 45.4963 122.168 45.4406 122.3 45.4068C122.655 45.3341 123.023 45.3606 123.364 45.4834C124.138 45.7931 124.8 46.3297 125.262 47.0227C125.725 47.7156 125.967 48.5324 125.957 49.3655C125.971 49.6156 125.92 49.8652 125.808 50.0894C125.696 50.3135 125.528 50.5046 125.319 50.6436C125.111 50.7826 124.87 50.8647 124.62 50.8817C124.37 50.8987 124.12 50.8501 123.895 50.7406C123.113 50.448 122.447 49.909 121.998 49.2049C121.515 48.5144 121.272 47.6846 121.306 46.8427L121.299 46.8445ZM132.09 52.718C132.624 53.8882 133.531 54.8481 134.669 55.4469C135.808 56.0458 137.112 56.2499 138.379 56.027C138.701 55.9458 139.011 55.8267 139.304 55.6723C139.938 55.3249 140.484 54.8365 140.899 54.2447C141.314 53.6529 141.587 52.9736 141.698 52.2592C141.933 50.8208 141.687 49.3451 140.997 48.0611C140.771 47.3527 140.392 46.7024 139.888 46.1558C139.383 45.6092 138.765 45.1796 138.078 44.897C137.39 44.6144 136.648 44.4857 135.905 44.5199C135.162 44.5541 134.436 44.7504 133.777 45.095C133.118 45.4397 132.542 45.9243 132.09 46.5149C131.638 47.1056 131.321 47.7879 131.161 48.5141C131 49.2404 131.001 49.9929 131.162 50.7189C131.323 51.445 131.637 52.1279 132.09 52.718ZM135.444 48.289C136.054 47.9628 137.183 48.5234 137.809 49.7274C138.128 50.306 138.253 50.9721 138.164 51.627C138.147 51.8016 138.091 51.9703 138.002 52.1212C137.912 52.2721 137.791 52.4016 137.646 52.5006C137.084 52.8404 135.911 52.2688 135.278 51.0665C134.645 49.8642 134.843 48.5907 135.441 48.2786L135.444 48.289ZM145.346 65.534C144.923 63.6364 143.861 61.9416 142.338 60.7329C140.816 59.5242 138.924 58.8749 136.98 58.8934C136.165 58.8188 135.362 58.644 134.59 58.3731C129.314 56.0136 125.083 55.8743 122.021 57.9198C118.96 59.9687 117.486 63.9363 117.636 69.7058C117.582 70.5179 117.425 71.3199 117.17 72.0929C116.622 73.6148 116.486 75.2548 116.777 76.8461C117.068 78.4374 117.775 79.9233 118.827 81.1527C119.878 82.3821 121.237 83.3112 122.764 83.8454C124.291 84.3797 125.932 84.5 127.52 84.1943C128.723 83.8862 129.825 83.2717 130.719 82.4108C131.613 81.5498 132.269 80.4718 132.622 79.2819C132.661 78.7079 132.853 78.1549 133.179 77.6806C133.504 77.2063 133.951 76.8282 134.473 76.5858C134.898 76.1952 135.421 75.9266 135.987 75.8084C136.552 75.6902 137.139 75.7267 137.685 75.914C138.49 76.0575 139.316 76.0213 140.104 75.8079C141.457 75.4495 142.682 74.7221 143.645 73.707C144.623 72.6129 145.295 71.2802 145.593 69.8434C145.891 68.4066 145.805 66.9165 145.344 65.5236L145.346 65.534ZM141.042 71.2359C140.71 71.6135 140.298 71.9128 139.836 72.1121C139.375 72.3114 138.874 72.4057 138.372 72.3884C137.363 72.1108 136.302 72.0757 135.277 72.2859C134.252 72.496 133.291 72.9456 132.472 73.5978C131.557 74.1031 130.775 74.8179 130.19 75.6838C129.604 76.5496 129.232 77.5418 129.104 78.5791C128.925 79.0462 128.646 79.4685 128.287 79.8164C127.927 80.1643 127.496 80.4292 127.023 80.5926C126.203 80.846 125.33 80.8789 124.493 80.688C123.655 80.497 122.883 80.089 122.254 79.5049C119.509 77.4551 119.99 75.5839 120.655 72.9987C120.655 72.9955 120.656 72.9924 120.657 72.9892C120.994 71.8889 121.176 70.7472 121.199 69.5967C121.121 66.5295 121.542 62.5305 123.995 60.8887C126.436 59.2427 130.302 60.3906 133.107 61.6387C134.179 62.0549 135.304 62.3215 136.449 62.4313C136.451 62.4317 136.454 62.4321 136.457 62.4325C139.103 62.8115 141.015 63.0854 141.861 66.4014C142.157 67.2089 142.236 68.0795 142.093 68.9272C141.949 69.7749 141.587 70.5706 141.042 71.2359ZM49.3299 65.0461C50.1124 64.8508 50.8326 64.4604 51.4234 63.9113C51.9945 63.3546 52.43 62.6742 52.6963 61.9224C52.9626 61.1707 53.0525 60.3678 52.9592 59.5758C52.7779 57.9595 52.0716 56.4473 50.9485 55.2709C49.94 54.0025 48.4745 53.18 46.8664 52.98C45.2583 52.7801 43.6359 53.2185 42.3475 54.2014C41.2779 55.4191 40.7288 57.0079 40.8182 58.6263C40.9077 60.2446 41.6286 61.7632 42.8259 62.8556C43.6199 63.7628 44.64 64.4434 45.7825 64.8281C46.9249 65.2129 48.149 65.2881 49.3299 65.0461ZM44.7966 56.8117C44.9535 56.6727 45.1425 56.5749 45.3465 56.5268C45.9002 56.4552 46.463 56.5267 46.9812 56.7344C47.4994 56.9421 47.9558 57.2791 48.3067 57.7132C48.8898 58.3125 49.2626 59.0848 49.3689 59.9141C49.406 60.1597 49.3883 60.4105 49.317 60.6485C49.2458 60.8865 49.1228 61.1057 48.9568 61.2906C48.2814 61.9114 46.663 61.713 45.4336 60.3961C44.2042 59.0792 44.1178 57.4483 44.7966 56.8117ZM45.5136 66.6912C44.7935 66.6342 44.0699 66.7442 43.3991 67.0125C42.7284 67.2808 42.1286 67.7002 41.6463 68.238C40.7994 69.4256 40.4531 70.8984 40.6822 72.3389C40.9112 73.7794 41.6973 75.0721 42.8708 75.9384C43.9638 76.9019 45.3432 77.4795 46.7966 77.5825C47.3258 77.6118 47.8564 77.5613 48.3706 77.4327C49.2619 77.2143 50.064 76.726 50.6674 76.0347C51.5134 74.8469 51.8591 73.3743 51.6301 71.9341C51.4011 70.4939 50.6157 69.2012 49.4429 68.3344C48.351 67.367 46.9691 66.7891 45.5136 66.6912ZM47.9514 73.6852C47.824 73.8051 47.6715 73.8951 47.505 73.9485C47.3384 74.0019 47.162 74.0174 46.9887 73.994C46.3303 73.9349 45.7091 73.6628 45.2194 73.2188C44.1925 72.3321 43.9355 71.0931 44.3615 70.584C44.4845 70.45 44.6458 70.3571 44.8235 70.3178C44.9873 70.2789 45.1561 70.2645 45.3241 70.2753C45.9809 70.3373 46.6001 70.6094 47.09 71.0513C48.1151 71.9311 48.3913 73.1726 47.9374 73.6888L47.9514 73.6852ZM57.7201 55.9254C58.2389 55.9451 58.7578 55.8901 59.2609 55.7619C60.0532 55.5642 60.7824 55.1689 61.3804 54.613C61.9515 54.0577 62.3872 53.3786 62.6539 52.628C62.9205 51.8774 63.0109 51.0755 62.918 50.2844C62.7235 48.6662 62.0195 47.1518 60.9078 45.9599C59.796 44.768 58.3342 43.9604 56.7334 43.6539C55.9503 43.4904 55.1394 43.5175 54.369 43.733C53.5985 43.9484 52.8912 44.3459 52.3065 44.8919C51.7218 45.4379 51.2769 46.1164 51.0093 46.8703C50.7416 47.6242 50.6591 48.4313 50.7687 49.2238C50.9476 50.8407 51.6542 52.3536 52.7794 53.5286C54.0452 54.9486 55.8213 55.8102 57.7201 55.9254ZM54.7545 47.5169C54.9119 47.3739 55.1028 47.2729 55.3096 47.2232C55.5873 47.1584 55.8753 47.1504 56.1561 47.1999C56.9704 47.3788 57.7112 47.8007 58.2803 48.4099C58.8495 49.0191 59.2202 49.7868 59.3434 50.6114C59.3806 50.8574 59.3627 51.1086 59.2908 51.3469C59.2189 51.5851 59.0949 51.8043 58.9278 51.9887C58.7788 52.1156 58.606 52.2117 58.4196 52.2714C58.2331 52.3311 58.0367 52.3532 57.8417 52.3364C56.9036 52.2514 56.0337 51.8103 55.4107 51.1038C54.8279 50.5044 54.4552 49.7321 54.3486 48.9029C54.309 48.6562 54.3248 48.4038 54.3951 48.1641C54.4653 47.9243 54.5881 47.7032 54.7545 47.5169ZM72.0016 55.4226C72.5536 55.2834 73.0725 55.0364 73.5283 54.6956C74.6075 53.7148 75.2581 52.3492 75.3398 50.8933C75.4216 49.4373 74.9279 48.0075 73.9653 46.9121C73.1842 45.6787 71.9492 44.802 70.5271 44.4716C69.105 44.1411 67.61 44.3834 66.3651 45.146C65.2859 46.1268 64.6353 47.4923 64.5536 48.9483C64.4719 50.4043 64.9655 51.8341 65.9281 52.9295C66.5879 53.8912 67.514 54.6394 68.5929 55.0822C69.6718 55.5251 70.8565 55.6434 72.0016 55.4226ZM68.5246 48.0304C69.0617 47.6227 70.2794 47.979 71.0939 49.0646C71.9084 50.1501 71.913 51.4165 71.3715 51.8216C70.83 52.2267 69.6167 51.873 68.8022 50.7874C67.9877 49.7019 67.9866 48.4346 68.5246 48.0304ZM69.2941 58.1299C63.7074 56.6578 59.5067 57.1891 56.8139 59.7073C54.1211 62.2256 53.3012 66.3747 54.3824 72.0472C54.4711 72.8607 54.458 73.6821 54.3431 74.4923C53.876 76.3819 54.0728 78.3747 54.9004 80.1365C55.7281 81.8983 57.1362 83.322 58.8888 84.1689C60.8466 85.3071 63.1633 85.6601 65.3712 85.1567C66.0252 84.9901 66.6534 84.735 67.2383 84.3984C68.2072 83.8621 69.0323 83.1 69.6438 82.1767C70.2553 81.2534 70.635 80.1963 70.7508 79.095C70.6926 78.5203 70.7907 77.9406 71.0348 77.417C71.2789 76.8935 71.6598 76.4456 72.1374 76.1207C72.4941 75.6667 72.9669 75.3176 73.5057 75.1103C74.0445 74.9029 74.6293 74.845 75.1983 74.9427C76.306 74.9024 77.3876 74.5953 78.3511 74.0473C79.3146 73.4994 80.1316 72.7268 80.7325 71.7955C81.5186 70.5588 81.9646 69.1367 82.0255 67.6727C82.0865 66.2086 81.7602 64.7544 81.0796 63.4567C80.3534 61.65 79.0285 60.1475 77.3268 59.2008C75.6251 58.2541 73.6499 57.9207 71.7318 58.2563C70.9171 58.3137 70.0985 58.2713 69.2941 58.1299ZM77.7884 64.8936C78.2071 65.6414 78.4244 66.4851 78.419 67.3421C78.4136 68.1992 78.1858 69.0401 77.7577 69.7826C77.4925 70.2096 77.1353 70.5721 76.7122 70.8436C76.2891 71.1151 75.8107 71.2888 75.312 71.352C74.272 71.2403 73.2203 71.3762 72.2429 71.7488C71.2654 72.1213 70.3901 72.7199 69.6883 73.4955C68.8653 74.1416 68.2072 74.9736 67.768 75.9232C67.3288 76.8729 67.121 77.9131 67.1617 78.9586C67.0618 79.451 66.855 79.9154 66.5558 80.3191C66.2567 80.7227 65.8725 81.0557 65.4304 81.2945C64.6573 81.6706 63.7999 81.8401 62.9418 81.7863C62.0837 81.7326 61.2542 81.4575 60.534 80.9878C57.4952 79.4064 57.6668 77.4798 57.9061 74.8169C58.063 73.6764 58.0596 72.5196 57.8961 71.38C57.3228 68.365 57.0913 64.3509 59.2526 62.3352C60.6125 61.5193 62.1428 61.029 63.7236 60.9025C65.3045 60.7761 66.8932 61.0169 68.3655 61.6063C69.4912 61.8417 70.6439 61.9216 71.7914 61.8436C71.7995 61.8434 71.8075 61.8433 71.8156 61.8431C74.4949 61.7899 76.4173 61.7517 77.7884 64.8936Z" fill="#33000F"/>
<path d="M77.7884 64.8936C78.2071 65.6414 78.4244 66.4851 78.419 67.3421C78.4136 68.1992 78.1858 69.0401 77.7577 69.7826C77.4925 70.2096 77.1353 70.5721 76.7122 70.8436C76.2891 71.1151 75.8107 71.2888 75.312 71.352C74.272 71.2403 73.2203 71.3762 72.2429 71.7488C71.2654 72.1213 70.3901 72.7199 69.6883 73.4955C68.8653 74.1416 68.2072 74.9736 67.768 75.9232C67.3288 76.8729 67.121 77.9131 67.1617 78.9586C67.0618 79.451 66.855 79.9154 66.5558 80.3191C66.2567 80.7227 65.8725 81.0557 65.4304 81.2945C64.6573 81.6706 63.7999 81.8401 62.9418 81.7863C62.0837 81.7326 61.2542 81.4575 60.534 80.9878C57.4952 79.4064 57.6668 77.4798 57.9061 74.8169C58.063 73.6764 58.0596 72.5196 57.8961 71.38C57.3228 68.365 57.0913 64.3509 59.2526 62.3352C60.6125 61.5193 62.1428 61.029 63.7236 60.9025C65.3045 60.7761 66.8932 61.0169 68.3655 61.6063C69.4912 61.8417 70.6439 61.9216 71.7914 61.8436L71.8156 61.8431C74.4949 61.7899 76.4173 61.7517 77.7884 64.8936Z" fill="#33000F"/>
<path d="M141.042 71.2359C140.71 71.6135 140.298 71.9128 139.836 72.1121C139.375 72.3114 138.874 72.4057 138.372 72.3884C137.363 72.1108 136.302 72.0757 135.277 72.2859C134.252 72.496 133.291 72.9456 132.472 73.5978C131.557 74.1031 130.775 74.8179 130.19 75.6838C129.604 76.5496 129.232 77.5418 129.104 78.5791C128.925 79.0462 128.646 79.4685 128.287 79.8164C127.927 80.1643 127.496 80.4292 127.023 80.5926C126.203 80.846 125.33 80.8789 124.493 80.688C123.655 80.497 122.883 80.089 122.254 79.5049C119.509 77.4551 119.99 75.5839 120.655 72.9987L120.657 72.9892C120.994 71.8889 121.176 70.7472 121.199 69.5967C121.121 66.5295 121.542 62.5305 123.995 60.8887C126.436 59.2427 130.302 60.3906 133.107 61.6387C134.179 62.0549 135.304 62.3215 136.449 62.4313L136.457 62.4325C139.103 62.8115 141.015 63.0854 141.861 66.4014C142.157 67.2089 142.236 68.0795 142.093 68.9272C141.949 69.7749 141.587 70.5706 141.042 71.2359Z" fill="#33000F"/>
<path d="M109.97 54.4138C109.975 54.1682 110.034 53.9267 110.144 53.7066C110.253 53.4865 110.409 53.2933 110.602 53.1408C110.715 53.0655 110.839 53.0098 110.971 52.976C111.326 52.9034 111.695 52.9299 112.036 53.0526C112.819 53.3472 113.485 53.8867 113.937 54.5909C114.939 56.0919 114.775 57.7127 114.001 58.2252C113.228 58.7377 111.671 58.2751 110.666 56.775C110.184 56.0839 109.942 55.2538 109.977 54.412L109.97 54.4138Z" fill="#33000F"/>
<path d="M107.627 67.3612C107.638 67.0901 107.753 66.8338 107.949 66.6454C108.045 66.5672 108.157 66.5118 108.278 66.4835C108.501 66.4361 108.733 66.4391 108.955 66.4923C109.588 66.6714 110.153 67.0374 110.576 67.5425C110.998 68.0475 111.259 68.6681 111.323 69.3234C111.342 69.4972 111.323 69.6731 111.266 69.8386C111.21 70.0041 111.118 70.1553 110.997 70.2814C110.851 70.3762 110.687 70.4387 110.515 70.4647C110.343 70.4906 110.168 70.4794 110.001 70.4318C109.357 70.2611 108.786 69.8869 108.372 69.3651C107.882 68.8134 107.619 68.0971 107.634 67.3594L107.627 67.3612Z" fill="#33000F"/>
<path d="M121.299 46.8445C121.304 46.5989 121.363 46.3574 121.472 46.1374C121.581 45.9173 121.738 45.724 121.93 45.5715C122.043 45.4963 122.168 45.4406 122.3 45.4068C122.655 45.3341 123.023 45.3606 123.364 45.4834C124.138 45.7931 124.8 46.3297 125.262 47.0227C125.725 47.7156 125.967 48.5324 125.957 49.3655C125.971 49.6156 125.92 49.8652 125.808 50.0894C125.696 50.3135 125.528 50.5046 125.319 50.6436C125.111 50.7826 124.87 50.8647 124.62 50.8817C124.37 50.8987 124.12 50.8501 123.895 50.7406C123.113 50.448 122.447 49.909 121.998 49.2049C121.515 48.5144 121.272 47.6846 121.306 46.8427L121.299 46.8445Z" fill="#33000F"/>
<path d="M135.444 48.289C136.054 47.9628 137.183 48.5234 137.809 49.7274C138.128 50.306 138.253 50.9721 138.164 51.627C138.147 51.8016 138.091 51.9703 138.002 52.1212C137.912 52.2721 137.791 52.4016 137.646 52.5006C137.084 52.8404 135.911 52.2688 135.278 51.0665C134.645 49.8642 134.843 48.5907 135.441 48.2786L135.444 48.289Z" fill="#33000F"/>
<path d="M54.7545 47.5169C54.9119 47.3739 55.1028 47.2729 55.3096 47.2232C55.5873 47.1584 55.8753 47.1504 56.1561 47.1999C56.9704 47.3788 57.7112 47.8007 58.2803 48.4099C58.8495 49.0191 59.2202 49.7868 59.3434 50.6114C59.3806 50.8574 59.3627 51.1086 59.2908 51.3469C59.2189 51.5851 59.0949 51.8043 58.9278 51.9887C58.7788 52.1156 58.606 52.2117 58.4196 52.2714C58.2331 52.3311 58.0367 52.3532 57.8417 52.3364C56.9036 52.2514 56.0337 51.8103 55.4107 51.1038C54.8279 50.5044 54.4552 49.7321 54.3486 48.9029C54.309 48.6562 54.3248 48.4038 54.3951 48.1641C54.4653 47.9243 54.5881 47.7032 54.7545 47.5169Z" fill="#33000F"/>
<path d="M68.5246 48.0304C69.0617 47.6227 70.2794 47.979 71.0939 49.0646C71.9084 50.1501 71.913 51.4165 71.3715 51.8216C70.83 52.2267 69.6167 51.873 68.8022 50.7874C67.9877 49.7019 67.9866 48.4346 68.5246 48.0304Z" fill="#33000F"/>
<path d="M44.7966 56.8117C44.9535 56.6727 45.1425 56.5749 45.3465 56.5268C45.9002 56.4552 46.463 56.5267 46.9812 56.7344C47.4994 56.9421 47.9558 57.2791 48.3067 57.7132C48.8898 58.3125 49.2626 59.0848 49.3689 59.9141C49.406 60.1597 49.3883 60.4105 49.317 60.6485C49.2458 60.8865 49.1228 61.1057 48.9568 61.2906C48.2814 61.9114 46.663 61.713 45.4336 60.3961C44.2042 59.0792 44.1178 57.4483 44.7966 56.8117Z" fill="#33000F"/>
<path d="M47.9514 73.6852C47.824 73.8051 47.6715 73.8951 47.505 73.9485C47.3384 74.0019 47.162 74.0174 46.9887 73.994C46.3303 73.9349 45.7091 73.6628 45.2194 73.2188C44.1925 72.3321 43.9355 71.0931 44.3615 70.584C44.4845 70.45 44.6458 70.3571 44.8235 70.3178C44.9873 70.2789 45.1561 70.2645 45.3241 70.2753C45.9809 70.3373 46.6001 70.6094 47.09 71.0513C48.1151 71.9311 48.3913 73.1726 47.9374 73.6888L47.9514 73.6852Z" fill="#33000F"/>
<path d="M90.4717 114.273C90.2368 114.353 89.987 114.38 89.7406 114.351C89.4942 114.322 89.2572 114.239 89.0469 114.107C88.3396 113.666 87.7824 113.022 87.4485 112.258C87.1147 111.495 87.0199 110.648 87.1766 109.83C87.223 109.585 87.3232 109.354 87.47 109.153C87.6168 108.952 87.8064 108.786 88.0252 108.668C88.0794 108.648 88.1353 108.634 88.1922 108.625C89.0552 108.405 90.3793 109.149 91.0524 110.697C91.7782 112.335 91.3321 113.898 90.4787 114.272L90.4717 114.273Z" fill="#33000F"/>
<path d="M102.929 117.498C102.879 117.665 102.794 117.819 102.679 117.95C102.564 118.081 102.422 118.186 102.263 118.257C102.091 118.292 101.915 118.288 101.745 118.247C101.575 118.205 101.417 118.125 101.282 118.015C100.764 117.607 100.381 117.053 100.183 116.425C99.985 115.796 99.9809 115.123 100.171 114.492C100.222 114.325 100.307 114.171 100.422 114.04C100.537 113.909 100.678 113.804 100.837 113.733L100.879 113.722C101.044 113.698 101.213 113.708 101.375 113.752C101.536 113.795 101.687 113.871 101.818 113.975C102.342 114.369 102.726 114.92 102.913 115.549C103.129 116.179 103.137 116.861 102.936 117.496L102.929 117.498Z" fill="#33000F"/>
<path d="M103.963 132.715C104.11 133.56 104.035 134.429 103.745 135.236C103.454 136.043 102.959 136.761 102.307 137.318C101.914 137.632 101.457 137.855 100.968 137.97C100.479 138.085 99.9699 138.09 99.4786 137.985C98.5353 137.531 97.4978 137.309 96.4516 137.335C95.4054 137.361 94.3803 137.635 93.4608 138.135C92.471 138.471 91.5748 139.037 90.8455 139.786C90.1163 140.535 89.5747 141.447 89.265 142.445C89.0083 142.876 88.6596 143.246 88.2438 143.527C87.8281 143.808 87.3554 143.994 86.8595 144.071C86.0078 144.169 85.1452 144.045 84.356 143.71C83.5668 143.374 82.8782 142.84 82.3576 142.159C80.0174 139.652 80.8191 137.895 81.9279 135.464L81.9298 135.46C82.4575 134.433 82.8391 133.338 83.0633 132.205C83.5238 129.175 84.6387 125.31 87.3503 124.128C90.0619 122.947 93.6488 124.744 96.1875 126.472C97.1698 127.072 98.2305 127.534 99.3394 127.843L99.3438 127.844C101.889 128.691 103.725 129.301 103.97 132.713L103.963 132.715Z" fill="#33000F"/>
<path d="M77.9846 119.729C77.0982 120.134 75.6686 119.368 74.961 117.714C74.6099 116.955 74.5146 116.103 74.6894 115.285C74.7359 115.041 74.8357 114.81 74.9817 114.609C75.1276 114.408 75.3161 114.241 75.5337 114.121C75.5892 114.102 75.6462 114.087 75.7042 114.078C76.5671 113.857 77.8878 114.602 78.5652 116.153C79.2936 117.787 78.8459 119.358 77.995 119.727L77.9846 119.729Z" fill="#33000F"/>
<path d="M73.389 130.198C73.3971 130.376 73.3559 130.553 73.2699 130.709C73.184 130.865 73.0566 130.995 72.9019 131.083C72.7471 131.172 72.5709 131.216 72.3927 131.211C72.2145 131.206 72.0411 131.152 71.8917 131.054C71.2906 130.78 70.7952 130.317 70.4803 129.736C69.8081 128.555 69.9621 127.3 70.5475 126.965C70.6055 126.932 70.6678 126.907 70.7327 126.892C71.352 126.734 72.3579 127.248 72.9494 128.316C73.2957 128.879 73.4523 129.538 73.396 130.196L73.389 130.198Z" fill="#33000F"/>
<path d="M131.396 147.998C131.148 147.384 131.106 146.708 131.274 146.068C131.314 145.898 131.39 145.74 131.498 145.603C131.606 145.466 131.742 145.354 131.898 145.275L131.974 145.256C132.296 145.207 132.625 145.284 132.892 145.47C133.44 145.839 133.853 146.376 134.069 147C134.315 147.614 134.358 148.29 134.191 148.93C134.151 149.099 134.074 149.257 133.966 149.394C133.858 149.53 133.721 149.641 133.566 149.719C132.961 149.933 131.871 149.266 131.396 147.998Z" fill="#33000F"/>
<path d="M141.567 135.88C142.011 137.62 141.318 139.101 140.417 139.331C139.516 139.561 138.203 138.599 137.757 136.852C137.311 135.106 138.006 133.631 138.903 133.402C139.801 133.173 141.121 134.133 141.567 135.88Z" fill="#33000F"/>
<path d="M163.973 156.33C163.982 157.187 163.768 158.032 163.352 158.781C162.935 159.531 162.331 160.159 161.599 160.605C161.159 160.853 160.669 160.999 160.165 161.034C159.661 161.069 159.156 160.992 158.686 160.808C156.883 159.772 154.748 159.48 152.733 159.994C150.719 160.508 148.985 161.788 147.899 163.561C147.575 163.949 147.169 164.259 146.71 164.47C146.251 164.681 145.751 164.787 145.245 164.78C144.389 164.74 143.557 164.478 142.832 164.02C142.107 163.562 141.513 162.923 141.109 162.166C139.205 159.319 140.278 157.714 141.766 155.491L141.769 155.486C142.454 154.563 143.007 153.549 143.412 152.472C144.357 149.555 146.084 145.923 148.944 145.193C151.804 144.463 155.067 146.821 157.292 148.929C158.164 149.679 159.135 150.304 160.179 150.787L160.188 150.791C162.557 152.032 164.267 152.927 163.96 156.337L163.973 156.33Z" fill="#33000F"/>
<path d="M154.768 132.51C155.212 134.25 154.523 135.73 153.622 135.96C152.72 136.19 151.407 135.228 150.961 133.482C150.516 131.735 151.207 130.261 152.108 130.031C153.009 129.801 154.322 130.763 154.768 132.51Z" fill="#33000F"/>
<path d="M164.627 141.787C163.958 141.883 163.066 140.988 162.87 139.64C162.675 138.293 163.282 137.186 163.95 137.089C164.221 137.069 164.49 137.156 164.698 137.332C165.265 137.814 165.625 138.495 165.706 139.235C165.883 140.584 165.266 141.679 164.613 141.79L164.627 141.787Z" fill="#33000F"/>
</svg>
