<svg width="401" height="401" viewBox="0 0 401 401" fill="none" xmlns="http://www.w3.org/2000/svg">
<path d="M307.297 102.044C304.61 96.8375 301.793 91.7087 298.589 86.8221C261.608 30.4271 162.565 -0.273496 113.489 58.0175C101.791 71.9105 97.7148 88.6988 89.8424 104.632C71.9361 140.87 38.4807 162.536 17.5036 196.091C1.24301 222.103 3.41081 255.441 12.4814 283.561C22.3388 314.117 39.6861 335.457 67.4337 351.679C98.5408 369.866 131.812 364.816 165.436 358.488C180.557 355.641 196.148 352.738 211.61 353.824C230.968 355.184 250.08 360.663 269.286 363.326C289.26 366.095 309.983 366.751 329.224 360.715C390.842 341.387 405.439 250.811 380.101 198.926C371.131 180.56 355.93 166.391 341.815 152.015C326.578 136.496 317.238 121.309 307.297 102.044Z" fill="#DA99FF"/>
<path d="M9.27734 359.427H389.576" stroke="#263238" stroke-miterlimit="10" stroke-linecap="round" stroke-linejoin="round"/>
<path d="M211.757 307.333C211.757 307.333 220.483 316.961 221.385 336.819C222.288 356.677 206.04 368.11 201.527 369.314C197.015 370.518 191.599 370.818 191.599 370.818V309.44L211.757 307.333Z" fill="#19FF80" stroke="#263238" stroke-miterlimit="10" stroke-linecap="round" stroke-linejoin="round"/>
<path d="M105.547 307.333C105.547 307.333 96.8212 316.961 95.919 336.819C95.0167 356.677 111.264 368.11 115.777 369.314C120.29 370.518 125.706 370.818 125.706 370.818V309.44L105.547 307.333Z" fill="#19FF80" stroke="#263238" stroke-miterlimit="10" stroke-linecap="round" stroke-linejoin="round"/>
<path d="M237.705 172.989C244.775 165.395 249.488 146.54 244.775 139.469C240.062 132.399 214.66 142.35 205.495 152.039C196.329 161.728 192.664 167.751 192.664 167.751C182.31 166.241 163.971 166.508 157.825 166.649C151.615 166.508 133.099 166.242 122.745 167.751C122.745 167.751 119.079 161.728 109.914 152.039C100.749 142.35 75.3469 132.399 70.6336 139.469C65.9202 146.54 70.6336 165.394 77.704 172.989C84.7745 180.584 98.6539 197.343 100.486 199.176C102.32 201.009 99.1768 222.482 99.7013 249.716C100.225 276.951 100.749 299.472 104.153 312.041C107.558 324.611 113.318 341.109 113.318 345.822C113.318 350.536 112.009 354.988 109.39 359.44C106.772 363.891 100.749 365.724 99.9627 370.962C99.1768 376.199 101.534 379.08 108.604 380.913C115.675 382.746 119.079 382.746 124.055 379.603C129.03 376.461 132.696 370.962 132.696 370.962L159.407 371.486L186.118 370.962C186.118 370.962 189.784 376.461 194.759 379.603C199.735 382.746 203.139 382.746 210.21 380.913C217.28 379.08 219.637 376.2 218.851 370.962C218.066 365.725 212.042 363.891 209.424 359.44C206.805 354.988 205.496 350.536 205.496 345.822C205.496 341.109 211.257 324.611 214.661 312.041C218.065 299.472 215.184 276.951 215.708 249.716C216.232 222.482 213.09 201.008 214.922 199.176C216.755 197.343 230.634 180.583 237.705 172.989Z" fill="#19FF80" stroke="#263238" stroke-miterlimit="10" stroke-linecap="round" stroke-linejoin="round"/>
<path d="M188.89 303.781C178.115 306.337 178.697 303.317 177.824 291.471C176.951 279.624 189.181 273.817 198.791 268.242C208.401 262.668 214.808 246.175 212.478 243.388C210.148 240.602 187.434 242.459 185.686 238.278C183.939 234.097 183.231 220.955 183.231 220.955L158.603 214.004L132.952 220.955C132.952 220.955 133.267 234.097 131.521 238.278C129.773 242.459 107.059 240.601 104.729 243.388C102.399 246.176 108.806 262.668 118.416 268.242C128.026 273.817 140.257 279.624 139.383 291.471C138.51 303.317 139.092 306.337 128.317 303.781C117.543 301.226 108.806 295.419 108.806 304.246C108.806 313.073 110.845 325.383 117.251 329.797C123.658 334.21 129.191 331.888 132.686 340.017C136.18 348.147 135.736 362.559 131.736 369.696C131.558 370.012 131.448 370.337 131.365 370.666C131.813 370.068 132.062 369.696 132.062 369.696L158.773 370.22L185.472 369.696C181.472 362.558 181.027 348.147 184.522 340.017C188.016 331.888 193.549 334.21 199.956 329.797C206.362 325.383 208.401 313.073 208.401 304.246C208.401 295.419 199.665 301.226 188.89 303.781Z" fill="white"/>
<path opacity="0.33" d="M195.501 168.366C195.501 168.366 197.99 177.258 201.725 183.482C205.46 189.707 209.017 194.508 214.53 192.374C220.043 190.24 237.116 171.922 240.317 163.742C243.518 155.562 245.474 142.757 240.85 139.556C236.227 136.355 209.372 143.646 195.501 168.366Z" fill="black"/>
<path opacity="0.33" d="M119.351 168.366C119.351 168.366 116.861 177.258 113.127 183.482C109.392 189.707 105.835 194.508 100.322 192.374C94.8088 190.24 77.7359 171.922 74.5351 163.742C71.3343 155.562 69.3774 142.757 74.0018 139.556C78.6253 136.355 105.479 143.646 119.351 168.366Z" fill="black"/>
<path d="M132.695 371.02C132.446 369.438 134.907 367.75 134.146 365.946C128.428 352.396 117.762 352.751 111.857 354.191C111.233 355.951 110.415 357.696 109.389 359.44C106.771 363.891 100.748 365.724 99.9619 370.962C99.1759 376.199 101.533 379.08 108.603 380.913C115.674 382.747 119.078 382.747 124.054 379.603C129.03 376.461 132.695 370.962 132.695 370.962V371.02Z" fill="white" stroke="#263238" stroke-miterlimit="10" stroke-linecap="round" stroke-linejoin="round"/>
<path d="M103.851 379.33C103.851 379.33 102.053 374.508 104.141 371.377C106.229 368.246 112.491 366.158 112.491 366.158" stroke="#263238" stroke-miterlimit="10" stroke-linecap="round" stroke-linejoin="round"/>
<path d="M108.604 380.913C108.604 380.913 109.923 375.838 111.289 374.168C112.656 372.499 120.095 368.4 120.095 368.4" stroke="#263238" stroke-miterlimit="10" stroke-linecap="round" stroke-linejoin="round"/>
<path d="M186.117 371.02C186.366 369.438 183.984 367.75 184.745 365.946C190.464 352.396 201.129 352.751 207.035 354.191C207.659 355.951 208.477 357.696 209.502 359.44C212.121 363.891 218.144 365.724 218.93 370.962C219.716 376.199 217.359 379.08 210.288 380.913C203.218 382.747 199.813 382.747 194.838 379.603C189.862 376.461 186.196 370.962 186.196 370.962L186.117 371.02Z" fill="white" stroke="#263238" stroke-miterlimit="10" stroke-linecap="round" stroke-linejoin="round"/>
<path d="M206.32 381.758C206.32 381.758 206.776 377.052 206.168 375.534C205.561 374.016 200.248 369.31 200.248 369.31" stroke="#263238" stroke-miterlimit="10" stroke-linecap="round" stroke-linejoin="round"/>
<path d="M214.214 379.33C214.214 379.33 214.214 376.294 213.455 372.65C212.696 369.007 208.445 365.819 208.445 365.819" stroke="#263238" stroke-miterlimit="10" stroke-linecap="round" stroke-linejoin="round"/>
<path d="M159.685 248.669H158.291C154.711 248.669 151.808 245.766 151.808 242.186V223.268H166.168V242.186C166.167 245.766 163.265 248.669 159.685 248.669Z" fill="#19FF80" stroke="#263238" stroke-miterlimit="10" stroke-linecap="round" stroke-linejoin="round"/>
<path d="M158.726 227.196V238.537" stroke="#263238" stroke-miterlimit="10" stroke-linecap="round" stroke-linejoin="round"/>
<path d="M165.534 202.318C163.44 196.819 166.32 186.606 164.748 181.63C163.177 176.655 160.035 177.702 160.035 177.702L158.725 177.964L157.416 177.702C157.416 177.702 154.274 176.655 152.702 181.63C151.131 186.606 154.012 196.819 151.916 202.318C149.822 207.817 133.586 217.506 133.586 222.22C133.586 226.933 142.227 234.266 145.894 235.837C149.56 237.408 158.725 227.195 158.725 227.195C158.725 227.195 167.891 237.408 171.557 235.837C175.223 234.266 183.864 226.933 183.864 222.22C183.865 217.507 167.629 207.817 165.534 202.318Z" fill="white" stroke="#263238" stroke-miterlimit="10" stroke-linecap="round" stroke-linejoin="round"/>
<path d="M168.677 215.935C168.677 215.935 165.018 211.87 159.056 211.77C152.498 211.661 147.465 214.364 147.989 216.721C148.513 219.078 155.322 224.054 157.94 224.839C160.559 225.625 168.153 219.602 168.677 215.935Z" fill="#263238"/>
<path d="M171.772 202.215C173.346 202.215 174.623 200.407 174.623 198.176C174.623 195.945 173.346 194.136 171.772 194.136C170.197 194.136 168.92 195.945 168.92 198.176C168.92 200.407 170.197 202.215 171.772 202.215Z" fill="#263238"/>
<path d="M172.358 197.346C172.772 197.346 173.107 197.01 173.107 196.597C173.107 196.183 172.772 195.848 172.358 195.848C171.944 195.848 171.609 196.183 171.609 196.597C171.609 197.01 171.944 197.346 172.358 197.346Z" fill="white"/>
<path d="M146.743 198.176C146.743 200.407 145.466 202.215 143.892 202.215C142.317 202.215 141.041 200.407 141.041 198.176C141.041 195.945 142.317 194.136 143.892 194.136C145.466 194.137 146.743 195.945 146.743 198.176Z" fill="#263238"/>
<path d="M144.64 197.346C145.053 197.346 145.389 197.01 145.389 196.597C145.389 196.183 145.053 195.848 144.64 195.848C144.226 195.848 143.891 196.183 143.891 196.597C143.891 197.01 144.226 197.346 144.64 197.346Z" fill="white"/>
<path d="M228.312 338.355C228.312 338.355 230.927 357.298 228.917 363.532C226.908 369.766 221.626 371.191 222.811 375.679C223.995 380.168 231.095 379.319 235.853 377.879C240.61 376.44 244.976 370.272 244.397 362.918C243.817 355.564 240.48 343.676 237.913 341.77C235.347 339.862 229.666 336.82 228.312 338.355Z" fill="#263238"/>
<path d="M238.772 376.355C238.693 376.101 238.624 375.861 238.539 375.595C236.631 369.664 231.087 367.396 227.533 366.537C225.18 370.393 221.845 372.017 222.811 375.679C223.996 380.167 231.096 379.318 235.854 377.879C236.859 377.575 237.844 377.048 238.772 376.355Z" fill="white" stroke="#263238" stroke-miterlimit="10" stroke-linecap="round" stroke-linejoin="round"/>
<path d="M249.72 234.735L229.014 234.316C229.014 234.316 215.521 220.9 213.874 224.416C210.458 231.708 215.692 245.506 215.692 245.506C215.692 245.506 209.528 259.145 209.384 281.465C209.241 303.785 218.382 327.168 224.233 336.165C230.084 345.162 237.549 353.883 237.549 353.883C237.549 353.883 239.268 361.319 237.827 366.899C236.385 372.479 233.108 374.797 234.151 377.717C235.194 380.637 243.525 381.353 247.15 378.081C250.775 374.81 253.723 367.023 253.723 367.023L255.483 367.233C255.483 367.233 253.565 372.641 258.161 374.856C262.756 377.073 274.039 375.622 278.381 375.423C282.723 375.224 328.962 375.717 344.528 376.153C360.094 376.589 377.828 374.195 383.09 364.064C388.353 353.933 386.511 339.427 381.474 335.753C376.438 332.078 370.687 336.735 370.842 342.682C370.996 348.629 370.681 359.861 365.795 362.295C360.91 364.727 335.581 363.054 327.295 360.734C319.008 358.414 315.88 355.435 315.88 355.435C315.88 355.435 320.595 324.731 318.249 311.015C315.903 297.298 305.689 283.521 296.004 279.556C286.318 275.591 274.06 271.714 267.541 263.662C261.021 255.61 262.428 245.531 262.428 245.531C263.931 243.485 267 237.881 266.145 227.487C265.848 223.877 265.295 223.448 264.653 223.429C264.009 223.412 256.346 227.268 249.72 234.735Z" fill="#19FF80" stroke="#263238" stroke-miterlimit="10" stroke-linecap="round" stroke-linejoin="round"/>
<path d="M270.475 367.579L299.216 366.957" stroke="#263238" stroke-miterlimit="10" stroke-linecap="round" stroke-linejoin="round"/>
<path opacity="0.33" d="M226.566 235.692C226.566 235.692 220.63 229.744 218.121 227.586C215.612 225.428 214.846 224.121 214.324 225.552C213.802 226.983 213.796 232.925 214.789 237.61C215.782 242.296 216.825 245.216 219.236 245.123C221.648 245.03 225.246 242.721 226.45 239.865C227.654 237.007 226.566 235.692 226.566 235.692Z" fill="black"/>
<path opacity="0.33" d="M252.243 236.411C252.243 236.411 258.503 230.805 261.129 228.791C263.754 226.776 264.593 225.515 265.034 226.972C265.475 228.431 265.148 234.364 263.894 238.986C262.64 243.608 261.436 246.465 259.033 246.237C256.63 246.01 253.167 243.503 252.125 240.583C251.084 237.664 252.243 236.411 252.243 236.411Z" fill="black"/>
<path d="M265.481 264.972C264.857 259.189 260.964 267.204 255.239 265.733C249.514 264.262 243.865 247.547 242.869 245.685C241.873 243.822 238.289 240.181 235.291 244.29C232.293 248.4 225.175 263.055 219.908 263.956C216.378 264.56 213.772 261.658 212.436 259.678C211.368 265.279 210.507 272.28 210.455 280.451C210.312 302.77 219.453 326.153 225.304 335.15C231.154 344.147 238.619 352.868 238.619 352.868C238.619 352.868 238.591 348.346 238.985 340.755C239.555 329.764 245.443 316.039 253.106 304.459C260.768 292.883 266.105 270.755 265.481 264.972Z" fill="white"/>
<path d="M250.264 374.091C246.961 369.777 240.533 368.607 237.402 368.292C235.837 372.884 233.199 375.054 234.15 377.716C235.192 380.636 243.523 381.352 247.148 378.081C248.275 377.064 249.336 375.611 250.264 374.091Z" fill="white" stroke="#263238" stroke-miterlimit="10" stroke-linecap="round" stroke-linejoin="round"/>
<path d="M264.757 330.688C265.232 337.175 265.651 348.411 263.509 354.28C260.386 362.841 253.722 367.023 253.722 367.023" stroke="#263238" stroke-miterlimit="10" stroke-linecap="round" stroke-linejoin="round"/>
<path d="M264.31 325.736C264.31 325.736 264.427 326.753 264.575 328.426" stroke="#263238" stroke-miterlimit="10" stroke-linecap="round" stroke-linejoin="round"/>
<path d="M255.483 367.233C255.483 367.233 253.564 372.64 258.16 374.856C260.789 376.124 265.605 376.19 270.059 375.979C270.57 375.307 270.953 374.601 271.084 373.886C271.703 370.496 270.474 367.579 270.474 367.579L255.483 367.233Z" fill="white" stroke="#263238" stroke-miterlimit="10" stroke-linecap="round" stroke-linejoin="round"/>
<path d="M301.853 323.766C298.698 320.956 293.696 317.798 287.105 317.743C275.189 317.643 267.591 330.282 265.541 336.768" stroke="#263238" stroke-miterlimit="10" stroke-linecap="round" stroke-linejoin="round"/>
<path d="M305.742 328.079C305.742 328.079 305.138 327.16 303.972 325.87" stroke="#263238" stroke-miterlimit="10" stroke-linecap="round" stroke-linejoin="round"/>
<path d="M240.794 257.753C240.794 257.753 239.624 256.378 237.658 256.29C235.495 256.193 233.808 257.039 233.96 257.821C234.11 258.604 236.312 260.309 237.168 260.592C238.025 260.876 240.587 258.959 240.794 257.753Z" fill="#19FF80" stroke="#263238" stroke-miterlimit="10" stroke-linecap="round" stroke-linejoin="round"/>
<path d="M231.389 261.649C231.389 261.649 235.434 267.278 237.168 260.592C237.168 260.592 237.785 267.737 243.065 262.107" stroke="#263238" stroke-miterlimit="10" stroke-linecap="round" stroke-linejoin="round"/>
<path d="M249.219 253.008C249.394 253.876 248.457 254.795 247.127 255.063C245.798 255.331 244.578 254.845 244.403 253.978C244.228 253.111 245.164 252.191 246.494 251.923C247.824 251.655 249.044 252.141 249.219 253.008Z" fill="#263238"/>
<path d="M248.186 252.795C248.234 253.034 247.977 253.288 247.61 253.361C247.244 253.435 246.908 253.301 246.86 253.063C246.812 252.824 247.07 252.571 247.436 252.497C247.803 252.423 248.138 252.557 248.186 252.795Z" fill="white"/>
<path d="M229.827 253.81C229.518 254.639 228.237 254.928 226.966 254.455C225.695 253.981 224.914 252.925 225.222 252.096C225.531 251.267 226.812 250.978 228.083 251.451C229.354 251.924 230.135 252.981 229.827 253.81Z" fill="#263238"/>
<path d="M228.936 253.038C228.851 253.267 228.498 253.346 228.148 253.216C227.798 253.086 227.583 252.795 227.668 252.567C227.753 252.338 228.106 252.259 228.456 252.39C228.806 252.519 229.021 252.81 228.936 253.038Z" fill="white"/>
<path d="M228.361 259.165L221.426 258.465" stroke="#263238" stroke-miterlimit="10" stroke-linecap="round" stroke-linejoin="round"/>
<path d="M228.329 260.302L222.973 261.922" stroke="#263238" stroke-miterlimit="10" stroke-linecap="round" stroke-linejoin="round"/>
<path d="M228.659 262.082L225.836 263.52" stroke="#263238" stroke-miterlimit="10" stroke-linecap="round" stroke-linejoin="round"/>
<path d="M245.925 259.657L252.889 259.346" stroke="#263238" stroke-miterlimit="10" stroke-linecap="round" stroke-linejoin="round"/>
<path d="M245.893 260.794L251.151 262.712" stroke="#263238" stroke-miterlimit="10" stroke-linecap="round" stroke-linejoin="round"/>
<path d="M245.465 262.552L248.202 264.147" stroke="#263238" stroke-miterlimit="10" stroke-linecap="round" stroke-linejoin="round"/>
</svg>
