<svg width="157" height="171" viewBox="0 0 157 171" fill="none" xmlns="http://www.w3.org/2000/svg">
<path d="M11.5718 17.3208C11.4795 17.3392 11.4024 17.3772 11.3101 17.3956C11.2223 17.4198 11.1357 17.4484 11.0506 17.4812C7.66558 18.2826 4.70779 20.3322 2.76877 23.2201L2.77094 23.231C1.76085 24.7422 1.05902 26.4379 0.705681 28.2208C0.352346 30.0038 0.354461 31.839 0.711905 33.6211L1.79493 39.0494C1.94105 39.7668 2.36547 40.3971 2.97529 40.8023C3.5851 41.2074 4.33062 41.3545 5.04864 41.2112L24.0492 37.4203L30.5582 70.0446C23.0482 77.955 17.0307 84.3767 14.8014 87.717C13.1751 90.1637 12.5864 93.1558 13.1645 96.0361L26.1717 161.174C27.363 167.145 33.2236 171.056 39.1952 169.864L147.748 148.207C153.719 147.015 157.631 141.155 156.439 135.184L143.454 70.0416C142.858 67.056 141.101 64.5562 138.75 62.9876C135.084 60.5413 127.175 57.0899 117.465 52.9538L109.284 11.9482C107.794 4.4788 100.475 -0.405243 93.0048 1.08511L11.6825 17.31L11.5718 17.3208ZM12.6679 22.7578C17.228 21.848 21.5149 24.718 22.4246 29.2778L22.9661 31.992L6.68214 35.2522L6.14063 32.538C5.68575 30.2581 6.17428 28.0383 7.35304 26.2792C7.96324 25.371 8.74691 24.5924 9.65901 23.9881C10.5711 23.3838 11.5936 22.9657 12.6679 22.7578ZM23.4384 20.609L94.0878 6.51344C98.6479 5.60363 102.946 8.47149 103.855 13.0313L117.489 81.3631L87.8516 113.071C85.3914 115.707 82.791 116.226 79.5077 114.736L41.7053 97.6231L29.036 34.1225C29.0313 34.0971 29.0263 34.0717 29.0208 34.0465C29.0096 33.7533 28.9519 33.4638 28.8497 33.1888L27.8512 28.1839C27.2414 25.1277 25.6131 22.5401 23.4384 20.609ZM52.8241 26.0349L42.0123 28.2033C41.6475 28.268 41.2994 28.4051 40.9886 28.6068C40.6778 28.8084 40.4107 29.0703 40.203 29.3771C39.8959 29.8358 39.733 30.3758 39.7351 30.9278C39.7373 31.4797 39.9045 32.0184 40.2152 32.4747C40.5259 32.9309 40.9659 33.2838 41.4788 33.488C41.9916 33.6923 42.5538 33.7385 43.0931 33.6208L53.9071 31.4633C54.627 31.3196 55.2604 30.8959 55.6679 30.2854C56.0753 29.6748 56.2236 28.9274 56.08 28.2076C55.9364 27.4877 55.5126 26.8544 54.902 26.447C54.2915 26.0395 53.544 25.8913 52.8241 26.0349ZM54.9467 36.9003C54.5825 36.967 54.2354 37.1062 53.9259 37.3095C53.6165 37.5127 53.3509 37.7761 53.1451 38.0838C52.8377 38.5429 52.6747 39.0834 52.6771 39.6359C52.6796 40.1884 52.8473 40.7275 53.1587 41.1838C53.4702 41.6401 53.911 41.9928 54.4246 42.1964C54.9382 42.4001 55.501 42.4453 56.0406 42.3264L94.0308 34.7469C94.7507 34.6032 95.384 34.1795 95.7915 33.569C96.199 32.9584 96.3473 32.211 96.2036 31.4912C96.06 30.7713 95.6363 30.138 95.0257 29.7306C94.4151 29.3231 93.6677 29.1749 92.9478 29.3185L54.9467 36.9003ZM46.2553 49.9231C45.8911 49.9899 45.544 50.129 45.2346 50.3323C44.9251 50.5356 44.6596 50.7989 44.4537 51.1067C44.1463 51.5658 43.9833 52.1063 43.9857 52.6588C43.9882 53.2112 44.1559 53.7503 44.4673 54.2067C44.7788 54.663 45.2197 55.0157 45.7333 55.2193C46.2469 55.4229 46.8097 55.4682 47.3492 55.3493L96.1969 45.6035C96.9167 45.4599 97.5501 45.0362 97.9576 44.4257C98.3651 43.8151 98.5133 43.0677 98.3697 42.3478C98.2261 41.628 97.8024 40.9947 97.1918 40.5872C96.5812 40.1798 95.8337 40.0316 95.1138 40.1752L46.2553 49.9231ZM61.8355 58.6115C59.7615 59.005 57.7867 59.8078 56.0265 60.9731C54.2663 62.1383 52.756 63.6427 51.5838 65.3982L51.5382 65.4524C51.5139 65.4848 51.4904 65.5178 51.4676 65.5512L51.4285 65.5251C50.248 67.2928 49.4273 69.2758 49.0135 71.3607C48.5996 73.4456 48.6007 75.5916 49.0166 77.6761C49.4325 79.7606 50.255 81.7428 51.4373 83.5092C52.6195 85.2757 54.1383 86.7919 55.9068 87.9713L58.1468 89.466L80.5614 104.343C80.864 104.546 81.2035 104.686 81.5606 104.757C81.9177 104.828 82.2852 104.828 82.6423 104.757C82.9993 104.686 83.3388 104.545 83.6412 104.342C83.9437 104.14 84.2032 103.879 84.4049 103.576L99.3964 81.2475L100.889 78.9967C102.069 77.2284 102.889 75.245 103.301 73.1599C103.714 71.0748 103.712 68.9288 103.295 66.8445C102.878 64.7602 102.055 62.7785 100.872 61.0126C99.6886 59.2466 98.1691 57.7312 96.4 56.5527C92.8219 54.1926 88.4578 53.3373 84.2534 54.1719C80.0489 55.0066 76.3425 57.4639 73.9371 61.0118L73.987 61.0357C73.987 61.0357 73.974 61.0552 73.9284 61.0248C70.366 58.6754 66.027 57.8095 61.8355 58.6115ZM62.8752 63.9356C65.5298 63.4342 68.3967 63.9685 70.9016 65.6306L73.1307 67.1275C73.7413 67.5348 74.4886 67.6829 75.2083 67.5393C75.9281 67.3957 76.5613 66.9721 76.9688 66.3617L78.4583 64.1229C79.235 62.9462 80.2373 61.9351 81.4072 61.1482C82.5771 60.3612 83.8915 59.814 85.2742 59.5381C86.6569 59.2622 88.0806 59.2632 89.4629 59.541C90.8453 59.8187 92.1588 60.3677 93.3276 61.1563C98.2983 64.4543 99.5903 70.9585 96.2745 75.9268L94.7883 78.1537L81.3232 98.2024L61.2062 84.8538L58.9662 83.359C57.7916 82.5932 56.7819 81.6005 55.9964 80.439C55.2109 79.2776 54.6655 77.9708 54.3922 76.5956C54.1188 75.2204 54.1231 73.8044 54.4048 72.4309C54.6864 71.0573 55.2398 69.7539 56.0323 68.5972L56.0779 68.5429C56.0991 68.5148 56.1198 68.4862 56.1398 68.4572C56.9017 67.2902 57.8906 66.2884 59.0477 65.5116C60.2048 64.7348 61.5065 64.1988 62.8752 63.9356ZM63.7738 69.0056C61.4394 69.4714 60.2725 71.5725 59.9773 73.4884C59.6833 75.4097 60.0569 77.2825 61.0647 78.9384C61.2534 79.2491 61.5016 79.5197 61.7949 79.7345C62.0882 79.9493 62.4209 80.1043 62.7741 80.1905C63.1273 80.2768 63.494 80.2926 63.8534 80.2372C64.2127 80.1817 64.5576 80.056 64.8683 79.8672C65.1791 79.6785 65.4496 79.4304 65.6645 79.1371C65.8793 78.8438 66.0343 78.5111 66.1206 78.1579C66.2068 77.8047 66.2227 77.438 66.1672 77.0787C66.1117 76.7194 65.986 76.3745 65.7973 76.0638C65.525 75.5314 65.4058 74.9338 65.4529 74.3376C65.466 74.2334 65.4377 74.2898 65.4432 74.2605C65.2547 74.3398 65.0581 74.398 64.8568 74.434C65.4268 74.3202 65.4671 74.1542 65.4432 74.2605C66.0814 73.9937 66.5966 73.4976 66.8872 72.8698C67.1778 72.2421 67.2229 71.5284 67.0135 70.8691C66.804 70.2099 66.3553 69.6529 65.7557 69.308C65.1561 68.9631 64.449 68.8552 63.7738 69.0056ZM31.8968 76.754L35.4989 94.8087L21.406 88.4257C23.4721 85.9081 27.0817 81.9029 31.8968 76.754ZM118.79 59.5927C123.283 61.5049 127.716 63.5571 132.081 65.7463L122.142 76.3934L118.79 59.5927ZM136.847 68.7576C137.393 69.4277 137.84 70.1965 138.025 71.1247L151.011 136.267C151.62 139.323 149.721 142.169 146.665 142.778L38.1122 164.436C35.0558 165.046 32.2102 163.147 31.6004 160.091L18.5933 94.953C18.4741 94.3559 18.5309 93.7914 18.5887 93.2324L77.2178 119.782C79.6594 120.916 82.3987 121.243 85.0389 120.716C87.6791 120.19 90.0831 118.836 91.9025 116.852L136.847 68.7576ZM116.804 120.514C116.439 120.58 116.091 120.719 115.78 120.923C115.47 121.126 115.204 121.39 114.997 121.698C114.69 122.157 114.527 122.696 114.529 123.248C114.531 123.799 114.698 124.338 115.008 124.794C115.318 125.25 115.757 125.603 116.269 125.808C116.781 126.013 117.343 126.06 117.882 125.943L134.168 122.694C134.888 122.55 135.521 122.127 135.929 121.516C136.336 120.906 136.484 120.158 136.341 119.438C136.197 118.718 135.773 118.085 135.163 117.678C134.552 117.27 133.805 117.122 133.085 117.266L116.799 120.515L116.804 120.514ZM108.14 133.531C107.776 133.598 107.429 133.737 107.119 133.941C106.81 134.144 106.544 134.407 106.338 134.715C106.032 135.173 105.869 135.713 105.871 136.264C105.872 136.816 106.039 137.354 106.349 137.81C106.659 138.266 107.098 138.619 107.61 138.824C108.122 139.029 108.684 139.076 109.223 138.96L136.334 133.551C137.054 133.407 137.687 132.983 138.095 132.373C138.502 131.762 138.65 131.015 138.507 130.295C138.363 129.575 137.94 128.942 137.329 128.534C136.718 128.127 135.971 127.979 135.251 128.122L108.14 133.531Z" fill="#33000F"/>
</svg>
