<svg width="332" height="102" viewBox="0 0 332 102" fill="none" xmlns="http://www.w3.org/2000/svg">
<rect width="332" height="102" rx="51" fill="white"/>
<path d="M71.293 45.5C74.5596 45.5 76.893 46.75 78.293 49.25C79.693 51.7167 80.393 54.9333 80.393 58.9C80.393 63.3 79.3263 66.7667 77.193 69.3C75.093 71.8333 71.9596 73.1 67.793 73.1C66.5596 73.1 65.4763 72.9667 64.543 72.7V81L56.893 81.65V46.5L63.143 45.9L63.443 50.4C64.7763 47.1333 67.393 45.5 71.293 45.5ZM68.443 49.3C66.943 49.3 65.9096 49.9667 65.343 51.3C64.8096 52.6 64.543 54.2833 64.543 56.35V68.9C65.6763 69.7 66.8596 70.1 68.093 70.1C69.893 70.1 71.0596 69.0833 71.593 67.05C72.1263 65.0167 72.393 62.3833 72.393 59.15C72.393 56.15 72.143 53.7667 71.643 52C71.1763 50.2 70.1096 49.3 68.443 49.3ZM103.419 64.2C104.286 64.6 104.719 65.4167 104.719 66.65C104.719 68.0167 104.269 69.1833 103.369 70.15C102.469 71.1167 101.302 71.85 99.8691 72.35C98.4691 72.85 97.0191 73.1 95.5191 73.1C91.5191 73.1 88.4858 71.8833 86.4191 69.45C84.3858 67.0167 83.3691 63.6833 83.3691 59.45C83.3691 55.0833 84.4691 51.6667 86.6691 49.2C88.9025 46.7333 92.1191 45.5 96.3191 45.5C99.0191 45.5 101.252 46.1167 103.019 47.35C104.786 48.5833 105.669 50.4 105.669 52.8C105.669 55.7667 104.619 57.8167 102.519 58.95C100.419 60.0833 97.5525 60.65 93.9191 60.65C92.7858 60.65 91.9025 60.6 91.2691 60.5C91.3691 62.8667 91.8191 64.7333 92.6191 66.1C93.4525 67.4667 94.8358 68.15 96.7691 68.15C98.2025 68.15 99.5025 67.8167 100.669 67.15C101.869 66.45 102.786 65.4667 103.419 64.2ZM95.5691 48.45C93.9691 48.45 92.8525 49.4333 92.2191 51.4C91.6191 53.3333 91.3025 55.6 91.2691 58.2H92.2691C94.3691 58.2333 95.9525 57.85 97.0191 57.05C98.1191 56.25 98.6691 54.8833 98.6691 52.95C98.6691 51.6833 98.4025 50.6167 97.8691 49.75C97.3691 48.8833 96.6025 48.45 95.5691 48.45ZM107.021 48.75V47.2C108.621 46.6 110.238 45.7667 111.871 44.7C113.505 43.6333 114.855 42.5 115.921 41.3H118.071V46.5H122.671V48.75H118.021V66.55C118.021 67.5833 118.205 68.3833 118.571 68.95C118.971 69.4833 119.605 69.8333 120.471 70C120.138 70.8667 119.521 71.5333 118.621 72C117.721 72.5 116.721 72.75 115.621 72.75C113.888 72.75 112.571 72.2833 111.671 71.35C110.805 70.4167 110.371 69.0667 110.371 67.3V48.75H107.021ZM134.349 48.25C133.482 48.25 132.782 48.5 132.249 49C131.749 49.5 131.499 50.1667 131.499 51C131.499 52.2667 131.965 53.3167 132.899 54.15C133.832 54.9833 135.249 55.9 137.149 56.9C138.649 57.7333 139.849 58.4667 140.749 59.1C141.649 59.7 142.415 60.4833 143.049 61.45C143.682 62.3833 143.999 63.5167 143.999 64.85C143.999 67.6167 142.999 69.6833 140.999 71.05C138.999 72.4167 136.415 73.1 133.249 73.1C130.649 73.1 128.415 72.6833 126.549 71.85C124.682 71.0167 123.749 69.6167 123.749 67.65C123.749 66.3833 124.182 65.4333 125.049 64.8C125.949 64.1667 127.099 63.85 128.499 63.85C129.599 63.85 130.382 64.0167 130.849 64.35C130.649 65.0833 130.549 65.8667 130.549 66.7C130.549 67.8333 130.815 68.7333 131.349 69.4C131.882 70.0333 132.665 70.35 133.699 70.35C134.765 70.35 135.582 70.05 136.149 69.45C136.715 68.8167 136.999 67.95 136.999 66.85C136.999 65.5833 136.532 64.5333 135.599 63.7C134.665 62.8667 133.265 61.95 131.399 60.95C129.899 60.15 128.682 59.4333 127.749 58.8C126.849 58.1667 126.082 57.3667 125.449 56.4C124.815 55.4333 124.499 54.2833 124.499 52.95C124.499 50.45 125.499 48.5833 127.499 47.35C129.499 46.1167 131.965 45.5 134.899 45.5C137.332 45.5 139.449 45.9 141.249 46.7C143.049 47.5 143.949 48.8167 143.949 50.65C143.949 51.85 143.482 52.7833 142.549 53.45C141.649 54.0833 140.515 54.4 139.149 54.4C138.749 54.4 138.315 54.3667 137.849 54.3C137.415 54.2333 137.082 54.1167 136.849 53.95C137.049 53.0833 137.149 52.2833 137.149 51.55C137.149 50.55 136.899 49.75 136.399 49.15C135.932 48.55 135.249 48.25 134.349 48.25Z" fill="#33000F"/>
<path d="M188.632 66.95C189.166 67.75 189.432 68.6167 189.432 69.55C189.432 70.7167 188.999 71.5833 188.132 72.15C187.266 72.7167 186.116 73 184.682 73C182.616 73 180.266 72.2667 177.632 70.8C175.166 72.3 172.332 73.05 169.132 73.05C166.632 73.05 164.366 72.6667 162.332 71.9C160.332 71.1333 158.732 69.9667 157.532 68.4C156.332 66.8333 155.732 64.9 155.732 62.6C155.732 60.5 156.282 58.7833 157.382 57.45C158.516 56.0833 160.066 55.05 162.032 54.35C160.332 51.1833 159.482 48.45 159.482 46.15C159.482 43.4833 160.516 41.4667 162.582 40.1C164.649 38.7333 167.249 38.0333 170.382 38C173.149 38 175.466 38.5 177.332 39.5C179.232 40.5 180.182 42.1 180.182 44.3C180.182 45.6667 179.716 46.75 178.782 47.55C177.849 48.35 176.699 48.75 175.332 48.75C174.299 48.75 173.466 48.55 172.832 48.15C173.032 47.35 173.132 46.5167 173.132 45.65C173.132 44.35 172.866 43.3333 172.332 42.6C171.799 41.8333 170.966 41.45 169.832 41.45C167.699 41.45 166.632 42.8333 166.632 45.6C166.632 47.5333 167.116 49.65 168.082 51.95C169.082 54.2167 170.399 56.4333 172.032 58.6C173.699 60.7333 175.499 62.5667 177.432 64.1C177.766 62.9 177.932 61.4 177.932 59.6C177.932 57.0667 177.232 55.1167 175.832 53.75C176.232 53.4833 176.732 53.2667 177.332 53.1C177.966 52.9333 178.566 52.85 179.132 52.85C180.999 52.85 182.399 53.3833 183.332 54.45C184.266 55.5167 184.732 57 184.732 58.9C184.732 61.8333 183.849 64.4667 182.082 66.8C183.449 67.3 184.666 67.55 185.732 67.55C186.966 67.55 187.932 67.35 188.632 66.95ZM163.032 60.95C163.032 63.45 163.699 65.45 165.032 66.95C166.399 68.4167 168.299 69.15 170.732 69.15C172.032 69.15 173.149 68.95 174.082 68.55C172.316 67.1833 170.532 65.5333 168.732 63.6C166.932 61.6333 165.332 59.6 163.932 57.5C163.666 57.9 163.449 58.4167 163.282 59.05C163.116 59.65 163.032 60.2833 163.032 60.95ZM198.184 48.75V47.2C199.784 46.6 201.4 45.7667 203.034 44.7C204.667 43.6333 206.017 42.5 207.084 41.3H209.234V46.5H213.834V48.75H209.184V66.55C209.184 67.5833 209.367 68.3833 209.734 68.95C210.134 69.4833 210.767 69.8333 211.634 70C211.3 70.8667 210.684 71.5333 209.784 72C208.884 72.5 207.884 72.75 206.784 72.75C205.05 72.75 203.734 72.2833 202.834 71.35C201.967 70.4167 201.534 69.0667 201.534 67.3V48.75H198.184ZM220.261 35.2C221.628 35.2 222.711 35.5167 223.511 36.15C224.344 36.7833 224.761 37.6667 224.761 38.8C224.761 39.9667 224.328 40.8667 223.461 41.5C222.594 42.1 221.478 42.4 220.111 42.4C218.778 42.4 217.678 42.1 216.811 41.5C215.978 40.8667 215.561 40 215.561 38.9C215.561 37.7333 215.994 36.8333 216.861 36.2C217.761 35.5333 218.894 35.2 220.261 35.2ZM223.861 67C223.861 67.9333 223.978 68.75 224.211 69.45C224.444 70.15 224.844 70.7667 225.411 71.3C225.044 71.7667 224.478 72.1167 223.711 72.35C222.978 72.6167 222.244 72.75 221.511 72.75C219.778 72.75 218.461 72.3167 217.561 71.45C216.661 70.55 216.211 69.2333 216.211 67.5V46.5H223.861V67ZM244.438 45.5C247.704 45.5 250.038 46.75 251.438 49.25C252.838 51.7167 253.538 54.9333 253.538 58.9C253.538 63.3 252.471 66.7667 250.338 69.3C248.238 71.8333 245.104 73.1 240.938 73.1C239.704 73.1 238.621 72.9667 237.688 72.7V81L230.038 81.65V46.5L236.288 45.9L236.588 50.4C237.921 47.1333 240.538 45.5 244.438 45.5ZM241.588 49.3C240.088 49.3 239.054 49.9667 238.488 51.3C237.954 52.6 237.688 54.2833 237.688 56.35V68.9C238.821 69.7 240.004 70.1 241.238 70.1C243.038 70.1 244.204 69.0833 244.738 67.05C245.271 65.0167 245.538 62.3833 245.538 59.15C245.538 56.15 245.288 53.7667 244.788 52C244.321 50.2 243.254 49.3 241.588 49.3ZM267.064 48.25C266.197 48.25 265.497 48.5 264.964 49C264.464 49.5 264.214 50.1667 264.214 51C264.214 52.2667 264.68 53.3167 265.614 54.15C266.547 54.9833 267.964 55.9 269.864 56.9C271.364 57.7333 272.564 58.4667 273.464 59.1C274.364 59.7 275.13 60.4833 275.764 61.45C276.397 62.3833 276.714 63.5167 276.714 64.85C276.714 67.6167 275.714 69.6833 273.714 71.05C271.714 72.4167 269.13 73.1 265.964 73.1C263.364 73.1 261.13 72.6833 259.264 71.85C257.397 71.0167 256.464 69.6167 256.464 67.65C256.464 66.3833 256.897 65.4333 257.764 64.8C258.664 64.1667 259.814 63.85 261.214 63.85C262.314 63.85 263.097 64.0167 263.564 64.35C263.364 65.0833 263.264 65.8667 263.264 66.7C263.264 67.8333 263.53 68.7333 264.064 69.4C264.597 70.0333 265.38 70.35 266.414 70.35C267.48 70.35 268.297 70.05 268.864 69.45C269.43 68.8167 269.714 67.95 269.714 66.85C269.714 65.5833 269.247 64.5333 268.314 63.7C267.38 62.8667 265.98 61.95 264.114 60.95C262.614 60.15 261.397 59.4333 260.464 58.8C259.564 58.1667 258.797 57.3667 258.164 56.4C257.53 55.4333 257.214 54.2833 257.214 52.95C257.214 50.45 258.214 48.5833 260.214 47.35C262.214 46.1167 264.68 45.5 267.614 45.5C270.047 45.5 272.164 45.9 273.964 46.7C275.764 47.5 276.664 48.8167 276.664 50.65C276.664 51.85 276.197 52.7833 275.264 53.45C274.364 54.0833 273.23 54.4 271.864 54.4C271.464 54.4 271.03 54.3667 270.564 54.3C270.13 54.2333 269.797 54.1167 269.564 53.95C269.764 53.0833 269.864 52.2833 269.864 51.55C269.864 50.55 269.614 49.75 269.114 49.15C268.647 48.55 267.964 48.25 267.064 48.25Z" fill="#30FC8B"/>
</svg>
